<svg width="262" height="75" viewBox="0 0 262 75" fill="none" xmlns="http://www.w3.org/2000/svg">
<path d="M6.79496 17.7274C5.55192 17.7233 4.46104 17.4806 3.52233 16.9995C2.58368 16.5023 1.86078 15.8147 1.35365 14.9365C0.84651 14.0583 0.594794 13.0455 0.598499 11.8981L0.61633 6.3761C0.620035 5.22867 0.878286 4.21755 1.39108 3.34272C1.90388 2.46789 2.63118 1.79298 3.57297 1.31798C4.51476 0.842974 5.60718 0.607519 6.85023 0.611607C8.07733 0.615644 9.1523 0.85026 10.0751 1.31546C11.0139 1.76477 11.737 2.41258 12.2442 3.25889C12.7674 4.08932 13.0273 5.05434 13.0237 6.15396C13.0232 6.29738 12.9273 6.38472 12.736 6.41596L9.93862 6.5741L9.89081 6.57394C9.73144 6.57341 9.65204 6.4855 9.65261 6.3102C9.65534 5.46557 9.39457 4.7874 8.87032 4.27571C8.362 3.76406 7.68552 3.50685 6.84089 3.50407C5.98032 3.50124 5.28626 3.75395 4.75871 4.26218C4.2471 4.77047 3.98993 5.44693 3.9872 6.29157L3.9686 12.0526C3.96592 12.8813 4.21874 13.5515 4.72706 14.0631C5.25132 14.5748 5.94373 14.8321 6.8043 14.8349C7.64893 14.8377 8.32705 14.5849 8.83867 14.0766C9.36622 13.5684 9.63133 12.8999 9.63401 12.0712C9.63457 11.8959 9.73047 11.8086 9.92171 11.8092L12.7182 11.9379C12.7979 11.9382 12.8615 11.9623 12.9092 12.0103C12.9728 12.0583 13.0045 12.1142 13.0043 12.1779C13.0007 13.2776 12.7346 14.2488 12.206 15.0917C11.6933 15.9347 10.9661 16.5857 10.0243 17.0447C9.09852 17.5039 8.02207 17.7314 6.79496 17.7274Z" fill="white"/>
<path d="M24.638 17.5948C24.4786 17.5943 24.3673 17.5222 24.304 17.3786L21.3373 10.7471C21.3057 10.6833 21.2579 10.6513 21.1942 10.6511L18.9711 10.6437C18.8914 10.6435 18.8514 10.6832 18.8512 10.7629L18.8301 17.2889C18.8298 17.3685 18.7977 17.4401 18.7338 17.5037C18.6858 17.5513 18.622 17.575 18.5423 17.5748L15.7455 17.5656C15.6658 17.5653 15.5941 17.5412 15.5305 17.4931C15.4829 17.4292 15.4593 17.3574 15.4595 17.2778L15.5117 1.1182C15.512 1.03851 15.5361 0.974846 15.584 0.927194C15.648 0.863658 15.7198 0.83202 15.7995 0.832283L22.6362 0.854771C23.6562 0.858125 24.5479 1.06824 25.3115 1.4851C26.0911 1.90202 26.6868 2.49363 27.0987 3.25994C27.5265 4.02631 27.7388 4.91149 27.7355 5.91549C27.732 6.99917 27.4581 7.93056 26.9138 8.70966C26.3694 9.47283 25.6107 10.0122 24.6376 10.3277C24.5578 10.3593 24.5337 10.415 24.5653 10.4948L27.7945 17.2705C27.8262 17.3344 27.8419 17.3822 27.8418 17.4141C27.8414 17.5416 27.7536 17.6051 27.5783 17.6045L24.638 17.5948ZM18.9934 3.73529C18.9137 3.73502 18.8737 3.77473 18.8735 3.85442L18.8603 7.94212C18.86 8.0218 18.8997 8.06177 18.9794 8.06204L22.1109 8.07234C22.7802 8.07454 23.3227 7.87711 23.7384 7.48007C24.1699 7.08307 24.3867 6.56584 24.3888 5.92838C24.3909 5.29093 24.1774 4.77228 23.7484 4.37246C23.3354 3.95674 22.7942 3.74779 22.1249 3.74559L18.9934 3.73529Z" fill="white"/>
<path d="M30.4291 17.6139C30.3494 17.6136 30.2778 17.5895 30.2142 17.5414C30.1666 17.4775 30.1429 17.4057 30.1432 17.3261L30.1953 1.16649C30.1956 1.08681 30.2197 1.02315 30.2677 0.975493C30.3316 0.911956 30.4034 0.880319 30.4831 0.880581L33.28 0.889781C33.3597 0.890043 33.4233 0.922126 33.4709 0.986029C33.5345 1.03405 33.5662 1.0979 33.5659 1.17758L33.5137 17.3372C33.5135 17.4168 33.4814 17.4884 33.4174 17.552C33.3694 17.5996 33.3056 17.6233 33.2259 17.6231L30.4291 17.6139Z" fill="white"/>
<path d="M47.2324 1.12691C47.3125 0.999685 47.4243 0.936306 47.5677 0.936778L50.3645 0.945977C50.4442 0.946239 50.5079 0.978322 50.5555 1.04223C50.6191 1.09024 50.6507 1.1541 50.6505 1.23378L50.5983 17.3933C50.598 17.473 50.5659 17.5446 50.502 17.6082C50.454 17.6558 50.3902 17.6795 50.3105 17.6793L47.5137 17.6701C47.434 17.6698 47.3623 17.6457 47.2987 17.5976C47.2511 17.5337 47.2275 17.4619 47.2277 17.3823L47.2618 6.84029C47.262 6.77655 47.2461 6.74462 47.2143 6.74452C47.1824 6.74441 47.1504 6.76821 47.1184 6.81592L44.5717 10.7758C44.4916 10.903 44.3798 10.9664 44.2364 10.9659L42.826 10.9613C42.6826 10.9608 42.5713 10.8967 42.492 10.7689L39.9709 6.79241C39.9392 6.74449 39.9074 6.72845 39.8755 6.74428C39.8436 6.74418 39.8275 6.776 39.8273 6.83974L39.7934 17.3578C39.7931 17.4375 39.761 17.5091 39.6971 17.5726C39.6491 17.6203 39.5853 17.644 39.5056 17.6437L36.7087 17.6345C36.6291 17.6343 36.5574 17.6101 36.4938 17.5621C36.4462 17.4982 36.4226 17.4264 36.4228 17.3467L36.475 1.18715C36.4752 1.10747 36.4994 1.0438 36.5473 0.996148C36.6113 0.932612 36.6831 0.900975 36.7628 0.901237L39.5596 0.910437C39.703 0.910908 39.8144 0.975021 39.8937 1.10278L43.4614 6.68436C43.5089 6.78014 43.5567 6.7803 43.6048 6.68483L47.2324 1.12691Z" fill="white"/>
<path d="M53.7968 17.6907C53.7172 17.6905 53.6455 17.6663 53.5819 17.6183C53.5343 17.5544 53.5107 17.4826 53.5109 17.4029L53.5631 1.24336C53.5634 1.16368 53.5875 1.10001 53.6354 1.05236C53.6994 0.98882 53.7712 0.957183 53.8509 0.957445L56.6477 0.966644C56.7274 0.966907 56.7911 0.998989 56.8387 1.06289C56.9023 1.11091 56.9339 1.17476 56.9337 1.25444L56.8815 17.414C56.8812 17.4937 56.8491 17.5653 56.7852 17.6288C56.7372 17.6765 56.6734 17.7002 56.5937 17.6999L53.7968 17.6907Z" fill="white"/>
<path d="M69.4524 1.29562C69.4527 1.21594 69.4768 1.15227 69.5248 1.10462C69.5887 1.04108 69.6605 1.00945 69.7402 1.00971L72.5371 1.01891C72.6167 1.01917 72.6804 1.05125 72.728 1.11516C72.7916 1.16318 72.8233 1.22703 72.823 1.30671L72.7708 17.4663C72.7706 17.546 72.7384 17.6176 72.6745 17.6811C72.6265 17.7288 72.5627 17.7525 72.483 17.7522L69.7818 17.7433C69.6224 17.7428 69.5111 17.6787 69.4478 17.551L63.2895 7.2994C63.2578 7.25148 63.2259 7.23544 63.194 7.25127C63.1621 7.25117 63.1461 7.28299 63.1459 7.34673L63.1611 17.4347C63.1609 17.5144 63.1288 17.586 63.0648 17.6495C63.0169 17.6972 62.953 17.7208 62.8733 17.7206L60.0765 17.7114C59.9968 17.7111 59.9252 17.687 59.8616 17.639C59.814 17.5751 59.7903 17.5033 59.7906 17.4236L59.8427 1.26401C59.843 1.18433 59.8671 1.12066 59.9151 1.07301C59.979 1.00948 60.0509 0.977838 60.1305 0.9781L62.8318 0.986986C62.9911 0.98751 63.1025 1.05162 63.1658 1.17932L69.3003 11.383C69.3321 11.4309 69.3638 11.4549 69.3957 11.455C69.4276 11.4392 69.4437 11.3994 69.4439 11.3357L69.4524 1.29562Z" fill="white"/>
<path d="M86.3248 17.7977C86.1654 17.7972 86.0621 17.7172 86.0148 17.5577L85.3052 15.2126C85.2735 15.1488 85.2338 15.1168 85.186 15.1166L79.3054 15.0973C79.2576 15.0971 79.2177 15.1289 79.1856 15.1925L78.4848 17.5329C78.4365 17.6921 78.3326 17.7714 78.1733 17.7709L75.1374 17.7609C75.0418 17.7606 74.9701 17.7365 74.9225 17.6885C74.8749 17.6246 74.8672 17.5369 74.8994 17.4255L80.115 1.28288C80.1633 1.12368 80.2672 1.04434 80.4265 1.04486L84.1796 1.0572C84.3389 1.05773 84.4423 1.13775 84.4896 1.29727L89.6008 17.4738C89.6166 17.5058 89.6245 17.5456 89.6243 17.5934C89.6239 17.7369 89.536 17.8083 89.3607 17.8077L86.3248 17.7977ZM80.0554 12.3507C80.0391 12.4462 80.0708 12.4942 80.1505 12.4944L84.3577 12.5083C84.4534 12.5086 84.4854 12.4609 84.4538 12.3651L82.3253 5.25838C82.3096 5.19458 82.2858 5.1706 82.2538 5.18643C82.222 5.18632 82.198 5.21015 82.1819 5.2579L80.0554 12.3507Z" fill="white"/>
<path d="M92.0117 17.8164C91.932 17.8162 91.8603 17.792 91.7967 17.744C91.7491 17.6801 91.7255 17.6083 91.7257 17.5286L91.7779 1.36906C91.7782 1.28938 91.8023 1.22571 91.8502 1.17806C91.9142 1.11452 91.986 1.08288 92.0657 1.08314L94.8625 1.09234C94.9422 1.09261 95.0059 1.12469 95.0535 1.18859C95.1171 1.23661 95.1487 1.30046 95.1485 1.38014L95.1051 14.8146C95.1048 14.8943 95.1445 14.9342 95.2242 14.9345L103.041 14.9602C103.121 14.9605 103.184 14.9926 103.232 15.0565C103.296 15.1045 103.327 15.1683 103.327 15.248L103.319 17.5668C103.319 17.6464 103.287 17.7181 103.223 17.7816C103.175 17.8292 103.111 17.8529 103.032 17.8527L92.0117 17.8164Z" fill="white"/>
<path d="M115.186 18.0839C113.975 18.0799 112.915 17.8533 112.009 17.4041C111.118 16.939 110.426 16.2993 109.935 15.4849C109.444 14.6546 109.2 13.6976 109.203 12.6139L109.208 11.1079C109.208 11.0282 109.232 10.9645 109.28 10.9169C109.344 10.8534 109.416 10.8217 109.496 10.822L112.293 10.8312C112.372 10.8314 112.436 10.8635 112.484 10.9274C112.547 10.9754 112.579 11.0393 112.579 11.119L112.574 12.625C112.571 13.3899 112.8 14.0122 113.261 14.4918C113.738 14.9556 114.382 15.1888 115.195 15.1914C115.976 15.194 116.614 14.965 117.11 14.5045C117.621 14.0281 117.878 13.4074 117.881 12.6424L117.917 1.45504C117.917 1.37535 117.941 1.31169 117.989 1.26403C118.053 1.2005 118.125 1.16886 118.205 1.16912L120.977 1.17824C121.057 1.17851 121.121 1.21059 121.168 1.27449C121.232 1.32251 121.264 1.38636 121.263 1.46604L121.227 12.6534C121.224 13.7371 120.966 14.6925 120.453 15.5195C119.94 16.3306 119.229 16.9657 118.319 17.4249C117.41 17.8681 116.365 18.0878 115.186 18.0839Z" fill="white"/>
<path d="M130.198 18.1333C128.971 18.1292 127.888 17.8866 126.949 17.4054C126.027 16.9243 125.304 16.2526 124.78 15.3903C124.273 14.5121 124.022 13.5073 124.025 12.3758L124.06 1.47524C124.061 1.39556 124.085 1.33189 124.133 1.28424C124.197 1.22071 124.269 1.18907 124.348 1.18933L127.145 1.19853C127.225 1.19879 127.288 1.23088 127.336 1.29478C127.4 1.3428 127.431 1.40665 127.431 1.48633L127.396 12.4108C127.393 13.2554 127.646 13.9415 128.154 14.4691C128.678 14.9808 129.363 15.238 130.207 15.2408C131.052 15.2436 131.73 14.9908 132.242 14.4825C132.769 13.9584 133.034 13.274 133.037 12.4293L133.072 1.50489C133.073 1.42521 133.097 1.36154 133.145 1.31389C133.209 1.25035 133.281 1.21871 133.36 1.21897L136.157 1.22817C136.237 1.22844 136.3 1.26052 136.348 1.32442C136.412 1.37244 136.443 1.43629 136.443 1.51597L136.408 12.4165C136.404 13.548 136.138 14.5511 135.609 15.4259C135.097 16.2848 134.369 16.9517 133.427 17.4267C132.502 17.9018 131.425 18.1373 130.198 18.1333Z" fill="white"/>
<path d="M144.897 18.1816C143.622 18.1774 142.507 17.9746 141.552 17.573C140.598 17.1555 139.858 16.5714 139.335 15.8206C138.827 15.054 138.575 14.1687 138.579 13.1647L138.58 12.6388C138.581 12.5591 138.605 12.4955 138.653 12.4478C138.717 12.3843 138.788 12.3526 138.868 12.3529L141.593 12.3619C141.673 12.3621 141.736 12.3942 141.784 12.4581C141.848 12.5061 141.879 12.57 141.879 12.6497L141.878 13.0082C141.876 13.6457 142.169 14.1885 142.757 14.6367C143.345 15.0689 144.142 15.2866 145.146 15.2899C145.99 15.2927 146.62 15.1195 147.036 14.7703C147.451 14.4051 147.66 13.9595 147.662 13.4336C147.663 13.0512 147.536 12.732 147.282 12.4762C147.028 12.2044 146.678 11.9722 146.233 11.7795C145.803 11.5709 145.111 11.2897 144.156 10.936C143.089 10.5659 142.182 10.1884 141.434 9.8035C140.702 9.41862 140.082 8.89864 139.575 8.24356C139.083 7.57261 138.838 6.75107 138.841 5.77894C138.845 4.82276 139.094 3.9869 139.591 3.27139C140.087 2.55587 140.774 2.00832 141.652 1.62873C142.529 1.24914 143.542 1.06123 144.689 1.065C145.901 1.06898 146.976 1.28767 147.915 1.72104C148.869 2.15447 149.608 2.76249 150.132 3.54511C150.671 4.31184 150.939 5.20518 150.936 6.22511L150.935 6.58368C150.934 6.66336 150.902 6.73497 150.838 6.79851C150.79 6.84616 150.727 6.86986 150.647 6.86959L147.898 6.86055C147.818 6.86029 147.747 6.83615 147.683 6.78813C147.635 6.72423 147.612 6.65243 147.612 6.57275L147.613 6.38151C147.615 5.71218 147.338 5.14552 146.781 4.68153C146.241 4.20165 145.493 3.96014 144.537 3.957C143.788 3.95453 143.198 4.11196 142.766 4.42927C142.351 4.74664 142.142 5.18421 142.14 5.74199C142.139 6.1404 142.258 6.47546 142.496 6.74716C142.75 7.01892 143.116 7.26714 143.593 7.49182C144.086 7.70062 144.842 7.98997 145.861 8.35986C146.991 8.77793 147.875 9.14738 148.511 9.46821C149.163 9.78908 149.744 10.2691 150.251 10.9082C150.775 11.5315 151.036 12.3451 151.032 13.3491C151.028 14.8471 150.474 16.0326 149.372 16.9055C148.269 17.7624 146.778 18.1878 144.897 18.1816Z" fill="white"/>
<path d="M164.791 1.32236C164.87 1.32262 164.934 1.3547 164.982 1.41861C165.045 1.46663 165.077 1.53048 165.077 1.61016L165.069 3.95282C165.069 4.0325 165.037 4.10411 164.973 4.16765C164.925 4.2153 164.861 4.23899 164.781 4.23873L160.502 4.22466C160.423 4.22439 160.383 4.2641 160.382 4.34379L160.339 17.7543C160.339 17.834 160.307 17.9056 160.243 17.9691C160.195 18.0168 160.131 18.0405 160.051 18.0402L157.254 18.031C157.175 18.0308 157.103 18.0066 157.04 17.9586C156.992 17.8947 156.968 17.8229 156.969 17.7432L157.012 4.3327C157.012 4.25302 156.972 4.21305 156.893 4.21278L152.733 4.1991C152.654 4.19884 152.582 4.1747 152.518 4.12668C152.471 4.06278 152.447 3.99098 152.447 3.9113L152.455 1.56864C152.455 1.48896 152.479 1.42529 152.527 1.37764C152.591 1.3141 152.663 1.28247 152.743 1.28273L164.791 1.32236Z" fill="white"/>
<path d="M167.461 18.0646C167.381 18.0643 167.309 18.0402 167.246 17.9922C167.198 17.9283 167.175 17.8565 167.175 17.7768L167.227 1.61723C167.227 1.53755 167.251 1.47388 167.299 1.42623C167.363 1.36269 167.435 1.33106 167.515 1.33132L170.312 1.34052C170.391 1.34078 170.455 1.37286 170.503 1.43677C170.566 1.48479 170.598 1.54864 170.598 1.62832L170.545 17.7879C170.545 17.8676 170.513 17.9392 170.449 18.0027C170.401 18.0504 170.337 18.0741 170.258 18.0738L167.461 18.0646Z" fill="white"/>
<path d="M179.334 18.2949C178.09 18.2908 177 18.0482 176.061 17.567C175.122 17.0699 174.399 16.3822 173.892 15.504C173.385 14.6258 173.133 13.613 173.137 12.4656L173.155 6.94363C173.159 5.7962 173.417 4.78508 173.93 3.91025C174.442 3.03542 175.17 2.36051 176.112 1.88551C177.053 1.4105 178.146 1.17505 179.389 1.17914C180.616 1.18317 181.691 1.41779 182.614 1.88299C183.553 2.3323 184.276 2.98011 184.783 3.82642C185.306 4.65685 185.566 5.62187 185.562 6.72149C185.562 6.86491 185.466 6.95225 185.275 6.98349L182.477 7.14163L182.429 7.14147C182.27 7.14095 182.191 7.05303 182.191 6.87773C182.194 6.0331 181.933 5.35493 181.409 4.84324C180.901 4.33159 180.224 4.07438 179.379 4.0716C178.519 4.06877 177.825 4.32148 177.297 4.82971C176.786 5.338 176.529 6.01446 176.526 6.8591L176.507 12.6201C176.505 13.4488 176.757 14.119 177.266 14.6306C177.79 15.1423 178.482 15.3996 179.343 15.4024C180.188 15.4052 180.866 15.1525 181.377 14.6442C181.905 14.1359 182.17 13.4675 182.173 12.6388C182.173 12.4635 182.269 12.3761 182.46 12.3768L185.257 12.5055C185.336 12.5057 185.4 12.5299 185.448 12.5778C185.511 12.6258 185.543 12.6817 185.543 12.7455C185.539 13.8451 185.273 14.8163 184.745 15.6592C184.232 16.5022 183.505 17.1532 182.563 17.6123C181.637 18.0714 180.561 18.2989 179.334 18.2949Z" fill="white"/>
<path d="M199.66 4.04269C199.66 4.12238 199.628 4.19399 199.564 4.25752C199.516 4.30517 199.452 4.32887 199.373 4.32861L191.532 4.30282C191.452 4.30255 191.412 4.34226 191.412 4.42195L191.4 8.12717C191.4 8.20686 191.44 8.24683 191.519 8.24709L196.659 8.264C196.738 8.26426 196.802 8.29634 196.85 8.36024C196.913 8.40826 196.945 8.47211 196.945 8.5518L196.937 10.8706C196.937 10.9502 196.905 11.0218 196.841 11.0854C196.793 11.133 196.729 11.1567 196.649 11.1565L191.51 11.1396C191.43 11.1393 191.39 11.179 191.39 11.2587L191.377 15.1312C191.377 15.2109 191.417 15.2509 191.497 15.2512L199.337 15.277C199.417 15.2772 199.481 15.3093 199.528 15.3732C199.592 15.4212 199.624 15.4851 199.623 15.5648L199.616 17.8835C199.616 17.9632 199.583 18.0348 199.519 18.0983C199.471 18.146 199.408 18.1697 199.328 18.1694L188.284 18.1331C188.204 18.1328 188.133 18.1087 188.069 18.0607C188.022 17.9968 187.998 17.925 187.998 17.8453L188.05 1.68573C188.051 1.60604 188.075 1.54238 188.123 1.49472C188.187 1.43119 188.258 1.39955 188.338 1.39981L199.382 1.43614C199.462 1.4364 199.525 1.46848 199.573 1.53239C199.637 1.58041 199.668 1.64426 199.668 1.72394L199.66 4.04269Z" fill="white"/>
<path d="M220.919 17.8819C220.983 17.9777 221.014 18.0415 221.014 18.0734C221.014 18.185 220.926 18.2405 220.751 18.2399L217.619 18.2296C217.476 18.2291 217.357 18.1729 217.261 18.0611L216.332 17.054C216.301 17.0061 216.245 16.9979 216.165 17.0296C214.68 17.949 213.085 18.4059 211.38 18.4003C209.882 18.3954 208.632 18.0407 207.63 17.3362C206.644 16.6158 206.154 15.5623 206.158 14.1759C206.162 13.1081 206.451 12.2086 207.027 11.4775C207.603 10.7463 208.386 10.0875 209.376 9.50108C209.472 9.43764 209.48 9.38189 209.401 9.33382C208.607 8.35908 208.084 7.60833 207.83 7.08159C207.577 6.53891 207.452 5.96478 207.454 5.3592C207.456 4.61018 207.657 3.92557 208.058 3.30536C208.474 2.66926 209.049 2.17712 209.784 1.82893C210.534 1.46485 211.387 1.28439 212.343 1.28753C213.315 1.29073 214.183 1.47686 214.947 1.84591C215.727 2.21502 216.331 2.73495 216.759 3.40569C217.187 4.0605 217.4 4.81022 217.397 5.65486C217.394 6.64292 217.112 7.50257 216.552 8.23381C216.008 8.94917 215.265 9.60013 214.323 10.1867C214.243 10.2342 214.235 10.29 214.298 10.3539L216.418 12.7753C216.481 12.8393 216.545 12.8395 216.609 12.7759C217.217 12.1086 217.713 11.4728 218.097 10.8684C218.194 10.6935 218.321 10.662 218.48 10.7741L220.556 11.9522C220.731 12.0484 220.77 12.1761 220.674 12.3351C220.002 13.3847 219.297 14.2988 218.562 15.0772C218.514 15.1249 218.53 15.1967 218.609 15.2925L220.919 17.8819ZM212.405 4.34757C211.927 4.346 211.544 4.47223 211.256 4.72627C210.969 4.96437 210.824 5.2906 210.823 5.70495C210.822 5.92806 210.901 6.17534 211.06 6.44678C211.218 6.71822 211.567 7.18153 212.107 7.83671C212.139 7.90056 212.194 7.91668 212.274 7.88507C212.849 7.52042 213.28 7.17123 213.568 6.83751C213.872 6.50384 214.025 6.12983 214.026 5.71548C214.028 5.30114 213.877 4.97394 213.575 4.7339C213.273 4.47792 212.883 4.34914 212.405 4.34757ZM211.508 15.5799C212.273 15.5825 213.135 15.3144 214.093 14.7757C214.188 14.7122 214.197 14.6565 214.117 14.6084L213.379 13.7693L212.831 13.1699C212.481 12.8022 212.076 12.3546 211.616 11.8272C211.584 11.7793 211.529 11.7712 211.449 11.8028C210.874 12.1515 210.435 12.4847 210.131 12.8024C209.827 13.1202 209.65 13.4861 209.601 13.9003C209.585 13.9481 209.577 14.0277 209.577 14.1393C209.575 14.5696 209.749 14.9208 210.099 15.1928C210.465 15.449 210.935 15.5781 211.508 15.5799Z" fill="white"/>
<path d="M7.78556 29.2841C8.83736 29.2875 9.76098 29.5057 10.5564 29.9386C11.3518 30.3715 11.9634 30.9871 12.3911 31.7853C12.8348 32.5677 13.055 33.4688 13.0517 34.4888C13.0485 35.4928 12.8146 36.3765 12.3499 37.1399C11.9012 37.9034 11.2619 38.4989 10.4318 38.9265C9.61767 39.3381 8.67675 39.5422 7.60901 39.5387L4.21455 39.5275C4.13487 39.5273 4.0949 39.567 4.09464 39.6467L4.07495 45.7424C4.0747 45.822 4.04259 45.8937 3.97864 45.9572C3.93068 46.0048 3.86685 46.0285 3.78717 46.0283L0.990325 46.0191C0.910642 46.0188 0.839005 45.9947 0.775414 45.9467C0.72781 45.8828 0.704137 45.811 0.704395 45.7313L0.756652 29.5478C0.756909 29.4681 0.78102 29.4045 0.828983 29.3568C0.892935 29.2933 0.964752 29.2616 1.04443 29.2619L7.78556 29.2841ZM7.25917 36.8363C7.99224 36.8387 8.58256 36.6335 9.03012 36.2206C9.47773 35.7918 9.70264 35.2347 9.70485 34.5495C9.70712 33.8483 9.48583 33.2818 9.041 32.85C8.59617 32.4183 8.00722 32.2012 7.27414 32.1988L4.23824 32.1888C4.15856 32.1885 4.11859 32.2282 4.11834 32.3079L4.10413 36.7064C4.10388 36.7861 4.14359 36.826 4.22327 36.8263L7.25917 36.8363Z" fill="white"/>
<path d="M21.0378 46.348C19.7948 46.3439 18.696 46.0853 17.7415 45.5722C16.8029 45.0591 16.0721 44.3475 15.5491 43.4374C15.0262 42.5114 14.7667 41.4507 14.7705 40.2555L14.787 35.1399C14.7908 33.9606 15.0572 32.9176 15.586 32.011C16.1148 31.1043 16.8502 30.4055 17.792 29.9146C18.7499 29.4078 19.8503 29.1564 21.0933 29.1605C22.3523 29.1646 23.4511 29.4232 24.3897 29.9363C25.3443 30.4335 26.0831 31.1371 26.6061 32.0472C27.129 32.9573 27.3886 34.002 27.3848 35.1813L27.3683 40.2969C27.3644 41.4922 27.0981 42.5511 26.5692 43.4737C26.0403 44.3963 25.2969 45.111 24.3391 45.6178C23.3972 46.1087 22.2968 46.3521 21.0378 46.348ZM21.0472 43.4555C21.9237 43.4584 22.6338 43.1818 23.1774 42.6258C23.721 42.0698 23.9944 41.3297 23.9973 40.4054L24.0143 35.1463C24.0173 34.222 23.7488 33.4801 23.2087 32.9205C22.6847 32.3451 21.9764 32.0559 21.084 32.053C20.2075 32.0501 19.4974 32.3346 18.9537 32.9065C18.426 33.4626 18.1607 34.2028 18.1577 35.1271L18.1407 40.3861C18.1377 41.3104 18.3983 42.0523 18.9224 42.6118C19.4624 43.1714 20.1707 43.4526 21.0472 43.4555Z" fill="white"/>
<path d="M30.2203 46.1152C30.1407 46.115 30.069 46.0908 30.0054 46.0428C29.9578 45.9789 29.9341 45.9071 29.9344 45.8274L29.9866 29.6679C29.9868 29.5882 30.011 29.5245 30.0589 29.4769C30.1229 29.4133 30.1947 29.3817 30.2744 29.3819L33.0712 29.3911C33.1509 29.3914 33.2145 29.4235 33.2621 29.4874C33.3257 29.5354 33.3574 29.5993 33.3571 29.6789L33.3138 43.1134C33.3135 43.1931 33.3532 43.233 33.4329 43.2333L41.2497 43.259C41.3294 43.2593 41.3931 43.2914 41.4407 43.3553C41.5043 43.4033 41.5359 43.4671 41.5357 43.5468L41.5282 45.8656C41.5279 45.9452 41.4958 46.0169 41.4319 46.0804C41.3839 46.128 41.3201 46.1517 41.2404 46.1515L30.2203 46.1152Z" fill="white"/>
<path d="M43.9002 46.1602C43.8205 46.16 43.7488 46.1358 43.6853 46.0878C43.6376 46.0239 43.614 45.9521 43.6142 45.8724L43.6664 29.7129C43.6667 29.6332 43.6908 29.5695 43.7387 29.5219C43.8027 29.4583 43.8745 29.4267 43.9542 29.4269L46.751 29.4361C46.8307 29.4364 46.8944 29.4685 46.942 29.5324C47.0056 29.5804 47.0372 29.6443 47.037 29.7239L46.9848 45.8835C46.9845 45.9632 46.9524 46.0348 46.8885 46.0983C46.8405 46.146 46.7767 46.1697 46.697 46.1694L43.9002 46.1602Z" fill="white"/>
<path d="M55.7729 46.3905C54.5298 46.3864 53.439 46.1438 52.5003 45.6626C51.5616 45.1655 50.8387 44.4778 50.3316 43.5996C49.8244 42.7215 49.5727 41.7087 49.5764 40.5612L49.5943 35.0392C49.598 33.8918 49.8562 32.8807 50.369 32.0059C50.8818 31.131 51.6091 30.4561 52.5509 29.9811C53.4927 29.5061 54.5851 29.2707 55.8282 29.2748C57.0553 29.2788 58.1302 29.5134 59.0531 29.9786C59.9919 30.4279 60.7149 31.0757 61.2221 31.922C61.7454 32.7525 62.0052 33.7175 62.0016 34.8171C62.0012 34.9605 61.9053 35.0479 61.7139 35.0791L58.9165 35.2372L58.8687 35.2371C58.7094 35.2366 58.63 35.1487 58.6305 34.9734C58.6333 34.1287 58.3725 33.4506 57.8482 32.9389C57.3399 32.4272 56.6635 32.17 55.8188 32.1672C54.9582 32.1644 54.2642 32.4171 53.7366 32.9253C53.225 33.4336 52.9679 34.1101 52.9651 34.9547L52.9465 40.7157C52.9438 41.5444 53.1967 42.2146 53.705 42.7263C54.2292 43.238 54.9217 43.4952 55.7822 43.498C56.6269 43.5008 57.305 43.2481 57.8166 42.7398C58.3441 42.2315 58.6093 41.5631 58.6119 40.7344C58.6125 40.5591 58.7084 40.4717 58.8996 40.4724L61.6961 40.6011C61.7758 40.6014 61.8395 40.6255 61.8871 40.6734C61.9507 40.7215 61.9824 40.7773 61.9822 40.8411C61.9786 41.9407 61.7125 42.912 61.1839 43.7549C60.6712 44.5978 59.944 45.2488 59.0023 45.7079C58.0765 46.167 57 46.3946 55.7729 46.3905Z" fill="white"/>
<path d="M76.0998 32.1383C76.0996 32.218 76.0675 32.2896 76.0035 32.3531C75.9555 32.4008 75.8917 32.4245 75.812 32.4242L67.9713 32.3984C67.8916 32.3982 67.8516 32.4379 67.8514 32.5176L67.8394 36.2228C67.8392 36.3025 67.8789 36.3424 67.9586 36.3427L73.0981 36.3596C73.1778 36.3599 73.2414 36.392 73.289 36.4559C73.3526 36.5039 73.3843 36.5677 73.384 36.6474L73.3765 38.9662C73.3763 39.0459 73.3442 39.1175 73.2802 39.181C73.2322 39.2287 73.1684 39.2523 73.0887 39.2521L67.9492 39.2352C67.8695 39.2349 67.8296 39.2746 67.8293 39.3543L67.8168 43.2269C67.8166 43.3065 67.8563 43.3465 67.936 43.3468L75.7767 43.3726C75.8564 43.3728 75.92 43.4049 75.9676 43.4688C76.0312 43.5168 76.0629 43.5807 76.0626 43.6604L76.0551 45.9791C76.0549 46.0588 76.0228 46.1304 75.9588 46.194C75.9109 46.2416 75.847 46.2653 75.7673 46.265L64.7234 46.2287C64.6437 46.2285 64.5721 46.2043 64.5085 46.1563C64.4609 46.0924 64.4372 46.0206 64.4374 45.9409L64.4896 29.7813C64.4899 29.7017 64.514 29.638 64.562 29.5903C64.6259 29.5268 64.6977 29.4952 64.7774 29.4954L75.8214 29.5318C75.9011 29.532 75.9647 29.5641 76.0123 29.628C76.0759 29.676 76.1076 29.7399 76.1073 29.8196L76.0998 32.1383Z" fill="white"/>
<path d="M93.8197 46.3244C93.6603 46.3239 93.557 46.2439 93.5097 46.0844L92.8001 43.7393C92.7684 43.6755 92.7287 43.6435 92.6809 43.6433L86.8003 43.624C86.7525 43.6238 86.7126 43.6556 86.6805 43.7192L85.9797 46.0596C85.9314 46.2188 85.8275 46.2981 85.6682 46.2976L82.6323 46.2876C82.5367 46.2873 82.465 46.2632 82.4174 46.2152C82.3698 46.1513 82.3621 46.0636 82.3943 45.9522L87.6099 29.8096C87.6582 29.6504 87.7621 29.571 87.9214 29.5716L91.6745 29.5839C91.8338 29.5844 91.9372 29.6645 91.9845 29.824L97.0957 46.0005C97.1115 46.0325 97.1194 46.0723 97.1192 46.1201C97.1188 46.2636 97.0309 46.335 96.8556 46.3344L93.8197 46.3244ZM87.5503 40.8774C87.534 40.9729 87.5657 41.0209 87.6454 41.0211L91.8526 41.035C91.9483 41.0353 91.9803 40.9876 91.9487 40.8918L89.8202 33.7851C89.8045 33.7213 89.7807 33.6973 89.7487 33.7131C89.7169 33.713 89.6929 33.7368 89.6768 33.7846L87.5503 40.8774Z" fill="white"/>
<path d="M104.586 46.5511C103.343 46.547 102.252 46.3043 101.313 45.8232C100.375 45.326 99.6519 44.6384 99.1447 43.7602C98.6376 42.882 98.3859 41.8692 98.3896 40.7218L98.4074 35.1998C98.4111 34.0524 98.6694 33.0413 99.1822 32.1664C99.695 31.2916 100.422 30.6167 101.364 30.1417C102.306 29.6667 103.398 29.4312 104.641 29.4353C105.868 29.4394 106.943 29.674 107.866 30.1392C108.805 30.5885 109.528 31.2363 110.035 32.0826C110.559 32.913 110.818 33.8781 110.815 34.9777C110.814 35.1211 110.718 35.2084 110.527 35.2397L107.73 35.3978L107.682 35.3976C107.523 35.3971 107.443 35.3092 107.444 35.1339C107.446 34.2893 107.186 33.6111 106.661 33.0994C106.153 32.5878 105.477 32.3306 104.632 32.3278C103.771 32.325 103.077 32.5777 102.55 33.0859C102.038 33.5942 101.781 34.2706 101.778 35.1153L101.76 40.8763C101.757 41.705 102.01 42.3752 102.518 42.8868C103.042 43.3985 103.735 43.6558 104.595 43.6586C105.44 43.6614 106.118 43.4086 106.63 42.9003C107.157 42.3921 107.422 41.7236 107.425 40.8949C107.426 40.7196 107.522 40.6323 107.713 40.6329L110.509 40.7617C110.589 40.7619 110.653 40.786 110.7 40.834C110.764 40.882 110.796 40.9379 110.795 41.0016C110.792 42.1013 110.526 43.0725 109.997 43.9154C109.484 44.7584 108.757 45.4094 107.815 45.8685C106.89 46.3276 105.813 46.5551 104.586 46.5511Z" fill="white"/>
<path d="M119.13 46.5989C117.887 46.5948 116.796 46.3522 115.857 45.871C114.918 45.3739 114.195 44.6862 113.688 43.808C113.181 42.9299 112.929 41.9171 112.933 40.7696L112.951 35.2476C112.955 34.1002 113.213 33.0891 113.726 32.2143C114.239 31.3394 114.966 30.6645 115.908 30.1895C116.849 29.7145 117.942 29.4791 119.185 29.4832C120.412 29.4872 121.487 29.7218 122.41 30.187C123.349 30.6363 124.072 31.2841 124.579 32.1304C125.102 32.9609 125.362 33.9259 125.358 35.0255C125.358 35.1689 125.262 35.2563 125.071 35.2875L122.273 35.4456L122.225 35.4455C122.066 35.445 121.987 35.3571 121.987 35.1818C121.99 34.3371 121.729 33.659 121.205 33.1473C120.697 32.6356 120.02 32.3784 119.176 32.3756C118.315 32.3728 117.621 32.6255 117.093 33.1337C116.582 33.642 116.325 34.3185 116.322 35.1631L116.303 40.9241C116.301 41.7528 116.553 42.423 117.062 42.9347C117.586 43.4464 118.278 43.7036 119.139 43.7064C119.984 43.7092 120.662 43.4565 121.173 42.9482C121.701 42.4399 121.966 41.7715 121.969 40.9428C121.969 40.7675 122.065 40.6801 122.256 40.6808L125.053 40.8095C125.133 40.8098 125.196 40.8339 125.244 40.8818C125.307 40.9299 125.339 40.9857 125.339 41.0495C125.335 42.1491 125.069 43.1204 124.541 43.9633C124.028 44.8062 123.301 45.4572 122.359 45.9163C121.433 46.3754 120.357 46.603 119.13 46.5989Z" fill="white"/>
<path d="M133.745 46.7187C132.502 46.7146 131.403 46.456 130.448 45.9429C129.51 45.4298 128.779 44.7183 128.256 43.8081C127.733 42.8821 127.474 41.8215 127.477 40.6262L127.494 35.5106C127.498 34.3313 127.764 33.2884 128.293 32.3817C128.822 31.4751 129.557 30.7763 130.499 30.2853C131.457 29.7785 132.557 29.5271 133.8 29.5312C135.059 29.5354 136.158 29.794 137.097 30.307C138.051 30.8042 138.79 31.5078 139.313 32.418C139.836 33.3281 140.095 34.3728 140.092 35.5521L140.075 40.6677C140.071 41.8629 139.805 42.9218 139.276 43.8444C138.747 44.767 138.004 45.4817 137.046 45.9885C136.104 46.4794 135.004 46.7228 133.745 46.7187ZM133.754 43.8262C134.631 43.8291 135.341 43.5526 135.884 42.9966C136.428 42.4406 136.701 41.7004 136.704 40.7761L136.721 35.5171C136.724 34.5928 136.456 33.8508 135.916 33.2913C135.392 32.7158 134.683 32.4266 133.791 32.4237C132.914 32.4208 132.204 32.7053 131.661 33.2773C131.133 33.8333 130.868 34.5735 130.865 35.4978L130.848 40.7568C130.845 41.6812 131.105 42.4231 131.629 42.9826C132.169 43.5421 132.878 43.8234 133.754 43.8262Z" fill="white"/>
<path d="M148.711 46.6962C147.484 46.6922 146.401 46.4496 145.463 45.9684C144.54 45.4872 143.817 44.8155 143.294 43.9532C142.787 43.075 142.535 42.0702 142.539 40.9387L142.574 30.0382C142.574 29.9585 142.598 29.8948 142.646 29.8472C142.71 29.7836 142.782 29.752 142.862 29.7523L145.659 29.7615C145.738 29.7617 145.802 29.7938 145.849 29.8577C145.913 29.9057 145.945 29.9696 145.944 30.0493L145.909 40.9737C145.906 41.8184 146.159 42.5045 146.667 43.032C147.192 43.5437 147.876 43.801 148.721 43.8038C149.565 43.8065 150.244 43.5538 150.755 43.0455C151.283 42.5213 151.548 41.8369 151.551 40.9923L151.586 30.0678C151.586 29.9882 151.61 29.9245 151.658 29.8768C151.722 29.8133 151.794 29.7817 151.874 29.7819L154.671 29.7911C154.75 29.7914 154.814 29.8235 154.862 29.8874C154.925 29.9354 154.957 29.9992 154.957 30.0789L154.921 40.9795C154.918 42.1109 154.651 43.1141 154.123 43.9889C153.61 44.8477 152.883 45.5147 151.941 45.9897C151.015 46.4647 149.939 46.7003 148.711 46.6962Z" fill="white"/>
<path d="M167.337 30.1196C167.337 30.04 167.361 29.9763 167.409 29.9286C167.473 29.8651 167.545 29.8335 167.625 29.8337L170.422 29.8429C170.501 29.8432 170.565 29.8753 170.612 29.9392C170.676 29.9872 170.708 30.051 170.707 30.1307L170.655 46.2903C170.655 46.37 170.623 46.4416 170.559 46.5051C170.511 46.5528 170.447 46.5765 170.368 46.5762L167.666 46.5673C167.507 46.5668 167.396 46.5027 167.332 46.375L161.174 36.1234C161.142 36.0755 161.11 36.0595 161.078 36.0753C161.047 36.0752 161.031 36.107 161.03 36.1708L161.046 46.2587C161.045 46.3384 161.013 46.41 160.949 46.4735C160.901 46.5212 160.838 46.5449 160.758 46.5446L157.961 46.5354C157.881 46.5351 157.81 46.511 157.746 46.463C157.698 46.3991 157.675 46.3273 157.675 46.2476L157.727 30.088C157.727 30.0084 157.752 29.9447 157.8 29.897C157.864 29.8335 157.935 29.8019 158.015 29.8021L160.716 29.811C160.876 29.8115 160.987 29.8756 161.05 30.0033L167.185 40.207C167.217 40.2549 167.248 40.279 167.28 40.2791C167.312 40.2632 167.328 40.2234 167.328 40.1597L167.337 30.1196Z" fill="white"/>
<path d="M185.172 29.8914C185.251 29.8917 185.315 29.9238 185.363 29.9877C185.426 30.0357 185.458 30.0996 185.458 30.1792L185.45 32.5219C185.45 32.6016 185.418 32.6732 185.354 32.7367C185.306 32.7844 185.242 32.8081 185.162 32.8078L180.883 32.7937C180.804 32.7935 180.764 32.8332 180.763 32.9129L180.72 46.3234C180.72 46.4031 180.688 46.4747 180.624 46.5382C180.576 46.5859 180.512 46.6096 180.432 46.6093L177.635 46.6001C177.556 46.5999 177.484 46.5757 177.421 46.5277C177.373 46.4638 177.349 46.392 177.35 46.3123L177.393 32.9018C177.393 32.8221 177.353 32.7821 177.274 32.7819L173.114 32.7682C173.035 32.7679 172.963 32.7438 172.899 32.6958C172.852 32.6319 172.828 32.5601 172.828 32.4804L172.836 30.1377C172.836 30.058 172.86 29.9944 172.908 29.9467C172.972 29.8832 173.044 29.8516 173.124 29.8518L185.172 29.8914Z" fill="white"/>
<path d="M196.652 46.6627C196.492 46.6621 196.389 46.5821 196.342 46.4226L195.632 44.0776C195.601 44.0137 195.561 43.9817 195.513 43.9816L189.632 43.9622C189.585 43.9621 189.545 43.9938 189.513 44.0575L188.812 46.3978C188.764 46.557 188.66 46.6364 188.5 46.6359L185.464 46.6259C185.369 46.6256 185.297 46.6014 185.25 46.5534C185.202 46.4895 185.194 46.4019 185.226 46.2904L190.442 30.1478C190.49 29.9886 190.594 29.9093 190.754 29.9098L194.507 29.9222C194.666 29.9227 194.769 30.0027 194.817 30.1622L199.928 46.3388C199.944 46.3707 199.952 46.4106 199.951 46.4584C199.951 46.6018 199.863 46.6732 199.688 46.6727L196.652 46.6627ZM190.382 41.2156C190.366 41.3112 190.398 41.3591 190.478 41.3594L194.685 41.3732C194.78 41.3735 194.812 41.3258 194.781 41.2301L192.652 34.1233C192.637 34.0595 192.613 34.0355 192.581 34.0514C192.549 34.0513 192.525 34.0751 192.509 34.1229L190.382 41.2156Z" fill="white"/>
<path d="M212 37.9879C211.905 38.0353 211.905 38.0832 212 38.1313C213.511 38.9171 214.264 40.2185 214.258 42.0352C214.253 43.581 213.724 44.7506 212.669 45.544C211.615 46.3214 210.235 46.7073 208.53 46.7017L202.339 46.6814C202.259 46.6811 202.187 46.657 202.124 46.609C202.076 46.5451 202.053 46.4733 202.053 46.3936L202.105 30.234C202.105 30.1543 202.129 30.0907 202.177 30.043C202.241 29.9795 202.313 29.9478 202.393 29.9481L208.393 29.9678C212.17 29.9803 214.053 31.5164 214.043 34.5762C214.038 36.1698 213.357 37.307 212 37.9879ZM205.587 32.8511C205.507 32.8508 205.467 32.8905 205.467 32.9702L205.455 36.6994C205.454 36.779 205.494 36.819 205.574 36.8193L208.371 36.8285C209.12 36.8309 209.702 36.6575 210.117 36.3083C210.533 35.9591 210.742 35.4817 210.744 34.8761C210.746 34.2545 210.54 33.7678 210.127 33.4158C209.714 33.0479 209.132 32.8628 208.383 32.8603L205.587 32.8511ZM208.539 43.7854C209.273 43.7878 209.847 43.6064 210.262 43.2412C210.678 42.8601 210.887 42.3429 210.889 41.6895C210.891 41.0361 210.685 40.5254 210.272 40.1575C209.859 39.7737 209.278 39.5805 208.529 39.5781L205.565 39.5683C205.485 39.568 205.445 39.6078 205.445 39.6874L205.432 43.6556C205.432 43.7353 205.472 43.7753 205.551 43.7755L208.539 43.7854Z" fill="white"/>
<path d="M217.162 46.7301C217.083 46.7299 217.011 46.7057 216.948 46.6577C216.9 46.5938 216.876 46.522 216.876 46.4423L216.929 30.2828C216.929 30.2031 216.953 30.1394 217.001 30.0918C217.065 30.0282 217.137 29.9966 217.216 29.9969L220.013 30.006C220.093 30.0063 220.157 30.0384 220.204 30.1023C220.268 30.1503 220.299 30.2142 220.299 30.2939L220.247 46.4534C220.247 46.5331 220.215 46.6047 220.151 46.6682C220.103 46.7159 220.039 46.7396 219.959 46.7393L217.162 46.7301Z" fill="white"/>
<path d="M223.442 46.7508C223.362 46.7505 223.291 46.7264 223.227 46.6784C223.18 46.6145 223.156 46.5427 223.156 46.463L223.208 30.3034C223.209 30.2237 223.233 30.1601 223.281 30.1124C223.345 30.0489 223.416 30.0172 223.496 30.0175L226.293 30.0267C226.373 30.027 226.436 30.059 226.484 30.123C226.547 30.171 226.579 30.2348 226.579 30.3145L226.535 43.7489C226.535 43.8286 226.575 43.8686 226.655 43.8689L234.471 43.8946C234.551 43.8948 234.615 43.9269 234.662 43.9908C234.726 44.0388 234.758 44.1027 234.757 44.1824L234.75 46.5011C234.75 46.5808 234.718 46.6524 234.654 46.716C234.606 46.7636 234.542 46.7873 234.462 46.787L223.442 46.7508Z" fill="white"/>
<path d="M246.451 30.093C246.53 30.0933 246.594 30.1254 246.642 30.1893C246.705 30.2373 246.737 30.3011 246.737 30.3808L246.729 32.7235C246.729 32.8032 246.697 32.8748 246.633 32.9383C246.585 32.9859 246.521 33.0096 246.441 33.0094L242.162 32.9953C242.083 32.995 242.043 33.0348 242.042 33.1144L241.999 46.525C241.999 46.6047 241.967 46.6763 241.903 46.7398C241.855 46.7874 241.791 46.8111 241.711 46.8109L238.915 46.8017C238.835 46.8014 238.763 46.7773 238.7 46.7293C238.652 46.6654 238.628 46.5936 238.629 46.5139L238.672 33.1033C238.672 33.0237 238.632 32.9837 238.553 32.9834L234.393 32.9698C234.314 32.9695 234.242 32.9453 234.178 32.8973C234.131 32.8334 234.107 32.7616 234.107 32.682L234.115 30.3393C234.115 30.2596 234.139 30.1959 234.187 30.1483C234.251 30.0848 234.323 30.0531 234.403 30.0534L246.451 30.093Z" fill="white"/>
<path d="M253.352 46.8253C253.272 46.825 253.201 46.8009 253.137 46.7528C253.09 46.6889 253.066 46.6171 253.066 46.5375L253.086 40.4896C253.086 40.4258 253.078 40.378 253.062 40.3461L248.17 30.4333C248.138 30.3695 248.122 30.3216 248.123 30.2897C248.123 30.1623 248.211 30.0988 248.386 30.0994L251.398 30.1093C251.557 30.1098 251.669 30.1819 251.732 30.3255L254.7 36.694C254.747 36.7898 254.795 36.7899 254.843 36.6945L257.852 30.3457C257.916 30.2024 258.028 30.1311 258.187 30.1316L261.247 30.1417C261.358 30.142 261.43 30.1742 261.462 30.238C261.509 30.286 261.509 30.3657 261.461 30.4771L256.457 40.3572C256.441 40.3891 256.433 40.4368 256.432 40.5006L256.413 46.5485C256.413 46.6282 256.381 46.6998 256.317 46.7633C256.269 46.811 256.205 46.8346 256.125 46.8344L253.352 46.8253Z" fill="white"/>
<path d="M7.69352 57.7858C8.74533 57.7893 9.66895 58.0075 10.4644 58.4404C11.2598 58.8733 11.8714 59.4888 12.2991 60.2871C12.7428 61.0694 12.963 61.9706 12.9597 62.9905C12.9565 63.9945 12.7225 64.8782 12.2579 65.6416C11.8092 66.4051 11.1698 67.0007 10.3397 67.4282C9.52564 67.8399 8.58472 68.044 7.51698 68.0405L4.12251 68.0293C4.04283 68.029 4.00286 68.0687 4.0026 68.1484L3.98292 74.2441C3.98266 74.3238 3.95056 74.3954 3.88661 74.4589C3.83864 74.5066 3.77482 74.5303 3.69514 74.53L0.898291 74.5208C0.818609 74.5206 0.746972 74.4964 0.68338 74.4484C0.635777 74.3845 0.612104 74.3127 0.612361 74.233L0.664618 58.0496C0.664876 57.9699 0.688986 57.9062 0.73695 57.8585C0.800901 57.795 0.872718 57.7634 0.952401 57.7636L7.69352 57.7858ZM7.16713 65.338C7.90021 65.3405 8.49053 65.1352 8.93809 64.7223C9.3857 64.2935 9.61061 63.7365 9.61282 63.0512C9.61508 62.35 9.3938 61.7835 8.94897 61.3518C8.50414 60.92 7.91518 60.7029 7.18211 60.7005L4.14621 60.6905C4.06653 60.6903 4.02656 60.73 4.0263 60.8097L4.0121 65.2081C4.01184 65.2878 4.05155 65.3278 4.13124 65.3281L7.16713 65.338Z" fill="white"/>
<path d="M24.1738 74.5974C24.0144 74.5969 23.9031 74.5248 23.8398 74.3811L20.8731 67.7497C20.8415 67.6859 20.7937 67.6538 20.73 67.6536L18.5069 67.6463C18.4272 67.646 18.3872 67.6858 18.387 67.7654L18.3659 74.2914C18.3656 74.3711 18.3335 74.4427 18.2696 74.5063C18.2216 74.5539 18.1578 74.5776 18.0781 74.5773L15.2813 74.5681C15.2016 74.5679 15.1299 74.5437 15.0663 74.4957C15.0187 74.4318 14.9951 74.36 14.9953 74.2803L15.0475 58.1208C15.0478 58.0411 15.0719 57.9774 15.1198 57.9298C15.1838 57.8662 15.2556 57.8346 15.3353 57.8349L22.172 57.8573C23.192 57.8607 24.0837 58.0708 24.8473 58.4877C25.6269 58.9046 26.2226 59.4962 26.6345 60.2625C27.0623 61.0289 27.2746 61.9141 27.2713 62.9181C27.2678 64.0017 26.9939 64.9331 26.4496 65.7122C25.9052 66.4754 25.1465 67.0147 24.1734 67.3303C24.0936 67.3619 24.0695 67.4176 24.1011 67.4974L27.3303 74.2731C27.362 74.3369 27.3777 74.3848 27.3776 74.4167C27.3772 74.5442 27.2894 74.6076 27.1141 74.6071L24.1738 74.5974ZM18.5292 60.7379C18.4495 60.7376 18.4095 60.7773 18.4093 60.857L18.3961 64.9447C18.3958 65.0244 18.4355 65.0643 18.5152 65.0646L21.6467 65.0749C22.316 65.0771 22.8585 64.8797 23.2742 64.4826C23.7057 64.0856 23.9225 63.5684 23.9246 62.931C23.9267 62.2935 23.7132 61.7749 23.2842 61.375C22.8712 60.9593 22.33 60.7504 21.6607 60.7482L18.5292 60.7379Z" fill="white"/>
<path d="M35.6295 74.898C34.3864 74.8939 33.2876 74.6353 32.3331 74.1222C31.3945 73.6092 30.6637 72.8976 30.1407 71.9875C29.6178 71.0614 29.3583 70.0008 29.3621 68.8055L29.3786 63.6899C29.3825 62.5106 29.6488 61.4677 30.1776 60.561C30.7064 59.6544 31.4418 58.9556 32.3836 58.4646C33.3415 57.9578 34.4419 57.7065 35.685 57.7105C36.9439 57.7147 38.0427 57.9733 38.9813 58.4863C39.9359 58.9835 40.6747 59.6872 41.1977 60.5973C41.7206 61.5074 41.9802 62.5521 41.9764 63.7314L41.9599 68.847C41.956 70.0422 41.6897 71.1011 41.1608 72.0237C40.6319 72.9463 39.8885 73.661 38.9307 74.1678C37.9888 74.6588 36.8884 74.9022 35.6295 74.898ZM35.6388 72.0055C36.5153 72.0084 37.2254 71.7319 37.769 71.1759C38.3126 70.6199 38.586 69.8797 38.5889 68.9554L38.6059 63.6964C38.6089 62.7721 38.3404 62.0301 37.8004 61.4706C37.2763 60.8951 36.5681 60.6059 35.6756 60.603C34.7991 60.6001 34.089 60.8847 33.5453 61.4566C33.0176 62.0126 32.7523 62.7528 32.7493 63.6771L32.7323 68.9362C32.7293 69.8605 32.9899 70.6024 33.514 71.1619C34.054 71.7214 34.7623 72.0027 35.6388 72.0055Z" fill="white"/>
<path d="M49.7073 74.8726C48.4961 74.8686 47.4371 74.642 46.5301 74.1928C45.6392 73.7277 44.948 73.088 44.4566 72.2736C43.9653 71.4433 43.7213 70.4863 43.7248 69.4026L43.7297 67.8966C43.7299 67.8169 43.7541 67.7533 43.802 67.7056C43.866 67.6421 43.9378 67.6104 44.0175 67.6107L46.8143 67.6199C46.894 67.6202 46.9576 67.6522 47.0052 67.7161C47.0688 67.7642 47.1005 67.828 47.1002 67.9077L47.0954 69.4137C47.0929 70.1786 47.322 70.8009 47.7826 71.2805C48.2592 71.7443 48.9039 71.9775 49.7166 71.9801C50.4975 71.9827 51.1357 71.7537 51.6313 71.2932C52.1428 70.8168 52.3998 70.1961 52.4022 69.4311L52.4383 58.2438C52.4386 58.1641 52.4627 58.1004 52.5107 58.0528C52.5746 57.9892 52.6464 57.9576 52.7261 57.9578L55.4991 57.967C55.5788 57.9672 55.6424 57.9993 55.69 58.0632C55.7536 58.1112 55.7853 58.1751 55.785 58.2548L55.7489 69.4422C55.7454 70.5258 55.4873 71.4812 54.9747 72.3082C54.4621 73.1193 53.7508 73.7544 52.841 74.2136C51.9312 74.6568 50.8866 74.8765 49.7073 74.8726Z" fill="white"/>
<path d="M70.3117 60.6213C70.3115 60.701 70.2794 60.7726 70.2154 60.8362C70.1675 60.8838 70.1037 60.9075 70.024 60.9072L62.1832 60.8814C62.1035 60.8812 62.0636 60.9209 62.0633 61.0006L62.0514 64.7058C62.0511 64.7855 62.0908 64.8255 62.1705 64.8257L67.31 64.8426C67.3897 64.8429 67.4533 64.875 67.5009 64.9389C67.5645 64.9869 67.5962 65.0507 67.5959 65.1304L67.5884 67.4492C67.5882 67.5289 67.5561 67.6005 67.4921 67.664C67.4442 67.7117 67.3803 67.7354 67.3007 67.7351L62.1612 67.7182C62.0815 67.7179 62.0415 67.7576 62.0412 67.8373L62.0287 71.7099C62.0285 71.7896 62.0682 71.8295 62.1479 71.8298L69.9886 71.8556C70.0683 71.8558 70.1319 71.8879 70.1795 71.9518C70.2431 71.9998 70.2748 72.0637 70.2745 72.1434L70.2671 74.4621C70.2668 74.5418 70.2347 74.6134 70.1707 74.677C70.1228 74.7246 70.059 74.7483 69.9793 74.748L58.9353 74.7117C58.8556 74.7115 58.784 74.6873 58.7204 74.6393C58.6728 74.5754 58.6491 74.5036 58.6494 74.4239L58.7016 58.2644C58.7018 58.1847 58.7259 58.121 58.7739 58.0734C58.8378 58.0098 58.9097 57.9782 58.9893 57.9784L70.0333 58.0148C70.113 58.015 70.1766 58.0471 70.2242 58.111C70.2878 58.159 70.3195 58.2229 70.3192 58.3026L70.3117 60.6213Z" fill="white"/>
<path d="M78.4884 74.9673C77.2453 74.9632 76.1544 74.7206 75.2157 74.2394C74.2771 73.7422 73.5542 73.0546 73.047 72.1764C72.5399 71.2982 72.2882 70.2854 72.2919 69.138L72.3097 63.616C72.3134 62.4686 72.5717 61.4575 73.0845 60.5826C73.5973 59.7078 74.3246 59.0329 75.2664 58.5579C76.2082 58.0829 77.3006 57.8474 78.5436 57.8515C79.7707 57.8556 80.8457 58.0902 81.7685 58.5554C82.7073 59.0047 83.4303 59.6525 83.9376 60.4988C84.4608 61.3292 84.7207 62.2943 84.7171 63.3939C84.7166 63.5373 84.6207 63.6246 84.4294 63.6559L81.632 63.814L81.5842 63.8139C81.4248 63.8133 81.3454 63.7254 81.346 63.5501C81.3487 62.7055 81.088 62.0273 80.5637 61.5156C80.0554 61.004 79.3789 60.7468 78.5343 60.744C77.6737 60.7412 76.9796 60.9939 76.4521 61.5021C75.9405 62.0104 75.6833 62.6868 75.6806 63.5315L75.662 69.2925C75.6593 70.1212 75.9121 70.7914 76.4205 71.303C76.9447 71.8147 77.6371 72.072 78.4977 72.0748C79.3423 72.0776 80.0204 71.8248 80.5321 71.3165C81.0596 70.8083 81.3247 70.1398 81.3274 69.3111C81.328 69.1359 81.4239 69.0485 81.6151 69.0491L84.4116 69.1779C84.4912 69.1781 84.5549 69.2022 84.6026 69.2502C84.6662 69.2982 84.6979 69.3541 84.6976 69.4179C84.6941 70.5175 84.428 71.4887 83.8994 72.3316C83.3867 73.1746 82.6595 73.8256 81.7177 74.2847C80.7919 74.7438 79.7155 74.9713 78.4884 74.9673Z" fill="white"/>
<path d="M98.5652 58.1086C98.6449 58.1089 98.7086 58.141 98.7562 58.2049C98.8198 58.2529 98.8514 58.3167 98.8512 58.3964L98.8436 60.7391C98.8433 60.8188 98.8112 60.8904 98.7473 60.9539C98.6993 61.0016 98.6355 61.0253 98.5558 61.025L94.2769 61.0109C94.1972 61.0107 94.1572 61.0504 94.157 61.1301L94.1137 74.5406C94.1134 74.6203 94.0813 74.6919 94.0173 74.7554C93.9694 74.8031 93.9056 74.8268 93.8259 74.8265L91.029 74.8173C90.9493 74.817 90.8777 74.7929 90.8141 74.7449C90.7665 74.681 90.7428 74.6092 90.7431 74.5295L90.7864 61.119C90.7867 61.0393 90.7469 60.9993 90.6673 60.999L86.5078 60.9854C86.4282 60.9851 86.3565 60.961 86.2929 60.9129C86.2453 60.849 86.2217 60.7772 86.2219 60.6976L86.2295 58.3549C86.2297 58.2752 86.2538 58.2116 86.3018 58.1639C86.3658 58.1004 86.4376 58.0687 86.5173 58.069L98.5652 58.1086Z" fill="white"/>
</svg>
