<svg width="262" height="75" viewBox="0 0 262 75" fill="none" xmlns="http://www.w3.org/2000/svg">
<path d="M6.54179 17.2187C5.29874 17.2146 4.20787 16.972 3.26916 16.4908C2.3305 15.9937 1.60761 15.306 1.10047 14.4278C0.593336 13.5497 0.34162 12.5369 0.345325 11.3894L0.363156 5.86745C0.366861 4.72003 0.625112 3.7089 1.13791 2.83407C1.65071 1.95925 2.378 1.28433 3.3198 0.809331C4.26159 0.33433 5.35401 0.0988745 6.59705 0.102963C7.82416 0.107 8.89913 0.341616 9.82195 0.806814C10.7608 1.25613 11.4838 1.90394 11.991 2.75025C12.5142 3.58067 12.7741 4.5457 12.7705 5.64531C12.7701 5.78874 12.6742 5.87608 12.4828 5.90732L9.68544 6.06545L9.63763 6.0653C9.47827 6.06477 9.39887 5.97686 9.39944 5.80156C9.40216 4.95692 9.1414 4.27876 8.61714 3.76706C8.10882 3.25542 7.43235 2.99821 6.58771 2.99543C5.72715 2.9926 5.03309 3.2453 4.50554 3.75354C3.99392 4.26183 3.73675 4.93829 3.73403 5.78292L3.71542 11.544C3.71275 12.3726 3.96557 13.0428 4.47389 13.5545C4.99814 14.0662 5.69056 14.3234 6.55113 14.3263C7.39576 14.329 8.07388 14.0763 8.58549 13.568C9.11304 13.0597 9.37816 12.3913 9.38083 11.5626C9.3814 11.3873 9.4773 11.3 9.66854 11.3006L12.465 11.4293C12.5447 11.4296 12.6084 11.4537 12.656 11.5016C12.7196 11.5497 12.7513 11.6055 12.7511 11.6693C12.7475 12.7689 12.4814 13.7402 11.9528 14.5831C11.4401 15.426 10.7129 16.077 9.77116 16.5361C8.84535 16.9952 7.76889 17.2228 6.54179 17.2187Z" fill="white"/>
<path d="M24.3848 17.0862C24.2255 17.0856 24.1141 17.0136 24.0509 16.8699L21.0841 10.2385C21.0525 10.1747 21.0048 10.1426 20.941 10.1424L18.7179 10.1351C18.6382 10.1348 18.5982 10.1745 18.598 10.2542L18.5769 16.7802C18.5767 16.8599 18.5445 16.9315 18.4806 16.995C18.4326 17.0427 18.3688 17.0664 18.2891 17.0661L15.4923 17.0569C15.4126 17.0567 15.341 17.0325 15.2774 16.9845C15.2298 16.9206 15.2061 16.8488 15.2063 16.7691L15.2585 0.609552C15.2588 0.52987 15.2829 0.466202 15.3309 0.41855C15.3948 0.355013 15.4666 0.323376 15.5463 0.323638L22.3831 0.346127C23.403 0.349481 24.2948 0.559591 25.0584 0.976455C25.8379 1.39337 26.4336 1.98499 26.8455 2.7513C27.2733 3.51766 27.4856 4.40285 27.4824 5.40684C27.4789 6.49052 27.2049 7.42191 26.6606 8.20102C26.1163 8.96419 25.3575 9.50354 24.3844 9.81907C24.3046 9.85068 24.2805 9.90638 24.3121 9.98616L27.5413 16.7619C27.573 16.8257 27.5888 16.8736 27.5887 16.9055C27.5883 17.033 27.5004 17.0964 27.3251 17.0958L24.3848 17.0862ZM18.7402 3.22664C18.6605 3.22638 18.6205 3.26609 18.6203 3.34577L18.6071 7.43347C18.6068 7.51316 18.6465 7.55313 18.7262 7.55339L21.8577 7.56369C22.5271 7.56589 23.0696 7.36847 23.4852 6.97142C23.9168 6.57443 24.1336 6.0572 24.1356 5.41974C24.1377 4.78228 23.9242 4.26364 23.4952 3.86381C23.0822 3.4481 22.541 3.23914 21.8717 3.23694L18.7402 3.22664Z" fill="white"/>
<path d="M30.1759 17.1052C30.0962 17.105 30.0246 17.0808 29.961 17.0328C29.9134 16.9689 29.8897 16.8971 29.89 16.8174L29.9422 0.657851C29.9424 0.578168 29.9665 0.514501 30.0145 0.466849C30.0785 0.403312 30.1503 0.371675 30.2299 0.371937L33.0268 0.381137C33.1065 0.381399 33.1701 0.413482 33.2177 0.477385C33.2813 0.525404 33.313 0.589255 33.3127 0.668937L33.2605 16.8285C33.2603 16.9082 33.2282 16.9798 33.1642 17.0433C33.1163 17.091 33.0524 17.1147 32.9728 17.1144L30.1759 17.1052Z" fill="white"/>
<path d="M46.9792 0.61827C47.0593 0.491041 47.1711 0.427662 47.3145 0.428133L50.1114 0.437333C50.191 0.437595 50.2547 0.469678 50.3023 0.533581C50.3659 0.5816 50.3976 0.645451 50.3973 0.725133L50.3451 16.8847C50.3449 16.9644 50.3127 17.036 50.2488 17.0995C50.2008 17.1472 50.137 17.1709 50.0573 17.1706L47.2605 17.1614C47.1808 17.1612 47.1092 17.137 47.0456 17.089C46.998 17.0251 46.9743 16.9533 46.9746 16.8736L47.0086 6.33165C47.0088 6.2679 46.993 6.23598 46.9611 6.23587C46.9292 6.23577 46.8973 6.25957 46.8652 6.30727L44.3185 10.2671C44.2384 10.3943 44.1267 10.4577 43.9832 10.4573L42.5729 10.4526C42.4294 10.4521 42.3181 10.388 42.2388 10.2603L39.7177 6.28376C39.686 6.23585 39.6542 6.21981 39.6223 6.23564C39.5904 6.23553 39.5744 6.26735 39.5742 6.3311L39.5402 16.8492C39.5399 16.9288 39.5078 17.0005 39.4439 17.064C39.3959 17.1116 39.3321 17.1353 39.2524 17.1351L36.4556 17.1259C36.3759 17.1256 36.3042 17.1015 36.2407 17.0535C36.1931 16.9896 36.1694 16.9178 36.1696 16.8381L36.2218 0.678506C36.2221 0.598824 36.2462 0.535157 36.2941 0.487504C36.3581 0.423968 36.4299 0.392331 36.5096 0.392593L39.3064 0.401793C39.4499 0.402264 39.5612 0.466377 39.6405 0.594131L43.2082 6.17572C43.2557 6.27149 43.3035 6.27165 43.3516 6.17619L46.9792 0.61827Z" fill="white"/>
<path d="M53.5437 17.1821C53.464 17.1818 53.3924 17.1577 53.3288 17.1097C53.2812 17.0458 53.2575 16.974 53.2577 16.8943L53.3099 0.734714C53.3102 0.655032 53.3343 0.591364 53.3823 0.543712C53.4462 0.480176 53.518 0.448539 53.5977 0.448801L56.3946 0.458C56.4742 0.458262 56.5379 0.490345 56.5855 0.554248C56.6491 0.602268 56.6807 0.666119 56.6805 0.745801L56.6283 16.9054C56.628 16.9851 56.5959 17.0567 56.532 17.1202C56.484 17.1679 56.4202 17.1915 56.3405 17.1913L53.5437 17.1821Z" fill="white"/>
<path d="M69.1993 0.786979C69.1995 0.707296 69.2236 0.643629 69.2716 0.595977C69.3355 0.53244 69.4074 0.500803 69.487 0.501065L72.2839 0.510265C72.3636 0.510527 72.4272 0.54261 72.4748 0.606513C72.5384 0.654532 72.5701 0.718383 72.5698 0.798065L72.5176 16.9576C72.5174 17.0373 72.4853 17.1089 72.4213 17.1725C72.3734 17.2201 72.3095 17.2438 72.2298 17.2435L69.5286 17.2347C69.3693 17.2341 69.2579 17.17 69.1946 17.0423L63.0363 6.79075C63.0046 6.74284 62.9728 6.7268 62.9408 6.74263C62.909 6.74252 62.8929 6.77434 62.8927 6.83809L62.908 16.926C62.9077 17.0057 62.8756 17.0773 62.8116 17.1409C62.7637 17.1885 62.6999 17.2122 62.6202 17.2119L59.8233 17.2027C59.7436 17.2025 59.672 17.1783 59.6084 17.1303C59.5608 17.0664 59.5371 16.9946 59.5374 16.9149L59.5896 0.75537C59.5898 0.675687 59.6139 0.61202 59.6619 0.564368C59.7259 0.500831 59.7977 0.469194 59.8774 0.469456L62.5786 0.478341C62.738 0.478866 62.8493 0.542979 62.9126 0.67068L69.0472 10.8744C69.0789 10.9223 69.1107 10.9463 69.1425 10.9464C69.1745 10.9306 69.1905 10.8908 69.1907 10.827L69.1993 0.786979Z" fill="white"/>
<path d="M86.0716 17.2891C85.9122 17.2886 85.8089 17.2085 85.7616 17.049L85.052 14.704C85.0204 14.6401 84.9806 14.6081 84.9328 14.608L79.0523 14.5886C79.0045 14.5885 78.9645 14.6202 78.9324 14.6839L78.2316 17.0242C78.1833 17.1834 78.0795 17.2628 77.9201 17.2623L74.8842 17.2523C74.7886 17.252 74.717 17.2278 74.6693 17.1799C74.6217 17.116 74.614 17.0283 74.6462 16.9168L79.8618 0.77424C79.9102 0.615033 80.014 0.535692 80.1734 0.536216L83.9264 0.548561C84.0858 0.549085 84.1891 0.629108 84.2364 0.78863L89.3476 16.9652C89.3635 16.9971 89.3713 17.037 89.3711 17.0848C89.3707 17.2282 89.2828 17.2996 89.1075 17.2991L86.0716 17.2891ZM79.8022 11.842C79.7859 11.9376 79.8177 11.9855 79.8973 11.9858L84.1046 11.9996C84.2002 11.9999 84.2322 11.9522 84.2007 11.8565L82.0722 4.74973C82.0564 4.68593 82.0326 4.66195 82.0007 4.67778C81.9688 4.67768 81.9448 4.7015 81.9287 4.74926L79.8022 11.842Z" fill="white"/>
<path d="M91.7585 17.3078C91.6788 17.3075 91.6072 17.2834 91.5436 17.2354C91.496 17.1715 91.4723 17.0997 91.4726 17.02L91.5247 0.860414C91.525 0.780731 91.5491 0.717064 91.5971 0.669412C91.661 0.605875 91.7328 0.574238 91.8125 0.5745L94.6094 0.5837C94.689 0.583962 94.7527 0.616045 94.8003 0.679948C94.8639 0.727967 94.8956 0.791818 94.8953 0.8715L94.8519 14.3059C94.8517 14.3856 94.8914 14.4256 94.9711 14.4259L102.788 14.4516C102.868 14.4518 102.931 14.4839 102.979 14.5478C103.042 14.5958 103.074 14.6597 103.074 14.7394L103.066 17.0581C103.066 17.1378 103.034 17.2094 102.97 17.2729C102.922 17.3206 102.858 17.3443 102.779 17.344L91.7585 17.3078Z" fill="white"/>
<path d="M114.933 17.5752C113.721 17.5713 112.662 17.3447 111.755 16.8955C110.864 16.4304 110.173 15.7906 109.682 14.9762C109.19 14.1459 108.947 13.1889 108.95 12.1052L108.955 10.5992C108.955 10.5196 108.979 10.4559 109.027 10.4082C109.091 10.3447 109.163 10.3131 109.243 10.3133L112.04 10.3225C112.119 10.3228 112.183 10.3549 112.23 10.4188C112.294 10.4668 112.326 10.5307 112.325 10.6103L112.321 12.1163C112.318 12.8813 112.547 13.5036 113.008 13.9832C113.484 14.4469 114.129 14.6801 114.942 14.6828C115.723 14.6854 116.361 14.4564 116.856 13.9958C117.368 13.5194 117.625 12.8987 117.627 12.1338L117.664 0.946392C117.664 0.86671 117.688 0.803042 117.736 0.75539C117.8 0.691854 117.872 0.660217 117.951 0.660479L120.724 0.6696C120.804 0.669862 120.868 0.701945 120.915 0.765848C120.979 0.813867 121.01 0.877718 121.01 0.9574L120.974 12.1448C120.971 13.2285 120.713 14.1838 120.2 15.0108C119.687 15.8219 118.976 16.457 118.066 16.9162C117.156 17.3595 116.112 17.5791 114.933 17.5752Z" fill="white"/>
<path d="M129.945 17.6246C128.718 17.6206 127.635 17.378 126.696 16.8968C125.773 16.4157 125.05 15.7439 124.527 14.8816C124.02 14.0035 123.768 12.9986 123.772 11.8671L123.807 0.9666C123.808 0.886918 123.832 0.823251 123.88 0.775598C123.944 0.712062 124.015 0.680425 124.095 0.680687L126.892 0.689887C126.972 0.690149 127.035 0.722232 127.083 0.786135C127.146 0.834154 127.178 0.898005 127.178 0.977687L127.143 11.9021C127.14 12.7468 127.393 13.4329 127.901 13.9604C128.425 14.4721 129.11 14.7294 129.954 14.7322C130.799 14.7349 131.477 14.4822 131.989 13.9739C132.516 13.4497 132.781 12.7653 132.784 11.9207L132.819 0.996244C132.82 0.916562 132.844 0.852894 132.892 0.805242C132.956 0.741705 133.027 0.710068 133.107 0.710331L135.904 0.71953C135.984 0.719792 136.047 0.751875 136.095 0.815778C136.158 0.863798 136.19 0.927648 136.19 1.00733L136.155 11.9079C136.151 13.0394 135.885 14.0425 135.356 14.9173C134.843 15.7762 134.116 16.4431 133.174 16.9181C132.248 17.3932 131.172 17.6287 129.945 17.6246Z" fill="white"/>
<path d="M144.644 17.673C143.369 17.6688 142.254 17.4659 141.299 17.0644C140.344 16.6469 139.605 16.0627 139.082 15.312C138.574 14.5454 138.322 13.6601 138.325 12.6561L138.327 12.1302C138.327 12.0505 138.351 11.9868 138.399 11.9392C138.463 11.8756 138.535 11.844 138.615 11.8442L141.34 11.8532C141.42 11.8535 141.483 11.8856 141.531 11.9495C141.595 11.9975 141.626 12.0613 141.626 12.141L141.625 12.4996C141.623 13.137 141.916 13.6798 142.504 14.128C143.092 14.5602 143.888 14.778 144.892 14.7813C145.737 14.7841 146.367 14.6108 146.783 14.2616C147.198 13.8964 147.407 13.4509 147.408 12.925C147.41 12.5425 147.283 12.2234 147.029 11.9675C146.775 11.6958 146.425 11.4636 145.979 11.2708C145.55 11.0623 144.857 10.7811 143.902 10.4273C142.836 10.0573 141.929 9.6798 141.181 9.29486C140.449 8.90997 139.829 8.38999 139.321 7.73492C138.83 7.06396 138.585 6.24242 138.588 5.2703C138.591 4.31411 138.841 3.47826 139.337 2.76274C139.834 2.04723 140.521 1.49968 141.399 1.12008C142.276 0.740492 143.289 0.552583 144.436 0.556357C145.647 0.560341 146.722 0.779021 147.661 1.2124C148.616 1.64583 149.355 2.25385 149.879 3.03647C150.418 3.8032 150.686 4.69653 150.683 5.71647L150.682 6.07504C150.681 6.15472 150.649 6.22633 150.585 6.28986C150.537 6.33752 150.473 6.36121 150.394 6.36095L147.645 6.35191C147.565 6.35164 147.493 6.3275 147.43 6.27948C147.382 6.21558 147.359 6.14379 147.359 6.06411L147.359 5.87287C147.362 5.20354 147.085 4.63688 146.528 4.17288C145.988 3.69301 145.24 3.4515 144.284 3.44835C143.535 3.44589 142.944 3.60331 142.513 3.92063C142.098 4.23799 141.889 4.67556 141.887 5.23334C141.886 5.63175 142.004 5.96681 142.243 6.23852C142.497 6.51028 142.862 6.7585 143.34 6.98318C143.833 7.19198 144.589 7.48132 145.608 7.85122C146.738 8.26929 147.621 8.63874 148.258 8.95956C148.91 9.28044 149.49 9.76045 149.998 10.3996C150.522 11.0228 150.782 11.8365 150.779 12.8405C150.774 14.3385 150.221 15.5239 149.118 16.3968C148.016 17.2538 146.524 17.6792 144.644 17.673Z" fill="white"/>
<path d="M164.537 0.813714C164.617 0.813976 164.681 0.846059 164.728 0.909962C164.792 0.957982 164.824 1.02183 164.823 1.10151L164.816 3.44417C164.816 3.52386 164.783 3.59547 164.72 3.659C164.672 3.70665 164.608 3.73035 164.528 3.73009L160.249 3.71601C160.169 3.71575 160.129 3.75546 160.129 3.83514L160.086 17.2457C160.086 17.3254 160.054 17.397 159.99 17.4605C159.942 17.5082 159.878 17.5318 159.798 17.5316L157.001 17.5224C156.922 17.5221 156.85 17.498 156.786 17.45C156.739 17.3861 156.715 17.3143 156.715 17.2346L156.759 3.82406C156.759 3.74437 156.719 3.7044 156.64 3.70414L152.48 3.69046C152.4 3.6902 152.329 3.66606 152.265 3.61804C152.218 3.55413 152.194 3.48234 152.194 3.40266L152.202 1.06C152.202 0.980316 152.226 0.916649 152.274 0.868996C152.338 0.80546 152.41 0.773823 152.49 0.774085L164.537 0.813714Z" fill="white"/>
<path d="M167.208 17.556C167.128 17.5557 167.056 17.5316 166.993 17.4835C166.945 17.4196 166.921 17.3478 166.922 17.2682L166.974 1.10859C166.974 1.02891 166.998 0.965239 167.046 0.917586C167.11 0.85405 167.182 0.822413 167.262 0.822675L170.059 0.831875C170.138 0.832137 170.202 0.864219 170.249 0.928123C170.313 0.976142 170.345 1.03999 170.344 1.11967L170.292 17.2792C170.292 17.3589 170.26 17.4305 170.196 17.4941C170.148 17.5417 170.084 17.5654 170.004 17.5652L167.208 17.556Z" fill="white"/>
<path d="M179.08 17.7862C177.837 17.7822 176.746 17.5395 175.808 17.0583C174.869 16.5612 174.146 15.8736 173.639 14.9954C173.132 14.1172 172.88 13.1044 172.884 11.957L172.902 6.43498C172.905 5.28756 173.164 4.27643 173.676 3.4016C174.189 2.52678 174.917 1.85186 175.858 1.37686C176.8 0.90186 177.893 0.666405 179.136 0.670493C180.363 0.67453 181.438 0.909146 182.361 1.37434C183.299 1.82366 184.022 2.47147 184.53 3.31778C185.053 4.1482 185.313 5.11323 185.309 6.21284C185.309 6.35627 185.213 6.44361 185.021 6.47485L182.224 6.63298L182.176 6.63283C182.017 6.6323 181.937 6.54439 181.938 6.36909C181.941 5.52445 181.68 4.84629 181.156 4.33459C180.647 3.82295 179.971 3.56574 179.126 3.56296C178.266 3.56013 177.572 3.81283 177.044 4.32107C176.533 4.82936 176.275 5.50582 176.273 6.35045L176.254 12.1115C176.251 12.9402 176.504 13.6103 177.012 14.122C177.537 14.6337 178.229 14.891 179.09 14.8938C179.934 14.8966 180.612 14.6438 181.124 14.1355C181.652 13.6273 181.917 12.9588 181.919 12.1301C181.92 11.9548 182.016 11.8675 182.207 11.8681L185.004 11.9968C185.083 11.9971 185.147 12.0212 185.195 12.0692C185.258 12.1172 185.29 12.1731 185.29 12.2368C185.286 13.3364 185.02 14.3077 184.491 15.1506C183.979 15.9936 183.251 16.6446 182.31 17.1036C181.384 17.5627 180.307 17.7903 179.08 17.7862Z" fill="white"/>
<path d="M199.407 3.53405C199.407 3.61373 199.375 3.68534 199.311 3.74888C199.263 3.79653 199.199 3.82022 199.12 3.81996L191.279 3.79417C191.199 3.79391 191.159 3.83362 191.159 3.9133L191.147 7.61853C191.147 7.69821 191.186 7.73818 191.266 7.73845L196.406 7.75535C196.485 7.75561 196.549 7.7877 196.596 7.8516C196.66 7.89962 196.692 7.96347 196.691 8.04315L196.684 10.3619C196.684 10.4416 196.652 10.5132 196.588 10.5767C196.54 10.6244 196.476 10.6481 196.396 10.6478L191.257 10.6309C191.177 10.6307 191.137 10.6704 191.137 10.75L191.124 14.6226C191.124 14.7023 191.164 14.7423 191.243 14.7425L199.084 14.7683C199.164 14.7686 199.227 14.8007 199.275 14.8646C199.339 14.9126 199.37 14.9764 199.37 15.0561L199.363 17.3749C199.362 17.4545 199.33 17.5262 199.266 17.5897C199.218 17.6373 199.155 17.661 199.075 17.6608L188.031 17.6245C187.951 17.6242 187.88 17.6 187.816 17.552C187.768 17.4881 187.745 17.4163 187.745 17.3367L187.797 1.17708C187.797 1.0974 187.821 1.03373 187.869 0.98608C187.933 0.922544 188.005 0.890906 188.085 0.891169L199.129 0.927495C199.209 0.927757 199.272 0.95984 199.32 1.02374C199.383 1.07176 199.415 1.13561 199.415 1.2153L199.407 3.53405Z" fill="white"/>
<path d="M220.666 17.3732C220.73 17.4691 220.761 17.5329 220.761 17.5648C220.761 17.6763 220.673 17.7318 220.498 17.7312L217.366 17.7209C217.223 17.7205 217.103 17.6643 217.008 17.5524L216.079 16.5454C216.047 16.4975 215.992 16.4893 215.912 16.5209C214.427 17.4404 212.832 17.8973 211.126 17.8917C209.628 17.8867 208.379 17.532 207.377 16.8275C206.391 16.1071 205.9 15.0537 205.905 13.6672C205.908 12.5995 206.198 11.7 206.774 10.9688C207.35 10.2376 208.133 9.57883 209.123 8.99243C209.219 8.929 209.227 8.87325 209.148 8.82518C208.354 7.85043 207.831 7.09969 207.577 6.57295C207.324 6.03027 207.198 5.45614 207.2 4.85055C207.203 4.10154 207.404 3.41692 207.805 2.79671C208.221 2.16062 208.796 1.66847 209.531 1.32028C210.281 0.956209 211.134 0.775745 212.09 0.77889C213.062 0.782088 213.93 0.968214 214.694 1.33727C215.474 1.70637 216.078 2.2263 216.506 2.89705C216.934 3.55186 217.147 4.30158 217.144 5.14621C217.141 6.13427 216.859 6.99392 216.299 7.72517C215.755 8.44053 215.012 9.09148 214.069 9.67804C213.99 9.72559 213.981 9.78134 214.045 9.84529L216.165 12.2667C216.228 12.3306 216.292 12.3308 216.356 12.2673C216.964 11.6 217.46 10.9641 217.844 10.3598C217.94 10.1848 218.068 10.1534 218.227 10.2654L220.303 11.4436C220.478 11.5398 220.517 11.6674 220.421 11.8265C219.748 12.8761 219.044 13.7901 218.309 14.5686C218.261 14.6162 218.276 14.688 218.356 14.7839L220.666 17.3732ZM212.152 3.83893C211.674 3.83735 211.291 3.96359 211.003 4.21763C210.716 4.45573 210.571 4.78196 210.57 5.1963C210.569 5.41941 210.648 5.66669 210.806 5.93814C210.965 6.20958 211.314 6.67289 211.854 7.32807C211.885 7.39192 211.941 7.40804 212.021 7.37643C212.596 7.01178 213.027 6.66259 213.315 6.32887C213.619 5.9952 213.772 5.62119 213.773 5.20684C213.774 4.79249 213.624 4.4653 213.322 4.22525C213.02 3.96927 212.63 3.8405 212.152 3.83893ZM211.255 15.0713C212.02 15.0738 212.881 14.8057 213.839 14.267C213.935 14.2036 213.943 14.1478 213.864 14.0998L213.126 13.2607L212.578 12.6613C212.228 12.2936 211.823 11.846 211.363 11.3186C211.331 11.2707 211.275 11.2625 211.196 11.2941C210.621 11.6428 210.181 11.9761 209.878 12.2938C209.574 12.6115 209.397 12.9775 209.348 13.3917C209.332 13.4394 209.324 13.5191 209.323 13.6306C209.322 14.0609 209.496 14.4121 209.846 14.6842C210.212 14.9404 210.681 15.0694 211.255 15.0713Z" fill="white"/>
<path d="M7.53238 28.7754C8.58419 28.7789 9.50781 28.9971 10.3032 29.43C11.0987 29.8629 11.7102 30.4784 12.138 31.2767C12.5817 32.059 12.8019 32.9602 12.7986 33.9801C12.7953 34.9841 12.5614 35.8678 12.0968 36.6313C11.6481 37.3947 11.0087 37.9903 10.1786 38.4178C9.3645 38.8295 8.42358 39.0336 7.35584 39.0301L3.96137 39.0189C3.88169 39.0186 3.84172 39.0583 3.84146 39.138L3.82178 45.2337C3.82152 45.3134 3.78942 45.385 3.72547 45.4486C3.6775 45.4962 3.61368 45.5199 3.534 45.5196L0.737151 45.5104C0.657468 45.5102 0.585831 45.486 0.52224 45.438C0.474637 45.3741 0.450963 45.3023 0.451221 45.2226L0.503478 29.0392C0.503735 28.9595 0.527846 28.8958 0.57581 28.8482C0.639761 28.7846 0.711578 28.753 0.79126 28.7532L7.53238 28.7754ZM7.00599 36.3276C7.73907 36.3301 8.32939 36.1248 8.77694 35.712C9.22455 35.2831 9.44947 34.7261 9.45168 34.0408C9.45394 33.3396 9.23266 32.7731 8.78783 32.3414C8.343 31.9096 7.75404 31.6926 7.02097 31.6901L3.98507 31.6802C3.90539 31.6799 3.86542 31.7196 3.86516 31.7993L3.85096 36.1978C3.8507 36.2774 3.89041 36.3174 3.9701 36.3177L7.00599 36.3276Z" fill="white"/>
<path d="M20.7847 45.8393C19.5416 45.8352 18.4428 45.5766 17.4883 45.0635C16.5497 44.5505 15.8189 43.8389 15.2959 42.9288C14.773 42.0027 14.5135 40.9421 14.5173 39.7469L14.5339 34.6313C14.5377 33.452 14.804 32.409 15.3328 31.5023C15.8617 30.5957 16.597 29.8969 17.5389 29.406C18.4967 28.8991 19.5971 28.6478 20.8402 28.6519C22.0992 28.656 23.1979 28.9146 24.1365 29.4277C25.0911 29.9248 25.8299 30.6285 26.3529 31.5386C26.8759 32.4487 27.1354 33.4934 27.1316 34.6727L27.1151 39.7883C27.1113 40.9835 26.8449 42.0424 26.316 42.965C25.7871 43.8876 25.0437 44.6023 24.0859 45.1091C23.1441 45.6001 22.0437 45.8435 20.7847 45.8393ZM20.794 42.9469C21.6705 42.9497 22.3806 42.6732 22.9242 42.1172C23.4679 41.5612 23.7412 40.8211 23.7442 39.8967L23.7612 34.6377C23.7641 33.7134 23.4956 32.9715 22.9556 32.4119C22.4315 31.8365 21.7233 31.5473 20.8308 31.5443C19.9543 31.5414 19.2442 31.826 18.7005 32.3979C18.1728 32.9539 17.9075 33.6941 17.9045 34.6184L17.8875 39.8775C17.8845 40.8018 18.1451 41.5437 18.6692 42.1032C19.2092 42.6628 19.9175 42.944 20.794 42.9469Z" fill="white"/>
<path d="M29.9672 45.6066C29.8875 45.6063 29.8158 45.5822 29.7523 45.5342C29.7046 45.4703 29.681 45.3985 29.6812 45.3188L29.7334 29.1592C29.7337 29.0795 29.7578 29.0159 29.8057 28.9682C29.8697 28.9047 29.9415 28.873 30.0212 28.8733L32.818 28.8825C32.8977 28.8828 32.9614 28.9148 33.009 28.9787C33.0726 29.0268 33.1042 29.0906 33.104 29.1703L33.0606 42.6047C33.0603 42.6844 33.1 42.7244 33.1797 42.7247L40.9966 42.7504C41.0762 42.7506 41.1399 42.7827 41.1875 42.8466C41.2511 42.8946 41.2827 42.9585 41.2825 43.0382L41.275 45.3569C41.2747 45.4366 41.2426 45.5082 41.1787 45.5717C41.1307 45.6194 41.0669 45.6431 40.9872 45.6428L29.9672 45.6066Z" fill="white"/>
<path d="M43.647 45.6516C43.5673 45.6513 43.4957 45.6272 43.4321 45.5792C43.3845 45.5153 43.3608 45.4435 43.3611 45.3638L43.4132 29.2042C43.4135 29.1245 43.4376 29.0609 43.4856 29.0132C43.5495 28.9497 43.6213 28.918 43.701 28.9183L46.4979 28.9275C46.5776 28.9278 46.6412 28.9598 46.6888 29.0237C46.7524 29.0718 46.7841 29.1356 46.7838 29.2153L46.7316 45.3749C46.7314 45.4545 46.6993 45.5262 46.6353 45.5897C46.5873 45.6373 46.5235 45.661 46.4438 45.6608L43.647 45.6516Z" fill="white"/>
<path d="M55.5197 45.8819C54.2767 45.8778 53.1858 45.6351 52.2471 45.154C51.3084 44.6568 50.5855 43.9692 50.0784 43.091C49.5713 42.2128 49.3195 41.2 49.3233 40.0526L49.3411 34.5306C49.3448 33.3832 49.603 32.3721 50.1158 31.4972C50.6286 30.6224 51.3559 29.9475 52.2977 29.4725C53.2395 28.9975 54.3319 28.762 55.575 28.7661C56.8021 28.7701 57.8771 29.0048 58.7999 29.47C59.7387 29.9193 60.4617 30.5671 60.969 31.4134C61.4922 32.2438 61.752 33.2088 61.7485 34.3085C61.748 34.4519 61.6521 34.5392 61.4608 34.5705L58.6634 34.7286L58.6156 34.7284C58.4562 34.7279 58.3768 34.64 58.3774 34.4647C58.3801 33.6201 58.1193 32.9419 57.5951 32.4302C57.0867 31.9186 56.4103 31.6614 55.5656 31.6586C54.7051 31.6558 54.011 31.9085 53.4835 32.4167C52.9719 32.925 52.7147 33.6014 52.712 34.4461L52.6934 40.2071C52.6907 41.0358 52.9435 41.706 53.4518 42.2176C53.9761 42.7293 54.6685 42.9866 55.5291 42.9894C56.3737 42.9922 57.0518 42.7394 57.5634 42.2311C58.091 41.7229 58.3561 41.0544 58.3588 40.2257C58.3593 40.0504 58.4552 39.9631 58.6465 39.9637L61.4429 40.0925C61.5226 40.0927 61.5863 40.1168 61.6339 40.1648C61.6975 40.2128 61.7292 40.2687 61.729 40.3324C61.7255 41.4321 61.4594 42.4033 60.9307 43.2462C60.418 44.0892 59.6908 44.7402 58.7491 45.1993C57.8233 45.6584 56.7468 45.8859 55.5197 45.8819Z" fill="white"/>
<path d="M75.8466 31.6297C75.8464 31.7094 75.8143 31.781 75.7503 31.8445C75.7024 31.8922 75.6386 31.9158 75.5589 31.9156L67.7181 31.8898C67.6385 31.8895 67.5985 31.9292 67.5982 32.0089L67.5863 35.7142C67.586 35.7938 67.6257 35.8338 67.7054 35.8341L72.8449 35.851C72.9246 35.8512 72.9882 35.8833 73.0358 35.9472C73.0994 35.9952 73.1311 36.0591 73.1308 36.1388L73.1233 38.4575C73.1231 38.5372 73.091 38.6088 73.027 38.6724C72.9791 38.72 72.9152 38.7437 72.8356 38.7434L67.6961 38.7265C67.6164 38.7263 67.5764 38.766 67.5761 38.8457L67.5636 42.7182C67.5634 42.7979 67.6031 42.8379 67.6828 42.8381L75.5235 42.8639C75.6032 42.8642 75.6668 42.8963 75.7144 42.9602C75.778 43.0082 75.8097 43.0721 75.8094 43.1517L75.802 45.4705C75.8017 45.5502 75.7696 45.6218 75.7056 45.6853C75.6577 45.733 75.5939 45.7567 75.5142 45.7564L64.4702 45.7201C64.3905 45.7198 64.3189 45.6957 64.2553 45.6477C64.2077 45.5838 64.184 45.512 64.1843 45.4323L64.2365 29.2727C64.2367 29.193 64.2608 29.1294 64.3088 29.0817C64.3727 29.0182 64.4446 28.9865 64.5242 28.9868L75.5682 29.0231C75.6479 29.0234 75.7115 29.0555 75.7591 29.1194C75.8227 29.1674 75.8544 29.2312 75.8541 29.3109L75.8466 31.6297Z" fill="white"/>
<path d="M93.5665 45.8158C93.4071 45.8153 93.3038 45.7352 93.2565 45.5757L92.5469 43.2307C92.5153 43.1668 92.4755 43.1348 92.4277 43.1347L86.5472 43.1153C86.4994 43.1152 86.4594 43.1469 86.4273 43.2106L85.7265 45.5509C85.6782 45.7101 85.5744 45.7895 85.415 45.789L82.3791 45.779C82.2835 45.7787 82.2119 45.7545 82.1642 45.7066C82.1166 45.6427 82.1089 45.555 82.1411 45.4435L87.3567 29.3009C87.4051 29.1417 87.5089 29.0624 87.6683 29.0629L91.4213 29.0753C91.5807 29.0758 91.684 29.1558 91.7313 29.3153L96.8425 45.4919C96.8584 45.5238 96.8662 45.5637 96.866 45.6115C96.8656 45.7549 96.7777 45.8263 96.6024 45.8258L93.5665 45.8158ZM87.2971 40.3687C87.2808 40.4643 87.3126 40.5122 87.3922 40.5125L91.5995 40.5263C91.6951 40.5266 91.7271 40.4789 91.6956 40.3832L89.5671 33.2764C89.5513 33.2126 89.5275 33.1887 89.4956 33.2045C89.4637 33.2044 89.4397 33.2282 89.4236 33.276L87.2971 40.3687Z" fill="white"/>
<path d="M104.333 46.0424C103.09 46.0383 101.999 45.7957 101.06 45.3145C100.122 44.8174 99.3987 44.1297 98.8916 43.2516C98.3844 42.3734 98.1327 41.3606 98.1364 40.2131L98.1543 34.6912C98.158 33.5437 98.4162 32.5326 98.929 31.6578C99.4418 30.783 100.169 30.108 101.111 29.633C102.053 29.158 103.145 28.9226 104.388 28.9267C105.615 28.9307 106.69 29.1653 107.613 29.6305C108.552 30.0798 109.275 30.7277 109.782 31.574C110.305 32.4044 110.565 33.3694 110.562 34.469C110.561 34.6125 110.465 34.6998 110.274 34.731L107.477 34.8892L107.429 34.889C107.269 34.8885 107.19 34.8006 107.191 34.6253C107.193 33.7806 106.932 33.1025 106.408 32.5908C105.9 32.0791 105.223 31.8219 104.379 31.8191C103.518 31.8163 102.824 32.069 102.297 32.5773C101.785 33.0855 101.528 33.762 101.525 34.6066L101.507 40.3677C101.504 41.1964 101.757 41.8665 102.265 42.3782C102.789 42.8899 103.482 43.1471 104.342 43.15C105.187 43.1527 105.865 42.9 106.377 42.3917C106.904 41.8835 107.169 41.215 107.172 40.3863C107.173 40.211 107.268 40.1237 107.46 40.1243L110.256 40.253C110.336 40.2533 110.399 40.2774 110.447 40.3254C110.511 40.3734 110.542 40.4293 110.542 40.493C110.539 41.5926 110.273 42.5639 109.744 43.4068C109.231 44.2497 108.504 44.9007 107.562 45.3598C106.636 45.8189 105.56 46.0465 104.333 46.0424Z" fill="white"/>
<path d="M118.876 46.0903C117.633 46.0862 116.543 45.8435 115.604 45.3624C114.665 44.8652 113.942 44.1776 113.435 43.2994C112.928 42.4212 112.676 41.4084 112.68 40.261L112.698 34.739C112.702 33.5916 112.96 32.5804 113.473 31.7056C113.985 30.8308 114.713 30.1559 115.654 29.6809C116.596 29.2059 117.689 28.9704 118.932 28.9745C120.159 28.9785 121.234 29.2132 122.157 29.6784C123.095 30.1277 123.818 30.7755 124.326 31.6218C124.849 32.4522 125.109 33.4172 125.105 34.5169C125.105 34.6603 125.009 34.7476 124.818 34.7789L122.02 34.937L121.972 34.9368C121.813 34.9363 121.734 34.8484 121.734 34.6731C121.737 33.8285 121.476 33.1503 120.952 32.6386C120.444 32.127 119.767 31.8698 118.922 31.867C118.062 31.8641 117.368 32.1169 116.84 32.6251C116.329 33.1334 116.071 33.8098 116.069 34.6545L116.05 40.4155C116.047 41.2442 116.3 41.9144 116.809 42.426C117.333 42.9377 118.025 43.195 118.886 43.1978C119.73 43.2006 120.409 42.9478 120.92 42.4395C121.448 41.9313 121.713 41.2628 121.716 40.4341C121.716 40.2588 121.812 40.1715 122.003 40.1721L124.8 40.3009C124.879 40.3011 124.943 40.3252 124.991 40.3732C125.054 40.4212 125.086 40.4771 125.086 40.5408C125.082 41.6405 124.816 42.6117 124.287 43.4546C123.775 44.2976 123.048 44.9486 122.106 45.4076C121.18 45.8668 120.104 46.0943 118.876 46.0903Z" fill="white"/>
<path d="M133.492 46.2101C132.248 46.206 131.15 45.9474 130.195 45.4343C129.257 44.9212 128.526 44.2096 128.003 43.2995C127.48 42.3735 127.22 41.3128 127.224 40.1176L127.241 35.002C127.245 33.8227 127.511 32.7797 128.04 31.8731C128.569 30.9664 129.304 30.2676 130.246 29.7767C131.204 29.2699 132.304 29.0185 133.547 29.0226C134.806 29.0267 135.905 29.2853 136.843 29.7984C137.798 30.2956 138.537 30.9992 139.06 31.9093C139.583 32.8194 139.842 33.8641 139.838 35.0434L139.822 40.159C139.818 41.3543 139.552 42.4132 139.023 43.3358C138.494 44.2583 137.751 44.973 136.793 45.4799C135.851 45.9708 134.75 46.2142 133.492 46.2101ZM133.501 43.3176C134.377 43.3205 135.087 43.0439 135.631 42.4879C136.175 41.9319 136.448 41.1918 136.451 40.2675L136.468 35.0084C136.471 34.0841 136.202 33.3422 135.662 32.7826C135.138 32.2072 134.43 31.918 133.538 31.9151C132.661 31.9122 131.951 32.1967 131.407 32.7686C130.88 33.3247 130.614 34.0649 130.611 34.9892L130.594 40.2482C130.591 41.1725 130.852 41.9144 131.376 42.4739C131.916 43.0335 132.624 43.3147 133.501 43.3176Z" fill="white"/>
<path d="M148.458 46.1876C147.231 46.1835 146.148 45.9409 145.21 45.4597C144.287 44.9786 143.564 44.3069 143.041 43.4446C142.534 42.5664 142.282 41.5616 142.286 40.4301L142.321 29.5295C142.321 29.4499 142.345 29.3862 142.393 29.3385C142.457 29.275 142.529 29.2434 142.609 29.2436L145.405 29.2528C145.485 29.2531 145.549 29.2852 145.596 29.3491C145.66 29.3971 145.692 29.4609 145.691 29.5406L145.656 40.4651C145.653 41.3097 145.906 41.9958 146.414 42.5234C146.939 43.0351 147.623 43.2923 148.468 43.2951C149.312 43.2979 149.99 43.0451 150.502 42.5368C151.03 42.0127 151.295 41.3283 151.298 40.4836L151.333 29.5592C151.333 29.4795 151.357 29.4158 151.405 29.3682C151.469 29.3046 151.541 29.273 151.621 29.2733L154.417 29.2825C154.497 29.2827 154.561 29.3148 154.608 29.3787C154.672 29.4267 154.704 29.4906 154.703 29.5703L154.668 40.4708C154.664 41.6023 154.398 42.6054 153.87 43.4802C153.357 44.3391 152.63 45.006 151.688 45.481C150.762 45.9561 149.685 46.1916 148.458 46.1876Z" fill="white"/>
<path d="M167.084 29.611C167.084 29.5313 167.108 29.4676 167.156 29.42C167.22 29.3565 167.292 29.3248 167.372 29.3251L170.168 29.3343C170.248 29.3345 170.312 29.3666 170.359 29.4305C170.423 29.4786 170.455 29.5424 170.454 29.6221L170.402 45.7817C170.402 45.8613 170.37 45.9329 170.306 45.9965C170.258 46.0441 170.194 46.0678 170.114 46.0676L167.413 46.0587C167.254 46.0582 167.142 45.994 167.079 45.8663L160.921 35.6148C160.889 35.5669 160.857 35.5508 160.825 35.5666C160.793 35.5665 160.777 35.5984 160.777 35.6621L160.792 45.75C160.792 45.8297 160.76 45.9013 160.696 45.9649C160.648 46.0125 160.584 46.0362 160.505 46.036L157.708 46.0268C157.628 46.0265 157.556 46.0024 157.493 45.9543C157.445 45.8904 157.422 45.8186 157.422 45.739L157.474 29.5794C157.474 29.4997 157.498 29.436 157.546 29.3884C157.61 29.3248 157.682 29.2932 157.762 29.2935L160.463 29.3024C160.622 29.3029 160.734 29.367 160.797 29.4947L166.932 39.6984C166.963 39.7463 166.995 39.7703 167.027 39.7704C167.059 39.7546 167.075 39.7148 167.075 39.651L167.084 29.611Z" fill="white"/>
<path d="M184.918 29.3828C184.998 29.3831 185.062 29.4151 185.109 29.479C185.173 29.5271 185.205 29.5909 185.204 29.6706L185.197 32.0133C185.197 32.0929 185.165 32.1646 185.101 32.2281C185.053 32.2757 184.989 32.2994 184.909 32.2992L180.63 32.2851C180.55 32.2848 180.51 32.3245 180.51 32.4042L180.467 45.8148C180.467 45.8944 180.435 45.9661 180.371 46.0296C180.323 46.0772 180.259 46.1009 180.179 46.1007L177.382 46.0915C177.303 46.0912 177.231 46.0671 177.167 46.0191C177.12 45.9552 177.096 45.8834 177.096 45.8037L177.14 32.3931C177.14 32.3135 177.1 32.2735 177.021 32.2732L172.861 32.2595C172.781 32.2593 172.71 32.2351 172.646 32.1871C172.599 32.1232 172.575 32.0514 172.575 31.9717L172.583 29.6291C172.583 29.5494 172.607 29.4857 172.655 29.4381C172.719 29.3745 172.791 29.3429 172.871 29.3432L184.918 29.3828Z" fill="white"/>
<path d="M196.399 46.154C196.239 46.1535 196.136 46.0735 196.089 45.914L195.379 43.5689C195.347 43.5051 195.308 43.4731 195.26 43.4729L189.379 43.4536C189.332 43.4534 189.292 43.4852 189.259 43.5488L188.559 45.8892C188.51 46.0484 188.407 46.1277 188.247 46.1272L185.211 46.1172C185.116 46.1169 185.044 46.0928 184.996 46.0448C184.949 45.9809 184.941 45.8932 184.973 45.7818L190.189 29.6392C190.237 29.48 190.341 29.4006 190.5 29.4012L194.253 29.4135C194.413 29.414 194.516 29.4941 194.563 29.6536L199.675 45.8301C199.691 45.8621 199.698 45.9019 199.698 45.9497C199.698 46.0932 199.61 46.1646 199.435 46.164L196.399 46.154ZM190.129 40.707C190.113 40.8025 190.145 40.8505 190.224 40.8507L194.432 40.8646C194.527 40.8649 194.559 40.8172 194.528 40.7214L192.399 33.6147C192.383 33.5509 192.36 33.5269 192.328 33.5427C192.296 33.5426 192.272 33.5665 192.256 33.6142L190.129 40.707Z" fill="white"/>
<path d="M211.747 37.4792C211.652 37.5267 211.651 37.5745 211.747 37.6226C213.258 38.4085 214.011 39.7098 214.005 41.5266C214 43.0724 213.471 44.242 212.416 45.0354C211.362 45.8128 209.982 46.1987 208.277 46.1931L202.086 46.1727C202.006 46.1725 201.934 46.1483 201.871 46.1003C201.823 46.0364 201.799 45.9646 201.8 45.8849L201.852 29.7254C201.852 29.6457 201.876 29.582 201.924 29.5344C201.988 29.4708 202.06 29.4392 202.14 29.4394L208.14 29.4592C211.917 29.4716 213.8 31.0077 213.79 34.0675C213.785 35.6612 213.104 36.7984 211.747 37.4792ZM205.333 32.3425C205.254 32.3422 205.214 32.3819 205.214 32.4616L205.202 36.1907C205.201 36.2704 205.241 36.3104 205.321 36.3106L208.117 36.3198C208.867 36.3223 209.449 36.1489 209.864 35.7997C210.28 35.4504 210.488 34.973 210.49 34.3674C210.492 33.7459 210.287 33.2592 209.874 32.9072C209.46 32.5393 208.879 32.3541 208.13 32.3517L205.333 32.3425ZM208.286 43.2767C209.019 43.2791 209.594 43.0978 210.009 42.7326C210.425 42.3515 210.634 41.8342 210.636 41.1808C210.638 40.5274 210.432 40.0168 210.019 39.6489C209.606 39.265 209.025 39.0719 208.276 39.0694L205.312 39.0597C205.232 39.0594 205.192 39.0991 205.192 39.1788L205.179 43.147C205.179 43.2267 205.219 43.2666 205.298 43.2669L208.286 43.2767Z" fill="white"/>
<path d="M216.909 46.2215C216.83 46.2212 216.758 46.1971 216.694 46.1491C216.647 46.0852 216.623 46.0134 216.623 45.9337L216.675 29.7741C216.676 29.6944 216.7 29.6308 216.748 29.5831C216.812 29.5196 216.884 29.4879 216.963 29.4882L219.76 29.4974C219.84 29.4977 219.903 29.5297 219.951 29.5937C220.015 29.6417 220.046 29.7055 220.046 29.7852L219.994 45.9448C219.994 46.0245 219.962 46.0961 219.898 46.1596C219.85 46.2073 219.786 46.231 219.706 46.2307L216.909 46.2215Z" fill="white"/>
<path d="M223.189 46.2421C223.109 46.2419 223.038 46.2177 222.974 46.1697C222.926 46.1058 222.903 46.034 222.903 45.9543L222.955 29.7948C222.955 29.7151 222.98 29.6514 223.027 29.6038C223.091 29.5402 223.163 29.5086 223.243 29.5089L226.04 29.5181C226.119 29.5183 226.183 29.5504 226.231 29.6143C226.294 29.6623 226.326 29.7262 226.326 29.8059L226.282 43.2403C226.282 43.32 226.322 43.36 226.401 43.3602L234.218 43.3859C234.298 43.3862 234.362 43.4183 234.409 43.4822C234.473 43.5302 234.504 43.594 234.504 43.6737L234.497 45.9925C234.496 46.0722 234.464 46.1438 234.4 46.2073C234.352 46.255 234.289 46.2787 234.209 46.2784L223.189 46.2421Z" fill="white"/>
<path d="M246.198 29.5844C246.277 29.5846 246.341 29.6167 246.389 29.6806C246.452 29.7286 246.484 29.7925 246.484 29.8722L246.476 32.2148C246.476 32.2945 246.444 32.3661 246.38 32.4297C246.332 32.4773 246.268 32.501 246.188 32.5007L241.909 32.4867C241.83 32.4864 241.79 32.5261 241.789 32.6058L241.746 46.0163C241.746 46.096 241.714 46.1676 241.65 46.2312C241.602 46.2788 241.538 46.3025 241.458 46.3022L238.661 46.293C238.582 46.2928 238.51 46.2686 238.446 46.2206C238.399 46.1567 238.375 46.0849 238.375 46.0052L238.419 32.5947C238.419 32.515 238.379 32.4751 238.3 32.4748L234.14 32.4611C234.061 32.4608 233.989 32.4367 233.925 32.3887C233.878 32.3248 233.854 32.253 233.854 32.1733L233.862 29.8307C233.862 29.751 233.886 29.6873 233.934 29.6396C233.998 29.5761 234.07 29.5445 234.15 29.5447L246.198 29.5844Z" fill="white"/>
<path d="M253.099 46.3166C253.019 46.3164 252.948 46.2922 252.884 46.2442C252.836 46.1803 252.813 46.1085 252.813 46.0288L252.833 39.9809C252.833 39.9172 252.825 39.8694 252.809 39.8374L247.917 29.9247C247.885 29.8608 247.869 29.813 247.869 29.7811C247.87 29.6536 247.958 29.5902 248.133 29.5907L251.145 29.6006C251.304 29.6012 251.416 29.6732 251.479 29.8169L254.446 36.1854C254.494 36.2811 254.542 36.2813 254.59 36.1858L257.598 29.837C257.663 29.6938 257.774 29.6224 257.934 29.623L260.994 29.633C261.105 29.6334 261.177 29.6655 261.208 29.7294C261.256 29.7773 261.256 29.857 261.208 29.9684L256.204 39.8486C256.188 39.8804 256.179 39.9282 256.179 39.9919L256.16 46.0398C256.159 46.1195 256.127 46.1911 256.063 46.2547C256.015 46.3023 255.952 46.326 255.872 46.3257L253.099 46.3166Z" fill="white"/>
<path d="M7.44035 57.2772C8.49215 57.2806 9.41577 57.4988 10.2112 57.9317C11.0066 58.3646 11.6182 58.9802 12.0459 59.7784C12.4896 60.5608 12.7098 61.4619 12.7065 62.4819C12.7033 63.4859 12.4694 64.3696 12.0047 65.133C11.556 65.8965 10.9166 66.492 10.0866 66.9196C9.27247 67.3312 8.33155 67.5353 7.2638 67.5318L3.86934 67.5206C3.78966 67.5204 3.74969 67.5601 3.74943 67.6398L3.72975 73.7355C3.72949 73.8152 3.69739 73.8868 3.63343 73.9503C3.58547 73.9979 3.52165 74.0216 3.44197 74.0214L0.645117 74.0122C0.565435 74.0119 0.493798 73.9878 0.430207 73.9398C0.382603 73.8759 0.35893 73.8041 0.359187 73.7244L0.411444 57.5409C0.411702 57.4612 0.435812 57.3976 0.483776 57.3499C0.547728 57.2864 0.619545 57.2547 0.699227 57.255L7.44035 57.2772ZM6.91396 64.8294C7.64703 64.8318 8.23735 64.6266 8.68491 64.2137C9.13252 63.7849 9.35743 63.2278 9.35965 62.5426C9.36191 61.8414 9.14063 61.2749 8.69579 60.8431C8.25096 60.4114 7.66201 60.1943 6.92893 60.1919L3.89304 60.1819C3.81336 60.1816 3.77339 60.2213 3.77313 60.301L3.75893 64.6995C3.75867 64.7792 3.79838 64.8192 3.87806 64.8194L6.91396 64.8294Z" fill="white"/>
<path d="M23.9206 74.0887C23.7613 74.0882 23.6499 74.0161 23.5867 73.8725L20.6199 67.2411C20.5883 67.1772 20.5406 67.1452 20.4768 67.145L18.2537 67.1377C18.174 67.1374 18.134 67.1771 18.1338 67.2568L18.1127 73.7828C18.1125 73.8625 18.0803 73.9341 18.0164 73.9976C17.9684 74.0453 17.9046 74.0689 17.8249 74.0687L15.0281 74.0595C14.9484 74.0592 14.8768 74.0351 14.8132 73.9871C14.7656 73.9232 14.7419 73.8514 14.7421 73.7717L14.7943 57.6121C14.7946 57.5324 14.8187 57.4688 14.8667 57.4211C14.9306 57.3576 15.0024 57.3259 15.0821 57.3262L21.9189 57.3487C22.9388 57.352 23.8306 57.5622 24.5942 57.979C25.3737 58.3959 25.9694 58.9876 26.3813 59.7539C26.8091 60.5202 27.0214 61.4054 27.0182 62.4094C27.0147 63.4931 26.7407 64.4245 26.1964 65.2036C25.6521 65.9668 24.8933 66.5061 23.9202 66.8216C23.8404 66.8532 23.8163 66.9089 23.8479 66.9887L27.0771 73.7645C27.1088 73.8283 27.1246 73.8762 27.1245 73.908C27.1241 74.0355 27.0362 74.099 26.8609 74.0984L23.9206 74.0887ZM18.276 60.2292C18.1963 60.2289 18.1563 60.2687 18.1561 60.3483L18.1429 64.436C18.1426 64.5157 18.1823 64.5557 18.262 64.556L21.3935 64.5663C22.0629 64.5685 22.6054 64.371 23.021 63.974C23.4526 63.577 23.6694 63.0598 23.6714 62.4223C23.6735 61.7849 23.46 61.2662 23.031 60.8664C22.618 60.4507 22.0768 60.2417 21.4075 60.2395L18.276 60.2292Z" fill="white"/>
<path d="M35.3763 74.3894C34.1332 74.3853 33.0344 74.1267 32.0799 73.6136C31.1413 73.1005 30.4105 72.3889 29.8875 71.4788C29.3646 70.5528 29.1051 69.4921 29.109 68.2969L29.1255 63.1813C29.1293 62.002 29.3956 60.959 29.9244 60.0524C30.4533 59.1457 31.1886 58.4469 32.1305 57.956C33.0883 57.4492 34.1887 57.1978 35.4318 57.2019C36.6908 57.206 37.7895 57.4646 38.7282 57.9777C39.6827 58.4749 40.4215 59.1785 40.9445 60.0886C41.4675 60.9987 41.727 62.0434 41.7232 63.2227L41.7067 68.3383C41.7029 69.5336 41.4365 70.5925 40.9076 71.5151C40.3787 72.4377 39.6353 73.1524 38.6775 73.6592C37.7357 74.1501 36.6353 74.3935 35.3763 74.3894ZM35.3856 71.4969C36.2621 71.4998 36.9722 71.2232 37.5158 70.6672C38.0595 70.1113 38.3328 69.3711 38.3358 68.4468L38.3528 63.1877C38.3557 62.2634 38.0872 61.5215 37.5472 60.9619C37.0231 60.3865 36.3149 60.0973 35.4224 60.0944C34.5459 60.0915 33.8358 60.376 33.2921 60.9479C32.7644 61.504 32.4991 62.2442 32.4961 63.1685L32.4791 68.4275C32.4761 69.3518 32.7367 70.0937 33.2608 70.6532C33.8008 71.2128 34.5091 71.494 35.3856 71.4969Z" fill="white"/>
<path d="M49.4541 74.364C48.243 74.36 47.1839 74.1334 46.277 73.6842C45.386 73.2191 44.6948 72.5793 44.2034 71.765C43.7121 70.9346 43.4681 69.9776 43.4716 68.894L43.4765 67.388C43.4768 67.3083 43.5009 67.2446 43.5488 67.197C43.6128 67.1334 43.6846 67.1018 43.7643 67.1021L46.5611 67.1113C46.6408 67.1115 46.7045 67.1436 46.7521 67.2075C46.8157 67.2555 46.8473 67.3194 46.8471 67.3991L46.8422 68.905C46.8397 69.67 47.0688 70.2923 47.5294 70.7719C48.006 71.2356 48.6507 71.4688 49.4635 71.4715C50.2444 71.4741 50.8826 71.2451 51.3781 70.7846C51.8896 70.3081 52.1466 69.6875 52.149 68.9225L52.1852 57.7351C52.1854 57.6554 52.2095 57.5918 52.2575 57.5441C52.3215 57.4806 52.3933 57.4489 52.473 57.4492L55.2459 57.4583C55.3256 57.4586 55.3892 57.4907 55.4368 57.5546C55.5004 57.6026 55.5321 57.6664 55.5318 57.7461L55.4957 68.9335C55.4922 70.0172 55.2341 70.9725 54.7215 71.7996C54.2089 72.6106 53.4977 73.2458 52.5878 73.7049C51.678 74.1482 50.6334 74.3678 49.4541 74.364Z" fill="white"/>
<path d="M70.0586 60.1127C70.0583 60.1924 70.0262 60.264 69.9623 60.3275C69.9143 60.3752 69.8505 60.3989 69.7708 60.3986L61.9301 60.3728C61.8504 60.3725 61.8104 60.4122 61.8101 60.4919L61.7982 64.1972C61.7979 64.2768 61.8376 64.3168 61.9173 64.3171L67.0568 64.334C67.1365 64.3342 67.2002 64.3663 67.2478 64.4302C67.3113 64.4783 67.343 64.5421 67.3428 64.6218L67.3353 66.9405C67.335 67.0202 67.3029 67.0918 67.239 67.1554C67.191 67.203 67.1272 67.2267 67.0475 67.2265L61.908 67.2095C61.8283 67.2093 61.7883 67.249 61.7881 67.3287L61.7756 71.2012C61.7753 71.2809 61.815 71.3209 61.8947 71.3212L69.7354 71.3469C69.8151 71.3472 69.8788 71.3793 69.9264 71.4432C69.99 71.4912 70.0216 71.5551 70.0214 71.6347L70.0139 73.9535C70.0136 74.0332 69.9815 74.1048 69.9176 74.1683C69.8696 74.216 69.8058 74.2397 69.7261 74.2394L58.6821 74.2031C58.6025 74.2028 58.5308 74.1787 58.4672 74.1307C58.4196 74.0668 58.3959 73.995 58.3962 73.9153L58.4484 57.7557C58.4486 57.676 58.4728 57.6124 58.5207 57.5647C58.5847 57.5012 58.6565 57.4695 58.7362 57.4698L69.7801 57.5061C69.8598 57.5064 69.9235 57.5385 69.9711 57.6024C70.0347 57.6504 70.0663 57.7142 70.0661 57.7939L70.0586 60.1127Z" fill="white"/>
<path d="M78.2352 74.4586C76.9921 74.4545 75.9013 74.2119 74.9625 73.7307C74.0239 73.2336 73.301 72.5459 72.7939 71.6678C72.2867 70.7896 72.035 69.7768 72.0387 68.6294L72.0565 63.1074C72.0603 61.9599 72.3185 60.9488 72.8313 60.074C73.3441 59.1992 74.0714 58.5242 75.0132 58.0492C75.955 57.5742 77.0474 57.3388 78.2904 57.3429C79.5176 57.3469 80.5925 57.5815 81.5153 58.0467C82.4541 58.496 83.1772 59.1439 83.6844 59.9902C84.2076 60.8206 84.4675 61.7856 84.4639 62.8852C84.4635 63.0287 84.3676 63.116 84.1762 63.1472L81.3788 63.3054L81.331 63.3052C81.1717 63.3047 81.0923 63.2168 81.0928 63.0415C81.0956 62.1968 80.8348 61.5187 80.3105 61.007C79.8022 60.4953 79.1257 60.2381 78.2811 60.2353C77.4205 60.2325 76.7265 60.4852 76.1989 60.9935C75.6873 61.5017 75.4301 62.1782 75.4274 63.0228L75.4088 68.7839C75.4061 69.6126 75.659 70.2827 76.1673 70.7944C76.6915 71.3061 77.384 71.5633 78.2445 71.5662C79.0891 71.5689 79.7673 71.3162 80.2789 70.8079C80.8064 70.2997 81.0716 69.6312 81.0742 68.8025C81.0748 68.6272 81.1707 68.5399 81.3619 68.5405L84.1584 68.6692C84.2381 68.6695 84.3017 68.6936 84.3494 68.7416C84.413 68.7896 84.4447 68.8455 84.4445 68.9092C84.4409 70.0088 84.1748 70.9801 83.6462 71.823C83.1335 72.6659 82.4063 73.317 81.4646 73.776C80.5387 74.2351 79.4623 74.4627 78.2352 74.4586Z" fill="white"/>
<path d="M98.3121 57.6C98.3917 57.6002 98.4554 57.6323 98.503 57.6962C98.5666 57.7442 98.5982 57.8081 98.598 57.8878L98.5904 60.2304C98.5902 60.3101 98.5581 60.3817 98.4941 60.4453C98.4461 60.4929 98.3823 60.5166 98.3026 60.5163L94.0237 60.5023C93.944 60.502 93.904 60.5417 93.9038 60.6214L93.8605 74.0319C93.8602 74.1116 93.8281 74.1832 93.7642 74.2468C93.7162 74.2944 93.6524 74.3181 93.5727 74.3178L90.7759 74.3086C90.6962 74.3084 90.6245 74.2842 90.5609 74.2362C90.5133 74.1723 90.4897 74.1005 90.4899 74.0208L90.5332 60.6103C90.5335 60.5306 90.4938 60.4907 90.4141 60.4904L86.2547 60.4767C86.175 60.4765 86.1034 60.4523 86.0398 60.4043C85.9922 60.3404 85.9685 60.2686 85.9687 60.1889L85.9763 57.8463C85.9766 57.7666 86.0007 57.7029 86.0486 57.6553C86.1126 57.5917 86.1844 57.5601 86.2641 57.5603L98.3121 57.6Z" fill="white"/>
</svg>
