<svg width="262" height="75" viewBox="0 0 262 75" fill="none" xmlns="http://www.w3.org/2000/svg">
<path d="M7.19166 17.2485C5.94861 17.2444 4.85774 17.0018 3.91903 16.5206C2.98038 16.0235 2.25748 15.3358 1.75034 14.4576C1.24321 13.5795 0.991492 12.5666 0.995197 11.4192L1.01303 5.89724C1.01673 4.74981 1.27498 3.73869 1.78778 2.86386C2.30058 1.98903 3.02787 1.31412 3.96967 0.839116C4.91146 0.364116 6.00388 0.12866 7.24693 0.132748C8.47403 0.136785 9.549 0.371402 10.4718 0.836599C11.4106 1.28591 12.1337 1.93372 12.6409 2.78003C13.1641 3.61046 13.424 4.57548 13.4204 5.6751C13.4199 5.81852 13.324 5.90586 13.1327 5.9371L10.3353 6.09524L10.2875 6.09508C10.1281 6.09456 10.0487 6.00664 10.0493 5.83134C10.052 4.98671 9.79127 4.30855 9.26701 3.79685C8.75869 3.28521 8.08222 3.02799 7.23759 3.02522C6.37702 3.02238 5.68296 3.27509 5.15541 3.78332C4.64379 4.29161 4.38662 4.96807 4.3839 5.81271L4.36529 11.5737C4.36262 12.4024 4.61544 13.0726 5.12376 13.5842C5.64802 14.0959 6.34043 14.3532 7.201 14.356C8.04563 14.3588 8.72375 14.1061 9.23537 13.5978C9.76291 13.0895 10.028 12.4211 10.0307 11.5924C10.0313 11.4171 10.1272 11.3297 10.3184 11.3304L13.1149 11.4591C13.1946 11.4593 13.2582 11.4835 13.3059 11.5314C13.3695 11.5794 13.4012 11.6353 13.401 11.6991C13.3974 12.7987 13.1313 13.77 12.6027 14.6129C12.09 15.4558 11.3628 16.1068 10.421 16.5659C9.49522 17.025 8.41876 17.2525 7.19166 17.2485Z" fill="white"/>
<path d="M25.0347 17.116C24.8753 17.1154 24.764 17.0434 24.7007 16.8997L21.734 10.2683C21.7024 10.2044 21.6546 10.1724 21.5909 10.1722L19.3678 10.1649C19.2881 10.1646 19.2481 10.2043 19.2479 10.284L19.2268 16.81C19.2265 16.8897 19.1944 16.9613 19.1305 17.0248C19.0825 17.0725 19.0187 17.0962 18.939 17.0959L16.1422 17.0867C16.0625 17.0864 15.9908 17.0623 15.9272 17.0143C15.8796 16.9504 15.856 16.8786 15.8562 16.7989L15.9084 0.639337C15.9087 0.559655 15.9328 0.495987 15.9807 0.448335C16.0447 0.384799 16.1165 0.353162 16.1962 0.353424L23.0329 0.375912C24.0529 0.379267 24.9446 0.589376 25.7082 1.00624C26.4878 1.42316 27.0835 2.01477 27.4954 2.78108C27.9232 3.54745 28.1355 4.43263 28.1322 5.43663C28.1287 6.52031 27.8548 7.4517 27.3104 8.2308C26.7661 8.99397 26.0074 9.53332 25.0343 9.84885C24.9545 9.88046 24.9304 9.93616 24.962 10.0159L28.1912 16.7917C28.2229 16.8555 28.2386 16.9034 28.2385 16.9353C28.2381 17.0627 28.1503 17.1262 27.975 17.1256L25.0347 17.116ZM19.3901 3.25643C19.3104 3.25617 19.2704 3.29588 19.2702 3.37556L19.257 7.46326C19.2567 7.54294 19.2964 7.58291 19.3761 7.58318L22.5076 7.59348C23.1769 7.59568 23.7194 7.39826 24.1351 7.00121C24.5666 6.60421 24.7834 6.08698 24.7855 5.44952C24.7876 4.81207 24.5741 4.29342 24.1451 3.8936C23.7321 3.47789 23.1909 3.26893 22.5216 3.26673L19.3901 3.25643Z" fill="white"/>
<path d="M30.8258 17.135C30.7461 17.1347 30.6745 17.1106 30.6109 17.0626C30.5633 16.9987 30.5396 16.9269 30.5399 16.8472L30.592 0.687636C30.5923 0.607953 30.6164 0.544286 30.6644 0.496634C30.7283 0.433097 30.8001 0.40146 30.8798 0.401722L33.6767 0.410922C33.7563 0.411184 33.82 0.443267 33.8676 0.50717C33.9312 0.555189 33.9629 0.61904 33.9626 0.698722L33.9104 16.8583C33.9102 16.938 33.8781 17.0096 33.8141 17.0731C33.7661 17.1208 33.7023 17.1445 33.6226 17.1442L30.8258 17.135Z" fill="white"/>
<path d="M47.6291 0.648056C47.7092 0.520826 47.821 0.457447 47.9644 0.457919L50.7612 0.467118C50.8409 0.46738 50.9046 0.499463 50.9522 0.563366C51.0158 0.611386 51.0474 0.675236 51.0472 0.754919L50.995 16.9145C50.9947 16.9942 50.9626 17.0658 50.8987 17.1293C50.8507 17.177 50.7869 17.2007 50.7072 17.2004L47.9104 17.1912C47.8307 17.1909 47.759 17.1668 47.6954 17.1188C47.6478 17.0549 47.6242 16.9831 47.6244 16.9034L47.6585 6.36143C47.6587 6.29769 47.6428 6.26576 47.611 6.26566C47.5791 6.26555 47.5471 6.28935 47.5151 6.33706L44.9684 10.2969C44.8883 10.4241 44.7765 10.4875 44.6331 10.487L43.2227 10.4824C43.0793 10.4819 42.968 10.4178 42.8887 10.2901L40.3676 6.31355C40.3359 6.26563 40.3041 6.24959 40.2721 6.26542C40.2403 6.26532 40.2242 6.29714 40.224 6.36088L40.1901 16.8789C40.1898 16.9586 40.1577 17.0302 40.0938 17.0938C40.0458 17.1414 39.982 17.1651 39.9023 17.1649L37.1054 17.1557C37.0258 17.1554 36.9541 17.1313 36.8905 17.0832C36.8429 17.0193 36.8192 16.9475 36.8195 16.8679L36.8717 0.708291C36.8719 0.628609 36.8961 0.564942 36.944 0.517289C37.008 0.453753 37.0798 0.422116 37.1595 0.422378L39.9563 0.431578C40.0997 0.432049 40.2111 0.496162 40.2904 0.623916L43.8581 6.2055C43.9056 6.30128 43.9534 6.30144 44.0015 6.20598L47.6291 0.648056Z" fill="white"/>
<path d="M54.1935 17.2119C54.1139 17.2116 54.0422 17.1875 53.9786 17.1394C53.931 17.0755 53.9074 17.0038 53.9076 16.9241L53.9598 0.764499C53.9601 0.684817 53.9842 0.62115 54.0321 0.573497C54.0961 0.509961 54.1679 0.478324 54.2476 0.478586L57.0444 0.487785C57.1241 0.488048 57.1878 0.52013 57.2354 0.584033C57.2989 0.632053 57.3306 0.695904 57.3304 0.775586L57.2782 16.9352C57.2779 17.0148 57.2458 17.0864 57.1819 17.15C57.1339 17.1976 57.0701 17.2213 56.9904 17.2211L54.1935 17.2119Z" fill="white"/>
<path d="M69.8491 0.816764C69.8494 0.737082 69.8735 0.673414 69.9215 0.625762C69.9854 0.562226 70.0572 0.530588 70.1369 0.530851L72.9338 0.54005C73.0134 0.540312 73.0771 0.572395 73.1247 0.636298C73.1883 0.684318 73.2199 0.748168 73.2197 0.827851L73.1675 16.9874C73.1673 17.0671 73.1351 17.1387 73.0712 17.2022C73.0232 17.2499 72.9594 17.2736 72.8797 17.2733L70.1785 17.2644C70.0191 17.2639 69.9078 17.1998 69.8445 17.0721L63.6862 6.82054C63.6545 6.77262 63.6226 6.75658 63.5907 6.77241C63.5588 6.77231 63.5428 6.80413 63.5426 6.86788L63.5578 16.9558C63.5576 17.0355 63.5255 17.1071 63.4615 17.1706C63.4136 17.2183 63.3497 17.242 63.27 17.2417L60.4732 17.2325C60.3935 17.2323 60.3219 17.2081 60.2583 17.1601C60.2107 17.0962 60.187 17.0244 60.1873 16.9447L60.2394 0.785155C60.2397 0.705473 60.2638 0.641805 60.3118 0.594153C60.3757 0.530616 60.4476 0.498979 60.5272 0.499241L63.2285 0.508127C63.3878 0.508651 63.4992 0.572764 63.5625 0.700465L69.697 10.9042C69.7288 10.9521 69.7605 10.9761 69.7924 10.9762C69.8243 10.9603 69.8404 10.9206 69.8406 10.8568L69.8491 0.816764Z" fill="white"/>
<path d="M86.7215 17.3189C86.5621 17.3183 86.4588 17.2383 86.4115 17.0788L85.7019 14.7338C85.6702 14.6699 85.6305 14.6379 85.5827 14.6378L79.7021 14.6184C79.6543 14.6183 79.6144 14.65 79.5823 14.7136L78.8815 17.054C78.8332 17.2132 78.7293 17.2926 78.57 17.2921L75.5341 17.2821C75.4385 17.2818 75.3668 17.2576 75.3192 17.2096C75.2716 17.1457 75.2639 17.0581 75.2961 16.9466L80.5117 0.804025C80.56 0.644818 80.6639 0.565477 80.8232 0.566001L84.5763 0.578346C84.7356 0.57887 84.839 0.658893 84.8863 0.818415L89.9975 16.995C90.0133 17.0269 90.0212 17.0668 90.021 17.1146C90.0206 17.258 89.9327 17.3294 89.7574 17.3288L86.7215 17.3189ZM80.4521 11.8718C80.4358 11.9674 80.4675 12.0153 80.5472 12.0156L84.7544 12.0294C84.8501 12.0297 84.8821 11.982 84.8505 11.8863L82.722 4.77952C82.7063 4.71572 82.6825 4.69174 82.6505 4.70757C82.6187 4.70746 82.5947 4.73129 82.5786 4.77905L80.4521 11.8718Z" fill="white"/>
<path d="M92.4084 17.3376C92.3287 17.3373 92.257 17.3132 92.1934 17.2651C92.1458 17.2012 92.1222 17.1295 92.1224 17.0498L92.1746 0.890199C92.1749 0.810517 92.199 0.746849 92.2469 0.699197C92.3109 0.635661 92.3827 0.604023 92.4624 0.604286L95.2592 0.613485C95.3389 0.613747 95.4026 0.64583 95.4502 0.709733C95.5138 0.757753 95.5454 0.821603 95.5452 0.901286L95.5018 14.3357C95.5015 14.4154 95.5412 14.4554 95.6209 14.4556L103.438 14.4814C103.517 14.4816 103.581 14.5137 103.629 14.5776C103.692 14.6256 103.724 14.6895 103.724 14.7691L103.716 17.0879C103.716 17.1676 103.684 17.2392 103.62 17.3027C103.572 17.3504 103.508 17.3741 103.428 17.3738L92.4084 17.3376Z" fill="white"/>
<path d="M115.582 17.605C114.371 17.601 113.312 17.3745 112.405 16.9252C111.514 16.4602 110.823 15.8204 110.332 15.006C109.84 14.1757 109.596 13.2187 109.6 12.135L109.605 10.629C109.605 10.5494 109.629 10.4857 109.677 10.438C109.741 10.3745 109.813 10.3429 109.893 10.3431L112.689 10.3523C112.769 10.3526 112.833 10.3847 112.88 10.4486C112.944 10.4966 112.976 10.5604 112.975 10.6401L112.97 12.1461C112.968 12.9111 113.197 13.5333 113.658 14.013C114.134 14.4767 114.779 14.7099 115.592 14.7126C116.373 14.7151 117.011 14.4862 117.506 14.0256C118.018 13.5492 118.275 12.9285 118.277 12.1636L118.313 0.976177C118.314 0.896495 118.338 0.832828 118.386 0.785175C118.45 0.721639 118.522 0.690002 118.601 0.690264L121.374 0.699385C121.454 0.699647 121.517 0.73173 121.565 0.795633C121.629 0.843652 121.66 0.907503 121.66 0.987185L121.624 12.1746C121.62 13.2583 121.362 14.2136 120.85 15.0406C120.337 15.8517 119.626 16.4868 118.716 16.946C117.806 17.3892 116.762 17.6089 115.582 17.605Z" fill="white"/>
<path d="M130.595 17.6544C129.368 17.6504 128.285 17.4078 127.346 16.9266C126.423 16.4454 125.7 15.7737 125.177 14.9114C124.67 14.0332 124.418 13.0284 124.422 11.8969L124.457 0.996386C124.457 0.916703 124.481 0.853036 124.529 0.805384C124.593 0.741847 124.665 0.71021 124.745 0.710472L127.542 0.719672C127.621 0.719934 127.685 0.752017 127.733 0.81592C127.796 0.863939 127.828 0.92779 127.828 1.00747L127.792 11.9319C127.79 12.7765 128.042 13.4627 128.551 13.9902C129.075 14.5019 129.759 14.7592 130.604 14.7619C131.449 14.7647 132.127 14.512 132.638 14.0037C133.166 13.4795 133.431 12.7951 133.434 11.9505L133.469 1.02603C133.469 0.946347 133.494 0.882679 133.542 0.835027C133.605 0.771491 133.677 0.739854 133.757 0.740116L136.554 0.749315C136.634 0.749577 136.697 0.78166 136.745 0.845563C136.808 0.893583 136.84 0.957433 136.84 1.03712L136.805 11.9377C136.801 13.0691 136.535 14.0723 136.006 14.9471C135.493 15.8059 134.766 16.4729 133.824 16.9479C132.898 17.4229 131.822 17.6584 130.595 17.6544Z" fill="white"/>
<path d="M145.294 17.7028C144.019 17.6986 142.904 17.4957 141.949 17.0941C140.994 16.6766 140.255 16.0925 139.732 15.3418C139.224 14.5752 138.972 13.6898 138.975 12.6858L138.977 12.1599C138.977 12.0803 139.001 12.0166 139.049 11.9689C139.113 11.9054 139.185 11.8738 139.265 11.874L141.99 11.883C142.07 11.8833 142.133 11.9153 142.181 11.9792C142.244 12.0273 142.276 12.0911 142.276 12.1708L142.275 12.5294C142.273 13.1668 142.566 13.7096 143.154 14.1578C143.742 14.59 144.538 14.8078 145.542 14.8111C146.387 14.8139 147.017 14.6406 147.432 14.2914C147.848 13.9262 148.057 13.4807 148.058 12.9548C148.059 12.5723 147.933 12.2532 147.679 11.9973C147.425 11.7256 147.075 11.4933 146.629 11.3006C146.2 11.092 145.507 10.8109 144.552 10.4571C143.486 10.0871 142.579 9.70958 141.831 9.32464C141.099 8.93976 140.479 8.41978 139.971 7.76471C139.479 7.09375 139.235 6.27221 139.238 5.30008C139.241 4.3439 139.491 3.50805 139.987 2.79253C140.484 2.07701 141.171 1.52946 142.048 1.14987C142.926 0.770277 143.939 0.582368 145.086 0.586142C146.297 0.590126 147.372 0.808806 148.311 1.24218C149.266 1.67561 150.005 2.28364 150.529 3.06625C151.068 3.83298 151.336 4.72632 151.333 5.74625L151.331 6.10482C151.331 6.1845 151.299 6.25611 151.235 6.31965C151.187 6.3673 151.123 6.391 151.044 6.39073L148.295 6.38169C148.215 6.38143 148.143 6.35729 148.08 6.30927C148.032 6.24537 148.008 6.17357 148.009 6.09389L148.009 5.90265C148.011 5.23332 147.734 4.66666 147.178 4.20267C146.638 3.72279 145.89 3.48128 144.933 3.47814C144.184 3.47567 143.594 3.6331 143.163 3.95041C142.748 4.26778 142.539 4.70535 142.537 5.26313C142.536 5.66154 142.654 5.9966 142.892 6.2683C143.147 6.54006 143.512 6.78828 143.99 7.01297C144.483 7.22176 145.239 7.51111 146.258 7.881C147.388 8.29907 148.271 8.66852 148.908 8.98935C149.56 9.31023 150.14 9.79023 150.648 10.4294C151.172 11.0526 151.432 11.8662 151.429 12.8702C151.424 14.3683 150.871 15.5537 149.768 16.4266C148.666 17.2836 147.174 17.7089 145.294 17.7028Z" fill="white"/>
<path d="M165.187 0.843499C165.267 0.843761 165.331 0.875844 165.378 0.939747C165.442 0.987767 165.474 1.05162 165.473 1.1313L165.466 3.47396C165.465 3.55364 165.433 3.62525 165.369 3.68879C165.321 3.73644 165.258 3.76013 165.178 3.75987L160.899 3.7458C160.819 3.74554 160.779 3.78525 160.779 3.86493L160.736 17.2755C160.736 17.3551 160.703 17.4267 160.639 17.4903C160.591 17.5379 160.528 17.5616 160.448 17.5614L157.651 17.5522C157.571 17.5519 157.5 17.5278 157.436 17.4798C157.389 17.4158 157.365 17.3441 157.365 17.2644L157.409 3.85384C157.409 3.77416 157.369 3.73419 157.289 3.73392L153.13 3.72024C153.05 3.71998 152.979 3.69584 152.915 3.64782C152.867 3.58392 152.844 3.51212 152.844 3.43244L152.852 1.08978C152.852 1.0101 152.876 0.946434 152.924 0.898781C152.988 0.835245 153.06 0.803608 153.139 0.80387L165.187 0.843499Z" fill="white"/>
<path d="M167.858 17.5857C167.778 17.5855 167.706 17.5613 167.643 17.5133C167.595 17.4494 167.571 17.3776 167.572 17.2979L167.624 1.13837C167.624 1.05869 167.648 0.995024 167.696 0.947371C167.76 0.883835 167.832 0.852198 167.912 0.85246L170.708 0.86166C170.788 0.861922 170.852 0.894004 170.899 0.957908C170.963 1.00593 170.995 1.06978 170.994 1.14946L170.942 17.309C170.942 17.3887 170.91 17.4603 170.846 17.5239C170.798 17.5715 170.734 17.5952 170.654 17.5949L167.858 17.5857Z" fill="white"/>
<path d="M179.73 17.816C178.487 17.8119 177.396 17.5693 176.458 17.0881C175.519 16.591 174.796 15.9033 174.289 15.0252C173.782 14.147 173.53 13.1342 173.534 11.9868L173.552 6.46477C173.555 5.31734 173.814 4.30622 174.326 3.43139C174.839 2.55656 175.566 1.88165 176.508 1.40665C177.45 0.931646 178.542 0.69619 179.785 0.700278C181.013 0.704315 182.088 0.938932 183.01 1.40413C183.949 1.85344 184.672 2.50125 185.179 3.34756C185.703 4.17799 185.963 5.14301 185.959 6.24263C185.959 6.38605 185.863 6.47339 185.671 6.50463L182.874 6.66277L182.826 6.66261C182.667 6.66209 182.587 6.57417 182.588 6.39887C182.591 5.55424 182.33 4.87608 181.806 4.36438C181.297 3.85274 180.621 3.59552 179.776 3.59275C178.916 3.58992 178.222 3.84262 177.694 4.35086C177.182 4.85914 176.925 5.5356 176.922 6.38024L176.904 12.1413C176.901 12.97 177.154 13.6401 177.662 14.1518C178.187 14.6635 178.879 14.9207 179.74 14.9236C180.584 14.9263 181.262 14.6736 181.774 14.1653C182.301 13.6571 182.567 12.9886 182.569 12.1599C182.57 11.9846 182.666 11.8973 182.857 11.8979L185.653 12.0266C185.733 12.0269 185.797 12.051 185.844 12.099C185.908 12.147 185.94 12.2029 185.94 12.2666C185.936 13.3662 185.67 14.3375 185.141 15.1804C184.629 16.0233 183.901 16.6743 182.96 17.1334C182.034 17.5925 180.957 17.8201 179.73 17.816Z" fill="white"/>
<path d="M200.057 3.56384C200.057 3.64352 200.025 3.71513 199.961 3.77866C199.913 3.82632 199.849 3.85001 199.769 3.84975L191.929 3.82396C191.849 3.8237 191.809 3.86341 191.809 3.94309L191.797 7.64832C191.797 7.728 191.836 7.76797 191.916 7.76823L197.055 7.78514C197.135 7.7854 197.199 7.81748 197.246 7.88138C197.31 7.9294 197.342 7.99325 197.341 8.07294L197.334 10.3917C197.334 10.4714 197.301 10.543 197.238 10.6065C197.19 10.6542 197.126 10.6779 197.046 10.6776L191.907 10.6607C191.827 10.6604 191.787 10.7001 191.787 10.7798L191.774 14.6524C191.774 14.7321 191.814 14.772 191.893 14.7723L199.734 14.7981C199.814 14.7984 199.877 14.8304 199.925 14.8943C199.989 14.9424 200.02 15.0062 200.02 15.0859L200.012 17.4047C200.012 17.4843 199.98 17.5559 199.916 17.6195C199.868 17.6671 199.804 17.6908 199.725 17.6906L188.681 17.6542C188.601 17.654 188.529 17.6298 188.466 17.5818C188.418 17.5179 188.395 17.4461 188.395 17.3664L188.447 1.20687C188.447 1.12718 188.471 1.06352 188.519 1.01586C188.583 0.952329 188.655 0.920692 188.735 0.920954L199.779 0.957281C199.858 0.957543 199.922 0.989625 199.97 1.05353C200.033 1.10155 200.065 1.1654 200.065 1.24508L200.057 3.56384Z" fill="white"/>
<path d="M221.316 17.403C221.38 17.4988 221.411 17.5627 221.411 17.5946C221.411 17.7061 221.323 17.7616 221.148 17.761L218.016 17.7507C217.873 17.7503 217.753 17.6941 217.658 17.5822L216.729 16.5752C216.697 16.5272 216.642 16.5191 216.562 16.5507C215.077 17.4701 213.482 17.9271 211.776 17.9214C210.278 17.9165 209.028 17.5618 208.027 16.8573C207.041 16.1369 206.55 15.0835 206.555 13.697C206.558 12.6293 206.848 11.7298 207.424 10.9986C208 10.2674 208.783 9.60862 209.773 9.02222C209.869 8.95878 209.877 8.90303 209.798 8.85496C209.004 7.88022 208.48 7.12947 208.227 6.60273C207.974 6.06005 207.848 5.48592 207.85 4.88034C207.853 4.13132 208.054 3.44671 208.454 2.8265C208.871 2.1904 209.446 1.69826 210.18 1.35007C210.931 0.985995 211.784 0.80553 212.74 0.808675C213.712 0.811873 214.58 0.997999 215.344 1.36705C216.124 1.73616 216.727 2.25609 217.156 2.92683C217.584 3.58164 217.796 4.33136 217.794 5.176C217.791 6.16406 217.509 7.02371 216.949 7.75495C216.405 8.47031 215.661 9.12127 214.719 9.70782C214.639 9.75537 214.631 9.81112 214.695 9.87508L216.815 12.2965C216.878 12.3604 216.942 12.3606 217.006 12.2971C217.614 11.6297 218.11 10.9939 218.494 10.3896C218.59 10.2146 218.718 10.1831 218.877 10.2952L220.953 11.4734C221.128 11.5696 221.167 11.6972 221.071 11.8563C220.398 12.9059 219.694 13.8199 218.959 14.5984C218.911 14.646 218.926 14.7178 219.006 14.8137L221.316 17.403ZM212.802 3.86871C212.324 3.86714 211.941 3.99337 211.653 4.24741C211.366 4.48552 211.221 4.81174 211.22 5.22609C211.219 5.4492 211.298 5.69648 211.456 5.96792C211.615 6.23936 211.964 6.70268 212.504 7.35785C212.535 7.4217 212.591 7.43782 212.671 7.40621C213.246 7.04156 213.677 6.69237 213.965 6.35865C214.269 6.02498 214.422 5.65097 214.423 5.23663C214.424 4.82228 214.274 4.49508 213.972 4.25504C213.67 3.99906 213.28 3.87028 212.802 3.86871ZM211.905 15.1011C212.67 15.1036 213.531 14.8355 214.489 14.2968C214.585 14.2334 214.593 14.1776 214.514 14.1296L213.775 13.2905L213.228 12.691C212.878 12.3233 212.473 11.8758 212.013 11.3484C211.981 11.3004 211.925 11.2923 211.845 11.3239C211.271 11.6726 210.831 12.0058 210.527 12.3236C210.224 12.6413 210.047 13.0073 209.998 13.4215C209.982 13.4692 209.974 13.5489 209.973 13.6604C209.972 14.0907 210.146 14.4419 210.496 14.714C210.862 14.9702 211.331 15.0992 211.905 15.1011Z" fill="white"/>
<path d="M8.18225 28.8052C9.23406 28.8087 10.1577 29.0268 10.9531 29.4598C11.7485 29.8927 12.3601 30.5082 12.7878 31.3065C13.2315 32.0888 13.4517 32.99 13.4484 34.0099C13.4452 35.0139 13.2113 35.8976 12.7466 36.661C12.2979 37.4245 11.6586 38.02 10.8285 38.4476C10.0144 38.8593 9.07345 39.0634 8.00571 39.0598L4.61125 39.0487C4.53156 39.0484 4.49159 39.0881 4.49134 39.1678L4.47165 45.2635C4.4714 45.3432 4.43929 45.4148 4.37534 45.4783C4.32738 45.526 4.26355 45.5497 4.18387 45.5494L1.38702 45.5402C1.30734 45.54 1.2357 45.5158 1.17211 45.4678C1.12451 45.4039 1.10084 45.3321 1.10109 45.2524L1.15335 29.0689C1.15361 28.9893 1.17772 28.9256 1.22568 28.8779C1.28963 28.8144 1.36145 28.7828 1.44113 28.783L8.18225 28.8052ZM7.65586 36.3574C8.38894 36.3598 8.97926 36.1546 9.42682 35.7417C9.87443 35.3129 10.0993 34.7559 10.1016 34.0706C10.1038 33.3694 9.88253 32.8029 9.4377 32.3712C8.99287 31.9394 8.40391 31.7223 7.67084 31.7199L4.63494 31.7099C4.55526 31.7097 4.51529 31.7494 4.51503 31.8291L4.50083 36.2275C4.50057 36.3072 4.54029 36.3472 4.61997 36.3474L7.65586 36.3574Z" fill="white"/>
<path d="M21.4345 45.8691C20.1915 45.865 19.0927 45.6064 18.1382 45.0933C17.1996 44.5803 16.4688 43.8687 15.9458 42.9586C15.4229 42.0325 15.1634 40.9719 15.1672 39.7766L15.1837 34.661C15.1875 33.4817 15.4539 32.4388 15.9827 31.5321C16.5115 30.6255 17.2469 29.9267 18.1887 29.4357C19.1466 28.9289 20.247 28.6776 21.49 28.6816C22.749 28.6858 23.8478 28.9444 24.7864 29.4574C25.741 29.9546 26.4798 30.6583 27.0028 31.5684C27.5257 32.4785 27.7853 33.5232 27.7815 34.7025L27.765 39.8181C27.7611 41.0133 27.4948 42.0722 26.9659 42.9948C26.437 43.9174 25.6936 44.6321 24.7358 45.1389C23.7939 45.6299 22.6935 45.8733 21.4345 45.8691ZM21.4439 42.9766C22.3204 42.9795 23.0305 42.703 23.5741 42.147C24.1177 41.591 24.3911 40.8508 24.394 39.9265L24.411 34.6675C24.414 33.7432 24.1455 33.0012 23.6054 32.4417C23.0814 31.8662 22.3731 31.577 21.4807 31.5741C20.6042 31.5712 19.8941 31.8558 19.3504 32.4277C18.8227 32.9837 18.5574 33.7239 18.5544 34.6482L18.5374 39.9073C18.5344 40.8316 18.795 41.5735 19.3191 42.133C19.8591 42.6925 20.5674 42.9738 21.4439 42.9766Z" fill="white"/>
<path d="M30.617 45.6364C30.5373 45.6361 30.4657 45.612 30.4021 45.5639C30.3545 45.5 30.3308 45.4282 30.3311 45.3486L30.3833 29.189C30.3835 29.1093 30.4077 29.0456 30.4556 28.998C30.5196 28.9345 30.5914 28.9028 30.6711 28.9031L33.4679 28.9123C33.5476 28.9125 33.6112 28.9446 33.6588 29.0085C33.7224 29.0566 33.7541 29.1204 33.7538 29.2001L33.7105 42.6345C33.7102 42.7142 33.7499 42.7542 33.8296 42.7544L41.6464 42.7801C41.7261 42.7804 41.7898 42.8125 41.8374 42.8764C41.901 42.9244 41.9326 42.9883 41.9324 43.0679L41.9249 45.3867C41.9246 45.4664 41.8925 45.538 41.8286 45.6015C41.7806 45.6492 41.7168 45.6729 41.6371 45.6726L30.617 45.6364Z" fill="white"/>
<path d="M44.2969 45.6814C44.2172 45.6811 44.1455 45.657 44.082 45.6089C44.0343 45.545 44.0107 45.4732 44.0109 45.3936L44.0631 29.234C44.0634 29.1543 44.0875 29.0906 44.1354 29.043C44.1994 28.9795 44.2712 28.9478 44.3509 28.9481L47.1477 28.9573C47.2274 28.9575 47.2911 28.9896 47.3387 29.0535C47.4023 29.1015 47.4339 29.1654 47.4337 29.2451L47.3815 45.4047C47.3812 45.4843 47.3491 45.5559 47.2852 45.6195C47.2372 45.6671 47.1734 45.6908 47.0937 45.6906L44.2969 45.6814Z" fill="white"/>
<path d="M56.1696 45.9117C54.9265 45.9076 53.8357 45.6649 52.897 45.1837C51.9583 44.6866 51.2354 43.999 50.7283 43.1208C50.2211 42.2426 49.9694 41.2298 49.9731 40.0824L49.991 34.5604C49.9947 33.413 50.2529 32.4018 50.7657 31.527C51.2785 30.6522 52.0058 29.9773 52.9476 29.5023C53.8894 29.0273 54.9818 28.7918 56.2249 28.7959C57.452 28.7999 58.5269 29.0346 59.4497 29.4997C60.3886 29.9491 61.1116 30.5969 61.6188 31.4432C62.1421 32.2736 62.4019 33.2386 62.3983 34.3382C62.3979 34.4817 62.302 34.569 62.1106 34.6003L59.3132 34.7584L59.2654 34.7582C59.1061 34.7577 59.0267 34.6698 59.0272 34.4945C59.03 33.6499 58.7692 32.9717 58.2449 32.46C57.7366 31.9484 57.0601 31.6911 56.2155 31.6884C55.3549 31.6855 54.6609 31.9382 54.1333 32.4465C53.6217 32.9548 53.3646 33.6312 53.3618 34.4759L53.3432 40.2369C53.3405 41.0656 53.5934 41.7358 54.1017 42.2474C54.6259 42.7591 55.3184 43.0164 56.1789 43.0192C57.0236 43.022 57.7017 42.7692 58.2133 42.2609C58.7408 41.7527 59.006 41.0842 59.0086 40.2555C59.0092 40.0802 59.1051 39.9929 59.2963 39.9935L62.0928 40.1222C62.1725 40.1225 62.2362 40.1466 62.2838 40.1946C62.3474 40.2426 62.3791 40.2985 62.3789 40.3622C62.3753 41.4618 62.1092 42.4331 61.5806 43.276C61.0679 44.119 60.3407 44.77 59.399 45.229C58.4732 45.6882 57.3967 45.9157 56.1696 45.9117Z" fill="white"/>
<path d="M76.4965 31.6595C76.4963 31.7391 76.4642 31.8107 76.4002 31.8743C76.3522 31.9219 76.2884 31.9456 76.2087 31.9454L68.368 31.9196C68.2883 31.9193 68.2483 31.959 68.2481 32.0387L68.2361 35.7439C68.2359 35.8236 68.2756 35.8636 68.3553 35.8639L73.4948 35.8808C73.5745 35.881 73.6381 35.9131 73.6857 35.977C73.7493 36.025 73.781 36.0889 73.7807 36.1686L73.7732 38.4873C73.773 38.567 73.7409 38.6386 73.6769 38.7021C73.6289 38.7498 73.5651 38.7735 73.4854 38.7732L68.3459 38.7563C68.2662 38.7561 68.2263 38.7958 68.226 38.8754L68.2135 42.748C68.2132 42.8277 68.253 42.8677 68.3327 42.8679L76.1734 42.8937C76.2531 42.894 76.3167 42.9261 76.3643 42.99C76.4279 43.038 76.4596 43.1018 76.4593 43.1815L76.4518 45.5003C76.4516 45.58 76.4195 45.6516 76.3555 45.7151C76.3076 45.7628 76.2437 45.7864 76.164 45.7862L65.1201 45.7499C65.0404 45.7496 64.9688 45.7255 64.9052 45.6774C64.8576 45.6135 64.8339 45.5417 64.8341 45.4621L64.8863 29.3025C64.8866 29.2228 64.9107 29.1591 64.9587 29.1115C65.0226 29.0479 65.0944 29.0163 65.1741 29.0166L76.2181 29.0529C76.2978 29.0532 76.3614 29.0852 76.409 29.1491C76.4726 29.1972 76.5043 29.261 76.504 29.3407L76.4965 31.6595Z" fill="white"/>
<path d="M94.2164 45.8456C94.057 45.845 93.9537 45.765 93.9064 45.6055L93.1968 43.2605C93.1651 43.1966 93.1254 43.1646 93.0776 43.1645L87.197 43.1451C87.1492 43.145 87.1093 43.1767 87.0772 43.2403L86.3764 45.5807C86.3281 45.7399 86.2242 45.8193 86.0649 45.8188L83.029 45.8088C82.9334 45.8085 82.8617 45.7843 82.8141 45.7363C82.7665 45.6724 82.7588 45.5848 82.791 45.4733L88.0066 29.3307C88.0549 29.1715 88.1588 29.0922 88.3181 29.0927L92.0712 29.105C92.2305 29.1056 92.3339 29.1856 92.3812 29.3451L97.4924 45.5217C97.5082 45.5536 97.5161 45.5935 97.5159 45.6413C97.5155 45.7847 97.4276 45.8561 97.2523 45.8556L94.2164 45.8456ZM87.947 40.3985C87.9307 40.4941 87.9624 40.542 88.0421 40.5423L92.2493 40.5561C92.345 40.5564 92.377 40.5087 92.3454 40.413L90.2169 33.3062C90.2012 33.2424 90.1774 33.2184 90.1454 33.2343C90.1136 33.2342 90.0896 33.258 90.0735 33.3057L87.947 40.3985Z" fill="white"/>
<path d="M104.983 46.0722C103.74 46.0681 102.649 45.8255 101.71 45.3443C100.771 44.8472 100.049 44.1595 99.5414 43.2813C99.0343 42.4032 98.7826 41.3904 98.7863 40.2429L98.8041 34.721C98.8078 33.5735 99.0661 32.5624 99.5789 31.6876C100.092 30.8127 100.819 30.1378 101.761 29.6628C102.703 29.1878 103.795 28.9524 105.038 28.9565C106.265 28.9605 107.34 29.1951 108.263 29.6603C109.202 30.1096 109.925 30.7574 110.432 31.6037C110.955 32.4342 111.215 33.3992 111.212 34.4988C111.211 34.6422 111.115 34.7296 110.924 34.7608L108.126 34.9189L108.079 34.9188C107.919 34.9183 107.84 34.8304 107.84 34.6551C107.843 33.8104 107.582 33.1323 107.058 32.6206C106.55 32.1089 105.873 31.8517 105.029 31.8489C104.168 31.8461 103.474 32.0988 102.947 32.607C102.435 33.1153 102.178 33.7918 102.175 34.6364L102.156 40.3974C102.154 41.2261 102.407 41.8963 102.915 42.408C103.439 42.9197 104.132 43.1769 104.992 43.1798C105.837 43.1825 106.515 42.9298 107.026 42.4215C107.554 41.9132 107.819 41.2448 107.822 40.4161C107.822 40.2408 107.918 40.1534 108.11 40.1541L110.906 40.2828C110.986 40.2831 111.049 40.3072 111.097 40.3551C111.161 40.4032 111.192 40.459 111.192 40.5228C111.189 41.6224 110.922 42.5937 110.394 43.4366C109.881 44.2795 109.154 44.9305 108.212 45.3896C107.286 45.8487 106.21 46.0763 104.983 46.0722Z" fill="white"/>
<path d="M119.526 46.1201C118.283 46.116 117.192 45.8733 116.254 45.3921C115.315 44.895 114.592 44.2074 114.085 43.3292C113.578 42.451 113.326 41.4382 113.33 40.2908L113.348 34.7688C113.351 33.6214 113.61 32.6102 114.122 31.7354C114.635 30.8606 115.363 30.1857 116.304 29.7107C117.246 29.2357 118.339 29.0002 119.582 29.0043C120.809 29.0083 121.884 29.243 122.806 29.7081C123.745 30.1575 124.468 30.8053 124.976 31.6516C125.499 32.482 125.759 33.447 125.755 34.5466C125.755 34.6901 125.659 34.7774 125.467 34.8087L122.67 34.9668L122.622 34.9666C122.463 34.9661 122.383 34.8782 122.384 34.7029C122.387 33.8583 122.126 33.1801 121.602 32.6684C121.093 32.1568 120.417 31.8995 119.572 31.8968C118.712 31.8939 118.018 32.1466 117.49 32.6549C116.978 33.1632 116.721 33.8396 116.719 34.6843L116.7 40.4453C116.697 41.274 116.95 41.9442 117.458 42.4558C117.983 42.9675 118.675 43.2248 119.536 43.2276C120.38 43.2304 121.058 42.9776 121.57 42.4693C122.098 41.9611 122.363 41.2926 122.365 40.4639C122.366 40.2886 122.462 40.2013 122.653 40.2019L125.45 40.3306C125.529 40.3309 125.593 40.355 125.641 40.403C125.704 40.451 125.736 40.5069 125.736 40.5706C125.732 41.6702 125.466 42.6415 124.937 43.4844C124.425 44.3274 123.697 44.9784 122.756 45.4374C121.83 45.8965 120.753 46.1241 119.526 46.1201Z" fill="white"/>
<path d="M134.141 46.2398C132.898 46.2358 131.8 45.9772 130.845 45.464C129.906 44.951 129.176 44.2394 128.653 43.3293C128.13 42.4032 127.87 41.3426 127.874 40.1474L127.891 35.0318C127.894 33.8525 128.161 32.8095 128.69 31.9028C129.218 30.9962 129.954 30.2974 130.896 29.8065C131.853 29.2996 132.954 29.0483 134.197 29.0524C135.456 29.0565 136.555 29.3151 137.493 29.8282C138.448 30.3253 139.187 31.029 139.71 31.9391C140.233 32.8492 140.492 33.8939 140.488 35.0732L140.472 40.1888C140.468 41.384 140.202 42.443 139.673 43.3655C139.144 44.2881 138.4 45.0028 137.443 45.5097C136.501 46.0006 135.4 46.244 134.141 46.2398ZM134.151 43.3474C135.027 43.3503 135.737 43.0737 136.281 42.5177C136.825 41.9617 137.098 41.2216 137.101 40.2972L137.118 35.0382C137.121 34.1139 136.852 33.372 136.312 32.8124C135.788 32.237 135.08 31.9478 134.188 31.9448C133.311 31.942 132.601 32.2265 132.057 32.7984C131.53 33.3545 131.264 34.0946 131.261 35.019L131.244 40.278C131.241 41.2023 131.502 41.9442 132.026 42.5037C132.566 43.0633 133.274 43.3445 134.151 43.3474Z" fill="white"/>
<path d="M149.108 46.2174C147.881 46.2133 146.798 45.9707 145.859 45.4895C144.937 45.0084 144.214 44.3367 143.691 43.4744C143.183 42.5962 142.932 41.5914 142.935 40.4599L142.971 29.5593C142.971 29.4796 142.995 29.416 143.043 29.3683C143.107 29.3048 143.179 29.2732 143.258 29.2734L146.055 29.2826C146.135 29.2829 146.199 29.315 146.246 29.3789C146.31 29.4269 146.341 29.4907 146.341 29.5704L146.306 40.4949C146.303 41.3395 146.556 42.0256 147.064 42.5532C147.588 43.0649 148.273 43.3221 149.118 43.3249C149.962 43.3277 150.64 43.0749 151.152 42.5666C151.679 42.0425 151.945 41.358 151.947 40.5134L151.983 29.589C151.983 29.5093 152.007 29.4456 152.055 29.398C152.119 29.3344 152.191 29.3028 152.27 29.3031L155.067 29.3123C155.147 29.3125 155.211 29.3446 155.258 29.4085C155.322 29.4565 155.353 29.5204 155.353 29.6001L155.318 40.5006C155.314 41.6321 155.048 42.6352 154.519 43.51C154.007 44.3689 153.279 45.0358 152.338 45.5108C151.412 45.9859 150.335 46.2214 149.108 46.2174Z" fill="white"/>
<path d="M167.734 29.6408C167.734 29.5611 167.758 29.4974 167.806 29.4498C167.87 29.3862 167.942 29.3546 168.021 29.3549L170.818 29.3641C170.898 29.3643 170.962 29.3964 171.009 29.4603C171.073 29.5083 171.104 29.5722 171.104 29.6519L171.052 45.8114C171.052 45.8911 171.02 45.9627 170.956 46.0263C170.908 46.0739 170.844 46.0976 170.764 46.0974L168.063 46.0885C167.904 46.0879 167.792 46.0238 167.729 45.8961L161.571 35.6446C161.539 35.5966 161.507 35.5806 161.475 35.5964C161.443 35.5963 161.427 35.6281 161.427 35.6919L161.442 45.7798C161.442 45.8595 161.41 45.9311 161.346 45.9947C161.298 46.0423 161.234 46.066 161.155 46.0657L158.358 46.0565C158.278 46.0563 158.206 46.0321 158.143 45.9841C158.095 45.9202 158.071 45.8484 158.072 45.7687L158.124 29.6092C158.124 29.5295 158.148 29.4658 158.196 29.4182C158.26 29.3546 158.332 29.323 158.412 29.3233L161.113 29.3321C161.272 29.3327 161.384 29.3968 161.447 29.5245L167.582 39.7282C167.613 39.7761 167.645 39.8001 167.677 39.8002C167.709 39.7844 167.725 39.7446 167.725 39.6808L167.734 29.6408Z" fill="white"/>
<path d="M185.568 29.4126C185.648 29.4128 185.712 29.4449 185.759 29.5088C185.823 29.5569 185.855 29.6207 185.854 29.7004L185.847 32.043C185.846 32.1227 185.814 32.1943 185.75 32.2579C185.702 32.3055 185.639 32.3292 185.559 32.329L181.28 32.3149C181.2 32.3146 181.16 32.3543 181.16 32.434L181.117 45.8445C181.117 45.9242 181.084 45.9958 181.02 46.0594C180.973 46.107 180.909 46.1307 180.829 46.1305L178.032 46.1213C177.952 46.121 177.881 46.0969 177.817 46.0488C177.77 45.9849 177.746 45.9131 177.746 45.8335L177.79 32.4229C177.79 32.3432 177.75 32.3033 177.67 32.303L173.511 32.2893C173.431 32.2891 173.36 32.2649 173.296 32.2169C173.248 32.153 173.225 32.0812 173.225 32.0015L173.233 29.6589C173.233 29.5792 173.257 29.5155 173.305 29.4679C173.369 29.4043 173.441 29.3727 173.52 29.373L185.568 29.4126Z" fill="white"/>
<path d="M197.049 46.1838C196.889 46.1833 196.786 46.1033 196.739 45.9437L196.029 43.5987C195.997 43.5349 195.958 43.5029 195.91 43.5027L190.029 43.4834C189.981 43.4832 189.941 43.5149 189.909 43.5786L189.209 45.919C189.16 46.0782 189.056 46.1575 188.897 46.157L185.861 46.147C185.766 46.1467 185.694 46.1226 185.646 46.0746C185.599 46.0107 185.591 45.923 185.623 45.8116L190.839 29.669C190.887 29.5098 190.991 29.4304 191.15 29.4309L194.903 29.4433C195.063 29.4438 195.166 29.5238 195.213 29.6834L200.325 45.8599C200.34 45.8918 200.348 45.9317 200.348 45.9795C200.348 46.1229 200.26 46.1944 200.084 46.1938L197.049 46.1838ZM190.779 40.7368C190.763 40.8323 190.795 40.8802 190.874 40.8805L195.081 40.8943C195.177 40.8947 195.209 40.847 195.178 40.7512L193.049 33.6445C193.033 33.5807 193.01 33.5567 192.978 33.5725C192.946 33.5724 192.922 33.5962 192.906 33.644L190.779 40.7368Z" fill="white"/>
<path d="M212.397 37.509C212.301 37.5565 212.301 37.6043 212.397 37.6524C213.908 38.4383 214.661 39.7396 214.655 41.5564C214.65 43.1022 214.12 44.2718 213.066 45.0652C212.012 45.8426 210.632 46.2285 208.927 46.2229L202.735 46.2025C202.656 46.2023 202.584 46.1781 202.52 46.1301C202.473 46.0662 202.449 45.9944 202.449 45.9147L202.502 29.7551C202.502 29.6755 202.526 29.6118 202.574 29.5641C202.638 29.5006 202.71 29.469 202.789 29.4692L208.79 29.489C212.566 29.5014 214.45 31.0375 214.44 34.0973C214.435 35.691 213.754 36.8282 212.397 37.509ZM205.983 32.3722C205.904 32.372 205.864 32.4117 205.863 32.4914L205.851 36.2205C205.851 36.3002 205.891 36.3401 205.971 36.3404L208.767 36.3496C209.516 36.3521 210.099 36.1787 210.514 35.8294C210.93 35.4802 211.138 35.0028 211.14 34.3972C211.142 33.7757 210.937 33.2889 210.523 32.937C210.11 32.5691 209.529 32.3839 208.78 32.3814L205.983 32.3722ZM208.936 43.3065C209.669 43.3089 210.244 43.1275 210.659 42.7624C211.075 42.3813 211.283 41.864 211.286 41.2106C211.288 40.5572 211.082 40.0466 210.669 39.6787C210.256 39.2948 209.675 39.1017 208.926 39.0992L205.962 39.0895C205.882 39.0892 205.842 39.1289 205.842 39.2086L205.829 43.1768C205.829 43.2564 205.868 43.2964 205.948 43.2967L208.936 43.3065Z" fill="white"/>
<path d="M217.559 46.2513C217.479 46.251 217.408 46.2269 217.344 46.1789C217.297 46.115 217.273 46.0432 217.273 45.9635L217.325 29.8039C217.326 29.7242 217.35 29.6606 217.398 29.6129C217.462 29.5494 217.533 29.5177 217.613 29.518L220.41 29.5272C220.49 29.5275 220.553 29.5595 220.601 29.6234C220.665 29.6715 220.696 29.7353 220.696 29.815L220.644 45.9746C220.643 46.0542 220.611 46.1259 220.547 46.1894C220.499 46.237 220.436 46.2607 220.356 46.2605L217.559 46.2513Z" fill="white"/>
<path d="M223.839 46.2719C223.759 46.2717 223.687 46.2475 223.624 46.1995C223.576 46.1356 223.553 46.0638 223.553 45.9841L223.605 29.8246C223.605 29.7449 223.629 29.6812 223.677 29.6336C223.741 29.57 223.813 29.5384 223.893 29.5386L226.69 29.5478C226.769 29.5481 226.833 29.5802 226.881 29.6441C226.944 29.6921 226.976 29.756 226.976 29.8356L226.932 43.2701C226.932 43.3498 226.972 43.3897 227.051 43.39L234.868 43.4157C234.948 43.416 235.011 43.4481 235.059 43.512C235.123 43.56 235.154 43.6238 235.154 43.7035L235.147 46.0223C235.146 46.1019 235.114 46.1736 235.05 46.2371C235.002 46.2847 234.939 46.3084 234.859 46.3082L223.839 46.2719Z" fill="white"/>
<path d="M246.847 29.6142C246.927 29.6144 246.991 29.6465 247.038 29.7104C247.102 29.7584 247.134 29.8223 247.133 29.902L247.126 32.2446C247.126 32.3243 247.093 32.3959 247.03 32.4594C246.982 32.5071 246.918 32.5308 246.838 32.5305L242.559 32.5165C242.479 32.5162 242.439 32.5559 242.439 32.6356L242.396 46.0461C242.396 46.1258 242.364 46.1974 242.3 46.2609C242.252 46.3086 242.188 46.3323 242.108 46.332L239.311 46.3228C239.232 46.3226 239.16 46.2984 239.096 46.2504C239.049 46.1865 239.025 46.1147 239.025 46.035L239.069 32.6245C239.069 32.5448 239.029 32.5048 238.949 32.5046L234.79 32.4909C234.71 32.4906 234.639 32.4665 234.575 32.4185C234.528 32.3546 234.504 32.2828 234.504 32.2031L234.512 29.8604C234.512 29.7808 234.536 29.7171 234.584 29.6694C234.648 29.6059 234.72 29.5743 234.799 29.5745L246.847 29.6142Z" fill="white"/>
<path d="M253.749 46.3464C253.669 46.3461 253.598 46.322 253.534 46.274C253.486 46.2101 253.463 46.1383 253.463 46.0586L253.482 40.0107C253.483 39.947 253.475 39.8991 253.459 39.8672L248.567 29.9545C248.535 29.8906 248.519 29.8428 248.519 29.8109C248.52 29.6834 248.607 29.6199 248.783 29.6205L251.795 29.6304C251.954 29.6309 252.065 29.703 252.129 29.8467L255.096 36.2151C255.144 36.3109 255.192 36.3111 255.24 36.2156L258.248 29.8668C258.313 29.7236 258.424 29.6522 258.584 29.6528L261.644 29.6628C261.755 29.6632 261.827 29.6953 261.858 29.7591C261.906 29.8071 261.906 29.8868 261.858 29.9982L256.853 39.8784C256.837 39.9102 256.829 39.958 256.829 40.0217L256.81 46.0696C256.809 46.1493 256.777 46.2209 256.713 46.2844C256.665 46.3321 256.601 46.3558 256.522 46.3555L253.749 46.3464Z" fill="white"/>
<path d="M8.09022 57.307C9.14202 57.3104 10.0656 57.5286 10.8611 57.9615C11.6565 58.3944 12.2681 59.01 12.6958 59.8082C13.1395 60.5906 13.3597 61.4917 13.3564 62.5116C13.3532 63.5156 13.1192 64.3994 12.6546 65.1628C12.2059 65.9263 11.5665 66.5218 10.7364 66.9494C9.92234 67.361 8.98142 67.5651 7.91368 67.5616L4.51921 67.5504C4.43953 67.5502 4.39956 67.5899 4.3993 67.6696L4.37962 73.7653C4.37936 73.8449 4.34726 73.9165 4.28331 73.9801C4.23534 74.0277 4.17152 74.0514 4.09184 74.0512L1.29499 74.042C1.21531 74.0417 1.14367 74.0176 1.08008 73.9695C1.03247 73.9056 1.0088 73.8339 1.00906 73.7542L1.06132 57.5707C1.06157 57.491 1.08568 57.4273 1.13365 57.3797C1.1976 57.3162 1.26942 57.2845 1.3491 57.2848L8.09022 57.307ZM7.56383 64.8592C8.29691 64.8616 8.88722 64.6564 9.33478 64.2435C9.78239 63.8147 10.0073 63.2576 10.0095 62.5724C10.0118 61.8711 9.7905 61.3047 9.34567 60.8729C8.90084 60.4412 8.31188 60.2241 7.5788 60.2217L4.54291 60.2117C4.46323 60.2114 4.42326 60.2511 4.423 60.3308L4.4088 64.7293C4.40854 64.809 4.44825 64.8489 4.52793 64.8492L7.56383 64.8592Z" fill="white"/>
<path d="M24.5705 74.1185C24.4111 74.118 24.2998 74.0459 24.2365 73.9023L21.2698 67.2709C21.2382 67.207 21.1904 67.175 21.1267 67.1748L18.9036 67.1674C18.8239 67.1672 18.7839 67.2069 18.7837 67.2866L18.7626 73.8126C18.7623 73.8922 18.7302 73.9639 18.6663 74.0274C18.6183 74.075 18.5545 74.0987 18.4748 74.0985L15.678 74.0893C15.5983 74.089 15.5266 74.0649 15.463 74.0169C15.4154 73.9529 15.3918 73.8812 15.392 73.8015L15.4442 57.6419C15.4445 57.5622 15.4686 57.4986 15.5165 57.4509C15.5805 57.3874 15.6523 57.3557 15.732 57.356L22.5687 57.3785C23.5887 57.3818 24.4804 57.5919 25.244 58.0088C26.0236 58.4257 26.6193 59.0173 27.0312 59.7837C27.459 60.55 27.6713 61.4352 27.668 62.4392C27.6645 63.5229 27.3906 64.4543 26.8462 65.2334C26.3019 65.9965 25.5432 66.5359 24.5701 66.8514C24.4903 66.883 24.4662 66.9387 24.4978 67.0185L27.727 73.7942C27.7587 73.8581 27.7744 73.9059 27.7743 73.9378C27.7739 74.0653 27.6861 74.1288 27.5108 74.1282L24.5705 74.1185ZM18.9259 60.259C18.8462 60.2587 18.8062 60.2984 18.806 60.3781L18.7928 64.4658C18.7925 64.5455 18.8322 64.5855 18.9119 64.5857L22.0434 64.596C22.7127 64.5982 23.2552 64.4008 23.6709 64.0038C24.1024 63.6068 24.3192 63.0896 24.3213 62.4521C24.3234 61.8146 24.1099 61.296 23.6809 60.8962C23.2679 60.4805 22.7267 60.2715 22.0574 60.2693L18.9259 60.259Z" fill="white"/>
<path d="M36.0261 74.4192C34.7831 74.4151 33.6843 74.1565 32.7298 73.6434C31.7912 73.1303 31.0604 72.4187 30.5374 71.5086C30.0145 70.5826 29.755 69.5219 29.7588 68.3267L29.7753 63.2111C29.7792 62.0318 30.0455 60.9888 30.5743 60.0822C31.1031 59.1755 31.8385 58.4767 32.7803 57.9858C33.7382 57.479 34.8386 57.2276 36.0816 57.2317C37.3406 57.2358 38.4394 57.4944 39.378 58.0075C40.3326 58.5047 41.0714 59.2083 41.5944 60.1184C42.1173 61.0285 42.3769 62.0732 42.3731 63.2525L42.3566 68.3681C42.3527 69.5634 42.0864 70.6223 41.5575 71.5449C41.0286 72.4674 40.2852 73.1821 39.3274 73.689C38.3855 74.1799 37.2851 74.4233 36.0261 74.4192ZM36.0355 71.5267C36.912 71.5296 37.6221 71.253 38.1657 70.697C38.7093 70.141 38.9827 69.4009 38.9856 68.4766L39.0026 63.2175C39.0056 62.2932 38.7371 61.5513 38.197 60.9917C37.673 60.4163 36.9648 60.1271 36.0723 60.1242C35.1958 60.1213 34.4857 60.4058 33.942 60.9777C33.4143 61.5338 33.149 62.274 33.146 63.1983L33.129 68.4573C33.126 69.3816 33.3866 70.1235 33.9107 70.683C34.4507 71.2426 35.159 71.5238 36.0355 71.5267Z" fill="white"/>
<path d="M50.104 74.3937C48.8928 74.3898 47.8338 74.1632 46.9268 73.714C46.0359 73.2489 45.3447 72.6091 44.8533 71.7947C44.3619 70.9644 44.118 70.0074 44.1215 68.9237L44.1264 67.4178C44.1266 67.3381 44.1507 67.2744 44.1987 67.2267C44.2627 67.1632 44.3345 67.1316 44.4142 67.1318L47.211 67.141C47.2907 67.1413 47.3543 67.1734 47.4019 67.2373C47.4655 67.2853 47.4972 67.3492 47.4969 67.4288L47.4921 68.9348C47.4896 69.6998 47.7187 70.3221 48.1793 70.8017C48.6559 71.2654 49.3006 71.4986 50.1133 71.5013C50.8942 71.5039 51.5324 71.2749 52.028 70.8143C52.5395 70.3379 52.7965 69.7172 52.7989 68.9523L52.835 57.7649C52.8353 57.6852 52.8594 57.6215 52.9074 57.5739C52.9713 57.5104 53.0431 57.4787 53.1228 57.479L55.8958 57.4881C55.9755 57.4884 56.0391 57.5204 56.0867 57.5843C56.1503 57.6324 56.182 57.6962 56.1817 57.7759L56.1456 68.9633C56.1421 70.047 55.884 71.0023 55.3714 71.8293C54.8588 72.6404 54.1475 73.2756 53.2377 73.7347C52.3279 74.178 51.2833 74.3976 50.104 74.3937Z" fill="white"/>
<path d="M70.7084 60.1425C70.7082 60.2221 70.6761 60.2938 70.6121 60.3573C70.5642 60.4049 70.5004 60.4286 70.4207 60.4284L62.5799 60.4026C62.5002 60.4023 62.4603 60.442 62.46 60.5217L62.4481 64.2269C62.4478 64.3066 62.4875 64.3466 62.5672 64.3469L67.7067 64.3638C67.7864 64.364 67.85 64.3961 67.8976 64.46C67.9612 64.508 67.9929 64.5719 67.9926 64.6516L67.9851 66.9703C67.9849 67.05 67.9528 67.1216 67.8888 67.1852C67.8409 67.2328 67.777 67.2565 67.6974 67.2562L62.5579 67.2393C62.4782 67.2391 62.4382 67.2788 62.4379 67.3585L62.4254 71.231C62.4252 71.3107 62.4649 71.3507 62.5446 71.3509L70.3853 71.3767C70.465 71.377 70.5286 71.4091 70.5762 71.473C70.6398 71.521 70.6715 71.5848 70.6712 71.6645L70.6638 73.9833C70.6635 74.063 70.6314 74.1346 70.5674 74.1981C70.5195 74.2458 70.4557 74.2695 70.376 74.2692L59.332 74.2329C59.2523 74.2326 59.1807 74.2085 59.1171 74.1604C59.0695 74.0965 59.0458 74.0248 59.0461 73.9451L59.0983 57.7855C59.0985 57.7058 59.1226 57.6421 59.1706 57.5945C59.2345 57.531 59.3064 57.4993 59.386 57.4996L70.43 57.5359C70.5097 57.5362 70.5733 57.5683 70.6209 57.6322C70.6845 57.6802 70.7162 57.744 70.7159 57.8237L70.7084 60.1425Z" fill="white"/>
<path d="M78.8851 74.4884C77.642 74.4843 76.5511 74.2417 75.6124 73.7605C74.6738 73.2634 73.9509 72.5757 73.4437 71.6975C72.9366 70.8194 72.6849 69.8066 72.6886 68.6591L72.7064 63.1372C72.7101 61.9897 72.9684 60.9786 73.4812 60.1038C73.994 59.2289 74.7213 58.554 75.6631 58.079C76.6049 57.604 77.6973 57.3686 78.9403 57.3727C80.1674 57.3767 81.2424 57.6113 82.1652 58.0765C83.104 58.5258 83.827 59.1736 84.3343 60.02C84.8575 60.8504 85.1174 61.8154 85.1138 62.915C85.1133 63.0584 85.0174 63.1458 84.8261 63.177L82.0287 63.3352L81.9809 63.335C81.8215 63.3345 81.7421 63.2466 81.7427 63.0713C81.7454 62.2266 81.4847 61.5485 80.9604 61.0368C80.4521 60.5251 79.7756 60.2679 78.931 60.2651C78.0704 60.2623 77.3763 60.515 76.8488 61.0232C76.3372 61.5315 76.08 62.208 76.0773 63.0526L76.0587 68.8137C76.056 69.6423 76.3088 70.3125 76.8172 70.8242C77.3414 71.3359 78.0338 71.5931 78.8944 71.596C79.739 71.5987 80.4171 71.346 80.9288 70.8377C81.4563 70.3294 81.7214 69.661 81.7241 68.8323C81.7247 68.657 81.8206 68.5697 82.0118 68.5703L84.8083 68.699C84.8879 68.6993 84.9516 68.7234 84.9993 68.7713C85.0629 68.8194 85.0946 68.8752 85.0943 68.939C85.0908 70.0386 84.8247 71.0099 84.2961 71.8528C83.7834 72.6957 83.0562 73.3467 82.1144 73.8058C81.1886 74.2649 80.1122 74.4925 78.8851 74.4884Z" fill="white"/>
<path d="M98.9619 57.6298C99.0416 57.63 99.1053 57.6621 99.1529 57.726C99.2164 57.774 99.2481 57.8379 99.2479 57.9176L99.2403 60.2602C99.24 60.3399 99.2079 60.4115 99.144 60.4751C99.096 60.5227 99.0322 60.5464 98.9525 60.5461L94.6736 60.5321C94.5939 60.5318 94.5539 60.5715 94.5537 60.6512L94.5104 74.0617C94.5101 74.1414 94.478 74.213 94.414 74.2765C94.3661 74.3242 94.3023 74.3479 94.2226 74.3476L91.4257 74.3384C91.346 74.3382 91.2744 74.314 91.2108 74.266C91.1632 74.2021 91.1395 74.1303 91.1398 74.0506L91.1831 60.6401C91.1834 60.5604 91.1436 60.5204 91.064 60.5202L86.9045 60.5065C86.8249 60.5062 86.7532 60.4821 86.6896 60.4341C86.642 60.3702 86.6184 60.2984 86.6186 60.2187L86.6262 57.876C86.6264 57.7964 86.6505 57.7327 86.6985 57.685C86.7625 57.6215 86.8343 57.5899 86.914 57.5901L98.9619 57.6298Z" fill="white"/>
</svg>
