<svg width="10" height="7" viewBox="0 0 10 7" fill="none" xmlns="http://www.w3.org/2000/svg">
<path d="M9.06972 3.16121L6.41515 0.464092C6.17053 0.215552 5.7615 0.214207 5.51528 0.461132C5.26906 0.708057 5.26773 1.12094 5.51234 1.36948L7.07969 2.97115L1.26235 2.95202C0.907855 2.95085 0.625159 3.23436 0.624003 3.59219C0.622848 3.95003 0.903707 4.23539 1.2582 4.23656L7.07554 4.25569L5.49792 5.83784C5.2517 6.08477 5.25036 6.49765 5.49498 6.74619C5.62182 6.87506 5.78523 6.93983 5.94884 6.94037C6.11245 6.94091 6.27627 6.87722 6.40394 6.74918L9.06676 4.07873C9.18531 3.95984 9.25856 3.79493 9.25912 3.6206C9.25968 3.44627 9.19659 3.2809 9.06972 3.16121Z" fill="#76736F"/>
</svg>
