<svg width="9" height="8" viewBox="0 0 9 8" fill="none" xmlns="http://www.w3.org/2000/svg">
<path d="M8.77758 3.62932L6.12305 0.932401C5.87844 0.683879 5.46941 0.682534 5.2232 0.929441C4.97699 1.17635 4.97565 1.5892 5.22027 1.83773L6.78758 3.43928L0.970346 3.42014C0.615858 3.41898 0.333167 3.70246 0.332012 4.06027C0.330857 4.41808 0.611711 4.70342 0.966199 4.70459L6.78344 4.72372L5.20584 6.30576C4.95963 6.55266 4.95829 6.96552 5.20291 7.21404C5.32974 7.3429 5.49315 7.40766 5.65676 7.4082C5.82037 7.40874 5.98418 7.34506 6.11185 7.21703L8.77462 4.54678C8.89316 4.4279 8.96641 4.26299 8.96698 4.08868C8.96754 3.91436 8.90445 3.74901 8.77758 3.62932Z" fill="#76736F"/>
</svg>
