<svg width="14" height="13" viewBox="0 0 14 13" fill="none" xmlns="http://www.w3.org/2000/svg">
<path d="M9.95707 8.11491L9.95827 8.11605L12.5514 10.5849C12.5516 10.5851 12.5518 10.5852 12.552 10.5854C12.9833 10.9942 12.982 11.6663 12.5521 12.0753C12.1322 12.4749 11.4605 12.4749 11.0405 12.0753L11.0405 12.0752L8.44763 9.60671C8.44746 9.60655 8.44729 9.60639 8.44712 9.60623C8.21553 9.38727 8.10656 9.08858 8.12556 8.79485L7.66945 8.36086C6.04958 9.44559 3.80089 9.30123 2.34941 7.92012L2.34927 7.91999C0.716986 6.36528 0.716786 3.83706 2.34941 2.28358C3.97284 0.738851 6.59693 0.738806 8.22042 2.28345C9.67153 3.66275 9.83379 5.81175 8.70603 7.36552L9.18073 7.8172C9.45854 7.81176 9.74018 7.91024 9.95707 8.11491L9.95707 8.11491ZM3.12536 3.07332C1.94625 4.19527 1.9462 6.00823 3.12521 7.13024C4.31642 8.26245 6.25355 8.26245 7.44476 7.13024C8.62377 6.00823 8.62372 4.19527 7.44461 3.07332C6.25344 1.93989 4.31653 1.93989 3.12536 3.07332Z" fill="#4F4F4F" stroke="#4F4F4F" stroke-width="0.75"/>
</svg>
