<svg width="10" height="7" viewBox="0 0 10 7" fill="none" xmlns="http://www.w3.org/2000/svg">
<path d="M9.32366 3.00157L6.66908 0.304655C6.42445 0.0561331 6.01542 0.0547877 5.7692 0.301695C5.52298 0.548601 5.52165 0.961458 5.76627 1.20998L7.33362 2.81153L1.51626 2.7924C1.16176 2.79123 0.879066 3.07472 0.877911 3.43253C0.876755 3.79034 1.15762 4.07567 1.51211 4.07684L7.32947 4.09598L5.75184 5.67801C5.50562 5.92492 5.50429 6.33777 5.74891 6.58629C5.87575 6.71516 6.03915 6.77992 6.20277 6.78046C6.36638 6.78099 6.5302 6.71731 6.65787 6.58928L9.32069 3.91903C9.43924 3.80015 9.51249 3.63525 9.51306 3.46093C9.51362 3.28661 9.45053 3.12126 9.32366 3.00157Z" fill="#76736F"/>
</svg>
