<svg width="10" height="8" viewBox="0 0 10 8" fill="none" xmlns="http://www.w3.org/2000/svg">
<path d="M9.1287 3.48857L6.46394 0.823817C6.21838 0.578259 5.80912 0.578259 5.56356 0.823817C5.318 1.06937 5.318 1.47864 5.56356 1.7242C6.14564 2.30964 5.73097 3.30668 4.9054 3.30668L1.31632 3.30668C0.961624 3.30668 0.679687 3.58862 0.679687 3.94331C0.679687 4.29801 0.961624 4.57994 1.31632 4.57994H4.91184C5.73296 4.57994 6.14418 5.57271 5.56356 6.15333C5.318 6.39889 5.318 6.80815 5.56356 7.05371C5.69089 7.18104 5.85459 7.2447 6.0183 7.2447C6.182 7.2447 6.34571 7.18104 6.47303 7.05371L9.1287 4.39805C9.24693 4.27982 9.31969 4.11611 9.31969 3.94331C9.31969 3.77051 9.25603 3.60681 9.1287 3.48857Z" fill="#76736F"/>
</svg>
