<svg width="24" height="24" viewBox="0 0 24 24" fill="none" xmlns="http://www.w3.org/2000/svg">
<path d="M17.4103 14.7459L17.4115 14.7471L22.5796 19.7456C22.5797 19.7457 22.5798 19.7458 22.5799 19.7459C23.2824 20.4217 23.2776 21.5236 22.5724 22.1965C21.8751 22.8618 20.7577 22.8581 20.0648 22.1883L20.0647 22.1882L14.8969 17.19C14.8967 17.1898 14.8966 17.1896 14.8964 17.1894C14.473 16.783 14.3041 16.2161 14.3957 15.6827L13.1309 14.46C10.0127 16.727 5.5556 16.4899 2.71943 13.7483L2.71929 13.7482C-0.377226 10.752 -0.361775 5.90531 2.75435 2.93218C5.86478 -0.0355179 10.8849 -0.0190053 13.9761 2.96909C16.8119 5.70754 17.0386 9.99743 14.6681 12.9876L15.9762 14.2521C16.4856 14.2026 17.0151 14.367 17.4103 14.7459ZM3.78811 3.97363C1.26651 6.37952 1.25387 10.2913 3.75989 12.7137C6.27736 15.1444 10.3743 15.1578 12.9074 12.7438C15.429 10.3379 15.4417 6.42614 12.9356 4.00372C10.4182 1.57022 6.32123 1.55674 3.78811 3.97363Z" fill="#4F4F4F" stroke="#4F4F4F" stroke-width="0.75"/>
</svg>
