<svg width="9" height="8" viewBox="0 0 9 8" fill="none" xmlns="http://www.w3.org/2000/svg">
<path d="M8.47419 3.38121L5.81961 0.684293C5.57499 0.435772 5.16596 0.434426 4.91974 0.681333C4.67352 0.92824 4.67218 1.3411 4.9168 1.58962L6.48416 3.19117L0.666794 3.17204C0.312298 3.17087 0.0296015 3.45436 0.0284461 3.81216C0.0272907 4.16997 0.308151 4.45531 0.662646 4.45648L6.48001 4.47561L4.90238 6.05765C4.65616 6.30455 4.65482 6.71741 4.89944 6.96593C5.02628 7.09479 5.18969 7.15956 5.3533 7.16009C5.51692 7.16063 5.68074 7.09695 5.80841 6.96892L8.47123 4.29867C8.58978 4.17979 8.66303 4.01489 8.66359 3.84057C8.66416 3.66625 8.60106 3.5009 8.47419 3.38121Z" fill="#76736F"/>
</svg>
