<svg width="10" height="8" viewBox="0 0 10 8" fill="none" xmlns="http://www.w3.org/2000/svg">
<path d="M8.9384 3.84752L6.28382 1.1506C6.0392 0.90208 5.63017 0.900735 5.38395 1.14764C5.13773 1.39455 5.1364 1.80741 5.38102 2.05593L6.94837 3.65748L1.131 3.63834C0.776509 3.63718 0.493812 3.92066 0.492657 4.27847C0.491501 4.63628 0.772361 4.92162 1.12686 4.92279L6.94422 4.94192L5.36659 6.52396C5.12037 6.77086 5.11904 7.18372 5.36365 7.43224C5.49049 7.5611 5.6539 7.62586 5.81751 7.6264C5.98113 7.62694 6.14495 7.56326 6.27262 7.43523L8.93544 4.76498C9.05399 4.6461 9.12724 4.48119 9.1278 4.30688C9.12837 4.13256 9.06527 3.96721 8.9384 3.84752Z" fill="#76736F"/>
</svg>
