<svg width="9" height="8" viewBox="0 0 9 8" fill="none" xmlns="http://www.w3.org/2000/svg">
<path d="M8.50561 3.3651L5.85108 0.66818C5.60647 0.419658 5.19744 0.418313 4.95123 0.66522C4.70501 0.912127 4.70368 1.32498 4.94829 1.5735L6.51561 3.17506L0.698374 3.15592C0.343886 3.15476 0.0611948 3.43824 0.0600394 3.79605C0.058884 4.15386 0.339738 4.4392 0.694226 4.44037L6.51146 4.4595L4.93387 6.04153C4.68765 6.28844 4.68632 6.7013 4.93093 6.94982C5.05777 7.07868 5.22117 7.14344 5.38478 7.14398C5.54839 7.14452 5.71221 7.08083 5.83988 6.95281L8.50264 4.28256C8.62119 4.16368 8.69444 3.99877 8.695 3.82445C8.69557 3.65014 8.63247 3.48478 8.50561 3.3651Z" fill="#76736F"/>
</svg>
