<svg width="9" height="8" viewBox="0 0 9 8" fill="none" xmlns="http://www.w3.org/2000/svg">
<path d="M8.60485 3.76707L5.95028 1.07016C5.70567 0.821636 5.29664 0.820291 5.05042 1.0672C4.8042 1.3141 4.80287 1.72696 5.04748 1.97548L6.61482 3.57703L0.797504 3.5579C0.443011 3.55673 0.160316 3.84022 0.159161 4.19803C0.158005 4.55584 0.438863 4.84118 0.793356 4.84234L6.61068 4.86148L5.03306 6.44351C4.78684 6.69042 4.78551 7.10327 5.03012 7.3518C5.15696 7.48066 5.32037 7.54542 5.48398 7.54596C5.64759 7.5465 5.81141 7.48281 5.93908 7.35479L8.60188 4.68453C8.72043 4.56565 8.79368 4.40075 8.79425 4.22643C8.79481 4.05211 8.73171 3.88676 8.60485 3.76707Z" fill="#76736F"/>
</svg>
