<svg width="24" height="24" viewBox="0 0 24 24" fill="none" xmlns="http://www.w3.org/2000/svg">
<path d="M17.9287 15.1976L17.9299 15.1987L23.098 20.1972C23.0981 20.1974 23.0982 20.1975 23.0984 20.1976C23.8008 20.8734 23.7961 21.9753 23.0908 22.6482C22.3936 23.3134 21.2761 23.3098 20.5832 22.6399L20.5831 22.6399L15.4154 17.6416C15.4152 17.6415 15.415 17.6413 15.4148 17.6411C14.9915 17.2347 14.8225 16.6677 14.9142 16.1344L13.6493 14.9117C10.5312 17.1786 6.07404 16.9415 3.23786 14.2L3.23773 14.1998C0.141206 11.2036 0.156658 6.35697 3.27278 3.38384C6.38322 0.416142 11.4033 0.432655 14.4945 3.42075C17.3303 6.1592 17.5571 10.4491 15.1865 13.4393L16.4947 14.7038C17.004 14.6543 17.5335 14.8187 17.9287 15.1976ZM4.30654 4.42529C1.78499 6.83113 1.77231 10.7428 4.27817 13.1652C6.79568 15.5961 10.8928 15.6095 13.426 13.1953C15.9475 10.7894 15.96 6.87776 13.4541 4.45538C10.9366 2.02188 6.83967 2.0084 4.30654 4.42529Z" fill="#4F4F4F" stroke="#4F4F4F" stroke-width="0.75"/>
</svg>
