<svg width="10" height="8" viewBox="0 0 10 8" fill="none" xmlns="http://www.w3.org/2000/svg">
<path d="M9.39372 3.8553L6.73916 1.15818C6.49454 0.909644 6.08551 0.908299 5.8393 1.15522C5.59308 1.40215 5.59175 1.81504 5.83636 2.06358L7.4037 3.66524L1.58638 3.64611C1.23189 3.64494 0.949195 3.92845 0.948039 4.28629C0.946884 4.64412 1.22774 4.92948 1.58223 4.93065L7.39955 4.94978L5.82194 6.53193C5.57572 6.77886 5.57438 7.19174 5.819 7.44028C5.94584 7.56916 6.10925 7.63392 6.27286 7.63446C6.43647 7.635 6.60029 7.57131 6.72796 7.44327L9.39076 4.77282C9.50931 4.65393 9.58256 4.48902 9.58312 4.31469C9.58369 4.14036 9.52059 3.97499 9.39372 3.8553Z" fill="#76736F"/>
</svg>
