<svg width="10" height="8" viewBox="0 0 10 8" fill="none" xmlns="http://www.w3.org/2000/svg">
<path d="M9.1287 3.48877L6.46394 0.824015C6.21838 0.578457 5.80912 0.578457 5.56356 0.824015C5.318 1.06957 5.318 1.47884 5.56356 1.72439L7.13695 3.30688L1.31632 3.30688C0.961624 3.30688 0.679687 3.58882 0.679687 3.94351C0.679687 4.29821 0.961624 4.58014 1.31632 4.58014H7.13695L5.56356 6.15353C5.318 6.39909 5.318 6.80835 5.56356 7.05391C5.69089 7.18124 5.85459 7.2449 6.0183 7.2449C6.182 7.2449 6.34571 7.18124 6.47303 7.05391L9.1287 4.39825C9.24693 4.28002 9.31969 4.11631 9.31969 3.94351C9.31969 3.77071 9.25603 3.607 9.1287 3.48877Z" fill="#76736F"/>
</svg>
