<svg width="8" height="10" viewBox="0 0 8 10" fill="none" xmlns="http://www.w3.org/2000/svg">
<path d="M4.44066 9.01815L7.11253 6.33893C7.35874 6.09204 7.36008 5.67921 7.11546 5.43071C6.87085 5.1822 6.46183 5.18086 6.21561 5.42775L4.62894 7.00965L4.6479 1.13829C4.64905 0.780509 4.3682 0.495188 4.01371 0.494022C3.65923 0.492856 3.37654 0.776323 3.37538 1.13411L3.35642 7.00546L1.78909 5.41319C1.54447 5.16468 1.13545 5.16334 0.889239 5.41023C0.761573 5.53825 0.697414 5.70317 0.696881 5.8683C0.696348 6.03343 0.759441 6.19877 0.886277 6.32763L3.53172 9.01516C3.6495 9.13481 3.81287 9.20874 3.98557 9.20931C4.15827 9.20988 4.32209 9.1462 4.44066 9.01815Z" fill="#76736F"/>
</svg>
