<svg width="194" height="29" viewBox="0 0 194 29" fill="none" xmlns="http://www.w3.org/2000/svg">
<path d="M15.3671 1.38086H11.4488C9.7168 1.38086 8.05574 2.06889 6.83104 3.2936C5.60633 4.5183 4.9183 6.17936 4.9183 7.91136V11.8297H1V17.0541H4.9183V27.5029H10.1427V17.0541H14.061L15.3671 11.8297H10.1427V7.91136C10.1427 7.56496 10.2803 7.23275 10.5252 6.98781C10.7702 6.74286 11.1024 6.60526 11.4488 6.60526H15.3671V1.38086Z" fill="#F7F6F3" stroke="#F7F6F3" stroke-linecap="round" stroke-linejoin="round"/>
<path d="M75.4481 2.70021C74.1973 3.58245 72.8125 4.25722 71.3469 4.69854C70.5603 3.79408 69.5149 3.15302 68.3521 2.86207C67.1892 2.57111 65.9651 2.6443 64.8452 3.07173C63.7254 3.49916 62.7638 4.26021 62.0906 5.25196C61.4173 6.2437 61.0649 7.41828 61.081 8.61684V9.92294C58.7857 9.98245 56.5113 9.47339 54.4604 8.4411C52.4094 7.4088 50.6456 5.88531 49.3261 4.00631C49.3261 4.00631 44.1017 15.7612 55.8566 20.9856C53.1667 22.8115 49.9623 23.727 46.7139 23.5978C58.4688 30.1283 72.8359 23.5978 72.8359 8.57765C72.8347 8.21385 72.7997 7.85093 72.7314 7.49359C74.0644 6.17899 75.0051 4.51923 75.4481 2.70021Z" fill="#F7F6F3" stroke="#F7F6F3" stroke-linecap="round" stroke-linejoin="round"/>
<path d="M186.47 1.38086H173.409C169.803 1.38086 166.879 4.30466 166.879 7.91136V20.9724C166.879 24.579 169.803 27.5029 173.409 27.5029H186.47C190.077 27.5029 193.001 24.579 193.001 20.9724V7.91136C193.001 4.30466 190.077 1.38086 186.47 1.38086Z" stroke="#F7F6F3" stroke-width="2" stroke-linecap="round" stroke-linejoin="round"/>
<path d="M185.166 13.6201C185.327 14.7071 185.141 15.8173 184.635 16.7927C184.129 17.768 183.328 18.559 182.347 19.0531C181.365 19.5471 180.253 19.7191 179.168 19.5445C178.083 19.3699 177.081 18.8577 176.304 18.0807C175.527 17.3036 175.014 16.3014 174.84 15.2165C174.665 14.1315 174.837 13.0192 175.331 12.0376C175.825 11.0561 176.616 10.2553 177.592 9.74916C178.567 9.24304 179.677 9.05738 180.764 9.21856C181.873 9.38298 182.899 9.89965 183.692 10.6922C184.485 11.4848 185.001 12.5113 185.166 13.6201Z" stroke="#F7F6F3" stroke-width="2" stroke-linecap="round" stroke-linejoin="round"/>
<path d="M187.125 7.25873H187.139" stroke="#F7F6F3" stroke-width="2" stroke-linecap="round" stroke-linejoin="round"/>
<path d="M134.928 7.15405C134.773 6.53419 134.457 5.96624 134.012 5.50759C133.567 5.04893 133.009 4.7158 132.394 4.54185C130.148 3.99329 121.162 3.99329 121.162 3.99329C121.162 3.99329 112.176 3.99329 109.929 4.59409C109.314 4.76804 108.756 5.10117 108.312 5.55983C107.867 6.01849 107.551 6.58643 107.395 7.20629C106.984 9.48616 106.783 11.7989 106.795 14.1156C106.78 16.4496 106.981 18.78 107.395 21.0771C107.567 21.6777 107.89 22.224 108.333 22.6633C108.777 23.1026 109.327 23.42 109.929 23.5848C112.176 24.1856 121.162 24.1856 121.162 24.1856C121.162 24.1856 130.148 24.1856 132.394 23.5848C133.009 23.4108 133.567 23.0777 134.012 22.619C134.457 22.1604 134.773 21.5924 134.928 20.9726C135.336 18.7099 135.537 16.4147 135.529 14.1156C135.544 11.7815 135.342 9.45108 134.928 7.15405Z" fill="#F7F6F3" stroke="#F7F6F3" stroke-linecap="round" stroke-linejoin="round"/>
<path d="M118.223 18.387L125.733 14.1161L118.223 9.84515V18.387Z" fill="#44423F" stroke="#44423F" stroke-width="0.75" stroke-linecap="round" stroke-linejoin="round"/>
</svg>
