<svg width="10" height="8" viewBox="0 0 10 8" fill="none" xmlns="http://www.w3.org/2000/svg">
<path d="M9.129 3.48882L6.46425 0.824061C6.21869 0.578503 5.80942 0.578503 5.56387 0.824061C5.31831 1.06962 5.31831 1.47888 5.56387 1.72444L7.13726 3.30692L1.31662 3.30692C0.96193 3.30692 0.679993 3.58886 0.679993 3.94356C0.679993 4.29825 0.96193 4.58019 1.31662 4.58019H7.13726L5.56387 6.15358C5.31831 6.39914 5.31831 6.8084 5.56387 7.05396C5.69119 7.18128 5.8549 7.24495 6.0186 7.24495C6.18231 7.24495 6.34601 7.18128 6.47334 7.05396L9.129 4.39829C9.24724 4.28006 9.31999 4.11636 9.31999 3.94356C9.31999 3.77076 9.25633 3.60705 9.129 3.48882Z" fill="#76736F"/>
</svg>
