<svg width="8" height="10" viewBox="0 0 8 10" fill="none" xmlns="http://www.w3.org/2000/svg">
<path d="M4.51142 9.129L7.17618 6.46425C7.42174 6.21869 7.42174 5.80942 7.17618 5.56387C6.93062 5.31831 6.52136 5.31831 6.2758 5.56387L4.69332 7.13726L4.69332 1.31662C4.69332 0.961929 4.41138 0.679993 4.05669 0.679993C3.70199 0.679993 3.42006 0.961929 3.42006 1.31662L3.42006 7.13726L1.84667 5.56387C1.60111 5.31831 1.19185 5.31831 0.946288 5.56387C0.818962 5.69119 0.755298 5.8549 0.755298 6.0186C0.755298 6.18231 0.818962 6.34601 0.946288 6.47334L3.60195 9.129C3.72018 9.24724 3.88389 9.31999 4.05669 9.31999C4.22949 9.31999 4.39319 9.25633 4.51142 9.129Z" fill="#76736F"/>
</svg>
