<svg width="7" height="10" viewBox="0 0 7 10" fill="none" xmlns="http://www.w3.org/2000/svg">
<path d="M4.08514 9.03299L6.75706 6.35393C7.00328 6.10705 7.00461 5.69424 6.75999 5.44575C6.51537 5.19726 6.10634 5.19592 5.86013 5.44279L4.27342 7.0246L4.29238 1.15358C4.29353 0.795813 4.01268 0.510508 3.65818 0.509342C3.30369 0.508176 3.021 0.791627 3.01984 1.14939L3.00088 7.02041L1.43352 5.42823C1.1889 5.17974 0.77987 5.17839 0.533653 5.42527C0.405985 5.55328 0.341824 5.71819 0.341291 5.88332C0.340758 6.04844 0.403852 6.21377 0.530691 6.34262L3.17619 9.03C3.29397 9.14965 3.45734 9.22357 3.63004 9.22414C3.80274 9.22471 3.96656 9.16103 4.08514 9.03299Z" fill="#76736F"/>
</svg>
