<svg width="10" height="8" viewBox="0 0 10 8" fill="none" xmlns="http://www.w3.org/2000/svg">
<path d="M9.35979 3.66964L6.70521 0.972915C6.46059 0.724412 6.05155 0.723066 5.80533 0.969955C5.55912 1.21684 5.55778 1.62967 5.8024 1.87817L7.36975 3.47961L1.55239 3.46047C1.1979 3.45931 0.915199 3.74277 0.914044 4.10056C0.912889 4.45834 1.19375 4.74366 1.54824 4.74482L7.36561 4.76396L5.78798 6.34588C5.54176 6.59276 5.54042 7.00559 5.78504 7.25409C5.91188 7.38295 6.07529 7.4477 6.2389 7.44824C6.40252 7.44878 6.56634 7.3851 6.69401 7.25708L9.35683 4.58703C9.47538 4.46816 9.54863 4.30326 9.54919 4.12896C9.54975 3.95465 9.48666 3.78931 9.35979 3.66964Z" fill="#76736F"/>
</svg>
