<svg width="10" height="8" viewBox="0 0 10 8" fill="none" xmlns="http://www.w3.org/2000/svg">
<path d="M9.21654 3.49132L6.56202 0.7944C6.3174 0.545879 5.90838 0.544533 5.66216 0.79144C5.41595 1.03835 5.41462 1.4512 5.65923 1.69973L7.22655 3.30128L1.40931 3.28214C1.05482 3.28098 0.772132 3.56446 0.770977 3.92227C0.769822 4.28008 1.05068 4.56542 1.40516 4.56659L7.2224 4.58572L5.6448 6.16775C5.39859 6.41466 5.39726 6.82752 5.64187 7.07604C5.76871 7.2049 5.93211 7.26966 6.09572 7.2702C6.25933 7.27074 6.42315 7.20705 6.55081 7.07903L9.21358 4.40878C9.33213 4.2899 9.40538 4.12499 9.40594 3.95068C9.4065 3.77636 9.34341 3.61101 9.21654 3.49132Z" fill="#76736F"/>
</svg>
