<svg width="10" height="8" viewBox="0 0 10 8" fill="none" xmlns="http://www.w3.org/2000/svg">
<path d="M8.92082 3.808L6.26624 1.11128C6.02162 0.862778 5.61259 0.861433 5.36637 1.10832C5.12015 1.35521 5.11882 1.76804 5.36344 2.01654L6.93079 3.61798L1.11343 3.59884C0.758931 3.59767 0.476235 3.88114 0.475079 4.23892C0.473924 4.59671 0.754784 4.88202 1.10928 4.88319L6.92664 4.90233L5.34901 6.48424C5.10279 6.73113 5.10146 7.14396 5.34608 7.39246C5.47292 7.52131 5.63632 7.58607 5.79994 7.58661C5.96355 7.58715 6.12737 7.52347 6.25504 7.39545L8.91786 4.72539C9.03641 4.60652 9.10966 4.44163 9.11023 4.26733C9.11079 4.09302 9.04769 3.92768 8.92082 3.808Z" fill="#76736F"/>
</svg>
