<svg width="9" height="7" viewBox="0 0 9 7" fill="none" xmlns="http://www.w3.org/2000/svg">
<path d="M8.77776 3.09759L6.12318 0.401063C5.87856 0.152578 5.46952 0.151232 5.2233 0.398103C4.97708 0.644973 4.97575 1.05777 5.22037 1.30625L6.78772 2.90757L0.970361 2.88844C0.615866 2.88727 0.333169 3.17072 0.332014 3.52847C0.330858 3.88623 0.611719 4.17153 0.966214 4.17269L6.78358 4.19183L5.20595 5.77363C4.95973 6.0205 4.95839 6.4333 5.20301 6.68178C5.32985 6.81062 5.49326 6.87538 5.65687 6.87591C5.82049 6.87645 5.98431 6.81278 6.11198 6.68477L8.7748 4.01491C8.89335 3.89605 8.9666 3.73117 8.96716 3.55688C8.96772 3.38258 8.90463 3.21726 8.77776 3.09759Z" fill="#76736F"/>
</svg>
