<svg width="18" height="14" viewBox="0 0 18 14" fill="none" xmlns="http://www.w3.org/2000/svg">
<path d="M17.1931 6.33939L11.884 0.945952C11.3947 0.448945 10.5767 0.446254 10.0842 0.940032C9.5918 1.43381 9.58913 2.25946 10.0784 2.75647L13.213 5.95934L1.57841 5.92107C0.869421 5.91874 0.304032 6.48567 0.301721 7.20123C0.29941 7.9168 0.861127 8.48744 1.57011 8.48977L13.2048 8.52804L10.0495 11.6919C9.55708 12.1857 9.55441 13.0113 10.0436 13.5083C10.2973 13.766 10.6241 13.8955 10.9514 13.8966C11.2786 13.8977 11.6062 13.7703 11.8616 13.5143L17.1872 8.17418C17.4243 7.93643 17.5708 7.60665 17.5719 7.25804C17.573 6.90943 17.4468 6.57875 17.1931 6.33939Z" fill="#76736F"/>
</svg>
