<svg width="8" height="6" viewBox="0 0 8 6" fill="none" xmlns="http://www.w3.org/2000/svg">
<path d="M7.09701 2.61625L5.09844 0.61768C4.91428 0.433511 4.60733 0.433511 4.42316 0.61768C4.23899 0.801848 4.23899 1.1088 4.42316 1.29296L5.6032 2.47983L1.23773 2.47983C0.971707 2.47983 0.760254 2.69128 0.760254 2.9573C0.760254 3.22332 0.971707 3.43477 1.23773 3.43477L5.6032 3.43477L4.42316 4.61482C4.23899 4.79899 4.23899 5.10593 4.42316 5.2901C4.51865 5.38559 4.64143 5.43334 4.76421 5.43334C4.88699 5.43334 5.00977 5.38559 5.10526 5.2901L7.09701 3.29835C7.18569 3.20968 7.24025 3.0869 7.24025 2.9573C7.24025 2.8277 7.19251 2.70492 7.09701 2.61625Z" fill="#76736F"/>
</svg>
