<svg width="9" height="8" viewBox="0 0 9 8" fill="none" xmlns="http://www.w3.org/2000/svg">
<path d="M8.78453 3.81819L6.12997 1.12107C5.88535 0.872535 5.47632 0.871189 5.2301 1.11811C4.98389 1.36504 4.98255 1.77793 5.22717 2.02647L6.79451 3.62814L0.977191 3.609C0.622698 3.60783 0.340003 3.89134 0.338847 4.24918C0.337692 4.60701 0.61855 4.89237 0.973043 4.89354L6.79036 4.91267L5.21274 6.49482C4.96652 6.74175 4.96519 7.15463 5.20981 7.40317C5.33665 7.53205 5.50005 7.59681 5.66367 7.59735C5.82728 7.59789 5.9911 7.5342 6.11877 7.40616L8.78157 4.73572C8.90012 4.61683 8.97337 4.45191 8.97393 4.27758C8.9745 4.10325 8.9114 3.93789 8.78453 3.81819Z" fill="#76736F"/>
</svg>
