<svg width="14" height="11" viewBox="0 0 14 11" fill="none" xmlns="http://www.w3.org/2000/svg">
<path d="M13.1935 5.23335L9.19638 1.23621C8.82804 0.867877 8.21414 0.867877 7.84581 1.23621C7.47747 1.60455 7.47747 2.21845 7.84581 2.58678L10.2059 4.96051L1.47494 4.96051C0.942902 4.96051 0.519997 5.38341 0.519997 5.91546C0.519997 6.4475 0.942902 6.8704 1.47494 6.8704L10.2059 6.8704L7.84581 9.23049C7.47747 9.59882 7.47747 10.2127 7.84581 10.5811C8.0368 10.772 8.28235 10.8675 8.52791 10.8675C8.77347 10.8675 9.01903 10.772 9.21002 10.5811L13.1935 6.59756C13.3709 6.42021 13.48 6.17466 13.48 5.91546C13.48 5.65626 13.3845 5.4107 13.1935 5.23335Z" fill="#76736F"/>
</svg>
