<svg width="10" height="8" viewBox="0 0 10 8" fill="none" xmlns="http://www.w3.org/2000/svg">
<path d="M9.1068 3.52534L6.45232 0.828227C6.20771 0.579688 5.79869 0.578342 5.55248 0.825267C5.30627 1.07219 5.30493 1.48508 5.54954 1.73362L7.11684 3.33529L1.29968 3.31615C0.945199 3.31499 0.662512 3.59849 0.661357 3.95633C0.660202 4.31417 0.941052 4.59953 1.29553 4.60069L7.11269 4.61983L5.53511 6.20198C5.2889 6.4489 5.28757 6.86179 5.53218 7.11033C5.65902 7.2392 5.82242 7.30396 5.98602 7.3045C6.14963 7.30504 6.31345 7.24135 6.44111 7.11332L9.10384 4.44287C9.22239 4.32398 9.29563 4.15906 9.2962 3.98473C9.29676 3.8104 9.23367 3.64504 9.1068 3.52534Z" fill="#76736F"/>
</svg>
