<svg width="150" height="23" viewBox="0 0 150 23" fill="none" xmlns="http://www.w3.org/2000/svg">
<path d="M12.4418 0.939991L9.44185 0.930123C8.11578 0.925761 6.84231 1.44836 5.90161 2.38295C4.9609 3.31754 4.43002 4.58757 4.42573 5.91365L4.41605 8.91363L1.41606 8.90377L1.40315 12.9037L4.40313 12.9136L4.3773 20.9136L8.37728 20.9267L8.40311 12.9268L11.4031 12.9366L12.416 8.93995L8.41602 8.92679L8.42571 5.92681C8.42657 5.66159 8.53275 5.40759 8.72089 5.22067C8.90903 5.03375 9.16372 4.92923 9.42894 4.9301L12.4289 4.93997L12.4418 0.939991Z" fill="#F7F6F3" stroke="#F7F6F3" stroke-linecap="round" stroke-linejoin="round"/>
<path d="M58.4383 2.10146C57.4785 2.77379 56.4166 3.28693 55.2934 3.62113C54.6934 2.92666 53.8946 2.43321 53.005 2.20752C52.1154 1.98182 51.178 2.03478 50.3195 2.35921C49.4611 2.68365 48.723 3.26391 48.2051 4.02153C47.6871 4.77915 47.4144 5.67756 47.4238 6.59526L47.4205 7.59525C45.663 7.63504 43.9229 7.23956 42.3552 6.44403C40.7875 5.6485 39.4409 4.47762 38.4352 3.03567C38.4352 3.03567 34.4062 12.0225 43.3932 16.0521C41.3292 17.4432 38.8736 18.1361 36.3868 18.029C45.3706 23.0586 56.3867 18.0948 56.4238 6.59486C56.4238 6.31631 56.3979 6.03837 56.3465 5.7646C57.3703 4.76146 58.0947 3.49305 58.4383 2.10146Z" fill="#F7F6F3" stroke="#F7F6F3" stroke-linecap="round" stroke-linejoin="round"/>
<path d="M143.442 1.37112L133.442 1.33822C130.681 1.32914 128.435 3.56034 128.426 6.32175L128.394 16.3217C128.385 19.0831 130.616 21.329 133.378 21.3381L143.378 21.371C146.139 21.3801 148.385 19.1489 148.394 16.3875L148.426 6.38754C148.435 3.62613 146.204 1.3802 143.442 1.37112Z" stroke="#F7F6F3" stroke-width="2" stroke-linecap="round" stroke-linejoin="round"/>
<path d="M142.412 10.7383C142.533 11.5709 142.388 12.4204 141.998 13.1659C141.608 13.9114 140.993 14.515 140.24 14.8908C139.487 15.2666 138.635 15.3955 137.805 15.2591C136.975 15.1227 136.209 14.728 135.616 14.1311C135.023 13.5342 134.633 12.7656 134.502 11.9345C134.371 11.1034 134.506 10.2521 134.886 9.50187C135.267 8.75159 135.875 8.14048 136.623 7.75543C137.371 7.37039 138.221 7.23104 139.053 7.35719C139.901 7.48586 140.686 7.88402 141.291 8.49286C141.896 9.1017 142.289 9.88892 142.412 10.7383Z" stroke="#F7F6F3" stroke-width="2" stroke-linecap="round" stroke-linejoin="round"/>
<path d="M143.928 5.87256L143.938 5.87259" stroke="#F7F6F3" stroke-width="2" stroke-linecap="round" stroke-linejoin="round"/>
<path d="M103.968 5.66125C103.85 5.18627 103.61 4.75064 103.27 4.39836C102.931 4.04607 102.504 3.78961 102.034 3.65488C100.316 3.22922 93.4356 3.20659 93.4356 3.20659C93.4356 3.20659 86.5556 3.18396 84.8341 3.6383C84.363 3.76994 83.9349 4.02359 83.5931 4.37363C83.2513 4.72368 83.008 5.15772 82.8877 5.63191C82.5673 7.37642 82.4076 9.14666 82.4106 10.9204C82.3936 12.7074 82.5418 14.4921 82.8534 16.2519C82.9829 16.7121 83.2289 17.1312 83.5676 17.4687C83.9064 17.8061 84.3264 18.0505 84.7872 18.1782C86.5057 18.6439 93.3856 18.6665 93.3856 18.6665C93.3856 18.6665 100.266 18.6891 101.987 18.2348C102.458 18.1032 102.886 17.8495 103.228 17.4995C103.57 17.1494 103.813 16.7154 103.934 16.2412C104.251 14.5098 104.411 12.7531 104.41 10.9927C104.427 9.20574 104.279 7.42098 103.968 5.66125Z" fill="#F7F6F3" stroke="#F7F6F3" stroke-linecap="round" stroke-linejoin="round"/>
<path d="M91.15 14.2197L96.9106 10.9686L91.1711 7.67969L91.15 14.2197Z" fill="#44423F" stroke="#44423F" stroke-width="0.75" stroke-linecap="round" stroke-linejoin="round"/>
</svg>
