<svg width="14" height="11" viewBox="0 0 14 11" fill="none" xmlns="http://www.w3.org/2000/svg">
<path d="M13.193 5.23311L9.19591 1.23597C8.82757 0.867633 8.21368 0.867633 7.84534 1.23597C7.47701 1.60431 7.47701 2.2182 7.84534 2.58654L10.2054 4.96026L1.47448 4.96026C0.942437 4.96026 0.519531 5.38317 0.519531 5.91521C0.519531 6.44725 0.942437 6.87016 1.47448 6.87016L10.2054 6.87016L7.84534 9.23024C7.47701 9.59858 7.47701 10.2125 7.84534 10.5808C8.03633 10.7718 8.28189 10.8673 8.52745 10.8673C8.77301 10.8673 9.01856 10.7718 9.20955 10.5808L13.193 6.59732C13.3704 6.41997 13.4795 6.17441 13.4795 5.91521C13.4795 5.65601 13.384 5.41045 13.193 5.23311Z" fill="#76736F"/>
</svg>
