<svg width="18" height="14" viewBox="0 0 18 14" fill="none" xmlns="http://www.w3.org/2000/svg">
<path d="M17.1793 5.69785L11.8498 0.368337C11.3586 -0.122779 10.5401 -0.122779 10.049 0.368337C9.55788 0.859453 9.55788 1.67798 10.049 2.1691L13.1958 5.33406L1.55451 5.33406C0.845124 5.33406 0.28125 5.89794 0.28125 6.60733C0.28125 7.31672 0.845124 7.88059 1.55451 7.88059L13.1958 7.88059L10.049 11.0274C9.55788 11.5185 9.55788 12.337 10.049 12.8281C10.3037 13.0828 10.6311 13.2101 10.9585 13.2101C11.2859 13.2101 11.6133 13.0828 11.8679 12.8281L17.1793 7.5168C17.4157 7.28034 17.5613 6.95293 17.5613 6.60733C17.5613 6.26173 17.4339 5.93432 17.1793 5.69785Z" fill="#76736F"/>
</svg>
