<svg width="18" height="14" viewBox="0 0 18 14" fill="none" xmlns="http://www.w3.org/2000/svg">
<path d="M0.381976 7.51211L5.71149 12.8416C6.20261 13.3327 7.02113 13.3327 7.51225 12.8416C8.00337 12.3505 8.00337 11.532 7.51225 11.0409L4.36547 7.8759L16.0067 7.8759C16.7161 7.8759 17.28 7.31202 17.28 6.60263C17.28 5.89324 16.7161 5.32937 16.0067 5.32937L4.36547 5.32937L7.51225 2.18259C8.00337 1.69148 8.00337 0.872951 7.51225 0.381836C7.2576 0.127183 6.93019 -0.000144333 6.60278 -0.000144304C6.27537 -0.000144276 5.94796 0.127183 5.6933 0.381836L0.381976 5.69316C0.145512 5.92962 -3.02183e-06 6.25704 -2.99162e-06 6.60264C-2.96141e-06 6.94824 0.127323 7.27565 0.381976 7.51211Z" fill="#76736F"/>
</svg>
