<svg width="18" height="14" viewBox="0 0 18 14" fill="none" xmlns="http://www.w3.org/2000/svg">
<path d="M16.8987 5.69785L11.5692 0.368337C11.0781 -0.122779 10.2596 -0.122779 9.76845 0.368337C9.27733 0.859453 9.27733 1.67798 9.76845 2.16909L12.9152 5.33406L1.27397 5.33406C0.564576 5.33406 0.000701904 5.89794 0.000701904 6.60733C0.000701904 7.31672 0.564576 7.88059 1.27397 7.88059L12.9152 7.88059L9.76845 11.0274C9.27733 11.5185 9.27733 12.337 9.76845 12.8281C10.0231 13.0828 10.3505 13.2101 10.6779 13.2101C11.0053 13.2101 11.3327 13.0828 11.5874 12.8281L16.8987 7.5168C17.1352 7.28034 17.2807 6.95293 17.2807 6.60733C17.2807 6.26173 17.1534 5.93432 16.8987 5.69785Z" fill="#76736F"/>
</svg>
