<svg width="19" height="14" viewBox="0 0 19 14" fill="none" xmlns="http://www.w3.org/2000/svg">
<path d="M1.2521 8.02316L6.56127 13.4166C7.05051 13.9136 7.86857 13.9163 8.36101 13.4225C8.85345 12.9287 8.85612 12.1031 8.36688 11.6061L5.23217 8.40321L16.8669 8.44148C17.5759 8.44381 18.1413 7.87688 18.1436 7.16132C18.1459 6.44575 17.5842 5.87511 16.8752 5.87278L5.24047 5.83451L8.39573 2.67068C8.88817 2.1769 8.89083 1.35125 8.40159 0.854244C8.14791 0.596537 7.8211 0.467024 7.49388 0.465948C7.16665 0.464871 6.83901 0.592231 6.58367 0.848264L1.25803 6.18837C1.02093 6.42612 0.874426 6.7559 0.873301 7.10451C0.872175 7.45312 0.998364 7.7838 1.2521 8.02316Z" fill="#76736F"/>
</svg>
