<svg width="18" height="14" viewBox="0 0 18 14" fill="none" xmlns="http://www.w3.org/2000/svg">
<path d="M17.1414 6.11259L11.8323 0.719145C11.343 0.222139 10.525 0.219448 10.0325 0.713225C9.54009 1.207 9.53742 2.03266 10.0267 2.52966L13.1614 5.73253L1.52666 5.69426C0.817666 5.69193 0.252274 6.25886 0.249963 6.97443C0.247653 7.68999 0.809372 8.26063 1.51836 8.26296L13.1531 8.30123L9.99781 11.4651C9.50537 11.9588 9.5027 12.7845 9.99194 13.2815C10.2456 13.5392 10.5724 13.6687 10.8997 13.6698C11.2269 13.6709 11.5545 13.5435 11.8099 13.2875L17.1355 7.94737C17.3726 7.70963 17.5191 7.37984 17.5202 7.03123C17.5214 6.68262 17.3952 6.35194 17.1414 6.11259Z" fill="#76736F"/>
</svg>
