<svg width="109" height="25" viewBox="0 0 109 25" fill="none" xmlns="http://www.w3.org/2000/svg">
<path d="M28.2718 1.60941C28.0207 1.62418 27.8398 1.65372 27.729 1.69803C27.6182 1.74234 27.5407 1.82726 27.4964 1.9528C27.4595 2.07834 27.441 2.28142 27.441 2.56204V8.05623C27.441 8.33684 27.4595 8.53992 27.4964 8.66546C27.5407 8.791 27.6182 8.87592 27.729 8.92023C27.8398 8.96454 28.0207 8.99408 28.2718 9.00885V9.23039C27.9099 9.20823 27.3487 9.19716 26.5881 9.19716C25.8422 9.19716 25.2625 9.20823 24.849 9.23039V9.00885C25.0927 8.99408 25.2699 8.96454 25.3807 8.92023C25.4988 8.87592 25.5764 8.791 25.6133 8.66546C25.6576 8.53992 25.6798 8.33684 25.6798 8.05623V5.39775H22.7444V8.05623C22.7444 8.33684 22.7628 8.53992 22.7997 8.66546C22.8441 8.791 22.9216 8.87592 23.0324 8.92023C23.1431 8.96454 23.3241 8.99408 23.5751 9.00885V9.23039C23.1764 9.20823 22.6188 9.19716 21.9025 9.19716C21.1123 9.19716 20.529 9.20823 20.1523 9.23039V9.00885C20.396 8.99408 20.5733 8.96454 20.684 8.92023C20.8022 8.87592 20.8797 8.791 20.9167 8.66546C20.961 8.53992 20.9831 8.33684 20.9831 8.05623V2.56204C20.9831 2.28142 20.961 2.07834 20.9167 1.9528C20.8797 1.82726 20.8022 1.74234 20.684 1.69803C20.5733 1.65372 20.396 1.62418 20.1523 1.60941V1.38787C20.529 1.41003 21.1123 1.42111 21.9025 1.42111C22.6188 1.42111 23.1764 1.41003 23.5751 1.38787V1.60941C23.3241 1.62418 23.1431 1.65372 23.0324 1.69803C22.9216 1.74234 22.8441 1.82726 22.7997 1.9528C22.7628 2.07834 22.7444 2.28142 22.7444 2.56204V5.17621H25.6798V2.56204C25.6798 2.28142 25.6576 2.07834 25.6133 1.9528C25.5764 1.82726 25.4988 1.74234 25.3807 1.69803C25.2699 1.65372 25.0927 1.62418 24.849 1.60941V1.38787C25.2625 1.41003 25.8422 1.42111 26.5881 1.42111C27.3487 1.42111 27.9099 1.41003 28.2718 1.38787V1.60941Z" fill="#333333"/>
<path d="M30.2983 9.30793C29.8256 9.30793 29.4712 9.18608 29.2349 8.94238C29.0059 8.69869 28.8915 8.37746 28.8915 7.97869C28.8915 7.64638 28.9764 7.37314 29.1463 7.15899C29.3235 6.93745 29.534 6.7676 29.7776 6.64945C30.0287 6.53129 30.3463 6.40575 30.7303 6.27283C31.1364 6.13252 31.4318 6.00698 31.6164 5.89621C31.8084 5.77806 31.9044 5.61929 31.9044 5.4199V4.55589C31.9044 4.24574 31.8306 4.00574 31.6829 3.83589C31.5426 3.65866 31.321 3.57004 31.0183 3.57004C30.6638 3.57004 30.3943 3.65866 30.2096 3.83589C30.4164 3.90974 30.5752 4.02051 30.686 4.1682C30.8041 4.31589 30.8632 4.48943 30.8632 4.68882C30.8632 4.9399 30.7783 5.13928 30.6084 5.28698C30.4386 5.43467 30.2318 5.50852 29.9881 5.50852C29.7296 5.50852 29.5303 5.42729 29.3899 5.26482C29.2496 5.10236 29.1795 4.89928 29.1795 4.65559C29.1795 4.44882 29.2275 4.27528 29.3235 4.13497C29.4269 3.98728 29.582 3.85066 29.7887 3.72512C29.9881 3.60697 30.2318 3.51466 30.5198 3.4482C30.8152 3.38173 31.1364 3.3485 31.4835 3.3485C31.8454 3.3485 32.1592 3.38543 32.425 3.45927C32.6909 3.53312 32.9124 3.65866 33.0897 3.83589C33.2521 3.99835 33.3592 4.19774 33.4109 4.43405C33.47 4.67036 33.4995 4.99159 33.4995 5.39775V8.41069C33.4995 8.58792 33.5143 8.71346 33.5438 8.78731C33.5807 8.86115 33.6472 8.89808 33.7432 8.89808C33.854 8.89808 33.9869 8.83531 34.142 8.70977L34.2528 8.89808C33.9204 9.17131 33.5143 9.30793 33.0343 9.30793C32.6281 9.30793 32.3438 9.22669 32.1814 9.06423C32.0189 8.90177 31.934 8.68392 31.9266 8.41069C31.5573 9.00885 31.0146 9.30793 30.2983 9.30793ZM31.1512 8.599C31.4392 8.599 31.6903 8.44761 31.9044 8.14484V5.87406C31.8158 6.02175 31.6275 6.18421 31.3395 6.36145C31.0515 6.54606 30.8337 6.73068 30.686 6.9153C30.5383 7.09991 30.4644 7.36576 30.4644 7.71284C30.4644 8.01561 30.5272 8.24084 30.6527 8.38854C30.7783 8.52884 30.9444 8.599 31.1512 8.599Z" fill="#333333"/>
<path d="M38.3798 3.3485C38.7121 3.3485 38.9632 3.4482 39.133 3.64758C39.3029 3.84697 39.3878 4.08697 39.3878 4.36759C39.3878 4.64082 39.3066 4.86605 39.1441 5.04328C38.989 5.21313 38.7823 5.29805 38.5238 5.29805C38.2727 5.29805 38.0733 5.23528 37.9256 5.10974C37.7779 4.97682 37.7041 4.80328 37.7041 4.58913C37.7041 4.23466 37.8666 3.94666 38.1915 3.72512C38.1619 3.71774 38.1176 3.71404 38.0586 3.71404C37.9847 3.71404 37.9256 3.72143 37.8813 3.7362C37.6007 3.78051 37.3607 3.95035 37.1613 4.24574C36.9693 4.54113 36.8733 4.8439 36.8733 5.15405V8.08946C36.8733 8.42915 36.9546 8.66546 37.117 8.79838C37.2869 8.93131 37.5527 8.99777 37.9146 8.99777V9.23039C37.8112 9.23039 37.7263 9.22669 37.6598 9.21931C36.9066 9.19716 36.4044 9.18608 36.1533 9.18608C35.9539 9.18608 35.4998 9.19716 34.7908 9.21931C34.7318 9.22669 34.6579 9.23039 34.5693 9.23039V8.99777C34.8352 8.99777 35.0198 8.94238 35.1232 8.83161C35.2265 8.71346 35.2782 8.503 35.2782 8.20023V4.71097C35.2782 4.37128 35.2265 4.12389 35.1232 3.96881C35.0198 3.81374 34.8352 3.7362 34.5693 3.7362V3.50358C34.8056 3.52573 35.0345 3.53681 35.2561 3.53681C35.9133 3.53681 36.4524 3.48512 36.8733 3.38173V4.41189C37.0136 4.09435 37.2167 3.83958 37.4826 3.64758C37.7484 3.4482 38.0475 3.3485 38.3798 3.3485Z" fill="#333333"/>
<path d="M41.9333 3.3485C42.2139 3.3485 42.4723 3.38543 42.7087 3.45927C42.945 3.52573 43.1259 3.60327 43.2514 3.69189C43.3253 3.74358 43.3917 3.76943 43.4508 3.76943C43.5173 3.76943 43.5727 3.7362 43.617 3.66974C43.6687 3.59589 43.7019 3.4925 43.7167 3.35958H43.9493C43.9197 3.7362 43.905 4.38605 43.905 5.30913H43.6723C43.6059 4.82174 43.4582 4.41559 43.2293 4.09066C43.0077 3.75835 42.6828 3.5922 42.2545 3.5922C42.033 3.5922 41.8483 3.65497 41.7006 3.78051C41.5603 3.90604 41.4902 4.07958 41.4902 4.30112C41.4902 4.5522 41.5751 4.77005 41.745 4.95467C41.9148 5.1319 42.1806 5.34975 42.5425 5.60821L42.8637 5.84083C43.3142 6.18052 43.6465 6.48329 43.8607 6.74914C44.0748 7.01499 44.1819 7.3473 44.1819 7.74607C44.1819 8.07099 44.0859 8.359 43.8939 8.61007C43.7093 8.86115 43.4582 9.05315 43.1407 9.18608C42.8231 9.319 42.4723 9.38546 42.0883 9.38546C41.6822 9.38546 41.3351 9.30793 41.0471 9.15285C40.8108 9.03469 40.6409 8.95715 40.5376 8.92023C40.4637 8.89808 40.3973 8.92392 40.3382 8.99777C40.2865 9.06423 40.2459 9.16762 40.2163 9.30793H39.9837C40.0132 8.887 40.028 8.14853 40.028 7.09253H40.2606C40.4083 8.4513 40.9068 9.13069 41.756 9.13069C41.9702 9.13069 42.1511 9.06792 42.2988 8.94238C42.4539 8.80946 42.5314 8.61007 42.5314 8.34423C42.5314 8.13746 42.4834 7.95284 42.3874 7.79038C42.2988 7.62791 42.1843 7.48391 42.044 7.35837C41.9037 7.23284 41.6933 7.0593 41.4126 6.83776C41.0803 6.57191 40.8256 6.35775 40.6483 6.19529C40.4785 6.03283 40.3308 5.84083 40.2052 5.61929C40.0871 5.39775 40.028 5.15036 40.028 4.87713C40.028 4.40451 40.2126 4.03158 40.5819 3.75835C40.9511 3.48512 41.4016 3.3485 41.9333 3.3485Z" fill="#333333"/>
<path d="M47.1053 4.37866C47.4376 3.69189 48.0394 3.3485 48.9108 3.3485C49.4868 3.3485 49.893 3.4925 50.1293 3.78051C50.2548 3.92081 50.3434 4.10543 50.3951 4.33435C50.4542 4.55589 50.4837 4.85128 50.4837 5.22051V8.20023C50.4837 8.503 50.5354 8.71346 50.6388 8.83161C50.7422 8.94238 50.9268 8.99777 51.1927 8.99777V9.23039C50.4247 9.20085 49.9373 9.18608 49.7305 9.18608C49.4794 9.18608 48.9994 9.20085 48.2905 9.23039V8.99777C48.512 8.99777 48.6671 8.94238 48.7557 8.83161C48.8444 8.71346 48.8887 8.503 48.8887 8.20023V4.75528C48.8887 4.45251 48.837 4.22358 48.7336 4.06851C48.6376 3.91343 48.4604 3.83589 48.2019 3.83589C47.8917 3.83589 47.6296 3.95774 47.4154 4.20143C47.2087 4.43774 47.1053 4.74051 47.1053 5.10974V8.20023C47.1053 8.503 47.1496 8.71346 47.2382 8.83161C47.3268 8.94238 47.4819 8.99777 47.7034 8.99777V9.23039C46.9945 9.20085 46.5366 9.18608 46.3299 9.18608C46.0788 9.18608 45.5693 9.20085 44.8013 9.23039V8.99777C45.0597 8.99777 45.2406 8.94238 45.344 8.83161C45.4548 8.71346 45.5102 8.503 45.5102 8.20023V1.89742C45.5102 1.55772 45.4548 1.31034 45.344 1.15526C45.2406 1.00018 45.0597 0.92264 44.8013 0.92264V0.690024C45.0376 0.712178 45.2665 0.723255 45.488 0.723255C46.1305 0.723255 46.6696 0.671562 47.1053 0.568176V4.37866Z" fill="#333333"/>
<path d="M61.1376 8.33315C61.2483 8.503 61.3628 8.63961 61.481 8.743C61.5991 8.84638 61.7505 8.935 61.9351 9.00885V9.23039C61.4182 9.20823 60.8422 9.19716 60.2071 9.19716C59.7197 9.19716 59.2508 9.20823 58.8003 9.23039V9.00885C59.0071 8.99408 59.1548 8.97192 59.2434 8.94238C59.3394 8.91285 59.3874 8.86115 59.3874 8.78731C59.3874 8.72823 59.3468 8.63592 59.2656 8.51038L57.6594 5.90729C57.5117 5.67098 57.3862 5.51221 57.2828 5.43098C57.1868 5.34975 57.0538 5.30175 56.884 5.28698V8.05623C56.884 8.33684 56.9025 8.53992 56.9394 8.66546C56.9837 8.791 57.0612 8.87592 57.172 8.92023C57.2828 8.96454 57.4637 8.99408 57.7148 9.00885V9.23039C57.316 9.20823 56.7585 9.19716 56.0421 9.19716C55.252 9.19716 54.6686 9.20823 54.292 9.23039V9.00885C54.5357 8.99408 54.7129 8.96454 54.8237 8.92023C54.9418 8.87592 55.0194 8.791 55.0563 8.66546C55.1006 8.53992 55.1228 8.33684 55.1228 8.05623V2.56204C55.1228 2.28142 55.1006 2.07834 55.0563 1.9528C55.0194 1.82726 54.9418 1.74234 54.8237 1.69803C54.7129 1.65372 54.5357 1.62418 54.292 1.60941V1.38787C54.6686 1.41003 55.252 1.42111 56.0421 1.42111C56.7585 1.42111 57.316 1.41003 57.7148 1.38787V1.60941C57.4637 1.62418 57.2828 1.65372 57.172 1.69803C57.0612 1.74234 56.9837 1.82726 56.9394 1.9528C56.9025 2.07834 56.884 2.28142 56.884 2.56204V5.05436C57.1794 5.03959 57.4489 4.95097 57.6926 4.78851C57.9363 4.62605 58.2132 4.36759 58.5234 4.01312L59.1769 3.22666C59.5166 2.83527 59.6865 2.49188 59.6865 2.19649C59.6865 2.01926 59.6126 1.87895 59.4649 1.77557C59.3246 1.67218 59.1252 1.61311 58.8668 1.59834V1.38787C59.4059 1.41003 59.9523 1.42111 60.5062 1.42111C60.9345 1.42111 61.2816 1.41003 61.5474 1.38787V1.59834C60.9566 1.73865 60.4213 2.09311 59.9412 2.66173L58.5566 4.3122L61.1376 8.33315Z" fill="#333333"/>
<path d="M63.5287 0.645716C63.8389 0.645716 64.0826 0.723255 64.2598 0.878333C64.4444 1.02603 64.5367 1.2328 64.5367 1.49864C64.5367 1.76449 64.4444 1.97495 64.2598 2.13003C64.0826 2.27773 63.8389 2.35157 63.5287 2.35157C63.2186 2.35157 62.9712 2.27773 62.7866 2.13003C62.6093 1.97495 62.5207 1.76449 62.5207 1.49864C62.5207 1.2328 62.6093 1.02603 62.7866 0.878333C62.9712 0.723255 63.2186 0.645716 63.5287 0.645716ZM64.3927 8.20023C64.3927 8.503 64.4444 8.71346 64.5478 8.83161C64.6586 8.94238 64.8432 8.99777 65.1017 8.99777V9.23039C64.3632 9.20085 63.8721 9.18608 63.6284 9.18608C63.3995 9.18608 62.8863 9.20085 62.0887 9.23039V8.99777C62.3546 8.99777 62.5392 8.94238 62.6426 8.83161C62.7459 8.71346 62.7976 8.503 62.7976 8.20023V4.71097C62.7976 4.37128 62.7459 4.12389 62.6426 3.96881C62.5392 3.81374 62.3546 3.7362 62.0887 3.7362V3.50358C62.325 3.52573 62.5539 3.53681 62.7755 3.53681C63.4327 3.53681 63.9718 3.48512 64.3927 3.38173V8.20023Z" fill="#333333"/>
<path d="M69.7034 3.3485C70.2646 3.3485 70.6708 3.4925 70.9218 3.78051C71.0474 3.92081 71.136 4.10174 71.1877 4.32328C71.2394 4.54482 71.2652 4.8439 71.2652 5.22051V8.20023C71.2652 8.503 71.3169 8.71346 71.4203 8.83161C71.5311 8.94238 71.7157 8.99777 71.9742 8.99777V9.23039C71.2357 9.20085 70.7483 9.18608 70.512 9.18608C70.2905 9.18608 69.8104 9.20085 69.072 9.23039V8.99777C69.2935 8.99777 69.4486 8.94238 69.5372 8.83161C69.6258 8.71346 69.6701 8.503 69.6701 8.20023V4.75528C69.6701 4.45251 69.6184 4.22358 69.5151 4.06851C69.4191 3.91343 69.2418 3.83589 68.9834 3.83589C68.6806 3.83589 68.4221 3.96143 68.208 4.21251C67.9938 4.4562 67.8867 4.75897 67.8867 5.12082V8.20023C67.8867 8.503 67.931 8.71346 68.0197 8.83161C68.1083 8.94238 68.2634 8.99777 68.4849 8.99777V9.23039C67.8055 9.20085 67.3477 9.18608 67.1114 9.18608C66.8898 9.18608 66.3803 9.20085 65.5827 9.23039V8.99777C65.8486 8.99777 66.0332 8.94238 66.1366 8.83161C66.24 8.71346 66.2917 8.503 66.2917 8.20023V4.71097C66.2917 4.37128 66.24 4.12389 66.1366 3.96881C66.0332 3.81374 65.8486 3.7362 65.5827 3.7362V3.50358C65.819 3.52573 66.048 3.53681 66.2695 3.53681C66.9267 3.53681 67.4658 3.48512 67.8867 3.38173V4.37866C68.2191 3.69189 68.8246 3.3485 69.7034 3.3485Z" fill="#333333"/>
<path d="M77.5616 4.56697C77.4139 4.56697 77.2884 4.51897 77.185 4.42297C77.0816 4.31959 77.0299 4.17558 77.0299 3.99097C77.0299 3.81374 77.0742 3.63281 77.1629 3.4482C76.9856 3.52204 76.8379 3.60697 76.7198 3.70297C76.609 3.79158 76.513 3.90604 76.4318 4.04635C76.6607 4.31959 76.7752 4.67405 76.7752 5.10974C76.7752 5.69313 76.5721 6.13252 76.1659 6.42791C75.7672 6.72329 75.2355 6.87099 74.5708 6.87099H74.3715C74.0687 7.04822 73.9173 7.24391 73.9173 7.45807C73.9173 7.69438 74.065 7.81253 74.3604 7.81253H75.5678C76.2176 7.81253 76.7346 7.93438 77.1186 8.17807C77.5099 8.41438 77.7056 8.77992 77.7056 9.2747C77.7056 9.65131 77.5838 9.99101 77.3401 10.2938C77.1038 10.6039 76.7419 10.8513 76.2545 11.0359C75.7672 11.2206 75.169 11.3129 74.4601 11.3129C73.7438 11.3129 73.1678 11.2206 72.7321 11.0359C72.3037 10.8587 72.0896 10.6002 72.0896 10.2605C72.0896 10.0316 72.193 9.82485 72.3998 9.64024C72.6065 9.463 72.913 9.32269 73.3191 9.21931L73.4188 9.39654C73.153 9.61808 73.0201 9.87285 73.0201 10.1609C73.0201 10.471 73.1604 10.7073 73.441 10.8698C73.7216 11.0396 74.1093 11.1246 74.6041 11.1246C75.121 11.1246 75.5382 11.0212 75.8558 10.8144C76.1807 10.6076 76.3432 10.3159 76.3432 9.93931C76.3432 9.69562 76.2509 9.50362 76.0662 9.36331C75.889 9.223 75.5752 9.15285 75.1247 9.15285H74.4379C73.9653 9.15285 73.5961 9.07531 73.3302 8.92023C73.0644 8.75777 72.9314 8.51407 72.9314 8.18915C72.9314 7.91592 73.0274 7.67222 73.2194 7.45807C73.4114 7.24391 73.7031 7.03714 74.0945 6.83776C73.5628 6.77129 73.1419 6.59406 72.8318 6.30606C72.5216 6.01806 72.3665 5.61929 72.3665 5.10974C72.3665 4.52636 72.5659 4.08697 72.9647 3.79158C73.3708 3.4962 73.9062 3.3485 74.5708 3.3485C75.3093 3.3485 75.8742 3.52204 76.2656 3.86912C76.4059 3.66974 76.5795 3.51096 76.7862 3.39281C76.993 3.27466 77.2035 3.21558 77.4176 3.21558C77.6392 3.21558 77.8127 3.28204 77.9383 3.41496C78.0712 3.5405 78.1376 3.70666 78.1376 3.91343C78.1376 4.1202 78.0786 4.28266 77.9604 4.40082C77.8496 4.51159 77.7167 4.56697 77.5616 4.56697ZM74.5708 6.6716C74.7776 6.6716 74.9327 6.55345 75.0361 6.31714C75.1468 6.08083 75.2022 5.67836 75.2022 5.10974C75.2022 4.54113 75.1468 4.13866 75.0361 3.90235C74.9327 3.66604 74.7776 3.54789 74.5708 3.54789C74.3641 3.54789 74.2053 3.66604 74.0945 3.90235C73.9911 4.13866 73.9395 4.54113 73.9395 5.10974C73.9395 5.67836 73.9911 6.08083 74.0945 6.31714C74.2053 6.55345 74.3641 6.6716 74.5708 6.6716Z" fill="#333333"/>
<path d="M81.5173 8.47715C82.1229 8.47715 82.6103 8.18176 82.9795 7.59099L83.1789 7.65745C83.0312 8.13746 82.7653 8.54731 82.3813 8.887C82.0047 9.21931 81.5321 9.38546 80.9635 9.38546C80.1807 9.38546 79.5567 9.13808 79.0915 8.64331C78.6336 8.14115 78.4047 7.40268 78.4047 6.42791C78.4047 5.43098 78.6521 4.67036 79.1469 4.14605C79.6416 3.61435 80.2989 3.3485 81.1186 3.3485C82.5069 3.3485 83.201 4.1682 83.201 5.8076H80.0884C80.081 5.91837 80.0773 6.09191 80.0773 6.32821C80.0773 6.8156 80.1438 7.22176 80.2767 7.54668C80.417 7.87161 80.5942 8.10792 80.8084 8.25561C81.0299 8.4033 81.2662 8.47715 81.5173 8.47715ZM81.0521 3.58112C80.7862 3.58112 80.5647 3.74727 80.3875 4.07958C80.2176 4.40451 80.1105 4.91036 80.0662 5.59713H81.8053C81.8201 5.01374 81.761 4.53374 81.6281 4.15712C81.5026 3.77312 81.3106 3.58112 81.0521 3.58112Z" fill="#333333"/>
<path d="M87.588 3.3485C87.9203 3.3485 88.1714 3.4482 88.3413 3.64758C88.5111 3.84697 88.596 4.08697 88.596 4.36759C88.596 4.64082 88.5148 4.86605 88.3523 5.04328C88.1973 5.21313 87.9905 5.29805 87.732 5.29805C87.481 5.29805 87.2816 5.23528 87.1339 5.10974C86.9862 4.97682 86.9123 4.80328 86.9123 4.58913C86.9123 4.23466 87.0748 3.94666 87.3997 3.72512C87.3702 3.71774 87.3259 3.71404 87.2668 3.71404C87.193 3.71404 87.1339 3.72143 87.0896 3.7362C86.809 3.78051 86.569 3.95035 86.3696 4.24574C86.1776 4.54113 86.0816 4.8439 86.0816 5.15405V8.08946C86.0816 8.42915 86.1628 8.66546 86.3253 8.79838C86.4951 8.93131 86.761 8.99777 87.1228 8.99777V9.23039C87.0194 9.23039 86.9345 9.22669 86.868 9.21931C86.1148 9.19716 85.6126 9.18608 85.3616 9.18608C85.1622 9.18608 84.708 9.19716 83.9991 9.21931C83.94 9.22669 83.8662 9.23039 83.7776 9.23039V8.99777C84.0434 8.99777 84.228 8.94238 84.3314 8.83161C84.4348 8.71346 84.4865 8.503 84.4865 8.20023V4.71097C84.4865 4.37128 84.4348 4.12389 84.3314 3.96881C84.228 3.81374 84.0434 3.7362 83.7776 3.7362V3.50358C84.0139 3.52573 84.2428 3.53681 84.4643 3.53681C85.1216 3.53681 85.6606 3.48512 86.0816 3.38173V4.41189C86.2219 4.09435 86.425 3.83958 86.6908 3.64758C86.9567 3.4482 87.2557 3.3485 87.588 3.3485Z" fill="#333333"/>
<path d="M3.63565 22.6152C3.58581 22.6152 3.55258 22.5958 3.53596 22.557L2.31472 19.9816C2.30918 19.965 2.29811 19.9567 2.28149 19.9567H0.869175C0.847021 19.9567 0.835944 19.9678 0.835944 19.9899V22.5321C0.835944 22.5875 0.808251 22.6152 0.752866 22.6152H0.329171C0.273786 22.6152 0.246094 22.5875 0.246094 22.5321V16.8828C0.246094 16.8274 0.273786 16.7997 0.329171 16.7997H2.48088C2.95719 16.7997 3.34211 16.9493 3.63565 17.2484C3.92919 17.5419 4.07596 17.9268 4.07596 18.4031C4.07596 18.7908 3.97073 19.1204 3.76027 19.3918C3.54981 19.6631 3.26457 19.8376 2.90457 19.9151C2.88242 19.9262 2.87688 19.9401 2.88796 19.9567L4.13412 22.5155C4.13966 22.5265 4.14243 22.5404 4.14243 22.557C4.14243 22.5958 4.12027 22.6152 4.07596 22.6152H3.63565ZM0.869175 17.3148C0.847021 17.3148 0.835944 17.3259 0.835944 17.348V19.4499C0.835944 19.4721 0.847021 19.4831 0.869175 19.4831H2.41442C2.73565 19.4831 2.99596 19.3834 3.19534 19.1841C3.39473 18.9847 3.49442 18.7244 3.49442 18.4031C3.49442 18.0819 3.39473 17.8216 3.19534 17.6222C2.99596 17.4173 2.73565 17.3148 2.41442 17.3148H0.869175Z" fill="#4F4F4F"/>
<path d="M8.41572 19.8071C8.43788 19.9622 8.44895 20.1561 8.44895 20.3887V20.6545C8.44895 20.7099 8.42126 20.7376 8.36588 20.7376H5.68247C5.66032 20.7376 5.64924 20.7487 5.64924 20.7708C5.66032 21.0755 5.67694 21.2721 5.69909 21.3607C5.76001 21.6099 5.89017 21.8065 6.08955 21.9505C6.28894 22.0945 6.54371 22.1665 6.85387 22.1665C7.08648 22.1665 7.29141 22.1139 7.46864 22.0087C7.64587 21.9035 7.78433 21.7539 7.88403 21.5601C7.91726 21.5102 7.95603 21.4992 8.00034 21.5268L8.32434 21.7179C8.36865 21.7456 8.37972 21.7844 8.35757 21.8342C8.21911 22.1001 8.01141 22.3105 7.73449 22.4656C7.45756 22.6152 7.1391 22.6899 6.7791 22.6899C6.38586 22.6844 6.05632 22.5902 5.79047 22.4075C5.52463 22.2247 5.33355 21.9699 5.21724 21.6432C5.11755 21.3773 5.0677 20.9951 5.0677 20.4967C5.0677 20.2641 5.07047 20.0758 5.07601 19.9318C5.08709 19.7822 5.10924 19.6493 5.14247 19.533C5.23663 19.173 5.42493 18.885 5.7074 18.669C5.9954 18.453 6.34156 18.345 6.74587 18.345C7.24987 18.345 7.63756 18.4724 7.90895 18.7271C8.18034 18.9819 8.34926 19.3419 8.41572 19.8071ZM6.74587 18.8601C6.47448 18.8601 6.2474 18.9321 6.06463 19.0761C5.8874 19.2145 5.77109 19.4028 5.71571 19.641C5.68247 19.7573 5.66032 19.9456 5.64924 20.2059C5.64924 20.2281 5.66032 20.2391 5.68247 20.2391H7.83418C7.85633 20.2391 7.86741 20.2281 7.86741 20.2059C7.85633 19.9567 7.83972 19.7794 7.81756 19.6742C7.75664 19.425 7.63203 19.2284 7.44372 19.0844C7.26095 18.9348 7.02833 18.8601 6.74587 18.8601Z" fill="#4F4F4F"/>
<path d="M10.9281 22.6567C10.6179 22.6567 10.341 22.6069 10.0973 22.5072C9.85917 22.4075 9.67363 22.2745 9.54071 22.1084C9.41332 21.9422 9.34963 21.7567 9.34963 21.5518V21.4521C9.34963 21.3967 9.37732 21.369 9.43271 21.369H9.83148C9.88686 21.369 9.91456 21.3967 9.91456 21.4521V21.5185C9.91456 21.7013 10.0087 21.8619 10.197 22.0004C10.3909 22.1333 10.6318 22.1998 10.9198 22.1998C11.2078 22.1998 11.4404 22.1361 11.6176 22.0087C11.7949 21.8758 11.8835 21.7096 11.8835 21.5102C11.8835 21.3718 11.8364 21.2582 11.7423 21.1696C11.6536 21.081 11.5456 21.0118 11.4183 20.9619C11.2964 20.9121 11.1053 20.8484 10.845 20.7708C10.5349 20.6822 10.2801 20.5936 10.0807 20.505C9.88132 20.4164 9.7124 20.2945 9.57394 20.1395C9.44102 19.9788 9.37455 19.7767 9.37455 19.533C9.37455 19.1785 9.51302 18.8961 9.78994 18.6856C10.0669 18.4751 10.4324 18.3699 10.8866 18.3699C11.1912 18.3699 11.4598 18.4197 11.6924 18.5194C11.9306 18.6191 12.1133 18.7576 12.2407 18.9348C12.3681 19.1065 12.4318 19.3004 12.4318 19.5164V19.5413C12.4318 19.5967 12.4041 19.6244 12.3487 19.6244H11.9583C11.9029 19.6244 11.8752 19.5967 11.8752 19.5413V19.5164C11.8752 19.3281 11.7838 19.1702 11.601 19.0428C11.4238 18.9154 11.1829 18.8518 10.8783 18.8518C10.5958 18.8518 10.3687 18.9099 10.197 19.0262C10.0253 19.137 9.93948 19.2921 9.93948 19.4914C9.93948 19.6798 10.0226 19.8238 10.1887 19.9235C10.3549 20.0231 10.6124 20.1228 10.9613 20.2225C11.2826 20.3167 11.5429 20.4053 11.7423 20.4884C11.9416 20.5715 12.1133 20.6933 12.2573 20.8539C12.4013 21.009 12.4733 21.2139 12.4733 21.4687C12.4733 21.8287 12.3321 22.1167 12.0496 22.3327C11.7672 22.5487 11.3933 22.6567 10.9281 22.6567Z" fill="#4F4F4F"/>
<path d="M16.7721 19.8071C16.7943 19.9622 16.8054 20.1561 16.8054 20.3887V20.6545C16.8054 20.7099 16.7777 20.7376 16.7223 20.7376H14.0389C14.0167 20.7376 14.0057 20.7487 14.0057 20.7708C14.0167 21.0755 14.0334 21.2721 14.0555 21.3607C14.1164 21.6099 14.2466 21.8065 14.446 21.9505C14.6454 22.0945 14.9001 22.1665 15.2103 22.1665C15.4429 22.1665 15.6478 22.1139 15.8251 22.0087C16.0023 21.9035 16.1408 21.7539 16.2405 21.5601C16.2737 21.5102 16.3125 21.4992 16.3568 21.5268L16.6808 21.7179C16.7251 21.7456 16.7361 21.7844 16.714 21.8342C16.5755 22.1001 16.3678 22.3105 16.0909 22.4656C15.814 22.6152 15.4955 22.6899 15.1355 22.6899C14.7423 22.6844 14.4127 22.5902 14.1469 22.4075C13.8811 22.2247 13.69 21.9699 13.5737 21.6432C13.474 21.3773 13.4241 20.9951 13.4241 20.4967C13.4241 20.2641 13.4269 20.0758 13.4324 19.9318C13.4435 19.7822 13.4657 19.6493 13.4989 19.533C13.593 19.173 13.7814 18.885 14.0638 18.669C14.3518 18.453 14.698 18.345 15.1023 18.345C15.6063 18.345 15.994 18.4724 16.2654 18.7271C16.5368 18.9819 16.7057 19.3419 16.7721 19.8071ZM15.1023 18.8601C14.8309 18.8601 14.6038 18.9321 14.4211 19.0761C14.2438 19.2145 14.1275 19.4028 14.0721 19.641C14.0389 19.7573 14.0167 19.9456 14.0057 20.2059C14.0057 20.2281 14.0167 20.2391 14.0389 20.2391H16.1906C16.2128 20.2391 16.2238 20.2281 16.2238 20.2059C16.2128 19.9567 16.1961 19.7794 16.174 19.6742C16.1131 19.425 15.9884 19.2284 15.8001 19.0844C15.6174 18.9348 15.3848 18.8601 15.1023 18.8601Z" fill="#4F4F4F"/>
<path d="M19.3917 18.345C19.8902 18.345 20.2751 18.4724 20.5465 18.7271C20.8179 18.9819 20.9536 19.3198 20.9536 19.7407V22.5321C20.9536 22.5875 20.9259 22.6152 20.8705 22.6152H20.4468C20.3914 22.6152 20.3638 22.5875 20.3638 22.5321V22.1915C20.3638 22.1804 20.3582 22.1721 20.3471 22.1665C20.3416 22.161 20.3333 22.1638 20.3222 22.1748C20.1838 22.341 20.0037 22.4684 19.7822 22.557C19.5607 22.6401 19.3142 22.6816 19.0428 22.6816C18.6496 22.6816 18.32 22.5819 18.0542 22.3825C17.7884 22.1832 17.6554 21.8785 17.6554 21.4687C17.6554 21.0533 17.805 20.7265 18.104 20.4884C18.4087 20.2447 18.8296 20.1228 19.3668 20.1228H20.3305C20.3527 20.1228 20.3638 20.1118 20.3638 20.0896V19.7739C20.3638 19.4914 20.2834 19.2699 20.1228 19.1093C19.9678 18.9431 19.7241 18.8601 19.3917 18.8601C19.1259 18.8601 18.9099 18.9127 18.7437 19.0179C18.5776 19.1176 18.4751 19.2588 18.4364 19.4416C18.4197 19.497 18.3865 19.5219 18.3367 19.5164L17.888 19.4582C17.8271 19.4471 17.8022 19.425 17.8133 19.3918C17.8576 19.0816 18.0237 18.8296 18.3117 18.6358C18.5997 18.4419 18.9597 18.345 19.3917 18.345ZM19.1591 22.1748C19.4859 22.1748 19.7684 22.0945 20.0065 21.9339C20.2447 21.7678 20.3638 21.5462 20.3638 21.2693V20.6213C20.3638 20.5991 20.3527 20.5881 20.3305 20.5881H19.4582C19.0927 20.5881 18.7991 20.6628 18.5776 20.8124C18.356 20.9619 18.2453 21.1696 18.2453 21.4355C18.2453 21.6792 18.3284 21.8647 18.4945 21.9921C18.6662 22.1139 18.8877 22.1748 19.1591 22.1748Z" fill="#4F4F4F"/>
<path d="M23.8758 18.3699C24.0586 18.3699 24.2164 18.4059 24.3493 18.4779C24.3936 18.5001 24.4103 18.5361 24.3992 18.5859L24.3078 18.993C24.2912 19.0484 24.2552 19.065 24.1998 19.0428C24.1056 19.0041 23.9976 18.9847 23.8758 18.9847L23.7678 18.993C23.4798 19.0041 23.2416 19.1121 23.0533 19.317C22.865 19.5164 22.7709 19.7711 22.7709 20.0813V22.5321C22.7709 22.5875 22.7432 22.6152 22.6878 22.6152H22.2641C22.2087 22.6152 22.181 22.5875 22.181 22.5321V18.4945C22.181 18.4391 22.2087 18.4114 22.2641 18.4114H22.6878C22.7432 18.4114 22.7709 18.4391 22.7709 18.4945V19.0013C22.7709 19.0179 22.7736 19.029 22.7792 19.0345C22.7902 19.0345 22.7985 19.029 22.8041 19.0179C22.9204 18.813 23.0672 18.6551 23.2444 18.5444C23.4272 18.4281 23.6376 18.3699 23.8758 18.3699Z" fill="#4F4F4F"/>
<path d="M26.7534 22.6816C26.3546 22.6816 26.0112 22.5792 25.7232 22.3742C25.4408 22.1638 25.2469 21.8813 25.1417 21.5268C25.0697 21.2832 25.0337 20.9398 25.0337 20.4967C25.0337 20.0979 25.0697 19.7601 25.1417 19.4831C25.2414 19.1398 25.4352 18.8656 25.7232 18.6607C26.0112 18.4502 26.3546 18.345 26.7534 18.345C27.1577 18.345 27.5066 18.4474 27.8002 18.6524C28.0992 18.8573 28.2931 19.1121 28.3817 19.4167C28.4094 19.5164 28.426 19.5994 28.4315 19.6659V19.6825C28.4315 19.7213 28.4066 19.7462 28.3568 19.7573L27.9414 19.8155H27.9248C27.886 19.8155 27.8611 19.7905 27.85 19.7407L27.8251 19.6161C27.7752 19.4056 27.6534 19.2284 27.4595 19.0844C27.2657 18.9348 27.0303 18.8601 26.7534 18.8601C26.4765 18.8601 26.2438 18.9348 26.0555 19.0844C25.8728 19.2284 25.7537 19.4222 25.6983 19.6659C25.6485 19.8764 25.6235 20.1561 25.6235 20.505C25.6235 20.8705 25.6485 21.153 25.6983 21.3524C25.7537 21.6016 25.8728 21.801 26.0555 21.9505C26.2438 22.0945 26.4765 22.1665 26.7534 22.1665C27.0248 22.1665 27.2574 22.0973 27.4512 21.9588C27.6506 21.8148 27.7752 21.6321 27.8251 21.4105V21.3773L27.8334 21.3441C27.8389 21.2887 27.8722 21.2665 27.9331 21.2776L28.3402 21.3441C28.3955 21.3552 28.4205 21.3856 28.4149 21.4355L28.3817 21.6016C28.2986 21.9228 28.1075 22.1832 27.8085 22.3825C27.5094 22.5819 27.1577 22.6816 26.7534 22.6816Z" fill="#4F4F4F"/>
<path d="M31.2274 18.3533C31.6704 18.3533 32.0221 18.4834 32.2824 18.7438C32.5483 19.0041 32.6812 19.353 32.6812 19.7905V22.5321C32.6812 22.5875 32.6535 22.6152 32.5981 22.6152H32.1744C32.1191 22.6152 32.0914 22.5875 32.0914 22.5321V19.9068C32.0914 19.6022 31.9972 19.353 31.8089 19.1591C31.6261 18.9653 31.388 18.8684 31.0944 18.8684C30.7898 18.8684 30.5434 18.9625 30.355 19.1508C30.1667 19.3391 30.0726 19.5856 30.0726 19.8902V22.5321C30.0726 22.5875 30.0449 22.6152 29.9895 22.6152H29.5658C29.5104 22.6152 29.4827 22.5875 29.4827 22.5321V16.8828C29.4827 16.8274 29.5104 16.7997 29.5658 16.7997H29.9895C30.0449 16.7997 30.0726 16.8274 30.0726 16.8828V18.8518C30.0726 18.8628 30.0754 18.8711 30.0809 18.8767C30.092 18.8822 30.1003 18.8794 30.1058 18.8684C30.3495 18.525 30.7234 18.3533 31.2274 18.3533Z" fill="#4F4F4F"/>
<path d="M37.5102 22.6899C37.1225 22.6899 36.7818 22.6152 36.4883 22.4656C36.1948 22.3105 35.9649 22.0945 35.7988 21.8176C35.6381 21.5352 35.5578 21.2112 35.5578 20.8456V18.561C35.5578 18.201 35.6381 17.8825 35.7988 17.6056C35.9649 17.3287 36.1948 17.1154 36.4883 16.9659C36.7818 16.8108 37.1225 16.7333 37.5102 16.7333C37.8979 16.7333 38.2385 16.808 38.532 16.9576C38.8256 17.1071 39.0526 17.3176 39.2132 17.589C39.3794 17.8604 39.4625 18.1733 39.4625 18.5277C39.4625 18.5554 39.4542 18.5776 39.4376 18.5942C39.4209 18.6108 39.4016 18.6191 39.3794 18.6191L38.9557 18.6441C38.9003 18.6441 38.8726 18.6191 38.8726 18.5693V18.5444C38.8726 18.1511 38.748 17.8382 38.4988 17.6056C38.2495 17.3674 37.92 17.2484 37.5102 17.2484C37.1003 17.2484 36.7708 17.3674 36.5215 17.6056C36.2723 17.8437 36.1477 18.1567 36.1477 18.5444V20.8705C36.1477 21.2582 36.2723 21.5712 36.5215 21.8093C36.7708 22.0475 37.1003 22.1665 37.5102 22.1665C37.92 22.1665 38.2495 22.0502 38.4988 21.8176C38.748 21.5795 38.8726 21.2638 38.8726 20.8705V20.8539C38.8726 20.8041 38.9003 20.7791 38.9557 20.7791L39.3794 20.8041C39.4348 20.8041 39.4625 20.829 39.4625 20.8788C39.4625 21.2388 39.3794 21.5573 39.2132 21.8342C39.0526 22.1056 38.8256 22.3161 38.532 22.4656C38.2385 22.6152 37.8979 22.6899 37.5102 22.6899Z" fill="#4F4F4F"/>
<path d="M42.2659 22.6816C41.8671 22.6816 41.5237 22.5792 41.2357 22.3742C40.9477 22.1693 40.7483 21.8868 40.6376 21.5268C40.56 21.2721 40.5213 20.9315 40.5213 20.505C40.5213 20.0785 40.56 19.7407 40.6376 19.4914C40.7428 19.137 40.9394 18.8573 41.2274 18.6524C41.5154 18.4474 41.8643 18.345 42.2742 18.345C42.6674 18.345 43.0053 18.4474 43.2877 18.6524C43.5757 18.8573 43.7724 19.1342 43.8776 19.4831C43.9551 19.7213 43.9939 20.0619 43.9939 20.505C43.9939 20.9536 43.9551 21.2942 43.8776 21.5268C43.7724 21.8868 43.5757 22.1693 43.2877 22.3742C43.0053 22.5792 42.6647 22.6816 42.2659 22.6816ZM42.2659 22.1665C42.5317 22.1665 42.7588 22.0945 42.9471 21.9505C43.1354 21.801 43.2628 21.6016 43.3293 21.3524C43.3791 21.153 43.4041 20.8733 43.4041 20.5133C43.4041 20.1478 43.3819 19.8681 43.3376 19.6742C43.2711 19.425 43.141 19.2284 42.9471 19.0844C42.7588 18.9348 42.529 18.8601 42.2576 18.8601C41.9862 18.8601 41.7563 18.9348 41.568 19.0844C41.3797 19.2284 41.2523 19.425 41.1859 19.6742C41.1416 19.8681 41.1194 20.1478 41.1194 20.5133C41.1194 20.8788 41.1416 21.1585 41.1859 21.3524C41.2468 21.6016 41.3714 21.801 41.5597 21.9505C41.7536 22.0945 41.989 22.1665 42.2659 22.1665Z" fill="#4F4F4F"/>
<path d="M46.9342 18.3533C47.3773 18.3533 47.729 18.4834 47.9893 18.7438C48.2551 19.0041 48.3881 19.353 48.3881 19.7905V22.5321C48.3881 22.5875 48.3604 22.6152 48.305 22.6152H47.8813C47.8259 22.6152 47.7982 22.5875 47.7982 22.5321V19.9068C47.7982 19.6022 47.704 19.353 47.5157 19.1591C47.333 18.9653 47.0948 18.8684 46.8013 18.8684C46.4967 18.8684 46.2502 18.9625 46.0619 19.1508C45.8736 19.3391 45.7794 19.5856 45.7794 19.8902V22.5321C45.7794 22.5875 45.7517 22.6152 45.6963 22.6152H45.2726C45.2173 22.6152 45.1896 22.5875 45.1896 22.5321V18.4945C45.1896 18.4391 45.2173 18.4114 45.2726 18.4114H45.6963C45.7517 18.4114 45.7794 18.4391 45.7794 18.4945V18.8518C45.7794 18.8628 45.7822 18.8711 45.7877 18.8767C45.7988 18.8822 45.8071 18.8794 45.8126 18.8684C46.0563 18.525 46.4302 18.3533 46.9342 18.3533Z" fill="#4F4F4F"/>
<path d="M51.047 22.6567C50.7369 22.6567 50.46 22.6069 50.2163 22.5072C49.9781 22.4075 49.7926 22.2745 49.6597 22.1084C49.5323 21.9422 49.4686 21.7567 49.4686 21.5518V21.4521C49.4686 21.3967 49.4963 21.369 49.5517 21.369H49.9504C50.0058 21.369 50.0335 21.3967 50.0335 21.4521V21.5185C50.0335 21.7013 50.1277 21.8619 50.316 22.0004C50.5098 22.1333 50.7507 22.1998 51.0387 22.1998C51.3267 22.1998 51.5594 22.1361 51.7366 22.0087C51.9138 21.8758 52.0024 21.7096 52.0024 21.5102C52.0024 21.3718 51.9554 21.2582 51.8612 21.1696C51.7726 21.081 51.6646 21.0118 51.5372 20.9619C51.4154 20.9121 51.2243 20.8484 50.964 20.7708C50.6538 20.6822 50.399 20.5936 50.1997 20.505C50.0003 20.4164 49.8313 20.2945 49.6929 20.1395C49.56 19.9788 49.4935 19.7767 49.4935 19.533C49.4935 19.1785 49.632 18.8961 49.9089 18.6856C50.1858 18.4751 50.5513 18.3699 51.0055 18.3699C51.3101 18.3699 51.5787 18.4197 51.8114 18.5194C52.0495 18.6191 52.2323 18.7576 52.3597 18.9348C52.4871 19.1065 52.5507 19.3004 52.5507 19.5164V19.5413C52.5507 19.5967 52.5231 19.6244 52.4677 19.6244H52.0772C52.0218 19.6244 51.9941 19.5967 51.9941 19.5413V19.5164C51.9941 19.3281 51.9027 19.1702 51.72 19.0428C51.5427 18.9154 51.3018 18.8518 50.9972 18.8518C50.7147 18.8518 50.4877 18.9099 50.316 19.0262C50.1443 19.137 50.0584 19.2921 50.0584 19.4914C50.0584 19.6798 50.1415 19.8238 50.3077 19.9235C50.4738 20.0231 50.7313 20.1228 51.0803 20.2225C51.4015 20.3167 51.6618 20.4053 51.8612 20.4884C52.0606 20.5715 52.2323 20.6933 52.3763 20.8539C52.5203 21.009 52.5923 21.2139 52.5923 21.4687C52.5923 21.8287 52.4511 22.1167 52.1686 22.3327C51.8861 22.5487 51.5123 22.6567 51.047 22.6567Z" fill="#4F4F4F"/>
<path d="M56.2099 18.4945C56.2099 18.4391 56.2375 18.4114 56.2929 18.4114H56.7166C56.772 18.4114 56.7997 18.4391 56.7997 18.4945V22.5321C56.7997 22.5875 56.772 22.6152 56.7166 22.6152H56.2929C56.2375 22.6152 56.2099 22.5875 56.2099 22.5321V22.1748C56.2099 22.1638 56.2043 22.1555 56.1932 22.1499C56.1822 22.1444 56.1739 22.1472 56.1683 22.1582C55.9357 22.5016 55.5674 22.6733 55.0634 22.6733C54.7975 22.6733 54.5511 22.6207 54.324 22.5155C54.1025 22.4047 53.9252 22.2469 53.7923 22.0419C53.6649 21.837 53.6012 21.5905 53.6012 21.3025V18.4945C53.6012 18.4391 53.6289 18.4114 53.6843 18.4114H54.108C54.1634 18.4114 54.1911 18.4391 54.1911 18.4945V21.1281C54.1911 21.4438 54.2797 21.6958 54.4569 21.8841C54.6342 22.0668 54.8751 22.1582 55.1797 22.1582C55.4954 22.1582 55.7446 22.0641 55.9274 21.8758C56.1157 21.6875 56.2099 21.4382 56.2099 21.1281V18.4945Z" fill="#4F4F4F"/>
<path d="M58.2048 22.6152C58.1494 22.6152 58.1217 22.5875 58.1217 22.5321V16.8828C58.1217 16.8274 58.1494 16.7997 58.2048 16.7997H58.6285C58.6839 16.7997 58.7116 16.8274 58.7116 16.8828V22.5321C58.7116 22.5875 58.6839 22.6152 58.6285 22.6152H58.2048Z" fill="#4F4F4F"/>
<path d="M61.9223 18.8185C61.9223 18.8739 61.8946 18.9016 61.8392 18.9016H60.9004C60.8783 18.9016 60.8672 18.9127 60.8672 18.9348V21.3856C60.8672 21.6515 60.9253 21.8398 61.0416 21.9505C61.1635 22.0558 61.3518 22.1084 61.6066 22.1084H61.8143C61.8697 22.1084 61.8974 22.1361 61.8974 22.1915V22.5321C61.8974 22.5875 61.8697 22.6152 61.8143 22.6152C61.7478 22.6207 61.6454 22.6235 61.5069 22.6235C61.1081 22.6235 60.8063 22.5487 60.6013 22.3992C60.3964 22.2496 60.294 21.9727 60.294 21.5684V18.9348C60.294 18.9127 60.2829 18.9016 60.2607 18.9016H59.754C59.6986 18.9016 59.6709 18.8739 59.6709 18.8185V18.4945C59.6709 18.4391 59.6986 18.4114 59.754 18.4114H60.2607C60.2829 18.4114 60.294 18.4004 60.294 18.3782V17.4145C60.294 17.3591 60.3216 17.3314 60.377 17.3314H60.7841C60.8395 17.3314 60.8672 17.3591 60.8672 17.4145V18.3782C60.8672 18.4004 60.8783 18.4114 60.9004 18.4114H61.8392C61.8946 18.4114 61.9223 18.4391 61.9223 18.4945V18.8185Z" fill="#4F4F4F"/>
<path d="M64.5164 18.345C65.0149 18.345 65.3998 18.4724 65.6712 18.7271C65.9426 18.9819 66.0783 19.3198 66.0783 19.7407V22.5321C66.0783 22.5875 66.0506 22.6152 65.9952 22.6152H65.5715C65.5161 22.6152 65.4884 22.5875 65.4884 22.5321V22.1915C65.4884 22.1804 65.4829 22.1721 65.4718 22.1665C65.4663 22.161 65.458 22.1638 65.4469 22.1748C65.3084 22.341 65.1284 22.4684 64.9069 22.557C64.6854 22.6401 64.4389 22.6816 64.1675 22.6816C63.7743 22.6816 63.4447 22.5819 63.1789 22.3825C62.913 22.1832 62.7801 21.8785 62.7801 21.4687C62.7801 21.0533 62.9297 20.7265 63.2287 20.4884C63.5333 20.2447 63.9543 20.1228 64.4915 20.1228H65.4552C65.4774 20.1228 65.4884 20.1118 65.4884 20.0896V19.7739C65.4884 19.4914 65.4081 19.2699 65.2475 19.1093C65.0924 18.9431 64.8487 18.8601 64.5164 18.8601C64.2506 18.8601 64.0346 18.9127 63.8684 19.0179C63.7023 19.1176 63.5998 19.2588 63.561 19.4416C63.5444 19.497 63.5112 19.5219 63.4613 19.5164L63.0127 19.4582C62.9518 19.4471 62.9269 19.425 62.938 19.3918C62.9823 19.0816 63.1484 18.8296 63.4364 18.6358C63.7244 18.4419 64.0844 18.345 64.5164 18.345ZM64.2838 22.1748C64.6106 22.1748 64.893 22.0945 65.1312 21.9339C65.3694 21.7678 65.4884 21.5462 65.4884 21.2693V20.6213C65.4884 20.5991 65.4774 20.5881 65.4552 20.5881H64.5829C64.2174 20.5881 63.9238 20.6628 63.7023 20.8124C63.4807 20.9619 63.37 21.1696 63.37 21.4355C63.37 21.6792 63.453 21.8647 63.6192 21.9921C63.7909 22.1139 64.0124 22.1748 64.2838 22.1748Z" fill="#4F4F4F"/>
<path d="M69.0503 18.3533C69.4934 18.3533 69.8451 18.4834 70.1054 18.7438C70.3712 19.0041 70.5042 19.353 70.5042 19.7905V22.5321C70.5042 22.5875 70.4765 22.6152 70.4211 22.6152H69.9974C69.942 22.6152 69.9143 22.5875 69.9143 22.5321V19.9068C69.9143 19.6022 69.8202 19.353 69.6319 19.1591C69.4491 18.9653 69.2109 18.8684 68.9174 18.8684C68.6128 18.8684 68.3663 18.9625 68.178 19.1508C67.9897 19.3391 67.8955 19.5856 67.8955 19.8902V22.5321C67.8955 22.5875 67.8678 22.6152 67.8125 22.6152H67.3888C67.3334 22.6152 67.3057 22.5875 67.3057 22.5321V18.4945C67.3057 18.4391 67.3334 18.4114 67.3888 18.4114H67.8125C67.8678 18.4114 67.8955 18.4391 67.8955 18.4945V18.8518C67.8955 18.8628 67.8983 18.8711 67.9039 18.8767C67.9149 18.8822 67.9232 18.8794 67.9288 18.8684C68.1725 18.525 68.5463 18.3533 69.0503 18.3533Z" fill="#4F4F4F"/>
<path d="M73.6699 18.8185C73.6699 18.8739 73.6423 18.9016 73.5869 18.9016H72.6481C72.6259 18.9016 72.6149 18.9127 72.6149 18.9348V21.3856C72.6149 21.6515 72.673 21.8398 72.7893 21.9505C72.9112 22.0558 73.0995 22.1084 73.3542 22.1084H73.5619C73.6173 22.1084 73.645 22.1361 73.645 22.1915V22.5321C73.645 22.5875 73.6173 22.6152 73.5619 22.6152C73.4955 22.6207 73.393 22.6235 73.2546 22.6235C72.8558 22.6235 72.5539 22.5487 72.349 22.3992C72.1441 22.2496 72.0416 21.9727 72.0416 21.5684V18.9348C72.0416 18.9127 72.0305 18.9016 72.0084 18.9016H71.5016C71.4462 18.9016 71.4185 18.8739 71.4185 18.8185V18.4945C71.4185 18.4391 71.4462 18.4114 71.5016 18.4114H72.0084C72.0305 18.4114 72.0416 18.4004 72.0416 18.3782V17.4145C72.0416 17.3591 72.0693 17.3314 72.1247 17.3314H72.5318C72.5872 17.3314 72.6149 17.3591 72.6149 17.4145V18.3782C72.6149 18.4004 72.6259 18.4114 72.6481 18.4114H73.5869C73.6423 18.4114 73.6699 18.4391 73.6699 18.4945V18.8185Z" fill="#4F4F4F"/>
<path d="M80.7436 22.5155C80.7547 22.5265 80.7602 22.5432 80.7602 22.5653C80.7602 22.5764 80.7547 22.5875 80.7436 22.5985C80.7325 22.6096 80.7159 22.6152 80.6937 22.6152H80.2036C80.1704 22.6152 80.1371 22.5985 80.1039 22.5653C79.8934 22.3272 79.7328 22.1388 79.6221 22.0004C79.6054 21.9838 79.5888 21.9838 79.5722 22.0004C79.3064 22.2385 79.0377 22.413 78.7664 22.5238C78.5005 22.629 78.207 22.6816 77.8857 22.6816C77.3928 22.6816 76.994 22.5681 76.6894 22.341C76.3903 22.1084 76.2408 21.7733 76.2408 21.3358C76.2408 20.9536 76.3488 20.6268 76.5648 20.3555C76.7863 20.0841 77.0937 19.8154 77.487 19.5496C77.5147 19.5385 77.5174 19.5247 77.4953 19.5081C77.174 19.1148 76.9608 18.8185 76.8556 18.6191C76.7503 18.4142 76.6977 18.2065 76.6977 17.9961C76.6977 17.625 76.8251 17.3231 77.0799 17.0905C77.3347 16.8524 77.6725 16.7333 78.0934 16.7333C78.5144 16.7333 78.8605 16.8524 79.1319 17.0905C79.4033 17.3231 79.539 17.6277 79.539 18.0044C79.539 18.3422 79.4365 18.6358 79.2316 18.885C79.0267 19.1342 78.7387 19.3862 78.3676 19.641C78.3454 19.6465 78.3427 19.6604 78.3593 19.6825C78.614 19.9982 78.9325 20.3748 79.3147 20.8124C79.4531 20.9841 79.5473 21.0976 79.5971 21.153C79.6137 21.1696 79.6304 21.1696 79.647 21.153C79.863 20.8816 80.043 20.6435 80.187 20.4385C80.2202 20.3942 80.259 20.3859 80.3033 20.4136L80.619 20.5964C80.6688 20.6296 80.6771 20.6684 80.6439 20.7127C80.4113 21.0561 80.1897 21.3441 79.9793 21.5767V21.5933C79.9793 21.6099 79.9904 21.6321 80.0125 21.6598C79.9904 21.6321 80.1842 21.8619 80.5941 22.3493L80.7436 22.5155ZM78.11 17.2816C77.8608 17.2816 77.6614 17.3508 77.5119 17.4893C77.3624 17.6222 77.2876 17.805 77.2876 18.0376C77.2876 18.1705 77.3291 18.3117 77.4122 18.4613C77.4953 18.6108 77.6753 18.8573 77.9522 19.2007C77.9688 19.2173 77.9854 19.2201 78.002 19.209C78.3067 18.9985 78.5393 18.8019 78.6999 18.6191C78.8661 18.4364 78.9491 18.2314 78.9491 18.0044C78.9491 17.7884 78.8716 17.6139 78.7165 17.481C78.5614 17.348 78.3593 17.2816 78.11 17.2816ZM77.9023 22.1748C78.1405 22.1748 78.3648 22.1278 78.5753 22.0336C78.7913 21.9339 79.0073 21.7872 79.2233 21.5933C79.2399 21.5767 79.2399 21.5601 79.2233 21.5435L78.9325 21.1945C78.783 21.0118 78.6694 20.8788 78.5919 20.7958L77.894 19.9899C77.8885 19.9733 77.8747 19.9705 77.8525 19.9816C77.5313 20.1976 77.282 20.4108 77.1048 20.6213C76.9331 20.8318 76.8473 21.0699 76.8473 21.3358C76.8473 21.6016 76.9414 21.8093 77.1297 21.9588C77.318 22.1028 77.5756 22.1748 77.9023 22.1748Z" fill="#4F4F4F"/>
<path d="M83.8042 22.6152C83.7488 22.6152 83.7211 22.5875 83.7211 22.5321V16.8828C83.7211 16.8274 83.7488 16.7997 83.8042 16.7997H84.2279C84.2832 16.7997 84.3109 16.8274 84.3109 16.8828V22.0668C84.3109 22.089 84.322 22.1001 84.3442 22.1001H87.2768C87.3322 22.1001 87.3599 22.1278 87.3599 22.1832V22.5321C87.3599 22.5875 87.3322 22.6152 87.2768 22.6152H83.8042Z" fill="#4F4F4F"/>
<path d="M89.7804 18.345C90.2789 18.345 90.6638 18.4724 90.9352 18.7271C91.2066 18.9819 91.3423 19.3198 91.3423 19.7407V22.5321C91.3423 22.5875 91.3146 22.6152 91.2592 22.6152H90.8355C90.7801 22.6152 90.7524 22.5875 90.7524 22.5321V22.1915C90.7524 22.1804 90.7469 22.1721 90.7358 22.1665C90.7303 22.161 90.722 22.1638 90.7109 22.1748C90.5724 22.341 90.3924 22.4684 90.1709 22.557C89.9493 22.6401 89.7029 22.6816 89.4315 22.6816C89.0383 22.6816 88.7087 22.5819 88.4429 22.3825C88.177 22.1832 88.0441 21.8785 88.0441 21.4687C88.0441 21.0533 88.1936 20.7265 88.4927 20.4884C88.7973 20.2447 89.2183 20.1228 89.7555 20.1228H90.7192C90.7413 20.1228 90.7524 20.1118 90.7524 20.0896V19.7739C90.7524 19.4914 90.6721 19.2699 90.5115 19.1093C90.3564 18.9431 90.1127 18.8601 89.7804 18.8601C89.5146 18.8601 89.2986 18.9127 89.1324 19.0179C88.9663 19.1176 88.8638 19.2588 88.825 19.4416C88.8084 19.497 88.7752 19.5219 88.7253 19.5164L88.2767 19.4582C88.2158 19.4471 88.1909 19.425 88.2019 19.3918C88.2462 19.0816 88.4124 18.8296 88.7004 18.6358C88.9884 18.4419 89.3484 18.345 89.7804 18.345ZM89.5478 22.1748C89.8746 22.1748 90.157 22.0945 90.3952 21.9339C90.6333 21.7678 90.7524 21.5462 90.7524 21.2693V20.6213C90.7524 20.5991 90.7413 20.5881 90.7192 20.5881H89.8469C89.4813 20.5881 89.1878 20.6628 88.9663 20.8124C88.7447 20.9619 88.6339 21.1696 88.6339 21.4355C88.6339 21.6792 88.717 21.8647 88.8832 21.9921C89.0549 22.1139 89.2764 22.1748 89.5478 22.1748Z" fill="#4F4F4F"/>
<path d="M93.3933 22.6152C93.349 22.6152 93.3185 22.593 93.3019 22.5487L92.1222 18.5028L92.1139 18.4779C92.1139 18.4336 92.1416 18.4114 92.197 18.4114H92.629C92.6788 18.4114 92.7093 18.4364 92.7204 18.4862L93.601 21.7595C93.6065 21.7705 93.6121 21.7761 93.6176 21.7761C93.6287 21.7761 93.637 21.7705 93.6425 21.7595L94.5398 18.4862C94.5508 18.4364 94.5813 18.4114 94.6312 18.4114H95.0299C95.0798 18.4114 95.1102 18.4336 95.1213 18.4779L96.0269 21.7512C96.0324 21.7622 96.0407 21.7678 96.0518 21.7678C96.0629 21.7678 96.0712 21.7622 96.0767 21.7512L96.9823 18.4862C96.9933 18.4364 97.0238 18.4114 97.0736 18.4114L97.5056 18.4197C97.5333 18.4197 97.5527 18.4281 97.5638 18.4447C97.5804 18.4613 97.586 18.4834 97.5804 18.5111L96.3841 22.5487C96.3675 22.593 96.337 22.6152 96.2927 22.6152H95.8524C95.8081 22.6152 95.7776 22.593 95.761 22.5487L94.8555 19.4416C94.8499 19.4305 94.8416 19.425 94.8306 19.425C94.825 19.425 94.8195 19.4305 94.8139 19.4416L93.9333 22.5487C93.9167 22.593 93.8862 22.6152 93.8419 22.6152H93.3933Z" fill="#4F4F4F"/>
<path d="M98.3173 24.2767C98.2786 24.2767 98.2592 24.249 98.2592 24.1936V23.8613C98.2592 23.8059 98.2869 23.7782 98.3423 23.7782H98.3755C98.5915 23.7727 98.7576 23.7395 98.8739 23.6786C98.9958 23.6232 99.0983 23.5152 99.1813 23.3545C99.27 23.1995 99.3641 22.9613 99.4638 22.6401C99.4749 22.6179 99.4749 22.6013 99.4638 22.5902L98.0598 18.5028L98.0515 18.4696C98.0515 18.4308 98.0764 18.4114 98.1263 18.4114H98.5666C98.6164 18.4114 98.6496 18.4336 98.6663 18.4779L99.7463 21.8342C99.7518 21.8453 99.7601 21.8508 99.7712 21.8508C99.7823 21.8508 99.7906 21.8453 99.7961 21.8342L100.86 18.4779C100.876 18.4336 100.909 18.4114 100.959 18.4114H101.391C101.452 18.4114 101.474 18.4419 101.458 18.5028L99.9207 22.9807C99.7878 23.3518 99.6632 23.6259 99.5469 23.8032C99.4306 23.9804 99.2838 24.1022 99.1066 24.1687C98.9349 24.2407 98.6912 24.2767 98.3755 24.2767H98.3173Z" fill="#4F4F4F"/>
<path d="M105.423 19.8071C105.445 19.9622 105.456 20.1561 105.456 20.3887V20.6545C105.456 20.7099 105.429 20.7376 105.373 20.7376H102.69C102.668 20.7376 102.657 20.7487 102.657 20.7708C102.668 21.0755 102.684 21.2721 102.707 21.3607C102.768 21.6099 102.898 21.8065 103.097 21.9505C103.296 22.0945 103.551 22.1665 103.861 22.1665C104.094 22.1665 104.299 22.1139 104.476 22.0087C104.653 21.9035 104.792 21.7539 104.892 21.5601C104.925 21.5102 104.964 21.4992 105.008 21.5268L105.332 21.7179C105.376 21.7456 105.387 21.7844 105.365 21.8342C105.227 22.1001 105.019 22.3105 104.742 22.4656C104.465 22.6152 104.147 22.6899 103.787 22.6899C103.393 22.6844 103.064 22.5902 102.798 22.4075C102.532 22.2247 102.341 21.9699 102.225 21.6432C102.125 21.3773 102.075 20.9951 102.075 20.4967C102.075 20.2641 102.078 20.0758 102.084 19.9318C102.095 19.7822 102.117 19.6493 102.15 19.533C102.244 19.173 102.432 18.885 102.715 18.669C103.003 18.453 103.349 18.345 103.753 18.345C104.257 18.345 104.645 18.4724 104.916 18.7271C105.188 18.9819 105.357 19.3419 105.423 19.8071ZM103.753 18.8601C103.482 18.8601 103.255 18.9321 103.072 19.0761C102.895 19.2145 102.779 19.4028 102.723 19.641C102.69 19.7573 102.668 19.9456 102.657 20.2059C102.657 20.2281 102.668 20.2391 102.69 20.2391H104.842C104.864 20.2391 104.875 20.2281 104.875 20.2059C104.864 19.9567 104.847 19.7794 104.825 19.6742C104.764 19.425 104.64 19.2284 104.451 19.0844C104.268 18.9348 104.036 18.8601 103.753 18.8601Z" fill="#4F4F4F"/>
<path d="M108.324 18.3699C108.507 18.3699 108.665 18.4059 108.798 18.4779C108.842 18.5001 108.859 18.5361 108.848 18.5859L108.756 18.993C108.74 19.0484 108.704 19.065 108.648 19.0428C108.554 19.0041 108.446 18.9847 108.324 18.9847L108.216 18.993C107.928 19.0041 107.69 19.1121 107.502 19.317C107.314 19.5164 107.219 19.7711 107.219 20.0813V22.5321C107.219 22.5875 107.192 22.6152 107.136 22.6152H106.713C106.657 22.6152 106.63 22.5875 106.63 22.5321V18.4945C106.63 18.4391 106.657 18.4114 106.713 18.4114H107.136C107.192 18.4114 107.219 18.4391 107.219 18.4945V19.0013C107.219 19.0179 107.222 19.029 107.228 19.0345C107.239 19.0345 107.247 19.029 107.253 19.0179C107.369 18.813 107.516 18.6551 107.693 18.5444C107.876 18.4281 108.086 18.3699 108.324 18.3699Z" fill="#4F4F4F"/>
</svg>
