<svg width="14" height="11" viewBox="0 0 14 11" fill="none" xmlns="http://www.w3.org/2000/svg">
<path d="M13.193 5.23359L9.19591 1.23646C8.82757 0.868121 8.21368 0.868121 7.84534 1.23646C7.47701 1.60479 7.47701 2.21869 7.84534 2.58703L10.2054 4.96075L1.47448 4.96075C0.942437 4.96075 0.519531 5.38366 0.519531 5.9157C0.519531 6.44774 0.942437 6.87065 1.47448 6.87065L10.2054 6.87065L7.84534 9.23073C7.47701 9.59907 7.47701 10.213 7.84534 10.5813C8.03633 10.7723 8.28189 10.8678 8.52745 10.8678C8.77301 10.8678 9.01856 10.7723 9.20955 10.5813L13.193 6.59781C13.3704 6.42046 13.4795 6.1749 13.4795 5.9157C13.4795 5.6565 13.384 5.41094 13.193 5.23359Z" fill="#76736F"/>
</svg>
