<svg width="10" height="8" viewBox="0 0 10 8" fill="none" xmlns="http://www.w3.org/2000/svg">
<path d="M9.04406 3.62901L6.38949 0.932096C6.14487 0.683574 5.73584 0.682229 5.48963 0.929136C5.24341 1.17604 5.24207 1.5889 5.48669 1.83742L7.05403 3.43897L1.23671 3.41984C0.88222 3.41867 0.599525 3.70216 0.598369 4.05997C0.597214 4.41778 0.878072 4.70312 1.23257 4.70428L7.04989 4.72342L5.47227 6.30545C5.22605 6.55236 5.22471 6.96521 5.46933 7.21373C5.59617 7.3426 5.75958 7.40736 5.92319 7.4079C6.0868 7.40843 6.25062 7.34475 6.37829 7.21672L9.04109 4.54647C9.15964 4.42759 9.23289 4.26269 9.23345 4.08837C9.23402 3.91405 9.17092 3.7487 9.04406 3.62901Z" fill="#76736F"/>
</svg>
