<svg width="10" height="8" viewBox="0 0 10 8" fill="none" xmlns="http://www.w3.org/2000/svg">
<path d="M9.1287 3.82037L6.46394 1.16548C6.21838 0.920833 5.80912 0.920833 5.56356 1.16548C5.318 1.41013 5.318 1.81788 5.56356 2.06253C6.1447 2.64486 5.73226 3.63915 4.90955 3.63915L1.31632 3.63915C0.961624 3.63915 0.679687 3.92004 0.679687 4.27342C0.679687 4.6268 0.961624 4.9077 1.31632 4.9077H4.91596C5.73423 4.9077 6.14324 5.89773 5.56356 6.47526C5.318 6.71991 5.318 7.12765 5.56356 7.3723C5.69089 7.49916 5.85459 7.56258 6.0183 7.56258C6.182 7.56258 6.34571 7.49916 6.47303 7.3723L9.1287 4.72648C9.24693 4.60868 9.31969 4.44558 9.31969 4.27342C9.31969 4.10126 9.25603 3.93816 9.1287 3.82037Z" fill="#76736F"/>
</svg>
