<svg width="9" height="8" viewBox="0 0 9 8" fill="none" xmlns="http://www.w3.org/2000/svg">
<path d="M8.48378 3.53062L5.82921 0.833707C5.58459 0.585186 5.17556 0.58384 4.92934 0.830747C4.68312 1.07765 4.68179 1.49051 4.92641 1.73903L6.49375 3.34058L0.676412 3.32145C0.321918 3.32028 0.0392221 3.60377 0.0380668 3.96158C0.0369114 4.31939 0.31777 4.60473 0.672265 4.60589L6.48961 4.62503L4.91198 6.20706C4.66576 6.45397 4.66443 6.86682 4.90905 7.11535C5.03589 7.24421 5.19929 7.30897 5.36291 7.30951C5.52652 7.31005 5.69034 7.24636 5.81801 7.11834L8.48082 4.44808C8.59937 4.3292 8.67262 4.1643 8.67318 3.98998C8.67375 3.81566 8.61065 3.65031 8.48378 3.53062Z" fill="#76736F"/>
</svg>
