<svg width="157" height="107" viewBox="0 0 157 107" fill="none" xmlns="http://www.w3.org/2000/svg">
<path fill-rule="evenodd" clip-rule="evenodd" d="M94.861 105.45L81.2996 96.9451L121.064 43.8488H109.802L55.556 80.1657L48.2006 75.3388L104.745 43.8488H94.861L63.371 56.4908C63.371 56.4908 62.3904 55.8604 61.762 55.4564C61.1337 55.0525 60.153 54.4221 60.153 54.4221L90.7236 43.6189H82.219L25.4451 59.9386L22.6869 58.0997L77.3921 43.1592H68.4278L18.5495 55.3415L2 44.7682L155.542 1.55566L94.861 105.45ZM114.858 31.6665L126.581 30.7471L126.351 15.3469L114.169 18.5649V31.6665H114.858ZM108.422 32.1262L97.8491 32.8158V23.1619L108.422 20.4037V32.1262ZM83.1384 26.8396V33.9651L93.252 33.2755V24.5411L83.1384 26.8396ZM79.6906 27.9889L73.7144 29.8277V34.6546L79.6906 34.1949V27.9889Z" fill="white" stroke="white"/>
</svg>
