<svg width="124" height="193" viewBox="0 0 124 193" fill="none" xmlns="http://www.w3.org/2000/svg">
<path d="M96.9442 187.475L95.1721 189.643C95.1706 189.789 94.9497 189.991 94.0784 189.632C92.9892 189.183 92.1059 190.049 90.5754 190.033C89.0448 190.017 88.3934 189.573 87.0814 189.559C85.7695 189.545 85.5554 189.106 84.6854 188.659C83.8153 188.213 81.4033 188.843 80.9683 188.62C80.5332 188.397 75.7068 189.877 74.8368 189.431C73.9667 188.984 74.1877 188.768 73.7595 187.889C73.3313 187.01 73.3313 187.01 72.6914 185.472C72.0514 183.935 71.6095 184.368 70.9604 183.705C70.3113 183.042 69.6576 182.816 69.2226 182.593C68.7876 182.37 66.6125 181.254 66.1752 181.249L63.3327 181.22L61.8044 180.985L60.9297 180.976L57.4313 180.939L52.8395 180.891L43.4374 180.793L37.5337 180.731C36.5082 181.231 33.9759 182.225 32.0514 182.205C29.6457 182.18 28.5415 183.261 27.6691 183.034C26.9713 182.851 25.1979 182.352 24.3985 182.125C24.0302 182.485 23.1211 182.986 22.4306 182.104C21.5674 181.002 22.4397 181.23 21.1506 179.029C19.8616 176.829 21.1643 177.717 21.1803 176.187C21.1963 174.656 21.8546 174.444 22.522 173.358C23.1894 172.272 23.8522 171.622 24.5241 170.099C25.1961 168.575 25.6265 169.236 24.5676 165.944C23.2671 164.837 22.397 164.391 21.3129 163.505C20.2287 162.619 20.0147 162.179 19.1469 161.514C18.2791 160.849 18.065 160.409 17.4159 159.747C16.7668 159.084 15.2477 157.974 14.8126 157.751C14.4646 157.573 12.501 155.759 11.5627 154.874L10.6879 154.865C9.53021 154.051 6.95602 152.071 5.92094 150.661C5.57658 150.132 4.33665 148.822 3.75973 148.233L3.78258 146.046C3.27772 145.531 2.3163 144.063 2.5095 142.315C2.75101 140.131 3.41154 139.7 3.8717 137.519C4.33186 135.337 4.99011 135.125 5.44113 133.817C5.89215 132.51 7.21093 131.868 7.43644 131.214C7.66195 130.56 9.6207 131.456 11.8278 129.511C14.0349 127.566 13.8026 128.875 14.6886 127.791C15.5746 126.707 17.0915 128.035 17.7498 127.823C18.408 127.611 22.7674 128.969 23.4233 128.976C24.0793 128.983 26.9195 129.231 27.7964 129.021C28.498 128.854 30.5531 130.289 31.493 131.028L34.9917 131.065C35.5732 131.217 36.7384 131.302 36.7476 130.427C36.759 129.334 36.9913 128.024 36.7864 126.71C36.5815 125.396 36.5906 124.521 36.5929 124.302C36.5947 124.127 35.5902 122.615 35.0877 121.881C35.238 121.445 35.452 120.485 35.106 120.132C34.6735 119.69 35.1106 119.695 35.1128 119.476C35.1151 119.257 35.122 118.601 34.4706 118.157C33.8192 117.713 34.4866 116.627 34.0536 116.185C33.7072 115.831 34.2086 115.312 34.5026 115.096C34.7281 114.442 35.1864 112.435 35.2157 109.637L35.2408 107.231C35.2545 105.919 35.2568 105.701 34.6054 105.257C33.954 104.812 34.6237 103.507 34.6283 103.07C34.6328 102.633 34.6557 100.446 34.0066 99.7834C33.4873 99.2532 34.2488 97.5263 34.6945 96.7291L34.0706 93.6611L34.1026 90.5999C34.3319 89.5818 34.7928 87.327 34.8019 86.4523L34.8499 81.8606L34.8751 79.4554L34.8911 77.9248C34.8979 77.2689 35.1234 76.6152 35.5699 75.7451C36.0163 74.8751 35.595 73.3399 35.6041 72.4653L35.6316 69.8415C35.6453 68.5295 36.3058 68.0991 36.3149 67.2245C36.3241 66.3499 37.4288 65.268 37.8729 64.6166C38.3171 63.9652 39.6382 63.1043 40.5219 62.2388C41.4057 61.3734 42.2803 61.3825 42.9408 60.952C43.6014 60.5216 44.7038 59.6584 45.3666 59.0093C45.8969 58.49 46.6079 58.8036 46.8972 59.0253L52.1906 54.707C52.4123 54.4178 52.9441 53.7527 53.2976 53.4065C53.7395 52.9738 55.7165 52.1197 55.7256 51.2451L55.7599 47.9653L56.473 42.5058L56.5347 36.6021C56.3252 35.7252 55.9071 33.884 55.9107 33.5341C55.9153 33.0968 55.0452 32.6504 54.6125 32.2085C54.2663 31.855 53.0334 29.8594 52.4602 28.9058L50.3034 26.0405L47.7138 22.7332L46.2175 19.4374L45.3726 16.5858C45.5951 16.2236 46.0846 15.4123 46.2632 15.0643C46.4864 14.6293 46.7074 14.4129 47.1584 13.1056C47.5192 12.0597 48.4779 12.3904 48.9122 12.6865C49.9288 13.0616 52.0931 13.8132 52.6179 13.8187L54.3671 13.8369L56.1164 13.8552C56.6243 14.0792 57.815 14.529 58.5147 14.5363C59.3893 14.5455 61.3572 14.566 61.5827 13.9123C61.8083 13.2587 63.1179 13.491 63.5621 12.8396C63.9174 12.3185 64.8763 12.6347 65.3113 12.8579L68.3725 12.8899L71.2264 11.8263C73.1206 11.919 77.1282 12.063 78.0047 11.8972C78.8811 11.7314 78.9575 11.3969 78.8861 11.2504L79.5513 10.3826C80.0607 10.4608 81.4736 10.5776 83.0497 10.4192C84.6259 10.2607 84.7314 9.92648 84.5872 9.77919L85.8991 9.7929L87.2316 7.83872L88.3454 5.88226L88.9717 8.73162L88.9443 11.3555C88.9406 11.7053 88.4932 12.6628 88.27 13.0979L87.5958 14.8402L87.1402 16.5849C86.9162 17.0928 86.4231 18.2394 86.2427 18.7623C86.0623 19.2852 85.8623 20.2891 85.7848 20.7256L85.1037 23.124L84.4295 24.8663L83.3065 27.6974L82.8395 30.5354L84.2901 38.2043L84.2695 40.1722L84.8775 44.7708L84.8409 48.2692L85.4718 50.6813L86.7654 52.4442L89.8083 54.2254L94.3658 57.5533L98.9324 60.0064L103.267 63.7693L105.633 67.5115L105.608 69.9167L105.539 76.4764L107.008 82.396L106.958 87.2064L106.905 92.2355C107.113 93.2581 107.527 95.4784 107.52 96.1781L107.458 102.082L107.246 122.417L107.888 123.735L107.859 126.578L105.868 128.744L104.963 131.577L104.068 133.536L105.82 133.336L109.1 133.37C109.799 133.377 111.572 133.979 112.37 134.279L114.983 135.4L117.584 137.613L120.185 139.827L121.223 145.087L121.182 149.022L121.152 151.865L120.025 155.133L117.371 157.948L112.741 161.617C111.496 162.115 108.789 163.107 107.914 163.098C107.04 163.089 105.024 167.587 104.126 169.837L104.09 173.336L104.069 175.304L104.039 178.146L100.946 181.175L96.9602 185.945L96.9442 187.475Z" stroke="#F7F6F3" stroke-width="4.25"/>
</svg>
