<svg width="156" height="106" viewBox="0 0 156 106" fill="none" xmlns="http://www.w3.org/2000/svg">
<path fill-rule="evenodd" clip-rule="evenodd" d="M93.9171 104.566L80.3833 96.0169L120.319 43.0517L109.056 43.0147L54.6939 79.153L47.3542 74.3019L104 42.9981L94.116 42.9655L62.5854 55.5039C62.5854 55.5039 61.6068 54.8702 60.9797 54.4642C60.3527 54.0582 59.3741 53.4246 59.3741 53.4246L89.9794 42.7221L81.4749 42.6941L24.6485 58.8269L21.8963 56.979L76.6494 42.2185L67.6852 42.189L17.7678 54.2072L1.25256 43.5795L154.934 0.872231L93.9171 104.566ZM114.153 30.8491L125.878 29.9683L125.698 14.5674L113.505 17.7452L113.463 30.8469L114.153 30.8491ZM107.715 31.2877L97.1397 31.9424L97.1709 22.2886L107.753 19.5652L107.715 31.2877ZM82.4485 25.9179L82.4254 33.0433L92.5412 32.387L92.5694 23.6526L82.4485 25.9179ZM78.997 27.0558L73.0148 28.875L72.9993 33.7019L78.9769 33.2618L78.997 27.0558Z" fill="white" stroke="white"/>
</svg>
