<svg width="124" height="193" viewBox="0 0 124 193" fill="none" xmlns="http://www.w3.org/2000/svg">
<path d="M96.9423 187.475L95.1702 189.643C95.1687 189.789 94.9478 189.991 94.0764 189.632C92.9873 189.183 92.104 190.049 90.5734 190.033C89.0428 190.017 88.3914 189.573 87.0795 189.559C85.7676 189.545 85.5535 189.106 84.6834 188.659C83.8134 188.213 81.4013 188.843 80.9663 188.62C80.5313 188.397 75.7049 189.877 74.8348 189.431C73.9648 188.984 74.1857 188.768 73.7576 187.889C73.3294 187.01 73.3294 187.01 72.6894 185.472C72.0495 183.935 71.6076 184.368 70.9585 183.705C70.3094 183.042 69.6557 182.816 69.2207 182.593C68.7856 182.37 66.6105 181.254 66.1732 181.249L63.3307 181.22L61.8024 180.985L60.9278 180.976L57.4293 180.939L52.8376 180.891L43.4354 180.793L37.5318 180.731C36.5062 181.231 33.9739 182.225 32.0494 182.205C29.6437 182.18 28.5395 183.261 27.6672 183.034C26.9693 182.851 25.196 182.352 24.3965 182.125C24.0283 182.485 23.1192 182.986 22.4286 182.104C21.5654 181.002 22.4378 181.23 21.1487 179.029C19.8596 176.829 21.1624 177.717 21.1784 176.187C21.1944 174.656 21.8526 174.444 22.52 173.358C23.1874 172.272 23.8502 171.622 24.5222 170.099C25.1941 168.575 25.6246 169.236 24.5656 165.944C23.2651 164.837 22.395 164.391 21.3109 163.505C20.2268 162.619 20.0127 162.179 19.1449 161.514C18.2772 160.849 18.0631 160.409 17.414 159.747C16.7649 159.084 15.2457 157.974 14.8107 157.751C14.4627 157.573 12.4991 155.759 11.5608 154.874L10.686 154.865C9.52826 154.051 6.95406 152.071 5.91899 150.661C5.57462 150.132 4.3347 148.822 3.75778 148.233L3.78063 146.046C3.27577 145.531 2.31434 144.063 2.50755 142.315C2.74905 140.131 3.40959 139.7 3.86975 137.519C4.32991 135.337 4.98816 135.125 5.43917 133.817C5.89019 132.51 7.20898 131.868 7.43449 131.214C7.66 130.56 9.61875 131.456 11.8259 129.511C14.033 127.566 13.8006 128.875 14.6866 127.791C15.5727 126.707 17.0896 128.035 17.7478 127.823C18.4061 127.611 22.7654 128.969 23.4214 128.976C24.0774 128.983 26.9176 129.231 27.7945 129.021C28.496 128.854 30.5512 130.289 31.491 131.028L34.9898 131.065C35.5713 131.217 36.7365 131.302 36.7456 130.427C36.757 129.334 36.9894 128.024 36.7845 126.71C36.5795 125.396 36.5886 124.521 36.5909 124.302C36.5928 124.127 35.5882 122.615 35.0858 121.881C35.236 121.445 35.45 120.485 35.104 120.132C34.6716 119.69 35.1086 119.695 35.1109 119.476C35.1132 119.257 35.12 118.601 34.4686 118.157C33.8173 117.713 34.4846 116.627 34.0516 116.185C33.7052 115.831 34.2066 115.312 34.5006 115.096C34.7261 114.442 35.1845 112.435 35.2137 109.637L35.2389 107.231C35.2526 105.919 35.2549 105.701 34.6035 105.257C33.9521 104.812 34.6217 103.507 34.6263 103.07C34.6309 102.633 34.6537 100.446 34.0046 99.7834C33.4853 99.2532 34.2469 97.5263 34.6926 96.7291L34.0686 93.6611L34.1006 90.5999C34.3299 89.5818 34.7908 87.327 34.8 86.4523L34.848 81.8606L34.8731 79.4554L34.8891 77.9248C34.896 77.2689 35.1215 76.6152 35.5679 75.7451C36.0144 74.8751 35.593 73.3399 35.6022 72.4653L35.6296 69.8415C35.6433 68.5295 36.3039 68.0991 36.313 67.2245C36.3221 66.3499 37.4268 65.268 37.871 64.6166C38.3152 63.9652 39.6362 63.1043 40.52 62.2388C41.4037 61.3734 42.2784 61.3825 42.9389 60.952C43.5994 60.5216 44.7018 59.6584 45.3647 59.0093C45.8949 58.49 46.606 58.8036 46.8952 59.0253L52.1886 54.707C52.4104 54.4178 52.9421 53.7527 53.2956 53.4065C53.7375 52.9738 55.7145 52.1197 55.7237 51.2451L55.758 47.9653L56.471 42.5058L56.5327 36.6021C56.3232 35.7252 55.9051 33.884 55.9088 33.5341C55.9133 33.0968 55.0433 32.6504 54.6106 32.2085C54.2644 31.855 53.0315 29.8594 52.4583 28.9058L50.3015 26.0405L47.7119 22.7332L46.2156 19.4374L45.3707 16.5858C45.5931 16.2236 46.0827 15.4123 46.2613 15.0643C46.4845 14.6293 46.7054 14.4129 47.1564 13.1056C47.5173 12.0597 48.476 12.3904 48.9103 12.6865C49.9268 13.0616 52.0912 13.8132 52.616 13.8187L54.3652 13.8369L56.1144 13.8552C56.6223 14.0792 57.8131 14.529 58.5128 14.5363C59.3874 14.5455 61.3553 14.566 61.5808 13.9123C61.8063 13.2587 63.1159 13.491 63.5601 12.8396C63.9154 12.3185 64.8743 12.6347 65.3093 12.8579L68.3705 12.8899L71.2244 11.8263C73.1187 11.919 77.1263 12.063 78.0027 11.8972C78.8792 11.7314 78.9556 11.3969 78.8842 11.2504L79.5493 10.3826C80.0587 10.4608 81.4716 10.5776 83.0478 10.4192C84.6239 10.2607 84.7295 9.92648 84.5852 9.77919L85.8971 9.7929L87.2296 7.83872L88.3435 5.88226L88.9697 8.73162L88.9423 11.3555C88.9386 11.7053 88.4913 12.6628 88.2681 13.0979L87.5938 14.8402L87.1382 16.5849C86.9142 17.0928 86.4212 18.2394 86.2408 18.7623C86.0604 19.2852 85.8603 20.2891 85.7829 20.7256L85.1018 23.124L84.4275 24.8663L83.3046 27.6974L82.8375 30.5354L84.2881 38.2043L84.2676 40.1722L84.8756 44.7708L84.839 48.2692L85.4698 50.6813L86.7635 52.4442L89.8064 54.2254L94.3638 57.5533L98.9304 60.0064L103.265 63.7693L105.631 67.5115L105.606 69.9167L105.537 76.4764L107.006 82.396L106.956 87.2064L106.903 92.2355C107.111 93.2581 107.526 95.4784 107.518 96.1781L107.457 102.082L107.244 122.417L107.886 123.735L107.857 126.578L105.866 128.744L104.961 131.577L104.066 133.536L105.818 133.336L109.098 133.37C109.797 133.377 111.57 133.979 112.368 134.279L114.981 135.4L117.582 137.613L120.183 139.827L121.221 145.087L121.18 149.022L121.15 151.865L120.023 155.133L117.369 157.948L112.739 161.617C111.494 162.115 108.787 163.107 107.912 163.098C107.038 163.089 105.023 167.587 104.124 169.837L104.088 173.336L104.067 175.304L104.037 178.146L100.944 181.175L96.9583 185.945L96.9423 187.475Z" stroke="#F7F6F3" stroke-width="4.25"/>
</svg>
