<svg width="8" height="11" viewBox="0 0 8 11" fill="none" xmlns="http://www.w3.org/2000/svg">
<path d="M3.75547 10.3508C3.03547 10.3485 2.40362 10.2079 1.8599 9.92922C1.31621 9.64127 0.897492 9.24297 0.603749 8.73431C0.310005 8.22565 0.164206 7.63901 0.166352 6.9744L0.17668 3.77595C0.178826 3.11134 0.328411 2.52568 0.625433 2.01896C0.922455 1.51224 1.34372 1.12132 1.88923 0.846185C2.43473 0.571055 3.06748 0.434675 3.78748 0.437043C4.49825 0.439381 5.12089 0.575276 5.6554 0.844727C6.19918 1.10498 6.61797 1.4802 6.91178 1.9704C7.21484 2.4514 7.36534 3.01036 7.36329 3.64728C7.36302 3.73036 7.30747 3.78095 7.19664 3.79904L5.57634 3.89064L5.54865 3.89055C5.45634 3.89024 5.41035 3.83932 5.41068 3.73778C5.41226 3.24856 5.26122 2.85575 4.95756 2.55936C4.66313 2.26301 4.2713 2.11403 3.78207 2.11242C3.28361 2.11078 2.8816 2.25715 2.57603 2.55153C2.27969 2.84594 2.13074 3.23776 2.12916 3.72699L2.11838 7.0639C2.11683 7.54389 2.26327 7.93207 2.5577 8.22842C2.86136 8.52481 3.26242 8.67382 3.76088 8.67546C4.25011 8.67707 4.64289 8.53067 4.93923 8.23626C5.24479 7.94188 5.39835 7.55469 5.3999 7.07469C5.40023 6.97315 5.45578 6.92257 5.56655 6.92293L7.18631 6.99749C7.23247 6.99764 7.26935 7.01161 7.29695 7.03939C7.33378 7.0672 7.35214 7.09957 7.35202 7.1365C7.34996 7.77342 7.19584 8.33599 6.88965 8.82422C6.59268 9.31247 6.17146 9.68955 5.62599 9.95545C5.08974 10.2214 4.46623 10.3532 3.75547 10.3508Z" fill="#F7F6F3" fill-opacity="0.65"/>
</svg>
