<svg width="421" height="121" viewBox="0 0 421 121" fill="none" xmlns="http://www.w3.org/2000/svg">
<path d="M10.031 27.8204C8.09543 27.814 6.39332 27.4346 4.9247 26.682C3.45615 25.9036 2.32406 24.8298 1.52844 23.4606C0.732809 22.0914 0.337909 20.5043 0.343737 18.6994L0.374584 9.14621C0.380413 7.34129 0.785554 5.75685 1.59001 4.3929C2.39446 3.02895 3.53342 1.97552 5.00687 1.23261C6.48033 0.489693 8.18485 0.121419 10.1204 0.127786C12.0302 0.134068 13.7194 0.500612 15.1882 1.22742C16.6569 1.95422 17.7891 2.97645 18.5849 4.29409C19.3807 5.61174 19.7758 7.13434 19.7702 8.86191C19.7698 8.99083 19.7178 9.10669 19.6143 9.20949C19.5366 9.28659 19.4332 9.32493 19.3042 9.3245L15.7421 9.50617C15.4324 9.50515 15.278 9.36283 15.2789 9.0792C15.2839 7.55791 14.8104 6.33157 13.8585 5.40019C12.9324 4.46889 11.6822 4.00065 10.1079 3.99547C8.53367 3.99029 7.26759 4.45025 6.30971 5.37536C5.35182 6.30046 4.87042 7.52366 4.86551 9.04495L4.83366 18.9075C4.82883 20.403 5.30236 21.6165 6.25425 22.5479C7.20614 23.4793 8.46922 23.9475 10.0435 23.9527C11.6178 23.9579 12.8709 23.5108 13.8029 22.6114C14.7608 21.6863 15.2422 20.4631 15.2471 18.9418C15.248 18.6582 15.4033 18.5169 15.713 18.5179L19.274 18.6843C19.403 18.6847 19.5061 18.7237 19.5833 18.8013C19.6863 18.879 19.7376 18.9695 19.7373 19.0726C19.7316 20.8259 19.3266 22.3717 18.5222 23.7099C17.7179 25.0223 16.5791 26.037 15.1057 26.7541C13.6324 27.4713 11.9408 27.8267 10.031 27.8204Z" fill="#222222"/>
<path d="M39.7393 27.6087C39.4812 27.6079 39.3009 27.4912 39.1984 27.2588L34.1245 16.1031C34.0732 15.9998 33.9959 15.948 33.8927 15.9476L29.2473 15.9323C29.1182 15.9319 29.0535 15.9962 29.0531 16.1251L29.0176 27.1093C29.0172 27.2382 28.9652 27.3541 28.8617 27.4569C28.784 27.534 28.6806 27.5723 28.5516 27.5719L24.9901 27.5602C24.8611 27.5598 24.7451 27.5207 24.6421 27.443C24.565 27.3396 24.5267 27.2235 24.5271 27.0945L24.6115 0.948996C24.6119 0.820073 24.651 0.717062 24.7286 0.639962C24.8322 0.537164 24.9485 0.485976 25.0775 0.486401L35.7233 0.521418C37.2975 0.526596 38.6901 0.866379 39.9009 1.54077C41.1117 2.18937 42.0507 3.12071 42.7178 4.3348C43.385 5.52309 43.7161 6.89078 43.7111 8.43785C43.7053 10.217 43.2359 11.7368 42.3027 12.9971C41.3955 14.2318 40.1281 15.0914 38.5006 15.576C38.449 15.5758 38.4102 15.6015 38.3842 15.653C38.3583 15.7045 38.3581 15.756 38.3837 15.8077L43.8057 27.0806C43.857 27.1839 43.8826 27.2614 43.8824 27.3129C43.8817 27.5192 43.7395 27.6219 43.4556 27.6209L39.7393 27.6087ZM29.2846 4.36797C29.1556 4.36754 29.0909 4.43179 29.0904 4.56071L29.0656 12.2574C29.0652 12.3863 29.1295 12.451 29.2585 12.4514L35.0653 12.4705C36.304 12.4746 37.2988 12.1169 38.0496 11.3974C38.8262 10.6522 39.2165 9.67363 39.2204 8.46176C39.2243 7.24988 38.8404 6.2688 38.0686 5.5185C37.3225 4.76828 36.3302 4.39114 35.0914 4.38707L29.2846 4.36797Z" fill="#222222"/>
<path d="M48.7313 27.6383C48.6022 27.6379 48.4862 27.5988 48.3832 27.5211C48.3061 27.4177 48.2678 27.3016 48.2682 27.1726L48.3526 1.02709C48.3531 0.898165 48.3921 0.795154 48.4698 0.718054C48.5733 0.615255 48.6896 0.564068 48.8187 0.564492L52.3801 0.576207C52.5092 0.576631 52.6122 0.62854 52.6893 0.731933C52.7923 0.809627 52.8436 0.912935 52.8432 1.04186L52.7588 27.1874C52.7583 27.3163 52.7064 27.4322 52.6028 27.535C52.5251 27.6121 52.4218 27.6504 52.2927 27.65L48.7313 27.6383Z" fill="#222222"/>
<path d="M75.9437 0.963133C76.0734 0.757281 76.2543 0.654736 76.4866 0.6555L80.0481 0.667215C80.1771 0.667639 80.2802 0.719548 80.3573 0.822941C80.4603 0.900635 80.5115 1.00394 80.5111 1.13287L80.4267 27.2784C80.4263 27.4073 80.3743 27.5232 80.2707 27.626C80.1931 27.7031 80.0897 27.7414 79.9607 27.741L76.3992 27.7293C76.2702 27.7289 76.1541 27.6898 76.0512 27.6121C75.9741 27.5087 75.9357 27.3926 75.9362 27.2636L75.9957 8.81479C75.996 8.73743 75.9574 8.68574 75.8801 8.6597C75.8286 8.63374 75.7898 8.6594 75.7637 8.73667L70.9008 16.1467C70.7711 16.3526 70.5901 16.4551 70.3578 16.4543L68.5771 16.4485C68.3448 16.4477 68.1645 16.344 68.0361 16.1373L63.1823 8.73396C63.1567 8.65652 63.1052 8.63057 63.0277 8.6561C62.976 8.68171 62.95 8.7332 62.9498 8.81055L62.8903 27.2207C62.8899 27.3497 62.8379 27.4655 62.7344 27.5683C62.6567 27.6454 62.5533 27.6838 62.4243 27.6833L58.8628 27.6716C58.7338 27.6712 58.6178 27.6321 58.5148 27.5544C58.4377 27.451 58.3994 27.3349 58.3998 27.206L58.4842 1.06041C58.4846 0.93149 58.5237 0.828479 58.6013 0.75138C58.7049 0.648581 58.8212 0.597394 58.9502 0.597818L62.5117 0.609533C62.744 0.610297 62.9243 0.714029 63.0527 0.920731L69.3318 10.4947C69.3833 10.5464 69.4348 10.5724 69.4864 10.5725C69.538 10.5727 69.5768 10.547 69.6028 10.4956L75.9437 0.963133Z" fill="#222222"/>
<path d="M86.5356 27.7626C86.4065 27.7622 86.2905 27.7232 86.1876 27.6455C86.1105 27.5421 86.0721 27.4259 86.0725 27.297L86.157 1.15144C86.1574 1.02251 86.1964 0.919503 86.2741 0.842404C86.3777 0.739605 86.494 0.688417 86.623 0.688842L90.1845 0.700557C90.3135 0.700981 90.4166 0.75289 90.4937 0.856283C90.5967 0.933977 90.6479 1.03729 90.6475 1.16621L90.5631 27.3118C90.5627 27.4407 90.5107 27.5565 90.4071 27.6593C90.3295 27.7364 90.2261 27.7748 90.0971 27.7744L86.5356 27.7626Z" fill="#222222"/>
<path d="M112.044 1.23659C112.045 1.10766 112.084 1.00465 112.161 0.927554C112.265 0.824755 112.381 0.773568 112.51 0.773992L116.072 0.785707C116.201 0.786132 116.304 0.83804 116.381 0.941434C116.484 1.01913 116.535 1.12244 116.535 1.25136L116.45 27.3969C116.45 27.5258 116.398 27.6417 116.294 27.7445C116.217 27.8216 116.113 27.8599 115.984 27.8595L112.539 27.8482C112.281 27.8473 112.101 27.7436 111.998 27.537L100.908 9.24483C100.857 9.1673 100.805 9.14135 100.753 9.16696C100.702 9.16679 100.676 9.21828 100.675 9.32142L100.695 27.3451C100.694 27.474 100.642 27.5899 100.539 27.6927C100.461 27.7698 100.358 27.8081 100.229 27.8077L96.6671 27.796C96.5381 27.7955 96.4221 27.7565 96.3191 27.6788C96.242 27.5754 96.2037 27.4592 96.2041 27.3303L96.2885 1.18476C96.289 1.05584 96.328 0.952829 96.4057 0.875729C96.5092 0.77293 96.6255 0.721743 96.7546 0.722168L100.2 0.7335C100.458 0.734349 100.638 0.838082 100.741 1.0447L111.792 19.3367C111.844 19.4142 111.895 19.4531 111.947 19.4533C111.998 19.4276 112.024 19.3633 112.025 19.2601L112.044 1.23659Z" fill="#222222"/>
<path d="M138.899 27.9349C138.641 27.934 138.474 27.8046 138.397 27.5465L137.133 23.4038C137.082 23.3005 137.018 23.2487 136.94 23.2485L126.72 23.2149C126.643 23.2146 126.578 23.266 126.526 23.3689L125.235 27.5032C125.157 27.7608 124.989 27.8891 124.731 27.8883L120.86 27.8755C120.705 27.875 120.589 27.836 120.512 27.7584C120.435 27.655 120.422 27.5131 120.474 27.3328L128.959 1.21487C129.038 0.95728 129.206 0.828909 129.464 0.829758L134.303 0.845675C134.561 0.846523 134.728 0.975998 134.805 1.2341L143.159 27.4074C143.185 27.4591 143.198 27.5236 143.198 27.6009C143.197 27.833 143.054 27.9485 142.771 27.9476L138.899 27.9349ZM127.739 19.4665C127.713 19.6211 127.764 19.6987 127.893 19.6991L135.752 19.7249C135.906 19.7255 135.958 19.6483 135.907 19.4934L131.962 6.52353C131.936 6.42031 131.898 6.36861 131.846 6.36844C131.794 6.36827 131.756 6.41971 131.729 6.52277L127.739 19.4665Z" fill="#222222"/>
<path d="M147.665 27.9637C147.536 27.9633 147.42 27.9242 147.317 27.8465C147.24 27.7431 147.202 27.627 147.202 27.4981L147.287 1.35251C147.287 1.22359 147.326 1.12058 147.404 1.04348C147.507 0.940678 147.624 0.889491 147.753 0.889915L151.314 0.90163C151.443 0.902054 151.546 0.953963 151.623 1.05736C151.726 1.13505 151.778 1.23836 151.777 1.36728L151.704 23.9159C151.704 24.0448 151.768 24.1095 151.897 24.1099L164.866 24.1526C164.995 24.153 165.098 24.2049 165.175 24.3083C165.278 24.386 165.329 24.4893 165.329 24.6182L165.319 27.5577C165.319 27.6866 165.267 27.8024 165.163 27.9052C165.086 27.9823 164.982 28.0207 164.853 28.0202L147.665 27.9637Z" fill="#222222"/>
<path d="M184.498 28.3943C182.614 28.3881 180.963 28.0346 179.546 27.3337C178.129 26.6071 177.035 25.5979 176.265 24.3061C175.495 23.0143 175.113 21.5175 175.118 19.8158L175.127 17.2244C175.127 17.0955 175.166 16.9925 175.244 16.9154C175.347 16.8126 175.464 16.7614 175.593 16.7618L179.154 16.7735C179.283 16.774 179.386 16.8259 179.463 16.9293C179.566 17.0069 179.618 17.1103 179.617 17.2392L179.609 19.8305C179.604 21.2229 180.04 22.3589 180.914 23.2384C181.815 24.0923 183.013 24.5217 184.51 24.5266C185.955 24.5314 187.144 24.1098 188.076 23.262C189.008 22.3884 189.476 21.2554 189.48 19.863L189.54 1.49149C189.54 1.36257 189.579 1.25956 189.657 1.18246C189.76 1.07966 189.877 1.02847 190.006 1.0289L193.529 1.04049C193.658 1.04091 193.761 1.09282 193.838 1.19621C193.941 1.27391 193.992 1.37721 193.992 1.50614L193.932 19.8776C193.927 21.5794 193.522 23.0736 192.718 24.3602C191.939 25.6469 190.826 26.6488 189.379 27.366C187.957 28.0576 186.33 28.4003 184.498 28.3943Z" fill="#222222"/>
<path d="M209.043 28.475C207.133 28.4687 205.444 28.0893 203.975 27.3367C202.507 26.5841 201.362 25.5232 200.54 24.1539C199.745 22.7589 199.35 21.1589 199.356 19.354L199.413 1.52397C199.414 1.39505 199.453 1.29204 199.53 1.21494C199.634 1.11214 199.75 1.06095 199.879 1.06138L203.441 1.07309C203.57 1.07351 203.673 1.12542 203.75 1.22882C203.853 1.30651 203.904 1.40982 203.904 1.53874L203.846 19.4461C203.841 20.9674 204.315 22.2066 205.266 23.1638C206.218 24.121 207.481 24.6022 209.056 24.6073C210.63 24.6125 211.896 24.1397 212.854 23.1888C213.812 22.2379 214.293 21.0018 214.298 19.4805L214.356 1.57312C214.356 1.4442 214.395 1.34119 214.473 1.26409C214.577 1.16129 214.693 1.1101 214.822 1.11053L218.384 1.12224C218.513 1.12267 218.616 1.17457 218.693 1.27797C218.796 1.35566 218.847 1.45897 218.847 1.58789L218.789 19.4179C218.783 21.2228 218.378 22.8202 217.573 24.2099C216.769 25.5739 215.63 26.6273 214.157 27.3702C212.683 28.1131 210.979 28.4814 209.043 28.475Z" fill="#222222"/>
<path d="M232.918 28.5535C230.905 28.5469 229.151 28.2188 227.656 27.5693C226.162 26.9198 225.003 26.0135 224.181 24.8505C223.385 23.6875 222.989 22.3196 222.994 20.7468L222.997 19.7799C222.998 19.6509 223.037 19.5479 223.115 19.4708C223.218 19.368 223.334 19.3168 223.463 19.3173L226.909 19.3286C227.038 19.329 227.141 19.3809 227.218 19.4843C227.321 19.562 227.372 19.6653 227.372 19.7942L227.37 20.5291C227.366 21.7152 227.892 22.7096 228.947 23.5124C230.003 24.2895 231.447 24.681 233.279 24.687C234.853 24.6922 236.042 24.3609 236.844 23.6931C237.646 23.0254 238.049 22.1629 238.052 21.1057C238.054 20.3838 237.837 19.7771 237.4 19.2857C236.963 18.7686 236.332 18.3024 235.508 17.8871C234.709 17.472 233.498 16.9523 231.874 16.3281C230.043 15.6517 228.562 15.0151 227.428 14.4183C226.294 13.8215 225.342 13.019 224.571 12.0109C223.826 10.9771 223.456 9.69949 223.461 8.1782C223.468 5.90916 224.3 4.11985 225.956 2.81027C227.612 1.50069 229.82 0.850443 232.582 0.859527C234.517 0.865893 236.22 1.20669 237.688 1.88193C239.183 2.55725 240.341 3.50221 241.163 4.7168C241.985 5.90561 242.394 7.28644 242.389 8.8593L242.387 9.51681C242.386 9.64573 242.334 9.76159 242.231 9.86439C242.153 9.94149 242.05 9.97982 241.921 9.9794L238.437 9.96794C238.307 9.96752 238.191 9.92846 238.089 9.85076C238.011 9.74737 237.973 9.63121 237.973 9.50229L237.975 9.07684C237.979 7.86497 237.479 6.84482 236.475 6.01641C235.497 5.16229 234.131 4.73235 232.376 4.72657C230.956 4.7219 229.846 5.01478 229.044 5.60519C228.267 6.19569 227.878 7.03241 227.874 8.11537C227.872 8.8889 228.076 9.5213 228.487 10.0126C228.899 10.5038 229.517 10.9571 230.341 11.3724C231.166 11.7619 232.442 12.2689 234.169 12.8934C235.999 13.5956 237.455 14.2321 238.537 14.8029C239.645 15.3738 240.584 16.1763 241.355 17.2102C242.152 18.2184 242.548 19.4832 242.543 21.0045C242.536 23.3251 241.665 25.1658 239.932 26.5267C238.224 27.8877 235.886 28.5633 232.918 28.5535Z" fill="#222222"/>
<path d="M264.445 1.27375C264.574 1.27418 264.677 1.32608 264.754 1.42948C264.857 1.50717 264.909 1.61048 264.908 1.7394L264.899 4.71752C264.898 4.84644 264.846 4.9623 264.743 5.0651C264.665 5.1422 264.562 5.18054 264.433 5.18011L257.31 5.15668C257.181 5.15626 257.116 5.22051 257.116 5.34943L257.043 27.8594C257.042 27.9883 256.99 28.1041 256.887 28.2069C256.809 28.284 256.706 28.3224 256.577 28.322L253.015 28.3102C252.886 28.3098 252.77 28.2708 252.667 28.1931C252.59 28.0897 252.552 27.9735 252.552 27.8446L252.625 5.33466C252.625 5.20574 252.561 5.14106 252.432 5.14064L245.58 5.1181C245.451 5.11768 245.335 5.07862 245.232 5.00092C245.155 4.89753 245.117 4.78138 245.117 4.65245L245.127 1.67433C245.127 1.54541 245.166 1.4424 245.244 1.3653C245.347 1.2625 245.464 1.21132 245.593 1.21174L264.445 1.27375Z" fill="#222222"/>
<path d="M269.433 28.3642C269.304 28.3638 269.188 28.3248 269.085 28.2471C269.008 28.1437 268.97 28.0275 268.97 27.8986L269.054 1.75304C269.055 1.62412 269.094 1.52111 269.171 1.44401C269.275 1.34121 269.391 1.29002 269.52 1.29045L273.082 1.30216C273.211 1.30258 273.314 1.35449 273.391 1.45789C273.494 1.53558 273.545 1.63889 273.545 1.76781L273.46 27.9134C273.46 28.0423 273.408 28.1581 273.305 28.2609C273.227 28.338 273.123 28.3764 272.994 28.376L269.433 28.3642Z" fill="#222222"/>
<path d="M288.158 28.7352C286.222 28.7289 284.52 28.3494 283.051 27.5968C281.583 26.8184 280.451 25.7446 279.655 24.3754C278.859 23.0062 278.464 21.4191 278.47 19.6142L278.501 10.061C278.507 8.25613 278.912 6.67169 279.717 5.30774C280.521 3.94379 281.66 2.89036 283.133 2.14745C284.607 1.40453 286.311 1.03626 288.247 1.04263C290.157 1.04891 291.846 1.41545 293.315 2.14226C294.783 2.86906 295.916 3.89129 296.711 5.20893C297.507 6.52658 297.902 8.04918 297.897 9.77675C297.896 9.90567 297.844 10.0215 297.741 10.1243C297.663 10.2014 297.56 10.2398 297.431 10.2393L293.869 10.421C293.559 10.42 293.405 10.2777 293.405 9.99404C293.41 8.47275 292.937 7.24641 291.985 6.31503C291.059 5.38373 289.809 4.91549 288.234 4.91031C286.66 4.90513 285.394 5.36509 284.436 6.2902C283.478 7.2153 282.997 8.4385 282.992 9.95979L282.96 19.8224C282.955 21.3179 283.429 22.5313 284.381 23.4627C285.333 24.3941 286.596 24.8624 288.17 24.8676C289.744 24.8727 290.997 24.4256 291.929 23.5262C292.887 22.6011 293.369 21.3779 293.374 19.8566C293.375 19.573 293.53 19.4317 293.84 19.4327L297.4 19.5991C297.53 19.5996 297.633 19.6386 297.71 19.7162C297.813 19.7939 297.864 19.8843 297.864 19.9874C297.858 21.7408 297.453 23.2865 296.649 24.6247C295.844 25.9371 294.706 26.9518 293.232 27.669C291.759 28.3861 290.067 28.7415 288.158 28.7352Z" fill="#222222"/>
<path d="M321.078 4.86363C321.077 4.99255 321.025 5.10842 320.922 5.21121C320.844 5.28831 320.741 5.32665 320.612 5.32623L307.411 5.28281C307.282 5.28238 307.217 5.34663 307.217 5.47555L307.194 12.7081C307.193 12.837 307.257 12.9017 307.387 12.9021L316.252 12.9313C316.381 12.9317 316.484 12.9836 316.561 13.087C316.664 13.1647 316.715 13.268 316.715 13.397L316.705 16.3364C316.705 16.4653 316.653 16.5812 316.549 16.684C316.471 16.7611 316.368 16.7994 316.239 16.799L307.374 16.7698C307.245 16.7694 307.18 16.8337 307.18 16.9626L307.156 24.4272C307.155 24.5561 307.22 24.6208 307.349 24.6212L320.549 24.6646C320.678 24.6651 320.781 24.717 320.859 24.8204C320.962 24.8981 321.013 25.0014 321.012 25.1303L321.003 28.0697C321.003 28.1987 320.95 28.3145 320.847 28.4173C320.769 28.4944 320.666 28.5328 320.537 28.5323L303.117 28.475C302.988 28.4746 302.872 28.4356 302.769 28.3579C302.692 28.2545 302.653 28.1383 302.654 28.0094L302.738 1.86384C302.738 1.73491 302.777 1.6319 302.855 1.5548C302.959 1.452 303.075 1.40082 303.204 1.40124L320.624 1.45854C320.753 1.45897 320.856 1.51087 320.933 1.61427C321.036 1.69196 321.088 1.79527 321.087 1.92419L321.078 4.86363Z" fill="#222222"/>
<path d="M354.953 28.0654C355.03 28.1688 355.069 28.272 355.068 28.3752C355.068 28.5557 354.938 28.6455 354.68 28.6446L350.693 28.6315C350.461 28.6308 350.267 28.5399 350.113 28.3589L348.377 26.4193C348.3 26.3417 348.21 26.3414 348.106 26.4184C345.727 28.0866 343.117 28.916 340.278 28.9067C337.904 28.8989 335.945 28.3381 334.4 27.2242C332.881 26.0847 332.125 24.432 332.132 22.2661C332.137 20.5127 332.62 19.0317 333.578 17.823C334.563 16.6143 335.883 15.497 337.538 14.4711C337.693 14.3684 337.706 14.2782 337.577 14.2004C336.215 12.5457 335.316 11.2664 334.88 10.3625C334.444 9.45862 334.228 8.51676 334.231 7.53695C334.235 6.35086 334.548 5.28182 335.17 4.32983C335.793 3.35205 336.66 2.59425 337.772 2.05642C338.909 1.4929 340.2 1.21352 341.645 1.21827C343.142 1.22319 344.47 1.51119 345.63 2.08227C346.79 2.62757 347.69 3.40408 348.332 4.4118C349 5.4196 349.332 6.58101 349.328 7.89603C349.322 9.46888 348.853 10.8468 347.921 12.0299C346.988 13.2129 345.732 14.2917 344.155 15.2664C344.026 15.3433 344.013 15.4335 344.115 15.537C345.298 16.9332 346.738 18.5753 348.435 20.4632C348.512 20.5666 348.603 20.5669 348.706 20.4641C349.328 19.7957 350.131 18.767 351.116 17.3778C351.272 17.0947 351.479 17.0438 351.736 17.2252L354.364 18.7422C354.673 18.9237 354.724 19.1302 354.517 19.3616C353.427 21.0082 352.352 22.4228 351.29 23.6054L351.251 23.6827C351.251 23.7858 351.302 23.8891 351.405 23.9926C352.33 25.0786 353.23 26.113 354.105 27.0957C354.284 27.3283 354.439 27.5222 354.567 27.6773C354.722 27.8326 354.85 27.9619 354.953 28.0654ZM341.748 5.31839C340.845 5.31542 340.109 5.55796 339.539 6.046C338.996 6.53412 338.723 7.17784 338.72 7.97717C338.719 8.4155 338.872 8.90592 339.18 9.44841C339.488 9.99091 340.143 10.8697 341.146 12.0849C341.223 12.1883 341.313 12.2015 341.417 12.1245C342.529 11.432 343.37 10.7643 343.939 10.1216C344.535 9.45314 344.834 8.73215 344.837 7.95861C344.839 7.15929 344.557 6.52663 343.991 6.06064C343.425 5.56887 342.677 5.32145 341.748 5.31839ZM340.329 25.1165C341.93 25.1217 343.622 24.5472 345.406 23.3927C345.51 23.2899 345.51 23.1997 345.407 23.122C345.279 22.9926 345.15 22.8504 345.021 22.6953C344.893 22.5401 344.764 22.385 344.636 22.2299C344.302 21.842 343.749 21.2084 342.977 20.3292L342.09 19.3207C341.679 18.881 341.177 18.3121 340.586 17.6139C340.535 17.5364 340.444 17.5232 340.315 17.5744C339.151 18.3183 338.259 19.0502 337.637 19.7702C337.015 20.4901 336.703 21.3013 336.7 22.2038C336.697 23.0804 337.017 23.7906 337.661 24.3342C338.33 24.8521 339.22 25.1128 340.329 25.1165Z" fill="#222222"/>
<path d="M11.7901 46.5192C13.416 46.5246 14.8472 46.8645 16.0838 47.5389C17.3204 48.2134 18.2723 49.1706 18.9393 50.4105C19.6322 51.6246 19.976 53.031 19.9709 54.6297C19.9658 56.2025 19.6129 57.5937 18.9122 58.8033C18.2114 60.0129 17.2148 60.9508 15.9222 61.6169C14.6556 62.2574 13.1835 62.5749 11.506 62.5693L5.31214 62.549C5.1831 62.5485 5.11837 62.6128 5.11795 62.7417L5.08436 73.1458C5.08394 73.2747 5.03195 73.3906 4.92839 73.4934C4.85071 73.5705 4.74736 73.6088 4.61832 73.6084L1.05685 73.5967C0.927809 73.5962 0.811799 73.5572 0.708818 73.4795C0.631728 73.3761 0.593391 73.2599 0.593807 73.131L0.678357 46.9468C0.678773 46.8179 0.717818 46.7149 0.795491 46.6378C0.899055 46.535 1.01536 46.4838 1.1444 46.4842L11.7901 46.5192ZM11.0919 58.9323C12.4081 58.9366 13.4675 58.5534 14.27 57.7824C15.0725 57.0115 15.4759 55.9944 15.4799 54.7309C15.4841 53.4417 15.0875 52.3961 14.29 51.5942C13.4925 50.7922 12.4357 50.3891 11.1195 50.3847L5.35148 50.3658C5.22244 50.3653 5.15771 50.4296 5.15729 50.5585L5.13094 58.7193C5.13053 58.8482 5.19484 58.9129 5.32387 58.9133L11.0919 58.9323Z" fill="#222222"/>
<path d="M33.0208 74.0886C31.0852 74.0822 29.3703 73.6898 27.8759 72.9113C26.3817 72.1071 25.2239 70.9816 24.4027 69.535C23.6074 68.0884 23.2127 66.424 23.2188 64.5417L23.2473 55.7234C23.2533 53.8669 23.6715 52.231 24.5019 50.8155C25.3324 49.3743 26.4844 48.2693 27.958 47.5006C29.4574 46.7063 31.1749 46.3122 33.1105 46.3186C35.0719 46.3251 36.7868 46.7304 38.2553 47.5345C39.7496 48.313 40.9074 49.4255 41.7286 50.8722C42.5499 52.2931 42.9575 53.9317 42.9515 55.7882L42.923 64.6065C42.9169 66.4888 42.4986 68.1506 41.6681 69.5918C40.8376 71.033 39.6727 72.1508 38.1732 72.9452C36.6997 73.7139 34.9822 74.095 33.0208 74.0886ZM33.0333 70.2209C34.6592 70.2262 35.9641 69.7277 36.9481 68.7254C37.932 67.723 38.4266 66.3967 38.432 64.7465L38.4611 55.7348C38.4665 54.0588 37.9805 52.7164 37.003 51.7075C36.0256 50.6987 34.7239 50.1916 33.098 50.1863C31.4979 50.181 30.2059 50.6796 29.222 51.6819C28.238 52.6843 27.7434 54.0235 27.7379 55.6995L27.7088 64.7112C27.7035 66.3614 28.1896 67.6909 29.167 68.6998C30.1445 69.7086 31.4332 70.2156 33.0333 70.2209Z" fill="#222222"/>
<path d="M48.3555 73.7522C48.2265 73.7518 48.1105 73.7128 48.0075 73.6351C47.9304 73.5317 47.8921 73.4155 47.8925 73.2866L47.9769 47.141C47.9773 47.0121 48.0164 46.9091 48.094 46.832C48.1976 46.7292 48.3139 46.678 48.4429 46.6784L52.0044 46.6902C52.1335 46.6906 52.2365 46.7425 52.3136 46.8459C52.4166 46.9236 52.4679 47.0269 52.4675 47.1558L52.3946 69.7044C52.3942 69.8333 52.4585 69.898 52.5876 69.8984L65.556 69.9411C65.685 69.9415 65.7881 69.9934 65.8652 70.0968C65.9682 70.1745 66.0194 70.2778 66.019 70.4067L66.0095 73.3462C66.0091 73.4751 65.9571 73.591 65.8536 73.6938C65.7759 73.7709 65.6725 73.8092 65.5435 73.8088L48.3555 73.7522Z" fill="#222222"/>
<path d="M70.4711 73.825C70.342 73.8246 70.226 73.7855 70.123 73.7078C70.0459 73.6044 70.0076 73.4883 70.008 73.3593L70.0924 47.2138C70.0929 47.0849 70.1319 46.9819 70.2096 46.9048C70.3131 46.802 70.4294 46.7508 70.5585 46.7512L74.1199 46.7629C74.249 46.7633 74.3521 46.8152 74.4291 46.9186C74.5321 46.9963 74.5834 47.0996 74.583 47.2286L74.4986 73.3741C74.4981 73.503 74.4462 73.6189 74.3426 73.7217C74.2649 73.7988 74.1616 73.8371 74.0325 73.8367L70.4711 73.825Z" fill="#222222"/>
<path d="M89.1956 74.196C87.26 74.1896 85.5579 73.8102 84.0893 73.0576C82.6207 72.2792 81.4887 71.2054 80.693 69.8362C79.8974 68.467 79.5025 66.8799 79.5083 65.075L79.5392 55.5218C79.545 53.7169 79.9501 52.1324 80.7546 50.7685C81.5591 49.4045 82.698 48.3511 84.1715 47.6082C85.6449 46.8653 87.3494 46.497 89.285 46.5034C91.1948 46.5097 92.884 46.8762 94.3527 47.603C95.8215 48.3298 96.9537 49.352 97.7495 50.6697C98.5453 51.9873 98.9404 53.5099 98.9348 55.2375C98.9344 55.3664 98.8824 55.4823 98.7789 55.5851C98.7012 55.6622 98.5978 55.7005 98.4688 55.7001L94.9067 55.8818C94.597 55.8807 94.4426 55.7384 94.4435 55.4548C94.4484 53.9335 93.975 52.7072 93.0231 51.7758C92.097 50.8445 90.8468 50.3762 89.2725 50.3711C87.6983 50.3659 86.4322 50.8258 85.4743 51.7509C84.5164 52.676 84.035 53.8992 84.0301 55.4205L83.9983 65.2831C83.9934 66.7786 84.467 67.9921 85.4189 68.9235C86.3707 69.8549 87.6338 70.3231 89.2081 70.3283C90.7824 70.3335 92.0355 69.8864 92.9675 68.987C93.9254 68.0619 94.4068 66.8387 94.4117 65.3174C94.4126 65.0337 94.5679 64.8924 94.8776 64.8935L98.4386 65.0599C98.5676 65.0603 98.6707 65.0993 98.7479 65.1769C98.8509 65.2546 98.9022 65.345 98.9019 65.4482C98.8962 67.2015 98.4912 68.7473 97.6868 70.0855C96.8825 71.3978 95.7437 72.4126 94.2703 73.1297C92.797 73.8469 91.1054 74.2023 89.1956 74.196Z" fill="#222222"/>
<path d="M122.116 50.3244C122.116 50.4533 122.064 50.5692 121.96 50.672C121.882 50.7491 121.779 50.7874 121.65 50.787L108.449 50.7436C108.32 50.7431 108.255 50.8074 108.255 50.9363L108.232 58.1689C108.231 58.2978 108.296 58.3625 108.425 58.3629L117.29 58.3921C117.419 58.3925 117.522 58.4444 117.599 58.5478C117.702 58.6255 117.753 58.7288 117.753 58.8577L117.743 61.7971C117.743 61.9261 117.691 62.0419 117.587 62.1447C117.509 62.2218 117.406 62.2602 117.277 62.2597L108.412 62.2306C108.283 62.2302 108.218 62.2944 108.218 62.4233L108.194 69.888C108.193 70.0169 108.258 70.0816 108.387 70.082L121.587 70.1254C121.716 70.1258 121.82 70.1777 121.897 70.2811C122 70.3588 122.051 70.4621 122.05 70.591L122.041 73.5305C122.041 73.6594 121.989 73.7753 121.885 73.8781C121.807 73.9552 121.704 73.9935 121.575 73.9931L104.155 73.9358C104.026 73.9354 103.91 73.8963 103.807 73.8186C103.73 73.7152 103.691 73.5991 103.692 73.4701L103.776 47.3246C103.777 47.1957 103.816 47.0926 103.893 47.0155C103.997 46.9128 104.113 46.8616 104.242 46.862L121.662 46.9193C121.791 46.9197 121.894 46.9716 121.972 47.075C122.075 47.1527 122.126 47.256 122.125 47.3849L122.116 50.3244Z" fill="#222222"/>
<path d="M151.15 74.0904C150.892 74.0895 150.725 73.96 150.648 73.7019L149.384 69.5593C149.333 69.456 149.269 69.4042 149.191 69.404L138.971 69.3704C138.894 69.3701 138.829 69.4215 138.777 69.5244L137.486 73.6586C137.408 73.9162 137.24 74.0446 136.982 74.0438L133.111 74.031C132.956 74.0305 132.84 73.9915 132.763 73.9139C132.686 73.8105 132.673 73.6686 132.725 73.4883L141.21 47.3704C141.288 47.1128 141.457 46.9844 141.715 46.9852L146.554 47.0012C146.812 47.002 146.979 47.1315 147.056 47.3896L155.41 73.5629C155.436 73.6145 155.449 73.6791 155.448 73.7564C155.448 73.9885 155.305 74.104 155.022 74.1031L151.15 74.0904ZM139.99 65.622C139.964 65.7766 140.015 65.8542 140.144 65.8546L148.002 65.8804C148.157 65.8809 148.209 65.8038 148.158 65.6489L144.213 52.679C144.187 52.5758 144.149 52.5241 144.097 52.5239C144.045 52.5238 144.006 52.5752 143.98 52.6783L139.99 65.622Z" fill="#222222"/>
<path d="M167.829 74.4546C165.893 74.4483 164.191 74.0688 162.722 73.3162C161.254 72.5378 160.122 71.464 159.326 70.0948C158.53 68.7256 158.136 67.1385 158.141 65.3336L158.172 55.7804C158.178 53.9755 158.583 52.3911 159.388 51.0271C160.192 49.6632 161.331 48.6098 162.804 47.8668C164.278 47.1239 165.982 46.7557 167.918 46.762C169.828 46.7683 171.517 47.1348 172.986 47.8617C174.454 48.5885 175.587 49.6107 176.383 50.9283C177.178 52.246 177.573 53.7686 177.568 55.4961C177.567 55.6251 177.515 55.7409 177.412 55.8437C177.334 55.9208 177.231 55.9592 177.102 55.9587L173.54 56.1404C173.23 56.1394 173.076 55.9971 173.077 55.7134C173.081 54.1921 172.608 52.9658 171.656 52.0344C170.73 51.1031 169.48 50.6349 167.906 50.6297C166.331 50.6245 165.065 51.0845 164.107 52.0096C163.149 52.9347 162.668 54.1579 162.663 55.6792L162.631 65.5418C162.626 67.0373 163.1 68.2507 164.052 69.1821C165.004 70.1135 166.267 70.5818 167.841 70.587C169.415 70.5921 170.669 70.145 171.601 69.2456C172.558 68.3205 173.04 67.0973 173.045 65.576C173.046 65.2924 173.201 65.1511 173.511 65.1521L177.072 65.3185C177.201 65.319 177.304 65.358 177.381 65.4356C177.484 65.5133 177.535 65.6037 177.535 65.7068C177.529 67.4602 177.124 69.0059 176.32 70.3441C175.516 71.6565 174.377 72.6712 172.903 73.3884C171.43 74.1055 169.738 74.4609 167.829 74.4546Z" fill="#222222"/>
<path d="M191.381 74.5321C189.445 74.5257 187.743 74.1463 186.274 73.3937C184.806 72.6153 183.674 71.5415 182.878 70.1723C182.083 68.8031 181.688 67.216 181.693 65.4111L181.724 55.8579C181.73 54.053 182.135 52.4686 182.94 51.1046C183.744 49.7407 184.883 48.6872 186.357 47.9443C187.83 47.2014 189.535 46.8331 191.47 46.8395C193.38 46.8458 195.069 47.2123 196.538 47.9391C198.007 48.6659 199.139 49.6882 199.935 51.0058C200.73 52.3234 201.126 53.846 201.12 55.5736C201.12 55.7025 201.068 55.8184 200.964 55.9212C200.886 55.9983 200.783 56.0366 200.654 56.0362L197.092 56.2179C196.782 56.2169 196.628 56.0745 196.629 55.7909C196.634 54.2696 196.16 53.0433 195.208 52.1119C194.282 51.1806 193.032 50.7124 191.458 50.7072C189.883 50.702 188.617 51.162 187.659 52.0871C186.702 53.0122 186.22 54.2354 186.215 55.7567L186.183 65.6192C186.179 67.1147 186.652 68.3282 187.604 69.2596C188.556 70.191 189.819 70.6592 191.393 70.6644C192.967 70.6696 194.221 70.2225 195.153 69.3231C196.11 68.398 196.592 67.1748 196.597 65.6535C196.598 65.3699 196.753 65.2286 197.063 65.2296L200.624 65.396C200.753 65.3964 200.856 65.4354 200.933 65.5131C201.036 65.5907 201.087 65.6812 201.087 65.7843C201.081 67.5377 200.676 69.0834 199.872 70.4216C199.068 71.734 197.929 72.7487 196.455 73.4658C194.982 74.183 193.291 74.5384 191.381 74.5321Z" fill="#222222"/>
<path d="M215.049 74.6873C213.113 74.681 211.398 74.2885 209.904 73.5101C208.41 72.7058 207.252 71.5804 206.431 70.1337C205.635 68.6872 205.241 67.0227 205.247 65.1405L205.275 56.3221C205.281 54.4657 205.699 52.8297 206.53 51.4143C207.36 49.973 208.512 48.8681 209.986 48.0994C211.485 47.305 213.203 46.911 215.138 46.9173C217.1 46.9238 218.815 47.3291 220.283 48.1333C221.778 48.9117 222.935 50.0243 223.756 51.4709C224.578 52.8918 224.985 54.5305 224.979 56.387L224.951 65.2053C224.945 67.0876 224.527 68.7493 223.696 70.1905C222.866 71.6317 221.701 72.7495 220.201 73.544C218.728 74.3126 217.01 74.6938 215.049 74.6873ZM215.061 70.8196C216.687 70.825 217.992 70.3265 218.976 69.3241C219.96 68.3217 220.455 66.9954 220.46 65.3452L220.489 56.3335C220.494 54.6575 220.008 53.3151 219.031 52.3063C218.053 51.2975 216.752 50.7904 215.126 50.785C213.526 50.7798 212.234 51.2783 211.25 52.2807C210.266 53.2831 209.771 54.6222 209.766 56.2982L209.737 65.3099C209.731 66.9602 210.217 68.2897 211.195 69.2985C212.172 70.3073 213.461 70.8144 215.061 70.8196Z" fill="#222222"/>
<path d="M239.402 74.6901C237.492 74.6838 235.803 74.3044 234.335 73.5518C232.866 72.7992 231.721 71.7382 230.9 70.3689C230.104 68.9739 229.709 67.374 229.715 65.5691L229.773 47.739C229.773 47.6101 229.812 47.5071 229.89 47.43C229.993 47.3272 230.11 47.276 230.239 47.2764L233.8 47.2881C233.929 47.2886 234.032 47.3405 234.109 47.4439C234.212 47.5216 234.263 47.6249 234.263 47.7538L234.205 65.6612C234.2 67.1825 234.674 68.4217 235.626 69.3789C236.577 70.336 237.84 70.8172 239.415 70.8224C240.989 70.8276 242.255 70.3547 243.213 69.4038C244.171 68.4529 244.652 67.2168 244.657 65.6956L244.715 47.7882C244.716 47.6593 244.755 47.5562 244.832 47.4791C244.936 47.3763 245.052 47.3252 245.181 47.3256L248.743 47.3373C248.872 47.3377 248.975 47.3896 249.052 47.493C249.155 47.5707 249.206 47.674 249.206 47.8029L249.148 65.633C249.142 67.4379 248.737 69.0352 247.933 70.425C247.128 71.7889 245.989 72.8423 244.516 73.5852C243.042 74.3282 241.338 74.6964 239.402 74.6901Z" fill="#222222"/>
<path d="M270.371 47.8726C270.371 47.7436 270.411 47.6406 270.488 47.5635C270.592 47.4607 270.708 47.4095 270.837 47.41L274.399 47.4217C274.528 47.4221 274.631 47.474 274.708 47.5774C274.811 47.6551 274.862 47.7584 274.862 47.8873L274.777 74.0329C274.777 74.1618 274.725 74.2777 274.621 74.3805C274.544 74.4576 274.44 74.4959 274.311 74.4955L270.866 74.4841C270.608 74.4833 270.427 74.3796 270.325 74.1729L259.235 55.8808C259.183 55.8033 259.132 55.7773 259.08 55.8029C259.029 55.8028 259.003 55.8543 259.002 55.9574L259.022 73.9811C259.021 74.11 258.969 74.2258 258.866 74.3286C258.788 74.4057 258.685 74.4441 258.555 74.4437L254.994 74.4319C254.865 74.4315 254.749 74.3925 254.646 74.3148C254.569 74.2114 254.531 74.0952 254.531 73.9663L254.615 47.8207C254.616 47.6918 254.655 47.5888 254.733 47.5117C254.836 47.4089 254.952 47.3577 255.081 47.3581L258.527 47.3695C258.785 47.3703 258.965 47.4741 259.068 47.6807L270.119 65.9727C270.17 66.0502 270.222 66.0891 270.274 66.0892C270.325 66.0636 270.351 65.9992 270.352 65.8961L270.371 47.8726Z" fill="#222222"/>
<path d="M298.32 47.5004C298.449 47.5008 298.552 47.5527 298.629 47.6561C298.732 47.7338 298.784 47.8371 298.783 47.966L298.774 50.9441C298.773 51.0731 298.721 51.1889 298.618 51.2917C298.54 51.3688 298.437 51.4072 298.308 51.4067L291.185 51.3833C291.056 51.3829 290.991 51.4471 290.99 51.576L290.918 74.086C290.917 74.2149 290.865 74.3308 290.762 74.4336C290.684 74.5107 290.581 74.549 290.452 74.5486L286.89 74.5369C286.761 74.5364 286.645 74.4974 286.542 74.4197C286.465 74.3163 286.427 74.2001 286.427 74.0712L286.5 51.5613C286.5 51.4324 286.436 51.3677 286.307 51.3673L279.455 51.3447C279.326 51.3443 279.21 51.3052 279.107 51.2275C279.03 51.1241 278.992 51.008 278.992 50.8791L279.002 47.901C279.002 47.772 279.041 47.669 279.119 47.5919C279.222 47.4891 279.339 47.4379 279.468 47.4384L298.32 47.5004Z" fill="#222222"/>
<path d="M317.3 74.6369C317.042 74.636 316.875 74.5066 316.798 74.2485L315.534 70.1058C315.483 70.0025 315.419 69.9507 315.341 69.9505L305.121 69.9169C305.044 69.9166 304.979 69.968 304.927 70.0709L303.636 74.2052C303.558 74.4627 303.39 74.5911 303.132 74.5903L299.261 74.5775C299.106 74.577 298.99 74.538 298.913 74.4604C298.836 74.357 298.823 74.2151 298.875 74.0348L307.36 47.9169C307.439 47.6593 307.607 47.5309 307.865 47.5318L312.704 47.5477C312.962 47.5485 313.129 47.678 313.206 47.9361L321.56 74.1094C321.586 74.1611 321.599 74.2256 321.599 74.3029C321.598 74.535 321.455 74.6505 321.172 74.6496L317.3 74.6369ZM306.14 66.1685C306.114 66.3232 306.165 66.4007 306.294 66.4011L314.153 66.427C314.307 66.4275 314.359 66.3503 314.308 66.1954L310.363 53.2255C310.337 53.1223 310.299 53.0706 310.247 53.0704C310.195 53.0703 310.157 53.1217 310.13 53.2248L306.14 66.1685Z" fill="#222222"/>
<path d="M340.783 60.5969C340.628 60.6738 340.628 60.7511 340.783 60.829C343.411 62.0753 344.72 64.2069 344.711 67.2237C344.703 69.6732 343.871 71.5399 342.215 72.8236C340.585 74.0817 338.454 74.7065 335.822 74.6978L326.066 74.6657C325.937 74.6653 325.821 74.6262 325.718 74.5485C325.641 74.4451 325.603 74.329 325.603 74.2001L325.688 48.0545C325.688 47.9256 325.727 47.8226 325.805 47.7455C325.908 47.6427 326.025 47.5915 326.154 47.5919L335.599 47.623C338.412 47.6322 340.578 48.2453 342.097 49.4622C343.616 50.6791 344.371 52.5123 344.363 54.9618C344.354 57.6692 343.161 59.5476 340.783 60.5969ZM330.361 51.4735C330.232 51.4731 330.167 51.5373 330.167 51.6662L330.143 58.8215C330.143 58.9504 330.207 59.015 330.336 59.0155L335.562 59.0327C336.93 59.0372 338.002 58.7184 338.779 58.0763C339.581 57.4085 339.984 56.4945 339.988 55.3342C339.991 54.1481 339.594 53.2185 338.796 52.5455C338.024 51.8468 336.955 51.4952 335.587 51.4907L330.361 51.4735ZM335.834 70.7914C337.176 70.7959 338.235 70.4384 339.012 69.7189C339.814 68.9996 340.218 68.0211 340.222 66.7834C340.226 65.52 339.829 64.5389 339.031 63.8401C338.233 63.1155 337.15 62.7509 335.783 62.7464L330.324 62.7285C330.195 62.728 330.131 62.7923 330.13 62.9212L330.105 70.5792C330.105 70.7081 330.169 70.7728 330.298 70.7732L335.834 70.7914Z" fill="#222222"/>
<path d="M350.148 74.7449C350.018 74.7445 349.903 74.7054 349.8 74.6278C349.722 74.5244 349.684 74.4082 349.685 74.2793L349.769 48.1337C349.769 48.0048 349.808 47.9018 349.886 47.8247C349.99 47.7219 350.106 47.6707 350.235 47.6711L353.796 47.6828C353.925 47.6833 354.029 47.7352 354.106 47.8386C354.209 47.9163 354.26 48.0196 354.259 48.1485L354.175 74.294C354.175 74.423 354.123 74.5388 354.019 74.6416C353.941 74.7187 353.838 74.7571 353.709 74.7566L350.148 74.7449Z" fill="#222222"/>
<path d="M360.279 74.7783C360.15 74.7778 360.034 74.7388 359.931 74.6611C359.854 74.5577 359.816 74.4415 359.816 74.3126L359.9 48.1671C359.901 48.0381 359.94 47.9351 360.018 47.858C360.121 47.7552 360.237 47.704 360.367 47.7045L363.928 47.7162C364.057 47.7166 364.16 47.7685 364.237 47.8719C364.34 47.9496 364.391 48.0529 364.391 48.1818L364.318 70.7304C364.318 70.8593 364.382 70.924 364.511 70.9244L377.48 70.9671C377.609 70.9675 377.712 71.0194 377.789 71.1228C377.892 71.2005 377.943 71.3038 377.943 71.4328L377.933 74.3722C377.933 74.5011 377.881 74.617 377.777 74.7198C377.699 74.7969 377.596 74.8352 377.467 74.8348L360.279 74.7783Z" fill="#222222"/>
<path d="M396.498 47.8233C396.627 47.8237 396.73 47.8756 396.807 47.979C396.91 48.0567 396.962 48.16 396.961 48.289L396.952 51.2671C396.951 51.396 396.899 51.5119 396.796 51.6146C396.718 51.6917 396.615 51.7301 396.486 51.7297L389.363 51.7062C389.234 51.7058 389.169 51.7701 389.168 51.899L389.096 74.4089C389.095 74.5378 389.043 74.6537 388.94 74.7565C388.862 74.8336 388.759 74.8719 388.63 74.8715L385.068 74.8598C384.939 74.8594 384.823 74.8203 384.72 74.7426C384.643 74.6392 384.605 74.5231 384.605 74.3941L384.678 51.8842C384.678 51.7553 384.614 51.6906 384.485 51.6902L377.633 51.6677C377.504 51.6672 377.388 51.6282 377.285 51.5505C377.208 51.4471 377.169 51.3309 377.17 51.202L377.179 48.2239C377.18 48.095 377.219 47.992 377.297 47.9149C377.4 47.8121 377.517 47.7609 377.646 47.7613L396.498 47.8233Z" fill="#222222"/>
<path d="M407.99 74.8965C407.86 74.8961 407.744 74.857 407.641 74.7793C407.564 74.6759 407.526 74.5598 407.526 74.4309L407.56 64.0655C407.56 63.9623 407.548 63.8849 407.522 63.8333L399.597 48.375C399.546 48.2717 399.52 48.1942 399.521 48.1427C399.521 47.9364 399.663 47.8337 399.947 47.8346L403.78 47.8473C404.038 47.8481 404.218 47.9647 404.321 48.1971L409.705 59.0058C409.783 59.1092 409.86 59.1094 409.938 59.0066L415.431 48.2337C415.561 48.002 415.742 47.8866 415.974 47.8874L419.845 47.9001C420.026 47.9007 420.142 47.9526 420.193 48.056C420.27 48.1593 420.27 48.2883 420.192 48.4427L412.129 63.8484C412.077 63.9514 412.051 64.0287 412.05 64.0802L412.017 74.4456C412.017 74.5746 411.965 74.6904 411.861 74.7932C411.783 74.8703 411.68 74.9086 411.551 74.9082L407.99 74.8965Z" fill="#222222"/>
<path d="M11.6412 92.6339C13.2671 92.6393 14.6983 92.9792 15.9349 93.6536C17.1715 94.3281 18.1234 95.2853 18.7904 96.5252C19.4833 97.7393 19.8271 99.1457 19.822 100.744C19.8169 102.317 19.464 103.708 18.7633 104.918C18.0625 106.128 17.0659 107.065 15.7733 107.732C14.5067 108.372 13.0346 108.69 11.3571 108.684L5.16323 108.664C5.03419 108.663 4.96946 108.727 4.96905 108.856L4.93545 119.26C4.93504 119.389 4.88304 119.505 4.77948 119.608C4.70181 119.685 4.59845 119.724 4.46941 119.723L0.907941 119.711C0.778903 119.711 0.662893 119.672 0.559911 119.594C0.482821 119.491 0.444484 119.375 0.4449 119.246L0.529451 93.0615C0.529867 92.9326 0.568912 92.8296 0.646584 92.7525C0.750149 92.6497 0.86645 92.5985 0.995489 92.5989L11.6412 92.6339ZM10.943 105.047C12.2592 105.051 13.3186 104.668 14.1211 103.897C14.9236 103.126 15.327 102.109 15.331 100.846C15.3352 99.5564 14.9385 98.5108 14.1411 97.7089C13.3436 96.9069 12.2868 96.5038 10.9706 96.4994L5.20257 96.4805C5.07353 96.48 5.0088 96.5443 5.00839 96.6732L4.98204 104.834C4.98162 104.963 5.04593 105.028 5.17497 105.028L10.943 105.047Z" fill="#222222"/>
<path d="M38.9122 119.836C38.6541 119.836 38.4738 119.719 38.3713 119.487L33.2974 108.331C33.2461 108.227 33.1688 108.176 33.0656 108.175L28.4202 108.16C28.2912 108.16 28.2264 108.224 28.226 108.353L28.1906 119.337C28.1901 119.466 28.1382 119.582 28.0346 119.685C27.9569 119.762 27.8536 119.8 27.7245 119.8L24.1631 119.788C24.034 119.787 23.918 119.748 23.815 119.671C23.7379 119.567 23.6996 119.451 23.7 119.322L23.7844 93.1767C23.7849 93.0477 23.8239 92.9447 23.9016 92.8676C24.0051 92.7648 24.1214 92.7136 24.2505 92.7141L34.8962 92.7491C36.4705 92.7543 37.863 93.094 39.0738 93.7684C40.2847 94.417 41.2237 95.3484 41.8907 96.5625C42.5579 97.7508 42.889 99.1184 42.884 100.666C42.8783 102.445 42.4088 103.964 41.4757 105.225C40.5684 106.459 39.301 107.319 37.6735 107.804C37.6219 107.804 37.5831 107.829 37.5572 107.881C37.5312 107.932 37.531 107.984 37.5567 108.035L42.9787 119.308C43.0299 119.412 43.0555 119.489 43.0553 119.541C43.0547 119.747 42.9124 119.85 42.6285 119.849L38.9122 119.836ZM28.4576 96.5956C28.3285 96.5952 28.2638 96.6594 28.2634 96.7884L28.2385 104.485C28.2381 104.614 28.3024 104.679 28.4315 104.679L34.2382 104.698C35.477 104.702 36.4717 104.345 37.2225 103.625C37.9991 102.88 38.3894 101.901 38.3933 100.689C38.3972 99.4776 38.0133 98.4965 37.2415 97.7462C36.4955 96.9959 35.5031 96.6188 34.2643 96.6147L28.4576 96.5956Z" fill="#222222"/>
<path d="M56.613 120.281C54.6775 120.275 52.9625 119.883 51.4681 119.104C49.9739 118.3 48.8161 117.174 47.995 115.728C47.1996 114.281 46.8049 112.617 46.811 110.735L46.8395 101.916C46.8455 100.06 47.2637 98.4238 48.0941 97.0083C48.9246 95.5671 50.0767 94.4621 51.5502 93.6934C53.0496 92.899 54.7671 92.505 56.7027 92.5114C58.6641 92.5178 60.379 92.9232 61.8475 93.7273C63.3418 94.5058 64.4996 95.6183 65.3208 97.065C66.1421 98.4858 66.5497 100.125 66.5437 101.981L66.5152 110.799C66.5092 112.682 66.0909 114.343 65.2604 115.785C64.4298 117.226 63.2649 118.344 61.7654 119.138C60.2919 119.907 58.5744 120.288 56.613 120.281ZM56.6255 116.414C58.2514 116.419 59.5563 115.921 60.5403 114.918C61.5242 113.916 62.0189 112.589 62.0242 110.939L62.0533 101.928C62.0587 100.252 61.5727 98.9092 60.5952 97.9003C59.6178 96.8915 58.3161 96.3844 56.6902 96.3791C55.0901 96.3738 53.7981 96.8724 52.8142 97.8747C51.8303 98.8771 51.3356 100.216 51.3302 101.892L51.3011 110.904C51.2957 112.554 51.7818 113.884 52.7592 114.893C53.7367 115.901 55.0255 116.408 56.6255 116.414Z" fill="#222222"/>
<path d="M79.4063 120.279C77.5223 120.273 75.8717 119.919 74.4546 119.218C73.0375 118.492 71.9439 117.483 71.1738 116.191C70.4038 114.899 70.0215 113.402 70.027 111.7L70.0353 109.109C70.0357 108.98 70.0748 108.877 70.1525 108.8C70.256 108.697 70.3723 108.646 70.5014 108.647L74.0628 108.658C74.1919 108.659 74.2949 108.711 74.372 108.814C74.475 108.892 74.5263 108.995 74.5259 109.124L74.5175 111.715C74.513 113.108 74.9481 114.244 75.8227 115.123C76.7232 115.977 77.9219 116.406 79.4188 116.411C80.864 116.416 82.0525 115.995 82.9844 115.147C83.9163 114.273 84.3845 113.14 84.389 111.748L84.4483 93.3762C84.4487 93.2473 84.4878 93.1443 84.5654 93.0672C84.669 92.9644 84.7853 92.9132 84.9143 92.9136L88.4371 92.9252C88.5661 92.9256 88.6692 92.9775 88.7463 93.0809C88.8493 93.1586 88.9006 93.2619 88.9001 93.3908L88.8408 111.762C88.8353 113.464 88.4305 114.958 87.6263 116.245C86.8479 117.532 85.7349 118.534 84.2873 119.251C82.8657 119.942 81.2386 120.285 79.4063 120.279Z" fill="#222222"/>
<path d="M112.894 96.4092C112.894 96.5382 112.842 96.654 112.738 96.7568C112.66 96.8339 112.557 96.8723 112.428 96.8718L99.2273 96.8284C99.0982 96.828 99.0335 96.8922 99.0331 97.0212L99.0097 104.254C99.0093 104.383 99.0736 104.447 99.2027 104.448L108.068 104.477C108.197 104.477 108.3 104.529 108.377 104.633C108.48 104.71 108.531 104.814 108.531 104.943L108.521 107.882C108.521 108.011 108.469 108.127 108.365 108.23C108.288 108.307 108.184 108.345 108.055 108.345L99.1902 108.315C99.0611 108.315 98.9964 108.379 98.996 108.508L98.9719 115.973C98.9715 116.102 99.0358 116.166 99.1648 116.167L112.366 116.21C112.495 116.211 112.598 116.263 112.675 116.366C112.778 116.444 112.829 116.547 112.829 116.676L112.819 119.615C112.819 119.744 112.767 119.86 112.663 119.963C112.585 120.04 112.482 120.078 112.353 120.078L94.9328 120.021C94.8037 120.02 94.6877 119.981 94.5847 119.903C94.5077 119.8 94.4693 119.684 94.4697 119.555L94.5542 93.4094C94.5546 93.2805 94.5936 93.1775 94.6713 93.1004C94.7749 92.9976 94.8912 92.9464 95.0202 92.9468L112.44 93.0041C112.569 93.0046 112.673 93.0565 112.75 93.1599C112.853 93.2376 112.904 93.3409 112.903 93.4698L112.894 96.4092Z" fill="#222222"/>
<path d="M126.435 120.434C124.5 120.427 122.798 120.048 121.329 119.295C119.86 118.517 118.728 117.443 117.933 116.074C117.137 114.705 116.742 113.118 116.748 111.313L116.779 101.759C116.785 99.9546 117.19 98.3701 117.994 97.0062C118.799 95.6422 119.938 94.5888 121.411 93.8459C122.885 93.103 124.589 92.7347 126.525 92.7411C128.434 92.7473 130.124 93.1139 131.592 93.8407C133.061 94.5675 134.193 95.5897 134.989 96.9074C135.785 98.225 136.18 99.7476 136.174 101.475C136.174 101.604 136.122 101.72 136.018 101.823C135.941 101.9 135.837 101.938 135.708 101.938L132.146 102.119C131.837 102.118 131.682 101.976 131.683 101.692C131.688 100.171 131.215 98.9448 130.263 98.0135C129.337 97.0822 128.086 96.6139 126.512 96.6087C124.938 96.6036 123.672 97.0635 122.714 97.9886C121.756 98.9137 121.275 100.137 121.27 101.658L121.238 111.521C121.233 113.016 121.707 114.23 122.658 115.161C123.61 116.093 124.873 116.561 126.448 116.566C128.022 116.571 129.275 116.124 130.207 115.225C131.165 114.3 131.646 113.076 131.651 111.555C131.652 111.271 131.807 111.13 132.117 111.131L135.678 111.298C135.807 111.298 135.91 111.337 135.987 111.415C136.09 111.492 136.142 111.583 136.141 111.686C136.136 113.439 135.731 114.985 134.926 116.323C134.122 117.636 132.983 118.65 131.51 119.367C130.037 120.085 128.345 120.44 126.435 120.434Z" fill="#222222"/>
<path d="M158.522 93.1557C158.651 93.1561 158.754 93.2081 158.831 93.3115C158.934 93.3891 158.986 93.4925 158.985 93.6214L158.976 96.5995C158.975 96.7284 158.923 96.8443 158.82 96.9471C158.742 97.0242 158.639 97.0625 158.509 97.0621L151.387 97.0387C151.258 97.0382 151.193 97.1025 151.192 97.2314L151.12 119.741C151.119 119.87 151.067 119.986 150.964 120.089C150.886 120.166 150.783 120.204 150.654 120.204L147.092 120.192C146.963 120.192 146.847 120.153 146.744 120.075C146.667 119.972 146.629 119.855 146.629 119.727L146.702 97.2166C146.702 97.0877 146.638 97.023 146.509 97.0226L139.657 97.0001C139.528 96.9996 139.412 96.9606 139.309 96.8829C139.232 96.7795 139.193 96.6633 139.194 96.5344L139.203 93.5563C139.204 93.4274 139.243 93.3244 139.321 93.2473C139.424 93.1445 139.54 93.0933 139.67 93.0937L158.522 93.1557Z" fill="#222222"/>
</svg>
