<svg width="261" height="75" viewBox="0 0 261 75" fill="none" xmlns="http://www.w3.org/2000/svg">
<path d="M6.25822 17.8473C5.01517 17.8473 3.92352 17.6082 2.98326 17.1301C2.043 16.6361 1.31789 15.9508 0.807923 15.0743C0.297953 14.1978 0.0429688 13.1859 0.0429688 12.0384V6.51641C0.0429688 5.36898 0.297953 4.35701 0.807923 3.4805C1.31789 2.60399 2.043 1.92669 2.98326 1.44859C3.92352 0.970493 5.01517 0.731445 6.25822 0.731445C7.48533 0.731445 8.56105 0.962525 9.48537 1.42468C10.4256 1.87091 11.1507 2.51634 11.6607 3.36097C12.1866 4.18967 12.4496 5.15384 12.4496 6.25346C12.4496 6.39689 12.3539 6.48454 12.1627 6.51641L9.36585 6.68374H9.31804C9.15867 6.68374 9.07899 6.59609 9.07899 6.42079C9.07899 5.57615 8.81603 4.89885 8.29013 4.38888C7.78016 3.87891 7.10286 3.62393 6.25822 3.62393C5.39765 3.62393 4.70441 3.87891 4.1785 4.38888C3.66853 4.89885 3.41355 5.57615 3.41355 6.42079V12.1819C3.41355 13.0106 3.66853 13.6799 4.1785 14.1899C4.70441 14.6998 5.39765 14.9548 6.25822 14.9548C7.10286 14.9548 7.78016 14.6998 8.29013 14.1899C8.81603 13.6799 9.07899 13.0106 9.07899 12.1819C9.07899 12.0065 9.17461 11.9189 9.36585 11.9189L12.1627 12.0384C12.2424 12.0384 12.3061 12.0623 12.3539 12.1101C12.4177 12.1579 12.4496 12.2137 12.4496 12.2775C12.4496 13.3771 12.1866 14.3492 11.6607 15.1939C11.1507 16.0385 10.4256 16.6919 9.48537 17.1541C8.56105 17.6162 7.48533 17.8473 6.25822 17.8473Z" fill="white"/>
<path d="M24.1007 17.6561C23.9414 17.6561 23.8298 17.5843 23.7661 17.4409L20.778 10.8193C20.7461 10.7555 20.6983 10.7237 20.6345 10.7237H18.4114C18.3317 10.7237 18.2919 10.7635 18.2919 10.8432V17.3692C18.2919 17.4489 18.26 17.5206 18.1962 17.5843C18.1484 17.6321 18.0847 17.6561 18.005 17.6561H15.2081C15.1285 17.6561 15.0567 17.6321 14.993 17.5843C14.9452 17.5206 14.9213 17.4489 14.9213 17.3692V1.20954C14.9213 1.12986 14.9452 1.06611 14.993 1.0183C15.0567 0.954556 15.1285 0.922683 15.2081 0.922683H22.0449C23.0649 0.922683 23.9573 1.12986 24.7223 1.54421C25.5031 1.95856 26.1008 2.54821 26.5151 3.31316C26.9454 4.07812 27.1606 4.9626 27.1606 5.9666C27.1606 7.05028 26.8896 7.98257 26.3478 8.76346C25.8059 9.52842 25.049 10.0703 24.0768 10.389C23.9971 10.4209 23.9732 10.4766 24.0051 10.5563L27.2562 17.3214C27.288 17.3851 27.304 17.4329 27.304 17.4648C27.304 17.5923 27.2163 17.6561 27.041 17.6561H24.1007ZM18.4114 3.81516C18.3317 3.81516 18.2919 3.85501 18.2919 3.93469V8.02241C18.2919 8.1021 18.3317 8.14194 18.4114 8.14194H21.5429C22.2123 8.14194 22.7541 7.94273 23.1684 7.54432C23.5987 7.1459 23.8139 6.62797 23.8139 5.9905C23.8139 5.35304 23.5987 4.8351 23.1684 4.43669C22.7541 4.02234 22.2123 3.81516 21.5429 3.81516H18.4114Z" fill="white"/>
<path d="M29.8919 17.6561C29.8122 17.6561 29.7405 17.6321 29.6767 17.5843C29.6289 17.5206 29.605 17.4489 29.605 17.3692V1.20954C29.605 1.12986 29.6289 1.06611 29.6767 1.0183C29.7405 0.954556 29.8122 0.922683 29.8919 0.922683H32.6887C32.7684 0.922683 32.8322 0.954556 32.88 1.0183C32.9437 1.06611 32.9756 1.12986 32.9756 1.20954V17.3692C32.9756 17.4489 32.9437 17.5206 32.88 17.5843C32.8322 17.6321 32.7684 17.6561 32.6887 17.6561H29.8919Z" fill="white"/>
<path d="M46.6418 1.11392C46.7215 0.986429 46.8331 0.922683 46.9765 0.922683H49.7734C49.8531 0.922683 49.9168 0.954556 49.9646 1.0183C50.0284 1.06611 50.0602 1.12986 50.0602 1.20954V17.3692C50.0602 17.4489 50.0284 17.5206 49.9646 17.5843C49.9168 17.6321 49.8531 17.6561 49.7734 17.6561H46.9765C46.8968 17.6561 46.8251 17.6321 46.7614 17.5843C46.7136 17.5206 46.6897 17.4489 46.6897 17.3692V6.82717C46.6897 6.76343 46.6737 6.73155 46.6418 6.73155C46.61 6.73155 46.5781 6.75546 46.5462 6.80327L44.0123 10.7715C43.9326 10.899 43.8211 10.9627 43.6777 10.9627H42.2673C42.1238 10.9627 42.0123 10.899 41.9326 10.7715L39.3987 6.80327C39.3668 6.75546 39.3349 6.73952 39.3031 6.75546C39.2712 6.75546 39.2553 6.78733 39.2553 6.85108V17.3692C39.2553 17.4489 39.2234 17.5206 39.1596 17.5843C39.1118 17.6321 39.0481 17.6561 38.9684 17.6561H36.1715C36.0919 17.6561 36.0201 17.6321 35.9564 17.5843C35.9086 17.5206 35.8847 17.4489 35.8847 17.3692V1.20954C35.8847 1.12986 35.9086 1.06611 35.9564 1.0183C36.0201 0.954556 36.0919 0.922683 36.1715 0.922683H38.9684C39.1118 0.922683 39.2234 0.986429 39.3031 1.11392L42.8888 6.68374C42.9366 6.77936 42.9844 6.77936 43.0322 6.68374L46.6418 1.11392Z" fill="white"/>
<path d="M53.2597 17.6561C53.1801 17.6561 53.1084 17.6321 53.0446 17.5843C52.9968 17.5206 52.9729 17.4489 52.9729 17.3692V1.20954C52.9729 1.12986 52.9968 1.06611 53.0446 1.0183C53.1084 0.954556 53.1801 0.922683 53.2597 0.922683H56.0566C56.1363 0.922683 56.2 0.954556 56.2478 1.0183C56.3116 1.06611 56.3435 1.12986 56.3435 1.20954V17.3692C56.3435 17.4489 56.3116 17.5206 56.2478 17.5843C56.2 17.6321 56.1363 17.6561 56.0566 17.6561H53.2597Z" fill="white"/>
<path d="M68.8623 1.20954C68.8623 1.12986 68.8862 1.06611 68.934 1.0183C68.9978 0.954556 69.0695 0.922683 69.1492 0.922683H71.946C72.0257 0.922683 72.0895 0.954556 72.1373 1.0183C72.201 1.06611 72.2329 1.12986 72.2329 1.20954V17.3692C72.2329 17.4489 72.201 17.5206 72.1373 17.5843C72.0895 17.6321 72.0257 17.6561 71.946 17.6561H69.2448C69.0854 17.6561 68.9739 17.5923 68.9101 17.4648L62.7188 7.23355C62.6869 7.18574 62.655 7.16981 62.6231 7.18574C62.5913 7.18574 62.5753 7.21762 62.5753 7.28136L62.6231 17.3692C62.6231 17.4489 62.5913 17.5206 62.5275 17.5843C62.4797 17.6321 62.416 17.6561 62.3363 17.6561H59.5394C59.4597 17.6561 59.388 17.6321 59.3243 17.5843C59.2765 17.5206 59.2526 17.4489 59.2526 17.3692V1.20954C59.2526 1.12986 59.2765 1.06611 59.3243 1.0183C59.388 0.954556 59.4597 0.922683 59.5394 0.922683H62.2407C62.4 0.922683 62.5116 0.986429 62.5753 1.11392L68.7428 11.2974C68.7747 11.3452 68.8065 11.3691 68.8384 11.3691C68.8703 11.3532 68.8862 11.3133 68.8862 11.2496L68.8623 1.20954Z" fill="white"/>
<path d="M85.7878 17.6561C85.6285 17.6561 85.5249 17.5764 85.4771 17.417L84.7599 15.0743C84.7281 15.0106 84.6882 14.9787 84.6404 14.9787H78.7598C78.712 14.9787 78.6722 15.0106 78.6403 15.0743L77.9471 17.417C77.8993 17.5764 77.7957 17.6561 77.6363 17.6561H74.6004C74.5048 17.6561 74.4331 17.6321 74.3852 17.5843C74.3374 17.5206 74.3295 17.4329 74.3613 17.3214L79.5248 1.16173C79.5726 1.00237 79.6762 0.922683 79.8355 0.922683H83.5886C83.748 0.922683 83.8516 1.00237 83.8994 1.16173L89.0628 17.3214C89.0787 17.3533 89.0867 17.3931 89.0867 17.4409C89.0867 17.5843 88.9991 17.6561 88.8238 17.6561H85.7878ZM79.5009 12.2297C79.4849 12.3253 79.5168 12.3731 79.5965 12.3731H83.8037C83.8994 12.3731 83.9312 12.3253 83.8994 12.2297L81.7479 5.12993C81.732 5.06618 81.7081 5.04228 81.6762 5.05822C81.6443 5.05822 81.6204 5.08212 81.6045 5.12993L79.5009 12.2297Z" fill="white"/>
<path d="M91.4748 17.6561C91.3951 17.6561 91.3234 17.6321 91.2596 17.5843C91.2118 17.5206 91.1879 17.4489 91.1879 17.3692V1.20954C91.1879 1.12986 91.2118 1.06611 91.2596 1.0183C91.3234 0.954556 91.3951 0.922683 91.4748 0.922683H94.2716C94.3513 0.922683 94.4151 0.954556 94.4629 1.0183C94.5266 1.06611 94.5585 1.12986 94.5585 1.20954V14.644C94.5585 14.7237 94.5983 14.7636 94.678 14.7636H102.495C102.575 14.7636 102.638 14.7954 102.686 14.8592C102.75 14.907 102.782 14.9707 102.782 15.0504V17.3692C102.782 17.4489 102.75 17.5206 102.686 17.5843C102.638 17.6321 102.575 17.6561 102.495 17.6561H91.4748Z" fill="white"/>
<path d="M114.65 17.8473C113.438 17.8473 112.379 17.6242 111.47 17.178C110.578 16.7158 109.885 16.0783 109.39 15.2656C108.896 14.4369 108.649 13.4807 108.649 12.397V10.891C108.649 10.8113 108.673 10.7476 108.721 10.6998C108.785 10.636 108.857 10.6041 108.936 10.6041H111.733C111.813 10.6041 111.877 10.636 111.924 10.6998C111.988 10.7476 112.02 10.8113 112.02 10.891V12.397C112.02 13.1619 112.251 13.7835 112.713 14.2616C113.191 14.7237 113.837 14.9548 114.65 14.9548C115.43 14.9548 116.068 14.7237 116.562 14.2616C117.072 13.7835 117.327 13.1619 117.327 12.397V1.20954C117.327 1.12986 117.351 1.06611 117.399 1.0183C117.462 0.954556 117.534 0.922683 117.614 0.922683H120.387C120.466 0.922683 120.53 0.954556 120.578 1.0183C120.642 1.06611 120.674 1.12986 120.674 1.20954V12.397C120.674 13.4807 120.419 14.4369 119.909 15.2656C119.399 16.0783 118.689 16.7158 117.781 17.178C116.873 17.6242 115.829 17.8473 114.65 17.8473Z" fill="white"/>
<path d="M129.662 17.8473C128.435 17.8473 127.351 17.6082 126.411 17.1301C125.487 16.6521 124.761 15.9827 124.236 15.1221C123.726 14.2456 123.471 13.2416 123.471 12.1101V1.20954C123.471 1.12986 123.495 1.06611 123.542 1.0183C123.606 0.954556 123.678 0.922683 123.757 0.922683H126.554C126.634 0.922683 126.698 0.954556 126.746 1.0183C126.809 1.06611 126.841 1.12986 126.841 1.20954V12.134C126.841 12.9787 127.096 13.6639 127.606 14.1899C128.132 14.6998 128.817 14.9548 129.662 14.9548C130.507 14.9548 131.184 14.6998 131.694 14.1899C132.22 13.6639 132.483 12.9787 132.483 12.134V1.20954C132.483 1.12986 132.507 1.06611 132.554 1.0183C132.618 0.954556 132.69 0.922683 132.77 0.922683H135.566C135.646 0.922683 135.71 0.954556 135.758 1.0183C135.821 1.06611 135.853 1.12986 135.853 1.20954V12.1101C135.853 13.2416 135.59 14.2456 135.064 15.1221C134.554 15.9827 133.829 16.6521 132.889 17.1301C131.965 17.6082 130.889 17.8473 129.662 17.8473Z" fill="white"/>
<path d="M144.361 17.8473C143.086 17.8473 141.971 17.6481 141.015 17.2497C140.058 16.8353 139.317 16.2536 138.791 15.5046C138.281 14.7397 138.026 13.8552 138.026 12.8512V12.3253C138.026 12.2456 138.05 12.1819 138.098 12.134C138.162 12.0703 138.234 12.0384 138.313 12.0384H141.038C141.118 12.0384 141.182 12.0703 141.23 12.134C141.293 12.1819 141.325 12.2456 141.325 12.3253V12.6839C141.325 13.3213 141.62 13.8632 142.21 14.3094C142.799 14.7397 143.596 14.9548 144.6 14.9548C145.445 14.9548 146.074 14.7795 146.489 14.4289C146.903 14.0624 147.11 13.6161 147.11 13.0902C147.11 12.7078 146.983 12.389 146.728 12.134C146.473 11.8631 146.122 11.632 145.676 11.4408C145.246 11.2336 144.552 10.9547 143.596 10.6041C142.528 10.2376 141.62 9.86308 140.871 9.48061C140.138 9.09813 139.516 8.58019 139.006 7.92679C138.512 7.25746 138.265 6.43673 138.265 5.4646C138.265 4.5084 138.512 3.67174 139.006 2.95459C139.501 2.23745 140.186 1.68764 141.062 1.30516C141.939 0.922684 142.951 0.731445 144.098 0.731445C145.309 0.731445 146.385 0.946588 147.325 1.37687C148.282 1.80716 149.023 2.41275 149.549 3.19364C150.09 3.95859 150.361 4.85104 150.361 5.87098V6.22955C150.361 6.30923 150.329 6.38095 150.266 6.4447C150.218 6.4925 150.154 6.51641 150.074 6.51641H147.325C147.246 6.51641 147.174 6.4925 147.11 6.4447C147.062 6.38095 147.039 6.30923 147.039 6.22955V6.03831C147.039 5.36898 146.76 4.80323 146.202 4.34107C145.66 3.86298 144.911 3.62393 143.955 3.62393C143.206 3.62393 142.616 3.78329 142.186 4.10202C141.771 4.42075 141.564 4.85901 141.564 5.41679C141.564 5.8152 141.684 6.14987 141.923 6.42079C142.178 6.69171 142.544 6.93873 143.022 7.16184C143.517 7.36901 144.274 7.65587 145.293 8.02241C146.425 8.43676 147.309 8.8033 147.947 9.12203C148.6 9.44077 149.182 9.91886 149.692 10.5563C150.218 11.1778 150.481 11.9906 150.481 12.9946C150.481 14.4926 149.931 15.6799 148.831 16.5564C147.732 17.417 146.242 17.8473 144.361 17.8473Z" fill="white"/>
<path d="M164.2 0.922683C164.28 0.922683 164.344 0.954556 164.391 1.0183C164.455 1.06611 164.487 1.12986 164.487 1.20954V3.55221C164.487 3.6319 164.455 3.70361 164.391 3.76736C164.344 3.81517 164.28 3.83907 164.2 3.83907H159.921C159.841 3.83907 159.802 3.87891 159.802 3.95859V17.3692C159.802 17.4489 159.77 17.5206 159.706 17.5843C159.658 17.6321 159.594 17.6561 159.515 17.6561H156.718C156.638 17.6561 156.567 17.6321 156.503 17.5843C156.455 17.5206 156.431 17.4489 156.431 17.3692V3.95859C156.431 3.87891 156.391 3.83907 156.312 3.83907H152.152C152.072 3.83907 152.001 3.81517 151.937 3.76736C151.889 3.70361 151.865 3.6319 151.865 3.55221V1.20954C151.865 1.12986 151.889 1.06611 151.937 1.0183C152.001 0.954556 152.072 0.922683 152.152 0.922683H164.2Z" fill="white"/>
<path d="M166.924 17.6561C166.845 17.6561 166.773 17.6321 166.709 17.5843C166.661 17.5206 166.637 17.4489 166.637 17.3692V1.20954C166.637 1.12986 166.661 1.06611 166.709 1.0183C166.773 0.954556 166.845 0.922683 166.924 0.922683H169.721C169.801 0.922683 169.865 0.954556 169.912 1.0183C169.976 1.06611 170.008 1.12986 170.008 1.20954V17.3692C170.008 17.4489 169.976 17.5206 169.912 17.5843C169.865 17.6321 169.801 17.6561 169.721 17.6561H166.924Z" fill="white"/>
<path d="M178.798 17.8473C177.555 17.8473 176.463 17.6082 175.523 17.1301C174.583 16.6361 173.857 15.9508 173.347 15.0743C172.837 14.1978 172.582 13.1859 172.582 12.0384V6.51641C172.582 5.36898 172.837 4.35701 173.347 3.4805C173.857 2.60399 174.583 1.92669 175.523 1.44859C176.463 0.970493 177.555 0.731445 178.798 0.731445C180.025 0.731445 181.101 0.962525 182.025 1.42468C182.965 1.87091 183.69 2.51634 184.2 3.36097C184.726 4.18967 184.989 5.15384 184.989 6.25346C184.989 6.39689 184.893 6.48454 184.702 6.51641L181.905 6.68374H181.858C181.698 6.68374 181.619 6.59609 181.619 6.42079C181.619 5.57615 181.356 4.89885 180.83 4.38888C180.32 3.87891 179.642 3.62393 178.798 3.62393C177.937 3.62393 177.244 3.87891 176.718 4.38888C176.208 4.89885 175.953 5.57615 175.953 6.42079V12.1819C175.953 13.0106 176.208 13.6799 176.718 14.1899C177.244 14.6998 177.937 14.9548 178.798 14.9548C179.642 14.9548 180.32 14.6998 180.83 14.1899C181.356 13.6799 181.619 13.0106 181.619 12.1819C181.619 12.0065 181.714 11.9189 181.905 11.9189L184.702 12.0384C184.782 12.0384 184.846 12.0623 184.893 12.1101C184.957 12.1579 184.989 12.2137 184.989 12.2775C184.989 13.3771 184.726 14.3492 184.2 15.1939C183.69 16.0385 182.965 16.6919 182.025 17.1541C181.101 17.6162 180.025 17.8473 178.798 17.8473Z" fill="white"/>
<path d="M199.079 3.52831C199.079 3.60799 199.047 3.67971 198.983 3.74345C198.935 3.79126 198.871 3.81516 198.792 3.81516H190.951C190.871 3.81516 190.831 3.85501 190.831 3.93469V7.63994C190.831 7.71962 190.871 7.75946 190.951 7.75946H196.09C196.17 7.75946 196.234 7.79133 196.282 7.85508C196.345 7.90289 196.377 7.96664 196.377 8.04632V10.3651C196.377 10.4448 196.345 10.5165 196.282 10.5802C196.234 10.628 196.17 10.6519 196.09 10.6519H190.951C190.871 10.6519 190.831 10.6918 190.831 10.7715V14.644C190.831 14.7237 190.871 14.7636 190.951 14.7636H198.792C198.871 14.7636 198.935 14.7954 198.983 14.8592C199.047 14.907 199.079 14.9707 199.079 15.0504V17.3692C199.079 17.4489 199.047 17.5206 198.983 17.5843C198.935 17.6321 198.871 17.6561 198.792 17.6561H187.748C187.668 17.6561 187.596 17.6321 187.533 17.5843C187.485 17.5206 187.461 17.4489 187.461 17.3692V1.20954C187.461 1.12986 187.485 1.06611 187.533 1.0183C187.596 0.954556 187.668 0.922683 187.748 0.922683H198.792C198.871 0.922683 198.935 0.954556 198.983 1.0183C199.047 1.06611 199.079 1.12986 199.079 1.20954V3.52831Z" fill="white"/>
<path d="M220.382 17.2975C220.446 17.3931 220.478 17.4568 220.478 17.4887C220.478 17.6003 220.39 17.6561 220.215 17.6561H217.083C216.94 17.6561 216.82 17.6003 216.725 17.4887L215.792 16.4847C215.76 16.4369 215.705 16.4289 215.625 16.4608C214.143 17.3851 212.549 17.8473 210.844 17.8473C209.346 17.8473 208.095 17.4967 207.091 16.7955C206.103 16.0783 205.609 15.0265 205.609 13.64C205.609 12.5723 205.896 11.6719 206.469 10.9388C207.043 10.2057 207.824 9.54435 208.812 8.9547C208.908 8.89095 208.916 8.83518 208.836 8.78737C208.039 7.81524 207.513 7.06622 207.258 6.54031C207.003 5.99847 206.876 5.42476 206.876 4.81917C206.876 4.07015 207.075 3.38488 207.473 2.76335C207.888 2.12589 208.461 1.63186 209.195 1.28125C209.944 0.914715 210.796 0.731445 211.752 0.731445C212.725 0.731445 213.593 0.914715 214.358 1.28125C215.139 1.6478 215.744 2.16573 216.175 2.83507C216.605 3.48847 216.82 4.23748 216.82 5.08212C216.82 6.07019 216.541 6.93076 215.984 7.66384C215.442 8.38099 214.701 9.03438 213.76 9.62403C213.681 9.67184 213.673 9.72762 213.736 9.79137L215.864 12.2058C215.928 12.2695 215.992 12.2695 216.055 12.2058C216.661 11.5364 217.155 10.899 217.537 10.2934C217.633 10.1181 217.76 10.0862 217.92 10.1978L220 11.3691C220.175 11.4647 220.215 11.5922 220.119 11.7516C219.45 12.8034 218.749 13.7197 218.015 14.5006C217.968 14.5484 217.984 14.6201 218.063 14.7158L220.382 17.2975ZM211.824 3.79126C211.346 3.79126 210.964 3.91875 210.677 4.17374C210.39 4.41279 210.246 4.73949 210.246 5.15384C210.246 5.37695 210.326 5.62396 210.485 5.89488C210.645 6.16581 210.995 6.62797 211.537 7.28136C211.569 7.34511 211.625 7.36105 211.705 7.32917C212.278 6.96263 212.709 6.61203 212.995 6.27736C213.298 5.94269 213.45 5.56819 213.45 5.15384C213.45 4.73949 213.298 4.41279 212.995 4.17374C212.693 3.91875 212.302 3.79126 211.824 3.79126ZM210.964 15.0265C211.728 15.0265 212.589 14.7556 213.545 14.2138C213.641 14.15 213.649 14.0942 213.569 14.0464L212.828 13.2098L212.278 12.6121C211.928 12.2456 211.521 11.7994 211.059 11.2735C211.027 11.2257 210.972 11.2177 210.892 11.2496C210.318 11.6002 209.88 11.9348 209.577 12.2536C209.274 12.5723 209.099 12.9388 209.051 13.3532C209.035 13.401 209.027 13.4807 209.027 13.5922C209.027 14.0225 209.203 14.3731 209.553 14.644C209.92 14.899 210.39 15.0265 210.964 15.0265Z" fill="white"/>
<path d="M7.28613 29.4007C8.33794 29.4007 9.26226 29.6158 10.0591 30.0461C10.8559 30.4764 11.4695 31.0899 11.8998 31.8868C12.346 32.6677 12.5691 33.5681 12.5691 34.588C12.5691 35.592 12.338 36.4765 11.8759 37.2414C11.4296 38.0064 10.7922 38.604 9.96347 39.0343C9.1507 39.4487 8.21045 39.6558 7.1427 39.6558H3.74821C3.66853 39.6558 3.62869 39.6957 3.62869 39.7754V45.8711C3.62869 45.9508 3.59682 46.0225 3.53307 46.0862C3.48526 46.134 3.42152 46.1579 3.34183 46.1579H0.54497C0.465287 46.1579 0.393573 46.134 0.329827 46.0862C0.282017 46.0225 0.258112 45.9508 0.258112 45.8711V29.6875C0.258112 29.6078 0.282017 29.5441 0.329827 29.4963C0.393573 29.4325 0.465287 29.4007 0.54497 29.4007H7.28613ZM6.78413 36.9546C7.51721 36.9546 8.10686 36.7474 8.55308 36.3331C8.99931 35.9028 9.22242 35.345 9.22242 34.6597C9.22242 33.9585 8.99931 33.3928 8.55308 32.9625C8.10686 32.5322 7.51721 32.3171 6.78413 32.3171H3.74821C3.66853 32.3171 3.62869 32.3569 3.62869 32.4366V36.8351C3.62869 36.9148 3.66853 36.9546 3.74821 36.9546H6.78413Z" fill="white"/>
<path d="M20.5934 46.4209C19.3504 46.4209 18.2508 46.1659 17.2946 45.6559C16.3543 45.146 15.6212 44.4368 15.0953 43.5284C14.5694 42.6041 14.3065 41.5443 14.3065 40.3491V35.2334C14.3065 34.0541 14.5694 33.0103 15.0953 32.1019C15.6212 31.1935 16.3543 30.4923 17.2946 29.9983C18.2508 29.4883 19.3504 29.2333 20.5934 29.2333C21.8524 29.2333 22.9521 29.4883 23.8923 29.9983C24.8485 30.4923 25.5896 31.1935 26.1155 32.1019C26.6414 33.0103 26.9043 34.0541 26.9043 35.2334V40.3491C26.9043 41.5443 26.6414 42.6041 26.1155 43.5284C25.5896 44.4527 24.8485 45.1699 23.8923 45.6798C22.9521 46.1739 21.8524 46.4209 20.5934 46.4209ZM20.5934 43.5284C21.47 43.5284 22.1791 43.2495 22.721 42.6917C23.2628 42.134 23.5337 41.3929 23.5337 40.4686V35.2095C23.5337 34.2852 23.2628 33.5442 22.721 32.9864C22.1951 32.4127 21.4859 32.1258 20.5934 32.1258C19.7169 32.1258 19.0078 32.4127 18.4659 32.9864C17.94 33.5442 17.6771 34.2852 17.6771 35.2095V40.4686C17.6771 41.3929 17.94 42.134 18.4659 42.6917C19.0078 43.2495 19.7169 43.5284 20.5934 43.5284Z" fill="white"/>
<path d="M29.7751 46.1579C29.6955 46.1579 29.6237 46.134 29.56 46.0862C29.5122 46.0225 29.4883 45.9508 29.4883 45.8711V29.7114C29.4883 29.6318 29.5122 29.568 29.56 29.5202C29.6237 29.4564 29.6955 29.4246 29.7751 29.4246H32.572C32.6517 29.4246 32.7154 29.4564 32.7632 29.5202C32.827 29.568 32.8589 29.6318 32.8589 29.7114V43.1459C32.8589 43.2256 32.8987 43.2655 32.9784 43.2655H40.7953C40.8749 43.2655 40.9387 43.2973 40.9865 43.3611C41.0502 43.4089 41.0821 43.4726 41.0821 43.5523V45.8711C41.0821 45.9508 41.0502 46.0225 40.9865 46.0862C40.9387 46.134 40.8749 46.1579 40.7953 46.1579H29.7751Z" fill="white"/>
<path d="M43.455 46.1579C43.3754 46.1579 43.3036 46.134 43.2399 46.0862C43.1921 46.0225 43.1682 45.9508 43.1682 45.8711V29.7114C43.1682 29.6318 43.1921 29.568 43.2399 29.5202C43.3036 29.4564 43.3754 29.4246 43.455 29.4246H46.2519C46.3316 29.4246 46.3953 29.4564 46.4431 29.5202C46.5069 29.568 46.5388 29.6318 46.5388 29.7114V45.8711C46.5388 45.9508 46.5069 46.0225 46.4431 46.0862C46.3953 46.134 46.3316 46.1579 46.2519 46.1579H43.455Z" fill="white"/>
<path d="M55.3285 46.3492C54.0854 46.3492 52.9937 46.1101 52.0535 45.632C51.1132 45.138 50.3881 44.4527 49.8782 43.5762C49.3682 42.6997 49.1132 41.6877 49.1132 40.5403V35.0183C49.1132 33.8709 49.3682 32.8589 49.8782 31.9824C50.3881 31.1059 51.1132 30.4286 52.0535 29.9505C52.9937 29.4724 54.0854 29.2333 55.3285 29.2333C56.5556 29.2333 57.6313 29.4644 58.5556 29.9266C59.4959 30.3728 60.221 31.0182 60.7309 31.8629C61.2568 32.6916 61.5198 33.6557 61.5198 34.7554C61.5198 34.8988 61.4242 34.9864 61.2329 35.0183L58.4361 35.1856H58.3883C58.2289 35.1856 58.1492 35.098 58.1492 34.9227C58.1492 34.078 57.8863 33.4007 57.3604 32.8908C56.8504 32.3808 56.1731 32.1258 55.3285 32.1258C54.4679 32.1258 53.7746 32.3808 53.2487 32.8908C52.7388 33.4007 52.4838 34.078 52.4838 34.9227V40.6837C52.4838 41.5124 52.7388 42.1818 53.2487 42.6917C53.7746 43.2017 54.4679 43.4567 55.3285 43.4567C56.1731 43.4567 56.8504 43.2017 57.3604 42.6917C57.8863 42.1818 58.1492 41.5124 58.1492 40.6837C58.1492 40.5084 58.2448 40.4208 58.4361 40.4208L61.2329 40.5403C61.3126 40.5403 61.3764 40.5642 61.4242 40.612C61.4879 40.6598 61.5198 40.7156 61.5198 40.7794C61.5198 41.879 61.2568 42.8511 60.7309 43.6957C60.221 44.5404 59.4959 45.1938 58.5556 45.6559C57.6313 46.1181 56.5556 46.3492 55.3285 46.3492Z" fill="white"/>
<path d="M75.6093 32.0302C75.6093 32.1099 75.5774 32.1816 75.5136 32.2453C75.4658 32.2932 75.4021 32.3171 75.3224 32.3171H67.4816C67.4019 32.3171 67.3621 32.3569 67.3621 32.4366V36.1418C67.3621 36.2215 67.4019 36.2614 67.4816 36.2614H72.6212C72.7008 36.2614 72.7646 36.2932 72.8124 36.357C72.8761 36.4048 72.908 36.4685 72.908 36.5482V38.867C72.908 38.9467 72.8761 39.0184 72.8124 39.0821C72.7646 39.1299 72.7008 39.1538 72.6212 39.1538H67.4816C67.4019 39.1538 67.3621 39.1937 67.3621 39.2734V43.1459C67.3621 43.2256 67.4019 43.2655 67.4816 43.2655H75.3224C75.4021 43.2655 75.4658 43.2973 75.5136 43.3611C75.5774 43.4089 75.6093 43.4726 75.6093 43.5523V45.8711C75.6093 45.9508 75.5774 46.0225 75.5136 46.0862C75.4658 46.134 75.4021 46.1579 75.3224 46.1579H64.2784C64.1987 46.1579 64.127 46.134 64.0632 46.0862C64.0154 46.0225 63.9915 45.9508 63.9915 45.8711V29.7114C63.9915 29.6318 64.0154 29.568 64.0632 29.5202C64.127 29.4564 64.1987 29.4246 64.2784 29.4246H75.3224C75.4021 29.4246 75.4658 29.4564 75.5136 29.5202C75.5774 29.568 75.6093 29.6318 75.6093 29.7114V32.0302Z" fill="white"/>
<path d="M93.3748 46.1579C93.2155 46.1579 93.1119 46.0783 93.0641 45.9189L92.3469 43.5762C92.315 43.5125 92.2752 43.4806 92.2274 43.4806H86.3468C86.299 43.4806 86.2592 43.5125 86.2273 43.5762L85.534 45.9189C85.4862 46.0783 85.3826 46.1579 85.2233 46.1579H82.1874C82.0918 46.1579 82.02 46.134 81.9722 46.0862C81.9244 46.0225 81.9164 45.9348 81.9483 45.8233L87.1118 29.6636C87.1596 29.5043 87.2632 29.4246 87.4225 29.4246H91.1756C91.3349 29.4246 91.4385 29.5043 91.4863 29.6636L96.6498 45.8233C96.6657 45.8552 96.6737 45.895 96.6737 45.9428C96.6737 46.0862 96.586 46.1579 96.4107 46.1579H93.3748ZM87.0879 40.7316C87.0719 40.8272 87.1038 40.875 87.1835 40.875H91.3907C91.4863 40.875 91.5182 40.8272 91.4863 40.7316L89.3349 33.6318C89.319 33.5681 89.2951 33.5442 89.2632 33.5601C89.2313 33.5601 89.2074 33.584 89.1915 33.6318L87.0879 40.7316Z" fill="white"/>
<path d="M104.142 46.3492C102.899 46.3492 101.807 46.1101 100.867 45.632C99.9267 45.138 99.2016 44.4527 98.6916 43.5762C98.1816 42.6997 97.9266 41.6877 97.9266 40.5403V35.0183C97.9266 33.8709 98.1816 32.8589 98.6916 31.9824C99.2016 31.1059 99.9267 30.4286 100.867 29.9505C101.807 29.4724 102.899 29.2333 104.142 29.2333C105.369 29.2333 106.445 29.4644 107.369 29.9266C108.309 30.3728 109.034 31.0182 109.544 31.8629C110.07 32.6916 110.333 33.6557 110.333 34.7554C110.333 34.8988 110.238 34.9864 110.046 35.0183L107.25 35.1856H107.202C107.042 35.1856 106.963 35.098 106.963 34.9227C106.963 34.078 106.7 33.4007 106.174 32.8908C105.664 32.3808 104.987 32.1258 104.142 32.1258C103.281 32.1258 102.588 32.3808 102.062 32.8908C101.552 33.4007 101.297 34.078 101.297 34.9227V40.6837C101.297 41.5124 101.552 42.1818 102.062 42.6917C102.588 43.2017 103.281 43.4567 104.142 43.4567C104.987 43.4567 105.664 43.2017 106.174 42.6917C106.7 42.1818 106.963 41.5124 106.963 40.6837C106.963 40.5084 107.058 40.4208 107.25 40.4208L110.046 40.5403C110.126 40.5403 110.19 40.5642 110.238 40.612C110.301 40.6598 110.333 40.7156 110.333 40.7794C110.333 41.879 110.07 42.8511 109.544 43.6957C109.034 44.5404 108.309 45.1938 107.369 45.6559C106.445 46.1181 105.369 46.3492 104.142 46.3492Z" fill="white"/>
<path d="M118.686 46.3492C117.442 46.3492 116.351 46.1101 115.411 45.632C114.47 45.138 113.745 44.4527 113.235 43.5762C112.725 42.6997 112.47 41.6877 112.47 40.5403V35.0183C112.47 33.8709 112.725 32.8589 113.235 31.9824C113.745 31.1059 114.47 30.4286 115.411 29.9505C116.351 29.4724 117.442 29.2333 118.686 29.2333C119.913 29.2333 120.988 29.4644 121.913 29.9266C122.853 30.3728 123.578 31.0182 124.088 31.8629C124.614 32.6916 124.877 33.6557 124.877 34.7554C124.877 34.8988 124.781 34.9864 124.59 35.0183L121.793 35.1856H121.745C121.586 35.1856 121.506 35.098 121.506 34.9227C121.506 34.078 121.243 33.4007 120.717 32.8908C120.207 32.3808 119.53 32.1258 118.686 32.1258C117.825 32.1258 117.132 32.3808 116.606 32.8908C116.096 33.4007 115.841 34.078 115.841 34.9227V40.6837C115.841 41.5124 116.096 42.1818 116.606 42.6917C117.132 43.2017 117.825 43.4567 118.686 43.4567C119.53 43.4567 120.207 43.2017 120.717 42.6917C121.243 42.1818 121.506 41.5124 121.506 40.6837C121.506 40.5084 121.602 40.4208 121.793 40.4208L124.59 40.5403C124.67 40.5403 124.733 40.5642 124.781 40.612C124.845 40.6598 124.877 40.7156 124.877 40.7794C124.877 41.879 124.614 42.8511 124.088 43.6957C123.578 44.5404 122.853 45.1938 121.913 45.6559C120.988 46.1181 119.913 46.3492 118.686 46.3492Z" fill="white"/>
<path d="M133.301 46.4209C132.058 46.4209 130.958 46.1659 130.002 45.6559C129.062 45.146 128.329 44.4368 127.803 43.5284C127.277 42.6041 127.014 41.5443 127.014 40.3491V35.2334C127.014 34.0541 127.277 33.0103 127.803 32.1019C128.329 31.1935 129.062 30.4923 130.002 29.9983C130.958 29.4883 132.058 29.2333 133.301 29.2333C134.56 29.2333 135.66 29.4883 136.6 29.9983C137.556 30.4923 138.297 31.1935 138.823 32.1019C139.349 33.0103 139.612 34.0541 139.612 35.2334V40.3491C139.612 41.5443 139.349 42.6041 138.823 43.5284C138.297 44.4527 137.556 45.1699 136.6 45.6798C135.66 46.1739 134.56 46.4209 133.301 46.4209ZM133.301 43.5284C134.177 43.5284 134.887 43.2495 135.428 42.6917C135.97 42.134 136.241 41.3929 136.241 40.4686V35.2095C136.241 34.2852 135.97 33.5442 135.428 32.9864C134.903 32.4127 134.193 32.1258 133.301 32.1258C132.424 32.1258 131.715 32.4127 131.173 32.9864C130.647 33.5442 130.385 34.2852 130.385 35.2095V40.4686C130.385 41.3929 130.647 42.134 131.173 42.6917C131.715 43.2495 132.424 43.5284 133.301 43.5284Z" fill="white"/>
<path d="M148.268 46.3492C147.04 46.3492 145.957 46.1101 145.017 45.632C144.092 45.1539 143.367 44.4846 142.841 43.624C142.331 42.7475 142.076 41.7435 142.076 40.612V29.7114C142.076 29.6318 142.1 29.568 142.148 29.5202C142.212 29.4564 142.283 29.4246 142.363 29.4246H145.16C145.24 29.4246 145.303 29.4564 145.351 29.5202C145.415 29.568 145.447 29.6318 145.447 29.7114V40.6359C145.447 41.4806 145.702 42.1658 146.212 42.6917C146.738 43.2017 147.423 43.4567 148.268 43.4567C149.112 43.4567 149.789 43.2017 150.299 42.6917C150.825 42.1658 151.088 41.4806 151.088 40.6359V29.7114C151.088 29.6318 151.112 29.568 151.16 29.5202C151.224 29.4564 151.296 29.4246 151.375 29.4246H154.172C154.252 29.4246 154.315 29.4564 154.363 29.5202C154.427 29.568 154.459 29.6318 154.459 29.7114V40.612C154.459 41.7435 154.196 42.7475 153.67 43.624C153.16 44.4846 152.435 45.1539 151.495 45.632C150.57 46.1101 149.495 46.3492 148.268 46.3492Z" fill="white"/>
<path d="M166.839 29.7114C166.839 29.6318 166.863 29.568 166.911 29.5202C166.975 29.4564 167.047 29.4246 167.126 29.4246H169.923C170.003 29.4246 170.067 29.4564 170.114 29.5202C170.178 29.568 170.21 29.6318 170.21 29.7114V45.8711C170.21 45.9508 170.178 46.0225 170.114 46.0862C170.067 46.134 170.003 46.1579 169.923 46.1579H167.222C167.062 46.1579 166.951 46.0942 166.887 45.9667L160.696 35.7354C160.664 35.6876 160.632 35.6717 160.6 35.6876C160.568 35.6876 160.552 35.7195 160.552 35.7833L160.6 45.8711C160.6 45.9508 160.568 46.0225 160.505 46.0862C160.457 46.134 160.393 46.1579 160.313 46.1579H157.516C157.437 46.1579 157.365 46.134 157.301 46.0862C157.254 46.0225 157.23 45.9508 157.23 45.8711V29.7114C157.23 29.6318 157.254 29.568 157.301 29.5202C157.365 29.4564 157.437 29.4246 157.516 29.4246H160.218C160.377 29.4246 160.489 29.4883 160.552 29.6158L166.72 39.7993C166.752 39.8471 166.784 39.871 166.815 39.871C166.847 39.855 166.863 39.8152 166.863 39.7515L166.839 29.7114Z" fill="white"/>
<path d="M184.673 29.4246C184.753 29.4246 184.817 29.4564 184.865 29.5202C184.928 29.568 184.96 29.6318 184.96 29.7114V32.0541C184.96 32.1338 184.928 32.2055 184.865 32.2692C184.817 32.3171 184.753 32.341 184.673 32.341H180.394C180.315 32.341 180.275 32.3808 180.275 32.4605V45.8711C180.275 45.9508 180.243 46.0225 180.179 46.0862C180.131 46.134 180.068 46.1579 179.988 46.1579H177.191C177.111 46.1579 177.04 46.134 176.976 46.0862C176.928 46.0225 176.904 45.9508 176.904 45.8711V32.4605C176.904 32.3808 176.864 32.341 176.785 32.341H172.625C172.546 32.341 172.474 32.3171 172.41 32.2692C172.362 32.2055 172.338 32.1338 172.338 32.0541V29.7114C172.338 29.6318 172.362 29.568 172.41 29.5202C172.474 29.4564 172.546 29.4246 172.625 29.4246H184.673Z" fill="white"/>
<path d="M196.208 46.1579C196.048 46.1579 195.945 46.0783 195.897 45.9189L195.18 43.5762C195.148 43.5125 195.108 43.4806 195.06 43.4806H189.18C189.132 43.4806 189.092 43.5125 189.06 43.5762L188.367 45.9189C188.319 46.0783 188.215 46.1579 188.056 46.1579H185.02C184.924 46.1579 184.853 46.134 184.805 46.0862C184.757 46.0225 184.749 45.9348 184.781 45.8233L189.944 29.6636C189.992 29.5043 190.096 29.4246 190.255 29.4246H194.008C194.168 29.4246 194.271 29.5043 194.319 29.6636L199.482 45.8233C199.498 45.8552 199.506 45.895 199.506 45.9428C199.506 46.0862 199.419 46.1579 199.243 46.1579H196.208ZM189.921 40.7316C189.905 40.8272 189.937 40.875 190.016 40.875H194.223C194.319 40.875 194.351 40.8272 194.319 40.7316L192.168 33.6318C192.152 33.5681 192.128 33.5442 192.096 33.5601C192.064 33.5601 192.04 33.584 192.024 33.6318L189.921 40.7316Z" fill="white"/>
<path d="M211.528 37.4327C211.432 37.4805 211.432 37.5283 211.528 37.5761C213.042 38.357 213.799 39.6558 213.799 41.4726C213.799 43.0184 213.273 44.1898 212.221 44.9866C211.17 45.7675 209.791 46.1579 208.086 46.1579H201.894C201.815 46.1579 201.743 46.134 201.679 46.0862C201.631 46.0225 201.608 45.9508 201.608 45.8711V29.7114C201.608 29.6318 201.631 29.568 201.679 29.5202C201.743 29.4564 201.815 29.4246 201.894 29.4246H207.895C211.672 29.4246 213.56 30.9545 213.56 34.0143C213.56 35.608 212.883 36.7474 211.528 37.4327ZM205.098 32.3171C205.018 32.3171 204.978 32.3569 204.978 32.4366V36.1657C204.978 36.2454 205.018 36.2853 205.098 36.2853H207.895C208.644 36.2853 209.225 36.11 209.64 35.7594C210.054 35.4087 210.261 34.9307 210.261 34.3251C210.261 33.7035 210.054 33.2175 209.64 32.8669C209.225 32.5003 208.644 32.3171 207.895 32.3171H205.098ZM208.086 43.2416C208.819 43.2416 209.393 43.0583 209.807 42.6917C210.221 42.3093 210.428 41.7913 210.428 41.1379C210.428 40.4845 210.221 39.9746 209.807 39.608C209.393 39.2256 208.811 39.0343 208.062 39.0343H205.098C205.018 39.0343 204.978 39.0742 204.978 39.1538V43.122C204.978 43.2017 205.018 43.2416 205.098 43.2416H208.086Z" fill="white"/>
<path d="M216.718 46.1579C216.639 46.1579 216.567 46.134 216.503 46.0862C216.455 46.0225 216.431 45.9508 216.431 45.8711V29.7114C216.431 29.6318 216.455 29.568 216.503 29.5202C216.567 29.4564 216.639 29.4246 216.718 29.4246H219.515C219.595 29.4246 219.659 29.4564 219.706 29.5202C219.77 29.568 219.802 29.6318 219.802 29.7114V45.8711C219.802 45.9508 219.77 46.0225 219.706 46.0862C219.659 46.134 219.595 46.1579 219.515 46.1579H216.718Z" fill="white"/>
<path d="M222.998 46.1579C222.918 46.1579 222.847 46.134 222.783 46.0862C222.735 46.0225 222.711 45.9508 222.711 45.8711V29.7114C222.711 29.6318 222.735 29.568 222.783 29.5202C222.847 29.4564 222.918 29.4246 222.998 29.4246H225.795C225.874 29.4246 225.938 29.4564 225.986 29.5202C226.05 29.568 226.082 29.6318 226.082 29.7114V43.1459C226.082 43.2256 226.121 43.2655 226.201 43.2655H234.018C234.098 43.2655 234.161 43.2973 234.209 43.3611C234.273 43.4089 234.305 43.4726 234.305 43.5523V45.8711C234.305 45.9508 234.273 46.0225 234.209 46.0862C234.161 46.134 234.098 46.1579 234.018 46.1579H222.998Z" fill="white"/>
<path d="M245.953 29.4246C246.032 29.4246 246.096 29.4564 246.144 29.5202C246.208 29.568 246.24 29.6318 246.24 29.7114V32.0541C246.24 32.1338 246.208 32.2055 246.144 32.2692C246.096 32.3171 246.032 32.341 245.953 32.341H241.674C241.594 32.341 241.554 32.3808 241.554 32.4605V45.8711C241.554 45.9508 241.522 46.0225 241.459 46.0862C241.411 46.134 241.347 46.1579 241.267 46.1579H238.47C238.391 46.1579 238.319 46.134 238.255 46.0862C238.208 46.0225 238.184 45.9508 238.184 45.8711V32.4605C238.184 32.3808 238.144 32.341 238.064 32.341H233.905C233.825 32.341 233.753 32.3171 233.69 32.2692C233.642 32.2055 233.618 32.1338 233.618 32.0541V29.7114C233.618 29.6318 233.642 29.568 233.69 29.5202C233.753 29.4564 233.825 29.4246 233.905 29.4246H245.953Z" fill="white"/>
<path d="M252.908 46.134C252.828 46.134 252.757 46.1101 252.693 46.0623C252.645 45.9986 252.621 45.9269 252.621 45.8472V39.7993C252.621 39.7355 252.613 39.6877 252.597 39.6558L247.673 29.7592C247.641 29.6955 247.625 29.6477 247.625 29.6158C247.625 29.4883 247.713 29.4246 247.888 29.4246H250.9C251.059 29.4246 251.171 29.4963 251.235 29.6397L254.223 35.9984C254.271 36.094 254.318 36.094 254.366 35.9984L257.354 29.6397C257.418 29.4963 257.53 29.4246 257.689 29.4246H260.749C260.86 29.4246 260.932 29.4564 260.964 29.5202C261.012 29.568 261.012 29.6477 260.964 29.7592L255.992 39.6558C255.976 39.6877 255.968 39.7355 255.968 39.7993V45.8472C255.968 45.9269 255.936 45.9986 255.872 46.0623C255.824 46.1101 255.761 46.134 255.681 46.134H252.908Z" fill="white"/>
<path d="M7.28613 57.9026C8.33794 57.9026 9.26226 58.1177 10.0591 58.548C10.8559 58.9783 11.4695 59.5918 11.8998 60.3887C12.346 61.1696 12.5691 62.07 12.5691 63.0899C12.5691 64.0939 12.338 64.9784 11.8759 65.7433C11.4296 66.5083 10.7922 67.1059 9.96347 67.5362C9.1507 67.9506 8.21045 68.1577 7.1427 68.1577H3.74821C3.66853 68.1577 3.62869 68.1976 3.62869 68.2773V74.373C3.62869 74.4527 3.59682 74.5244 3.53307 74.5881C3.48526 74.6359 3.42152 74.6598 3.34183 74.6598H0.54497C0.465287 74.6598 0.393573 74.6359 0.329827 74.5881C0.282017 74.5244 0.258112 74.4527 0.258112 74.373V58.1894C0.258112 58.1097 0.282017 58.046 0.329827 57.9982C0.393573 57.9344 0.465287 57.9026 0.54497 57.9026H7.28613ZM6.78413 65.4565C7.51721 65.4565 8.10686 65.2493 8.55308 64.835C8.99931 64.4047 9.22242 63.8469 9.22242 63.1616C9.22242 62.4604 8.99931 61.8947 8.55308 61.4644C8.10686 61.0341 7.51721 60.8189 6.78413 60.8189H3.74821C3.66853 60.8189 3.62869 60.8588 3.62869 60.9385V65.337C3.62869 65.4166 3.66853 65.4565 3.74821 65.4565H6.78413Z" fill="white"/>
<path d="M23.8206 74.6598C23.6612 74.6598 23.5497 74.5881 23.4859 74.4447L20.4978 67.8231C20.466 67.7593 20.4181 67.7274 20.3544 67.7274H18.1313C18.0516 67.7274 18.0117 67.7673 18.0117 67.847V74.373C18.0117 74.4527 17.9799 74.5244 17.9161 74.5881C17.8683 74.6359 17.8046 74.6598 17.7249 74.6598H14.928C14.8483 74.6598 14.7766 74.6359 14.7129 74.5881C14.6651 74.5244 14.6412 74.4527 14.6412 74.373V58.2133C14.6412 58.1336 14.6651 58.0699 14.7129 58.0221C14.7766 57.9583 14.8483 57.9265 14.928 57.9265H21.7648C22.7847 57.9265 23.6772 58.1336 24.4421 58.548C25.223 58.9623 25.8206 59.552 26.235 60.3169C26.6653 61.0819 26.8804 61.9664 26.8804 62.9704C26.8804 64.0541 26.6095 64.9864 26.0677 65.7672C25.5258 66.5322 24.7688 67.074 23.7967 67.3928C23.717 67.4246 23.6931 67.4804 23.725 67.5601L26.976 74.3252C27.0079 74.3889 27.0238 74.4367 27.0238 74.4686C27.0238 74.5961 26.9362 74.6598 26.7609 74.6598H23.8206ZM18.1313 60.8189C18.0516 60.8189 18.0117 60.8588 18.0117 60.9385V65.0262C18.0117 65.1059 18.0516 65.1457 18.1313 65.1457H21.2628C21.9321 65.1457 22.474 64.9465 22.8883 64.5481C23.3186 64.1497 23.5337 63.6318 23.5337 62.9943C23.5337 62.3568 23.3186 61.8389 22.8883 61.4405C22.474 61.0261 21.9321 60.8189 21.2628 60.8189H18.1313Z" fill="white"/>
<path d="M35.2772 74.9228C34.0341 74.9228 32.9345 74.6678 31.9783 74.1578C31.038 73.6479 30.305 72.9387 29.7791 72.0303C29.2532 71.106 28.9902 70.0462 28.9902 68.851V63.7353C28.9902 62.556 29.2532 61.5122 29.7791 60.6038C30.305 59.6954 31.038 58.9942 31.9783 58.5002C32.9345 57.9902 34.0341 57.7352 35.2772 57.7352C36.5362 57.7352 37.6358 57.9902 38.576 58.5002C39.5322 58.9942 40.2733 59.6954 40.7992 60.6038C41.3251 61.5122 41.588 62.556 41.588 63.7353V68.851C41.588 70.0462 41.3251 71.106 40.7992 72.0303C40.2733 72.9546 39.5322 73.6718 38.576 74.1817C37.6358 74.6758 36.5362 74.9228 35.2772 74.9228ZM35.2772 72.0303C36.1537 72.0303 36.8629 71.7514 37.4047 71.1936C37.9465 70.6359 38.2175 69.8948 38.2175 68.9705V63.7114C38.2175 62.7871 37.9465 62.0461 37.4047 61.4883C36.8788 60.9146 36.1696 60.6277 35.2772 60.6277C34.4007 60.6277 33.6915 60.9146 33.1496 61.4883C32.6237 62.0461 32.3608 62.7871 32.3608 63.7114V68.9705C32.3608 69.8948 32.6237 70.6359 33.1496 71.1936C33.6915 71.7514 34.4007 72.0303 35.2772 72.0303Z" fill="white"/>
<path d="M49.3549 74.8511C48.1437 74.8511 47.0839 74.628 46.1755 74.1817C45.2831 73.7196 44.5898 73.0821 44.0958 72.2694C43.6018 71.4407 43.3548 70.4845 43.3548 69.4008V67.8948C43.3548 67.8151 43.3787 67.7513 43.4265 67.7035C43.4902 67.6398 43.5619 67.6079 43.6416 67.6079H46.4385C46.5182 67.6079 46.5819 67.6398 46.6297 67.7035C46.6935 67.7513 46.7253 67.8151 46.7253 67.8948V69.4008C46.7253 70.1657 46.9564 70.7873 47.4186 71.2654C47.8967 71.7275 48.5421 71.9586 49.3549 71.9586C50.1358 71.9586 50.7732 71.7275 51.2672 71.2654C51.7772 70.7873 52.0322 70.1657 52.0322 69.4008V58.2133C52.0322 58.1336 52.0561 58.0699 52.1039 58.0221C52.1677 57.9583 52.2394 57.9265 52.3191 57.9265H55.092C55.1717 57.9265 55.2354 57.9583 55.2833 58.0221C55.347 58.0699 55.3789 58.1336 55.3789 58.2133V69.4008C55.3789 70.4845 55.1239 71.4407 54.6139 72.2694C54.104 73.0821 53.3948 73.7196 52.4864 74.1817C51.578 74.628 50.5342 74.8511 49.3549 74.8511Z" fill="white"/>
<path d="M69.9132 60.5321C69.9132 60.6118 69.8813 60.6835 69.8176 60.7472C69.7698 60.795 69.706 60.8189 69.6263 60.8189H61.7856C61.7059 60.8189 61.666 60.8588 61.666 60.9385V64.6437C61.666 64.7234 61.7059 64.7632 61.7856 64.7632H66.9251C67.0048 64.7632 67.0685 64.7951 67.1163 64.8589C67.1801 64.9067 67.2119 64.9704 67.2119 65.0501V67.3689C67.2119 67.4485 67.1801 67.5203 67.1163 67.584C67.0685 67.6318 67.0048 67.6557 66.9251 67.6557H61.7856C61.7059 67.6557 61.666 67.6956 61.666 67.7753V71.6478C61.666 71.7275 61.7059 71.7674 61.7856 71.7674H69.6263C69.706 71.7674 69.7698 71.7992 69.8176 71.863C69.8813 71.9108 69.9132 71.9745 69.9132 72.0542V74.373C69.9132 74.4527 69.8813 74.5244 69.8176 74.5881C69.7698 74.6359 69.706 74.6598 69.6263 74.6598H58.5823C58.5026 74.6598 58.4309 74.6359 58.3672 74.5881C58.3194 74.5244 58.2954 74.4527 58.2954 74.373V58.2133C58.2954 58.1336 58.3194 58.0699 58.3672 58.0221C58.4309 57.9583 58.5026 57.9265 58.5823 57.9265H69.6263C69.706 57.9265 69.7698 57.9583 69.8176 58.0221C69.8813 58.0699 69.9132 58.1336 69.9132 58.2133V60.5321Z" fill="white"/>
<path d="M78.1361 74.8511C76.893 74.8511 75.8014 74.612 74.8611 74.1339C73.9208 73.6399 73.1957 72.9546 72.6858 72.0781C72.1758 71.2016 71.9208 70.1896 71.9208 69.0422V63.5202C71.9208 62.3728 72.1758 61.3608 72.6858 60.4843C73.1957 59.6078 73.9208 58.9305 74.8611 58.4524C75.8014 57.9743 76.893 57.7352 78.1361 57.7352C79.3632 57.7352 80.4389 57.9663 81.3632 58.4285C82.3035 58.8747 83.0286 59.5201 83.5386 60.3648C84.0645 61.1935 84.3274 62.1576 84.3274 63.2572C84.3274 63.4007 84.2318 63.4883 84.0406 63.5202L81.2437 63.6875H81.1959C81.0365 63.6875 80.9568 63.5999 80.9568 63.4246C80.9568 62.5799 80.6939 61.9026 80.168 61.3927C79.658 60.8827 78.9807 60.6277 78.1361 60.6277C77.2755 60.6277 76.5823 60.8827 76.0563 61.3927C75.5464 61.9026 75.2914 62.5799 75.2914 63.4246V69.1856C75.2914 70.0143 75.5464 70.6837 76.0563 71.1936C76.5823 71.7036 77.2755 71.9586 78.1361 71.9586C78.9807 71.9586 79.658 71.7036 80.168 71.1936C80.6939 70.6837 80.9568 70.0143 80.9568 69.1856C80.9568 69.0103 81.0525 68.9227 81.2437 68.9227L84.0406 69.0422C84.1202 69.0422 84.184 69.0661 84.2318 69.1139C84.2955 69.1617 84.3274 69.2175 84.3274 69.2813C84.3274 70.3809 84.0645 71.353 83.5386 72.1976C83.0286 73.0423 82.3035 73.6957 81.3632 74.1578C80.4389 74.62 79.3632 74.8511 78.1361 74.8511Z" fill="white"/>
<path d="M98.1584 57.9265C98.2381 57.9265 98.3018 57.9583 98.3496 58.0221C98.4134 58.0699 98.4453 58.1336 98.4453 58.2133V60.556C98.4453 60.6357 98.4134 60.7074 98.3496 60.7711C98.3018 60.819 98.2381 60.8429 98.1584 60.8429H93.8794C93.7998 60.8429 93.7599 60.8827 93.7599 60.9624V74.373C93.7599 74.4527 93.728 74.5244 93.6643 74.5881C93.6165 74.6359 93.5527 74.6598 93.4731 74.6598H90.6762C90.5965 74.6598 90.5248 74.6359 90.4611 74.5881C90.4132 74.5244 90.3893 74.4527 90.3893 74.373V60.9624C90.3893 60.8827 90.3495 60.8429 90.2698 60.8429H86.1104C86.0307 60.8429 85.959 60.819 85.8952 60.7711C85.8474 60.7074 85.8235 60.6357 85.8235 60.556V58.2133C85.8235 58.1336 85.8474 58.0699 85.8952 58.0221C85.959 57.9583 86.0307 57.9265 86.1104 57.9265H98.1584Z" fill="white"/>
</svg>
