<svg width="261" height="75" viewBox="0 0 261 75" fill="none" xmlns="http://www.w3.org/2000/svg">
<path d="M6.25822 17.8472C5.01517 17.8472 3.92352 17.6081 2.98326 17.13C2.043 16.636 1.31789 15.9507 0.807923 15.0742C0.297953 14.1977 0.0429688 13.1857 0.0429688 12.0383V6.51629C0.0429688 5.36886 0.297953 4.35689 0.807923 3.48038C1.31789 2.60387 2.043 1.92656 2.98326 1.44847C3.92352 0.970371 5.01517 0.731323 6.25822 0.731323C7.48533 0.731323 8.56105 0.962403 9.48537 1.42456C10.4256 1.87079 11.1507 2.51622 11.6607 3.36085C12.1866 4.18955 12.4496 5.15371 12.4496 6.25333C12.4496 6.39676 12.3539 6.48441 12.1627 6.51629L9.36585 6.68362H9.31804C9.15867 6.68362 9.07899 6.59597 9.07899 6.42067C9.07899 5.57603 8.81603 4.89873 8.29013 4.38876C7.78016 3.87879 7.10286 3.62381 6.25822 3.62381C5.39765 3.62381 4.70441 3.87879 4.1785 4.38876C3.66853 4.89873 3.41355 5.57603 3.41355 6.42067V12.1817C3.41355 13.0104 3.66853 13.6798 4.1785 14.1897C4.70441 14.6997 5.39765 14.9547 6.25822 14.9547C7.10286 14.9547 7.78016 14.6997 8.29013 14.1897C8.81603 13.6798 9.07899 13.0104 9.07899 12.1817C9.07899 12.0064 9.17461 11.9188 9.36585 11.9188L12.1627 12.0383C12.2424 12.0383 12.3061 12.0622 12.3539 12.11C12.4177 12.1578 12.4496 12.2136 12.4496 12.2773C12.4496 13.377 12.1866 14.3491 11.6607 15.1937C11.1507 16.0384 10.4256 16.6918 9.48537 17.1539C8.56105 17.6161 7.48533 17.8472 6.25822 17.8472Z" fill="white"/>
<path d="M24.1007 17.6559C23.9414 17.6559 23.8298 17.5842 23.7661 17.4408L20.778 10.8192C20.7461 10.7554 20.6983 10.7235 20.6345 10.7235H18.4114C18.3317 10.7235 18.2919 10.7634 18.2919 10.8431V17.3691C18.2919 17.4488 18.26 17.5205 18.1962 17.5842C18.1484 17.632 18.0847 17.6559 18.005 17.6559H15.2081C15.1285 17.6559 15.0567 17.632 14.993 17.5842C14.9452 17.5205 14.9213 17.4488 14.9213 17.3691V1.20942C14.9213 1.12974 14.9452 1.06599 14.993 1.01818C15.0567 0.954434 15.1285 0.922561 15.2081 0.922561H22.0449C23.0649 0.922561 23.9573 1.12974 24.7223 1.54409C25.5031 1.95844 26.1008 2.54809 26.5151 3.31304C26.9454 4.078 27.1606 4.96247 27.1606 5.96648C27.1606 7.05016 26.8896 7.98245 26.3478 8.76334C25.8059 9.52829 25.049 10.0701 24.0768 10.3889C23.9971 10.4207 23.9732 10.4765 24.0051 10.5562L27.2562 17.3213C27.288 17.385 27.304 17.4328 27.304 17.4647C27.304 17.5922 27.2163 17.6559 27.041 17.6559H24.1007ZM18.4114 3.81504C18.3317 3.81504 18.2919 3.85488 18.2919 3.93457V8.02229C18.2919 8.10197 18.3317 8.14181 18.4114 8.14181H21.5429C22.2123 8.14181 22.7541 7.94261 23.1684 7.54419C23.5987 7.14578 23.8139 6.62784 23.8139 5.99038C23.8139 5.35292 23.5987 4.83498 23.1684 4.43657C22.7541 4.02222 22.2123 3.81504 21.5429 3.81504H18.4114Z" fill="white"/>
<path d="M29.8919 17.6559C29.8122 17.6559 29.7405 17.632 29.6767 17.5842C29.6289 17.5205 29.605 17.4488 29.605 17.3691V1.20942C29.605 1.12974 29.6289 1.06599 29.6767 1.01818C29.7405 0.954434 29.8122 0.922561 29.8919 0.922561H32.6887C32.7684 0.922561 32.8322 0.954434 32.88 1.01818C32.9437 1.06599 32.9756 1.12974 32.9756 1.20942V17.3691C32.9756 17.4488 32.9437 17.5205 32.88 17.5842C32.8322 17.632 32.7684 17.6559 32.6887 17.6559H29.8919Z" fill="white"/>
<path d="M46.6418 1.1138C46.7215 0.986307 46.8331 0.922561 46.9765 0.922561H49.7734C49.8531 0.922561 49.9168 0.954434 49.9646 1.01818C50.0284 1.06599 50.0602 1.12974 50.0602 1.20942V17.3691C50.0602 17.4488 50.0284 17.5205 49.9646 17.5842C49.9168 17.632 49.8531 17.6559 49.7734 17.6559H46.9765C46.8968 17.6559 46.8251 17.632 46.7614 17.5842C46.7136 17.5205 46.6897 17.4488 46.6897 17.3691V6.82705C46.6897 6.7633 46.6737 6.73143 46.6418 6.73143C46.61 6.73143 46.5781 6.75534 46.5462 6.80315L44.0123 10.7713C43.9326 10.8988 43.8211 10.9626 43.6777 10.9626H42.2673C42.1238 10.9626 42.0123 10.8988 41.9326 10.7713L39.3987 6.80315C39.3668 6.75534 39.3349 6.7394 39.3031 6.75534C39.2712 6.75534 39.2553 6.78721 39.2553 6.85096V17.3691C39.2553 17.4488 39.2234 17.5205 39.1596 17.5842C39.1118 17.632 39.0481 17.6559 38.9684 17.6559H36.1715C36.0919 17.6559 36.0201 17.632 35.9564 17.5842C35.9086 17.5205 35.8847 17.4488 35.8847 17.3691V1.20942C35.8847 1.12974 35.9086 1.06599 35.9564 1.01818C36.0201 0.954434 36.0919 0.922561 36.1715 0.922561H38.9684C39.1118 0.922561 39.2234 0.986307 39.3031 1.1138L42.8888 6.68362C42.9366 6.77924 42.9844 6.77924 43.0322 6.68362L46.6418 1.1138Z" fill="white"/>
<path d="M53.2597 17.6559C53.1801 17.6559 53.1084 17.632 53.0446 17.5842C52.9968 17.5205 52.9729 17.4488 52.9729 17.3691V1.20942C52.9729 1.12974 52.9968 1.06599 53.0446 1.01818C53.1084 0.954434 53.1801 0.922561 53.2597 0.922561H56.0566C56.1363 0.922561 56.2 0.954434 56.2478 1.01818C56.3116 1.06599 56.3435 1.12974 56.3435 1.20942V17.3691C56.3435 17.4488 56.3116 17.5205 56.2478 17.5842C56.2 17.632 56.1363 17.6559 56.0566 17.6559H53.2597Z" fill="white"/>
<path d="M68.8623 1.20942C68.8623 1.12974 68.8862 1.06599 68.934 1.01818C68.9978 0.954434 69.0695 0.922561 69.1492 0.922561H71.946C72.0257 0.922561 72.0895 0.954434 72.1373 1.01818C72.201 1.06599 72.2329 1.12974 72.2329 1.20942V17.3691C72.2329 17.4488 72.201 17.5205 72.1373 17.5842C72.0895 17.632 72.0257 17.6559 71.946 17.6559H69.2448C69.0854 17.6559 68.9739 17.5922 68.9101 17.4647L62.7188 7.23343C62.6869 7.18562 62.655 7.16969 62.6231 7.18562C62.5913 7.18562 62.5753 7.2175 62.5753 7.28124L62.6231 17.3691C62.6231 17.4488 62.5913 17.5205 62.5275 17.5842C62.4797 17.632 62.416 17.6559 62.3363 17.6559H59.5394C59.4598 17.6559 59.388 17.632 59.3243 17.5842C59.2765 17.5205 59.2526 17.4488 59.2526 17.3691V1.20942C59.2526 1.12974 59.2765 1.06599 59.3243 1.01818C59.388 0.954434 59.4598 0.922561 59.5394 0.922561H62.2407C62.4 0.922561 62.5116 0.986307 62.5753 1.1138L68.7428 11.2973C68.7747 11.3451 68.8065 11.369 68.8384 11.369C68.8703 11.353 68.8862 11.3132 68.8862 11.2494L68.8623 1.20942Z" fill="white"/>
<path d="M85.7878 17.6559C85.6285 17.6559 85.5249 17.5762 85.4771 17.4169L84.7599 15.0742C84.7281 15.0105 84.6882 14.9786 84.6404 14.9786H78.7598C78.712 14.9786 78.6722 15.0105 78.6403 15.0742L77.9471 17.4169C77.8993 17.5762 77.7957 17.6559 77.6363 17.6559H74.6004C74.5048 17.6559 74.4331 17.632 74.3852 17.5842C74.3374 17.5205 74.3295 17.4328 74.3613 17.3213L79.5248 1.16161C79.5726 1.00224 79.6762 0.922561 79.8355 0.922561H83.5886C83.748 0.922561 83.8516 1.00224 83.8994 1.16161L89.0628 17.3213C89.0787 17.3531 89.0867 17.393 89.0867 17.4408C89.0867 17.5842 88.9991 17.6559 88.8238 17.6559H85.7878ZM79.5009 12.2295C79.4849 12.3252 79.5168 12.373 79.5965 12.373H83.8037C83.8994 12.373 83.9312 12.3252 83.8994 12.2295L81.7479 5.12981C81.732 5.06606 81.7081 5.04216 81.6762 5.05809C81.6443 5.05809 81.6204 5.082 81.6045 5.12981L79.5009 12.2295Z" fill="white"/>
<path d="M91.4748 17.6559C91.3951 17.6559 91.3234 17.632 91.2596 17.5842C91.2118 17.5205 91.1879 17.4488 91.1879 17.3691V1.20942C91.1879 1.12974 91.2118 1.06599 91.2596 1.01818C91.3234 0.954434 91.3951 0.922561 91.4748 0.922561H94.2716C94.3513 0.922561 94.4151 0.954434 94.4629 1.01818C94.5266 1.06599 94.5585 1.12974 94.5585 1.20942V14.6439C94.5585 14.7236 94.5983 14.7634 94.678 14.7634H102.495C102.575 14.7634 102.638 14.7953 102.686 14.8591C102.75 14.9069 102.782 14.9706 102.782 15.0503V17.3691C102.782 17.4488 102.75 17.5205 102.686 17.5842C102.638 17.632 102.575 17.6559 102.495 17.6559H91.4748Z" fill="white"/>
<path d="M114.65 17.8472C113.438 17.8472 112.379 17.6241 111.47 17.1778C110.578 16.7157 109.885 16.0782 109.39 15.2654C108.896 14.4367 108.649 13.4806 108.649 12.3969V10.8909C108.649 10.8112 108.673 10.7474 108.721 10.6996C108.785 10.6359 108.857 10.604 108.936 10.604H111.733C111.813 10.604 111.877 10.6359 111.924 10.6996C111.988 10.7474 112.02 10.8112 112.02 10.8909V12.3969C112.02 13.1618 112.251 13.7834 112.713 14.2614C113.191 14.7236 113.837 14.9547 114.65 14.9547C115.43 14.9547 116.068 14.7236 116.562 14.2614C117.072 13.7834 117.327 13.1618 117.327 12.3969V1.20942C117.327 1.12974 117.351 1.06599 117.399 1.01818C117.462 0.954434 117.534 0.922561 117.614 0.922561H120.387C120.466 0.922561 120.53 0.954434 120.578 1.01818C120.642 1.06599 120.674 1.12974 120.674 1.20942V12.3969C120.674 13.4806 120.419 14.4367 119.909 15.2654C119.399 16.0782 118.689 16.7157 117.781 17.1778C116.873 17.6241 115.829 17.8472 114.65 17.8472Z" fill="white"/>
<path d="M129.662 17.8472C128.435 17.8472 127.351 17.6081 126.411 17.13C125.487 16.6519 124.761 15.9826 124.236 15.122C123.726 14.2455 123.471 13.2415 123.471 12.11V1.20942C123.471 1.12974 123.495 1.06599 123.542 1.01818C123.606 0.954434 123.678 0.922561 123.757 0.922561H126.554C126.634 0.922561 126.698 0.954434 126.746 1.01818C126.809 1.06599 126.841 1.12974 126.841 1.20942V12.1339C126.841 12.9786 127.096 13.6638 127.606 14.1897C128.132 14.6997 128.817 14.9547 129.662 14.9547C130.507 14.9547 131.184 14.6997 131.694 14.1897C132.22 13.6638 132.483 12.9786 132.483 12.1339V1.20942C132.483 1.12974 132.507 1.06599 132.554 1.01818C132.618 0.954434 132.69 0.922561 132.77 0.922561H135.566C135.646 0.922561 135.71 0.954434 135.758 1.01818C135.821 1.06599 135.853 1.12974 135.853 1.20942V12.11C135.853 13.2415 135.59 14.2455 135.064 15.122C134.554 15.9826 133.829 16.6519 132.889 17.13C131.965 17.6081 130.889 17.8472 129.662 17.8472Z" fill="white"/>
<path d="M144.361 17.8472C143.086 17.8472 141.971 17.648 141.014 17.2495C140.058 16.8352 139.317 16.2535 138.791 15.5045C138.281 14.7395 138.026 13.8551 138.026 12.8511V12.3252C138.026 12.2455 138.05 12.1817 138.098 12.1339C138.162 12.0702 138.234 12.0383 138.313 12.0383H141.038C141.118 12.0383 141.182 12.0702 141.23 12.1339C141.293 12.1817 141.325 12.2455 141.325 12.3252V12.6837C141.325 13.3212 141.62 13.863 142.21 14.3093C142.799 14.7395 143.596 14.9547 144.6 14.9547C145.445 14.9547 146.074 14.7794 146.489 14.4288C146.903 14.0622 147.11 13.616 147.11 13.0901C147.11 12.7076 146.983 12.3889 146.728 12.1339C146.473 11.863 146.122 11.6319 145.676 11.4407C145.246 11.2335 144.552 10.9546 143.596 10.604C142.528 10.2375 141.62 9.86296 140.871 9.48048C140.138 9.09801 139.516 8.58007 139.007 7.92667C138.512 7.25734 138.265 6.4366 138.265 5.46448C138.265 4.50828 138.512 3.67161 139.007 2.95447C139.501 2.23733 140.186 1.68752 141.062 1.30504C141.939 0.922562 142.951 0.731323 144.098 0.731323C145.309 0.731323 146.385 0.946466 147.325 1.37675C148.282 1.80704 149.023 2.41263 149.549 3.19352C150.09 3.95847 150.361 4.85092 150.361 5.87086V6.22943C150.361 6.30911 150.329 6.38083 150.266 6.44457C150.218 6.49238 150.154 6.51629 150.074 6.51629H147.325C147.246 6.51629 147.174 6.49238 147.11 6.44457C147.062 6.38083 147.039 6.30911 147.039 6.22943V6.03819C147.039 5.36886 146.76 4.80311 146.202 4.34095C145.66 3.86285 144.911 3.62381 143.955 3.62381C143.206 3.62381 142.616 3.78317 142.186 4.1019C141.771 4.42063 141.564 4.85889 141.564 5.41667C141.564 5.81508 141.684 6.14975 141.923 6.42067C142.178 6.69159 142.544 6.93861 143.022 7.16172C143.517 7.36889 144.274 7.65575 145.293 8.02229C146.425 8.43664 147.309 8.80318 147.947 9.12191C148.6 9.44064 149.182 9.91874 149.692 10.5562C150.218 11.1777 150.481 11.9905 150.481 12.9945C150.481 14.4925 149.931 15.6798 148.831 16.5563C147.732 17.4169 146.242 17.8472 144.361 17.8472Z" fill="white"/>
<path d="M164.2 0.922561C164.28 0.922561 164.344 0.954434 164.391 1.01818C164.455 1.06599 164.487 1.12974 164.487 1.20942V3.55209C164.487 3.63177 164.455 3.70349 164.391 3.76723C164.344 3.81504 164.28 3.83895 164.2 3.83895H159.921C159.841 3.83895 159.802 3.87879 159.802 3.95847V17.3691C159.802 17.4488 159.77 17.5205 159.706 17.5842C159.658 17.632 159.594 17.6559 159.515 17.6559H156.718C156.638 17.6559 156.567 17.632 156.503 17.5842C156.455 17.5205 156.431 17.4488 156.431 17.3691V3.95847C156.431 3.87879 156.391 3.83895 156.312 3.83895H152.152C152.072 3.83895 152.001 3.81504 151.937 3.76723C151.889 3.70349 151.865 3.63177 151.865 3.55209V1.20942C151.865 1.12974 151.889 1.06599 151.937 1.01818C152.001 0.954434 152.072 0.922561 152.152 0.922561H164.2Z" fill="white"/>
<path d="M166.924 17.6559C166.845 17.6559 166.773 17.632 166.709 17.5842C166.661 17.5205 166.637 17.4488 166.637 17.3691V1.20942C166.637 1.12974 166.661 1.06599 166.709 1.01818C166.773 0.954434 166.845 0.922561 166.924 0.922561H169.721C169.801 0.922561 169.865 0.954434 169.912 1.01818C169.976 1.06599 170.008 1.12974 170.008 1.20942V17.3691C170.008 17.4488 169.976 17.5205 169.912 17.5842C169.865 17.632 169.801 17.6559 169.721 17.6559H166.924Z" fill="white"/>
<path d="M178.798 17.8472C177.555 17.8472 176.463 17.6081 175.523 17.13C174.583 16.636 173.857 15.9507 173.347 15.0742C172.837 14.1977 172.582 13.1857 172.582 12.0383V6.51629C172.582 5.36886 172.837 4.35689 173.347 3.48038C173.857 2.60387 174.583 1.92656 175.523 1.44847C176.463 0.970371 177.555 0.731323 178.798 0.731323C180.025 0.731323 181.101 0.962403 182.025 1.42456C182.965 1.87079 183.69 2.51622 184.2 3.36085C184.726 4.18955 184.989 5.15371 184.989 6.25333C184.989 6.39676 184.893 6.48441 184.702 6.51629L181.905 6.68362H181.858C181.698 6.68362 181.618 6.59597 181.618 6.42067C181.618 5.57603 181.356 4.89873 180.83 4.38876C180.32 3.87879 179.642 3.62381 178.798 3.62381C177.937 3.62381 177.244 3.87879 176.718 4.38876C176.208 4.89873 175.953 5.57603 175.953 6.42067V12.1817C175.953 13.0104 176.208 13.6798 176.718 14.1897C177.244 14.6997 177.937 14.9547 178.798 14.9547C179.642 14.9547 180.32 14.6997 180.83 14.1897C181.356 13.6798 181.618 13.0104 181.618 12.1817C181.618 12.0064 181.714 11.9188 181.905 11.9188L184.702 12.0383C184.782 12.0383 184.846 12.0622 184.893 12.11C184.957 12.1578 184.989 12.2136 184.989 12.2773C184.989 13.377 184.726 14.3491 184.2 15.1937C183.69 16.0384 182.965 16.6918 182.025 17.1539C181.101 17.6161 180.025 17.8472 178.798 17.8472Z" fill="white"/>
<path d="M199.079 3.52819C199.079 3.60787 199.047 3.67958 198.983 3.74333C198.935 3.79114 198.871 3.81504 198.792 3.81504H190.951C190.871 3.81504 190.831 3.85488 190.831 3.93457V7.63981C190.831 7.7195 190.871 7.75934 190.951 7.75934H196.09C196.17 7.75934 196.234 7.79121 196.282 7.85496C196.345 7.90277 196.377 7.96651 196.377 8.0462V10.365C196.377 10.4446 196.345 10.5164 196.282 10.5801C196.234 10.6279 196.17 10.6518 196.09 10.6518H190.951C190.871 10.6518 190.831 10.6917 190.831 10.7713V14.6439C190.831 14.7236 190.871 14.7634 190.951 14.7634H198.792C198.871 14.7634 198.935 14.7953 198.983 14.8591C199.047 14.9069 199.079 14.9706 199.079 15.0503V17.3691C199.079 17.4488 199.047 17.5205 198.983 17.5842C198.935 17.632 198.871 17.6559 198.792 17.6559H187.748C187.668 17.6559 187.596 17.632 187.533 17.5842C187.485 17.5205 187.461 17.4488 187.461 17.3691V1.20942C187.461 1.12974 187.485 1.06599 187.533 1.01818C187.596 0.954434 187.668 0.922561 187.748 0.922561H198.792C198.871 0.922561 198.935 0.954434 198.983 1.01818C199.047 1.06599 199.079 1.12974 199.079 1.20942V3.52819Z" fill="white"/>
<path d="M220.382 17.2974C220.446 17.393 220.478 17.4567 220.478 17.4886C220.478 17.6002 220.39 17.6559 220.215 17.6559H217.083C216.94 17.6559 216.82 17.6002 216.725 17.4886L215.792 16.4846C215.76 16.4368 215.705 16.4288 215.625 16.4607C214.143 17.385 212.549 17.8472 210.844 17.8472C209.346 17.8472 208.095 17.4966 207.091 16.7954C206.103 16.0782 205.609 15.0264 205.609 13.6399C205.609 12.5722 205.896 11.6718 206.469 10.9387C207.043 10.2056 207.824 9.54423 208.812 8.95458C208.908 8.89083 208.916 8.83505 208.836 8.78724C208.039 7.81512 207.513 7.0661 207.258 6.54019C207.003 5.99835 206.876 5.42463 206.876 4.81905C206.876 4.07003 207.075 3.38476 207.473 2.76323C207.888 2.12577 208.461 1.63174 209.195 1.28113C209.944 0.914593 210.796 0.731323 211.752 0.731323C212.725 0.731323 213.593 0.914593 214.358 1.28113C215.139 1.64767 215.744 2.16561 216.175 2.83495C216.605 3.48834 216.82 4.23736 216.82 5.082C216.82 6.07006 216.541 6.93064 215.984 7.66372C215.442 8.38086 214.701 9.03426 213.76 9.62391C213.681 9.67172 213.673 9.7275 213.736 9.79125L215.864 12.2056C215.928 12.2694 215.992 12.2694 216.055 12.2056C216.661 11.5363 217.155 10.8988 217.537 10.2932C217.633 10.1179 217.76 10.0861 217.92 10.1976L220 11.369C220.175 11.4646 220.215 11.5921 220.119 11.7514C219.45 12.8033 218.749 13.7196 218.015 14.5005C217.968 14.5483 217.984 14.62 218.063 14.7156L220.382 17.2974ZM211.824 3.79114C211.346 3.79114 210.964 3.91863 210.677 4.17362C210.39 4.41266 210.246 4.73936 210.246 5.15371C210.246 5.37683 210.326 5.62384 210.485 5.89476C210.645 6.16568 210.995 6.62784 211.537 7.28124C211.569 7.34499 211.625 7.36092 211.705 7.32905C212.278 6.96251 212.709 6.61191 212.995 6.27724C213.298 5.94257 213.45 5.56806 213.45 5.15371C213.45 4.73936 213.298 4.41266 212.995 4.17362C212.693 3.91863 212.302 3.79114 211.824 3.79114ZM210.964 15.0264C211.728 15.0264 212.589 14.7555 213.545 14.2136C213.641 14.1499 213.649 14.0941 213.569 14.0463L212.828 13.2096L212.278 12.612C211.928 12.2455 211.521 11.7993 211.059 11.2733C211.027 11.2255 210.971 11.2176 210.892 11.2494C210.318 11.6 209.88 11.9347 209.577 12.2534C209.274 12.5722 209.099 12.9387 209.051 13.3531C209.035 13.4009 209.027 13.4806 209.027 13.5921C209.027 14.0224 209.203 14.373 209.553 14.6439C209.92 14.8989 210.39 15.0264 210.964 15.0264Z" fill="white"/>
<path d="M7.28613 29.4005C8.33794 29.4005 9.26226 29.6157 10.0591 30.046C10.8559 30.4763 11.4695 31.0898 11.8998 31.8867C12.346 32.6675 12.5691 33.568 12.5691 34.5879C12.5691 35.5919 12.338 36.4764 11.8759 37.2413C11.4296 38.0063 10.7922 38.6039 9.96347 39.0342C9.1507 39.4485 8.21045 39.6557 7.1427 39.6557H3.74821C3.66853 39.6557 3.62869 39.6956 3.62869 39.7752V45.871C3.62869 45.9506 3.59682 46.0224 3.53307 46.0861C3.48526 46.1339 3.42152 46.1578 3.34183 46.1578H0.54497C0.465287 46.1578 0.393573 46.1339 0.329827 46.0861C0.282017 46.0224 0.258112 45.9506 0.258112 45.871V29.6874C0.258112 29.6077 0.282017 29.544 0.329827 29.4962C0.393573 29.4324 0.465287 29.4005 0.54497 29.4005H7.28613ZM6.78413 36.9545C7.51721 36.9545 8.10686 36.7473 8.55308 36.3329C8.99931 35.9027 9.22242 35.3449 9.22242 34.6596C9.22242 33.9584 8.99931 33.3927 8.55308 32.9624C8.10686 32.5321 7.51721 32.3169 6.78413 32.3169H3.74821C3.66853 32.3169 3.62869 32.3568 3.62869 32.4365V36.8349C3.62869 36.9146 3.66853 36.9545 3.74821 36.9545H6.78413Z" fill="white"/>
<path d="M20.5934 46.4208C19.3504 46.4208 18.2508 46.1658 17.2946 45.6558C16.3543 45.1459 15.6212 44.4367 15.0953 43.5283C14.5694 42.604 14.3065 41.5442 14.3065 40.349V35.2333C14.3065 34.054 14.5694 33.0102 15.0953 32.1018C15.6212 31.1934 16.3543 30.4922 17.2946 29.9982C18.2508 29.4882 19.3504 29.2332 20.5934 29.2332C21.8524 29.2332 22.9521 29.4882 23.8923 29.9982C24.8485 30.4922 25.5896 31.1934 26.1155 32.1018C26.6414 33.0102 26.9043 34.054 26.9043 35.2333V40.349C26.9043 41.5442 26.6414 42.604 26.1155 43.5283C25.5896 44.4526 24.8485 45.1698 23.8923 45.6797C22.9521 46.1738 21.8524 46.4208 20.5934 46.4208ZM20.5934 43.5283C21.47 43.5283 22.1791 43.2494 22.721 42.6916C23.2628 42.1338 23.5337 41.3928 23.5337 40.4685V35.2094C23.5337 34.2851 23.2628 33.5441 22.721 32.9863C22.1951 32.4126 21.4859 32.1257 20.5934 32.1257C19.7169 32.1257 19.0078 32.4126 18.4659 32.9863C17.94 33.5441 17.6771 34.2851 17.6771 35.2094V40.4685C17.6771 41.3928 17.94 42.1338 18.4659 42.6916C19.0078 43.2494 19.7169 43.5283 20.5934 43.5283Z" fill="white"/>
<path d="M29.7751 46.1578C29.6955 46.1578 29.6237 46.1339 29.56 46.0861C29.5122 46.0224 29.4883 45.9506 29.4883 45.871V29.7113C29.4883 29.6316 29.5122 29.5679 29.56 29.5201C29.6237 29.4563 29.6955 29.4245 29.7751 29.4245H32.572C32.6517 29.4245 32.7154 29.4563 32.7632 29.5201C32.827 29.5679 32.8589 29.6316 32.8589 29.7113V43.1458C32.8589 43.2255 32.8987 43.2653 32.9784 43.2653H40.7953C40.8749 43.2653 40.9387 43.2972 40.9865 43.361C41.0502 43.4088 41.0821 43.4725 41.0821 43.5522V45.871C41.0821 45.9506 41.0502 46.0224 40.9865 46.0861C40.9387 46.1339 40.8749 46.1578 40.7953 46.1578H29.7751Z" fill="white"/>
<path d="M43.455 46.1578C43.3754 46.1578 43.3036 46.1339 43.2399 46.0861C43.1921 46.0224 43.1682 45.9506 43.1682 45.871V29.7113C43.1682 29.6316 43.1921 29.5679 43.2399 29.5201C43.3036 29.4563 43.3754 29.4245 43.455 29.4245H46.2519C46.3316 29.4245 46.3953 29.4563 46.4431 29.5201C46.5069 29.5679 46.5388 29.6316 46.5388 29.7113V45.871C46.5388 45.9506 46.5069 46.0224 46.4431 46.0861C46.3953 46.1339 46.3316 46.1578 46.2519 46.1578H43.455Z" fill="white"/>
<path d="M55.3284 46.3491C54.0854 46.3491 52.9937 46.11 52.0535 45.6319C51.1132 45.1379 50.3881 44.4526 49.8782 43.5761C49.3682 42.6996 49.1132 41.6876 49.1132 40.5402V35.0182C49.1132 33.8708 49.3682 32.8588 49.8782 31.9823C50.3881 31.1058 51.1132 30.4285 52.0535 29.9504C52.9937 29.4723 54.0854 29.2332 55.3284 29.2332C56.5556 29.2332 57.6313 29.4643 58.5556 29.9265C59.4959 30.3727 60.221 31.0181 60.7309 31.8627C61.2568 32.6914 61.5198 33.6556 61.5198 34.7552C61.5198 34.8987 61.4242 34.9863 61.2329 35.0182L58.4361 35.1855H58.3883C58.2289 35.1855 58.1492 35.0979 58.1492 34.9226C58.1492 34.0779 57.8863 33.4006 57.3604 32.8907C56.8504 32.3807 56.1731 32.1257 55.3284 32.1257C54.4679 32.1257 53.7746 32.3807 53.2487 32.8907C52.7388 33.4006 52.4838 34.0779 52.4838 34.9226V40.6836C52.4838 41.5123 52.7388 42.1817 53.2487 42.6916C53.7746 43.2016 54.4679 43.4566 55.3284 43.4566C56.1731 43.4566 56.8504 43.2016 57.3604 42.6916C57.8863 42.1817 58.1492 41.5123 58.1492 40.6836C58.1492 40.5083 58.2448 40.4207 58.4361 40.4207L61.2329 40.5402C61.3126 40.5402 61.3764 40.5641 61.4242 40.6119C61.4879 40.6597 61.5198 40.7155 61.5198 40.7792C61.5198 41.8789 61.2568 42.851 60.7309 43.6956C60.221 44.5403 59.4959 45.1937 58.5556 45.6558C57.6313 46.118 56.5556 46.3491 55.3284 46.3491Z" fill="white"/>
<path d="M75.6093 32.0301C75.6093 32.1098 75.5774 32.1815 75.5136 32.2452C75.4658 32.293 75.4021 32.3169 75.3224 32.3169H67.4816C67.4019 32.3169 67.3621 32.3568 67.3621 32.4365V36.1417C67.3621 36.2214 67.4019 36.2612 67.4816 36.2612H72.6212C72.7008 36.2612 72.7646 36.2931 72.8124 36.3568C72.8761 36.4047 72.908 36.4684 72.908 36.5481V38.8669C72.908 38.9465 72.8761 39.0183 72.8124 39.082C72.7646 39.1298 72.7008 39.1537 72.6212 39.1537H67.4816C67.4019 39.1537 67.3621 39.1936 67.3621 39.2732V43.1458C67.3621 43.2255 67.4019 43.2653 67.4816 43.2653H75.3224C75.4021 43.2653 75.4658 43.2972 75.5136 43.361C75.5774 43.4088 75.6093 43.4725 75.6093 43.5522V45.871C75.6093 45.9506 75.5774 46.0224 75.5136 46.0861C75.4658 46.1339 75.4021 46.1578 75.3224 46.1578H64.2784C64.1987 46.1578 64.127 46.1339 64.0632 46.0861C64.0154 46.0224 63.9915 45.9506 63.9915 45.871V29.7113C63.9915 29.6316 64.0154 29.5679 64.0632 29.5201C64.127 29.4563 64.1987 29.4245 64.2784 29.4245H75.3224C75.4021 29.4245 75.4658 29.4563 75.5136 29.5201C75.5774 29.5679 75.6093 29.6316 75.6093 29.7113V32.0301Z" fill="white"/>
<path d="M93.3748 46.1578C93.2155 46.1578 93.1119 46.0781 93.0641 45.9188L92.3469 43.5761C92.315 43.5124 92.2752 43.4805 92.2274 43.4805H86.3468C86.299 43.4805 86.2592 43.5124 86.2273 43.5761L85.534 45.9188C85.4862 46.0781 85.3827 46.1578 85.2233 46.1578H82.1874C82.0918 46.1578 82.02 46.1339 81.9722 46.0861C81.9244 46.0224 81.9165 45.9347 81.9483 45.8232L87.1118 29.6635C87.1596 29.5041 87.2632 29.4245 87.4225 29.4245H91.1756C91.3349 29.4245 91.4385 29.5041 91.4863 29.6635L96.6498 45.8232C96.6657 45.855 96.6737 45.8949 96.6737 45.9427C96.6737 46.0861 96.586 46.1578 96.4107 46.1578H93.3748ZM87.0879 40.7314C87.0719 40.827 87.1038 40.8749 87.1835 40.8749H91.3907C91.4863 40.8749 91.5182 40.827 91.4863 40.7314L89.3349 33.6317C89.319 33.568 89.2951 33.5441 89.2632 33.56C89.2313 33.56 89.2074 33.5839 89.1915 33.6317L87.0879 40.7314Z" fill="white"/>
<path d="M104.142 46.3491C102.899 46.3491 101.807 46.11 100.867 45.6319C99.9267 45.1379 99.2016 44.4526 98.6916 43.5761C98.1816 42.6996 97.9266 41.6876 97.9266 40.5402V35.0182C97.9266 33.8708 98.1816 32.8588 98.6916 31.9823C99.2016 31.1058 99.9267 30.4285 100.867 29.9504C101.807 29.4723 102.899 29.2332 104.142 29.2332C105.369 29.2332 106.445 29.4643 107.369 29.9265C108.309 30.3727 109.034 31.0181 109.544 31.8627C110.07 32.6914 110.333 33.6556 110.333 34.7552C110.333 34.8987 110.238 34.9863 110.046 35.0182L107.25 35.1855H107.202C107.042 35.1855 106.963 35.0979 106.963 34.9226C106.963 34.0779 106.7 33.4006 106.174 32.8907C105.664 32.3807 104.987 32.1257 104.142 32.1257C103.281 32.1257 102.588 32.3807 102.062 32.8907C101.552 33.4006 101.297 34.0779 101.297 34.9226V40.6836C101.297 41.5123 101.552 42.1817 102.062 42.6916C102.588 43.2016 103.281 43.4566 104.142 43.4566C104.987 43.4566 105.664 43.2016 106.174 42.6916C106.7 42.1817 106.963 41.5123 106.963 40.6836C106.963 40.5083 107.058 40.4207 107.25 40.4207L110.046 40.5402C110.126 40.5402 110.19 40.5641 110.238 40.6119C110.301 40.6597 110.333 40.7155 110.333 40.7792C110.333 41.8789 110.07 42.851 109.544 43.6956C109.034 44.5403 108.309 45.1937 107.369 45.6558C106.445 46.118 105.369 46.3491 104.142 46.3491Z" fill="white"/>
<path d="M118.686 46.3491C117.442 46.3491 116.351 46.11 115.411 45.6319C114.47 45.1379 113.745 44.4526 113.235 43.5761C112.725 42.6996 112.47 41.6876 112.47 40.5402V35.0182C112.47 33.8708 112.725 32.8588 113.235 31.9823C113.745 31.1058 114.47 30.4285 115.411 29.9504C116.351 29.4723 117.442 29.2332 118.686 29.2332C119.913 29.2332 120.988 29.4643 121.913 29.9265C122.853 30.3727 123.578 31.0181 124.088 31.8627C124.614 32.6914 124.877 33.6556 124.877 34.7552C124.877 34.8987 124.781 34.9863 124.59 35.0182L121.793 35.1855H121.745C121.586 35.1855 121.506 35.0979 121.506 34.9226C121.506 34.0779 121.243 33.4006 120.717 32.8907C120.207 32.3807 119.53 32.1257 118.686 32.1257C117.825 32.1257 117.132 32.3807 116.606 32.8907C116.096 33.4006 115.841 34.0779 115.841 34.9226V40.6836C115.841 41.5123 116.096 42.1817 116.606 42.6916C117.132 43.2016 117.825 43.4566 118.686 43.4566C119.53 43.4566 120.207 43.2016 120.717 42.6916C121.243 42.1817 121.506 41.5123 121.506 40.6836C121.506 40.5083 121.602 40.4207 121.793 40.4207L124.59 40.5402C124.67 40.5402 124.733 40.5641 124.781 40.6119C124.845 40.6597 124.877 40.7155 124.877 40.7792C124.877 41.8789 124.614 42.851 124.088 43.6956C123.578 44.5403 122.853 45.1937 121.913 45.6558C120.988 46.118 119.913 46.3491 118.686 46.3491Z" fill="white"/>
<path d="M133.301 46.4208C132.058 46.4208 130.958 46.1658 130.002 45.6558C129.062 45.1459 128.329 44.4367 127.803 43.5283C127.277 42.604 127.014 41.5442 127.014 40.349V35.2333C127.014 34.054 127.277 33.0102 127.803 32.1018C128.329 31.1934 129.062 30.4922 130.002 29.9982C130.958 29.4882 132.058 29.2332 133.301 29.2332C134.56 29.2332 135.66 29.4882 136.6 29.9982C137.556 30.4922 138.297 31.1934 138.823 32.1018C139.349 33.0102 139.612 34.054 139.612 35.2333V40.349C139.612 41.5442 139.349 42.604 138.823 43.5283C138.297 44.4526 137.556 45.1698 136.6 45.6797C135.66 46.1738 134.56 46.4208 133.301 46.4208ZM133.301 43.5283C134.177 43.5283 134.887 43.2494 135.428 42.6916C135.97 42.1338 136.241 41.3928 136.241 40.4685V35.2094C136.241 34.2851 135.97 33.5441 135.428 32.9863C134.903 32.4126 134.193 32.1257 133.301 32.1257C132.424 32.1257 131.715 32.4126 131.173 32.9863C130.647 33.5441 130.385 34.2851 130.385 35.2094V40.4685C130.385 41.3928 130.647 42.1338 131.173 42.6916C131.715 43.2494 132.424 43.5283 133.301 43.5283Z" fill="white"/>
<path d="M148.268 46.3491C147.04 46.3491 145.957 46.11 145.017 45.6319C144.092 45.1538 143.367 44.4845 142.841 43.6239C142.331 42.7474 142.076 41.7434 142.076 40.6119V29.7113C142.076 29.6316 142.1 29.5679 142.148 29.5201C142.212 29.4563 142.283 29.4245 142.363 29.4245H145.16C145.24 29.4245 145.303 29.4563 145.351 29.5201C145.415 29.5679 145.447 29.6316 145.447 29.7113V40.6358C145.447 41.4804 145.702 42.1657 146.212 42.6916C146.738 43.2016 147.423 43.4566 148.268 43.4566C149.112 43.4566 149.789 43.2016 150.299 42.6916C150.825 42.1657 151.088 41.4804 151.088 40.6358V29.7113C151.088 29.6316 151.112 29.5679 151.16 29.5201C151.224 29.4563 151.296 29.4245 151.375 29.4245H154.172C154.252 29.4245 154.315 29.4563 154.363 29.5201C154.427 29.5679 154.459 29.6316 154.459 29.7113V40.6119C154.459 41.7434 154.196 42.7474 153.67 43.6239C153.16 44.4845 152.435 45.1538 151.495 45.6319C150.57 46.11 149.495 46.3491 148.268 46.3491Z" fill="white"/>
<path d="M166.839 29.7113C166.839 29.6316 166.863 29.5679 166.911 29.5201C166.975 29.4563 167.047 29.4245 167.126 29.4245H169.923C170.003 29.4245 170.067 29.4563 170.114 29.5201C170.178 29.5679 170.21 29.6316 170.21 29.7113V45.871C170.21 45.9506 170.178 46.0224 170.114 46.0861C170.067 46.1339 170.003 46.1578 169.923 46.1578H167.222C167.062 46.1578 166.951 46.0941 166.887 45.9666L160.696 35.7353C160.664 35.6875 160.632 35.6716 160.6 35.6875C160.568 35.6875 160.552 35.7194 160.552 35.7831L160.6 45.871C160.6 45.9506 160.568 46.0224 160.505 46.0861C160.457 46.1339 160.393 46.1578 160.313 46.1578H157.516C157.437 46.1578 157.365 46.1339 157.301 46.0861C157.254 46.0224 157.23 45.9506 157.23 45.871V29.7113C157.23 29.6316 157.254 29.5679 157.301 29.5201C157.365 29.4563 157.437 29.4245 157.516 29.4245H160.218C160.377 29.4245 160.489 29.4882 160.552 29.6157L166.72 39.7991C166.752 39.847 166.784 39.8709 166.815 39.8709C166.847 39.8549 166.863 39.8151 166.863 39.7513L166.839 29.7113Z" fill="white"/>
<path d="M184.673 29.4245C184.753 29.4245 184.817 29.4563 184.865 29.5201C184.928 29.5679 184.96 29.6316 184.96 29.7113V32.054C184.96 32.1337 184.928 32.2054 184.865 32.2691C184.817 32.3169 184.753 32.3408 184.673 32.3408H180.394C180.315 32.3408 180.275 32.3807 180.275 32.4604V45.871C180.275 45.9506 180.243 46.0224 180.179 46.0861C180.131 46.1339 180.068 46.1578 179.988 46.1578H177.191C177.111 46.1578 177.04 46.1339 176.976 46.0861C176.928 46.0224 176.904 45.9506 176.904 45.871V32.4604C176.904 32.3807 176.864 32.3408 176.785 32.3408H172.625C172.546 32.3408 172.474 32.3169 172.41 32.2691C172.362 32.2054 172.338 32.1337 172.338 32.054V29.7113C172.338 29.6316 172.362 29.5679 172.41 29.5201C172.474 29.4563 172.546 29.4245 172.625 29.4245H184.673Z" fill="white"/>
<path d="M196.208 46.1578C196.048 46.1578 195.945 46.0781 195.897 45.9188L195.18 43.5761C195.148 43.5124 195.108 43.4805 195.06 43.4805H189.18C189.132 43.4805 189.092 43.5124 189.06 43.5761L188.367 45.9188C188.319 46.0781 188.215 46.1578 188.056 46.1578H185.02C184.924 46.1578 184.853 46.1339 184.805 46.0861C184.757 46.0224 184.749 45.9347 184.781 45.8232L189.944 29.6635C189.992 29.5041 190.096 29.4245 190.255 29.4245H194.008C194.168 29.4245 194.271 29.5041 194.319 29.6635L199.482 45.8232C199.498 45.855 199.506 45.8949 199.506 45.9427C199.506 46.0861 199.419 46.1578 199.243 46.1578H196.208ZM189.921 40.7314C189.905 40.827 189.937 40.8749 190.016 40.8749H194.223C194.319 40.8749 194.351 40.827 194.319 40.7314L192.168 33.6317C192.152 33.568 192.128 33.5441 192.096 33.56C192.064 33.56 192.04 33.5839 192.024 33.6317L189.921 40.7314Z" fill="white"/>
<path d="M211.528 37.4326C211.432 37.4804 211.432 37.5282 211.528 37.576C213.042 38.3569 213.799 39.6557 213.799 41.4725C213.799 43.0183 213.273 44.1897 212.221 44.9865C211.17 45.7674 209.791 46.1578 208.086 46.1578H201.894C201.815 46.1578 201.743 46.1339 201.679 46.0861C201.632 46.0224 201.608 45.9506 201.608 45.871V29.7113C201.608 29.6316 201.632 29.5679 201.679 29.5201C201.743 29.4563 201.815 29.4245 201.894 29.4245H207.895C211.672 29.4245 213.56 30.9544 213.56 34.0142C213.56 35.6078 212.883 36.7473 211.528 37.4326ZM205.098 32.3169C205.018 32.3169 204.978 32.3568 204.978 32.4365V36.1656C204.978 36.2453 205.018 36.2851 205.098 36.2851H207.895C208.644 36.2851 209.225 36.1098 209.64 35.7592C210.054 35.4086 210.261 34.9305 210.261 34.3249C210.261 33.7034 210.054 33.2174 209.64 32.8667C209.225 32.5002 208.644 32.3169 207.895 32.3169H205.098ZM208.086 43.2414C208.819 43.2414 209.393 43.0582 209.807 42.6916C210.221 42.3092 210.428 41.7912 210.428 41.1378C210.428 40.4844 210.221 39.9744 209.807 39.6079C209.393 39.2254 208.811 39.0342 208.062 39.0342H205.098C205.018 39.0342 204.978 39.074 204.978 39.1537V43.1219C204.978 43.2016 205.018 43.2414 205.098 43.2414H208.086Z" fill="white"/>
<path d="M216.718 46.1578C216.639 46.1578 216.567 46.1339 216.503 46.0861C216.455 46.0224 216.431 45.9506 216.431 45.871V29.7113C216.431 29.6316 216.455 29.5679 216.503 29.5201C216.567 29.4563 216.639 29.4245 216.718 29.4245H219.515C219.595 29.4245 219.659 29.4563 219.706 29.5201C219.77 29.5679 219.802 29.6316 219.802 29.7113V45.871C219.802 45.9506 219.77 46.0224 219.706 46.0861C219.659 46.1339 219.595 46.1578 219.515 46.1578H216.718Z" fill="white"/>
<path d="M222.998 46.1578C222.918 46.1578 222.847 46.1339 222.783 46.0861C222.735 46.0224 222.711 45.9506 222.711 45.871V29.7113C222.711 29.6316 222.735 29.5679 222.783 29.5201C222.847 29.4563 222.918 29.4245 222.998 29.4245H225.795C225.874 29.4245 225.938 29.4563 225.986 29.5201C226.05 29.5679 226.082 29.6316 226.082 29.7113V43.1458C226.082 43.2255 226.121 43.2653 226.201 43.2653H234.018C234.098 43.2653 234.161 43.2972 234.209 43.361C234.273 43.4088 234.305 43.4725 234.305 43.5522V45.871C234.305 45.9506 234.273 46.0224 234.209 46.0861C234.161 46.1339 234.098 46.1578 234.018 46.1578H222.998Z" fill="white"/>
<path d="M245.953 29.4245C246.032 29.4245 246.096 29.4563 246.144 29.5201C246.208 29.5679 246.24 29.6316 246.24 29.7113V32.054C246.24 32.1337 246.208 32.2054 246.144 32.2691C246.096 32.3169 246.032 32.3408 245.953 32.3408H241.674C241.594 32.3408 241.554 32.3807 241.554 32.4604V45.871C241.554 45.9506 241.522 46.0224 241.459 46.0861C241.411 46.1339 241.347 46.1578 241.267 46.1578H238.47C238.391 46.1578 238.319 46.1339 238.255 46.0861C238.208 46.0224 238.184 45.9506 238.184 45.871V32.4604C238.184 32.3807 238.144 32.3408 238.064 32.3408H233.905C233.825 32.3408 233.753 32.3169 233.69 32.2691C233.642 32.2054 233.618 32.1337 233.618 32.054V29.7113C233.618 29.6316 233.642 29.5679 233.69 29.5201C233.753 29.4563 233.825 29.4245 233.905 29.4245H245.953Z" fill="white"/>
<path d="M252.908 46.1339C252.828 46.1339 252.757 46.11 252.693 46.0622C252.645 45.9985 252.621 45.9267 252.621 45.8471V39.7991C252.621 39.7354 252.613 39.6876 252.597 39.6557L247.673 29.7591C247.641 29.6954 247.625 29.6476 247.625 29.6157C247.625 29.4882 247.713 29.4245 247.888 29.4245H250.9C251.059 29.4245 251.171 29.4962 251.235 29.6396L254.223 35.9983C254.271 36.0939 254.318 36.0939 254.366 35.9983L257.354 29.6396C257.418 29.4962 257.53 29.4245 257.689 29.4245H260.749C260.86 29.4245 260.932 29.4563 260.964 29.5201C261.012 29.5679 261.012 29.6476 260.964 29.7591L255.992 39.6557C255.976 39.6876 255.968 39.7354 255.968 39.7991V45.8471C255.968 45.9267 255.936 45.9985 255.872 46.0622C255.824 46.11 255.761 46.1339 255.681 46.1339H252.908Z" fill="white"/>
<path d="M7.28613 57.9024C8.33794 57.9024 9.26226 58.1176 10.0591 58.5479C10.8559 58.9782 11.4695 59.5917 11.8998 60.3885C12.346 61.1694 12.5691 62.0698 12.5691 63.0898C12.5691 64.0938 12.338 64.9783 11.8759 65.7432C11.4296 66.5082 10.7922 67.1058 9.96347 67.5361C9.1507 67.9504 8.21045 68.1576 7.1427 68.1576H3.74821C3.66853 68.1576 3.62869 68.1974 3.62869 68.2771V74.3729C3.62869 74.4525 3.59682 74.5243 3.53307 74.588C3.48526 74.6358 3.42152 74.6597 3.34183 74.6597H0.54497C0.465287 74.6597 0.393573 74.6358 0.329827 74.588C0.282017 74.5243 0.258112 74.4525 0.258112 74.3729V58.1893C0.258112 58.1096 0.282017 58.0459 0.329827 57.9981C0.393573 57.9343 0.465287 57.9024 0.54497 57.9024H7.28613ZM6.78413 65.4564C7.51721 65.4564 8.10686 65.2492 8.55308 64.8348C8.99931 64.4046 9.22242 63.8468 9.22242 63.1615C9.22242 62.4603 8.99931 61.8945 8.55308 61.4643C8.10686 61.034 7.51721 60.8188 6.78413 60.8188H3.74821C3.66853 60.8188 3.62869 60.8587 3.62869 60.9384V65.3368C3.62869 65.4165 3.66853 65.4564 3.74821 65.4564H6.78413Z" fill="white"/>
<path d="M23.8206 74.6597C23.6612 74.6597 23.5497 74.588 23.4859 74.4446L20.4978 67.8229C20.466 67.7592 20.4181 67.7273 20.3544 67.7273H18.1313C18.0516 67.7273 18.0117 67.7672 18.0117 67.8468V74.3729C18.0117 74.4525 17.9799 74.5243 17.9161 74.588C17.8683 74.6358 17.8046 74.6597 17.7249 74.6597H14.928C14.8483 74.6597 14.7766 74.6358 14.7129 74.588C14.6651 74.5243 14.6412 74.4525 14.6412 74.3729V58.2132C14.6412 58.1335 14.6651 58.0698 14.7129 58.022C14.7766 57.9582 14.8483 57.9263 14.928 57.9263H21.7648C22.7847 57.9263 23.6772 58.1335 24.4421 58.5479C25.223 58.9622 25.8206 59.5519 26.235 60.3168C26.6653 61.0818 26.8804 61.9663 26.8804 62.9703C26.8804 64.0539 26.6095 64.9862 26.0677 65.7671C25.5258 66.5321 24.7688 67.0739 23.7967 67.3927C23.717 67.4245 23.6931 67.4803 23.725 67.56L26.976 74.3251C27.0079 74.3888 27.0238 74.4366 27.0238 74.4685C27.0238 74.596 26.9362 74.6597 26.7609 74.6597H23.8206ZM18.1313 60.8188C18.0516 60.8188 18.0117 60.8587 18.0117 60.9384V65.0261C18.0117 65.1058 18.0516 65.1456 18.1313 65.1456H21.2628C21.9321 65.1456 22.474 64.9464 22.8883 64.548C23.3186 64.1496 23.5337 63.6316 23.5337 62.9942C23.5337 62.3567 23.3186 61.8388 22.8883 61.4404C22.474 61.026 21.9321 60.8188 21.2628 60.8188H18.1313Z" fill="white"/>
<path d="M35.2772 74.9227C34.0341 74.9227 32.9345 74.6677 31.9783 74.1577C31.038 73.6477 30.305 72.9386 29.7791 72.0302C29.2532 71.1059 28.9902 70.0461 28.9902 68.8508V63.7352C28.9902 62.5559 29.2532 61.5121 29.7791 60.6037C30.305 59.6953 31.038 58.9941 31.9783 58.5001C32.9345 57.9901 34.0341 57.7351 35.2772 57.7351C36.5362 57.7351 37.6358 57.9901 38.576 58.5001C39.5322 58.9941 40.2733 59.6953 40.7992 60.6037C41.3251 61.5121 41.588 62.5559 41.588 63.7352V68.8508C41.588 70.0461 41.3251 71.1059 40.7992 72.0302C40.2733 72.9545 39.5322 73.6717 38.576 74.1816C37.6358 74.6757 36.5362 74.9227 35.2772 74.9227ZM35.2772 72.0302C36.1537 72.0302 36.8629 71.7513 37.4047 71.1935C37.9465 70.6357 38.2175 69.8947 38.2175 68.9704V63.7113C38.2175 62.787 37.9465 62.0459 37.4047 61.4882C36.8788 60.9144 36.1696 60.6276 35.2772 60.6276C34.4007 60.6276 33.6915 60.9144 33.1496 61.4882C32.6237 62.0459 32.3608 62.787 32.3608 63.7113V68.9704C32.3608 69.8947 32.6237 70.6357 33.1496 71.1935C33.6915 71.7513 34.4007 72.0302 35.2772 72.0302Z" fill="white"/>
<path d="M49.3549 74.851C48.1437 74.851 47.0839 74.6278 46.1755 74.1816C45.2831 73.7195 44.5898 73.082 44.0958 72.2692C43.6018 71.4405 43.3548 70.4843 43.3548 69.4007V67.8947C43.3548 67.815 43.3787 67.7512 43.4265 67.7034C43.4902 67.6397 43.5619 67.6078 43.6416 67.6078H46.4385C46.5182 67.6078 46.5819 67.6397 46.6297 67.7034C46.6935 67.7512 46.7253 67.815 46.7253 67.8947V69.4007C46.7253 70.1656 46.9564 70.7871 47.4186 71.2652C47.8967 71.7274 48.5421 71.9585 49.3549 71.9585C50.1357 71.9585 50.7732 71.7274 51.2672 71.2652C51.7772 70.7871 52.0322 70.1656 52.0322 69.4007V58.2132C52.0322 58.1335 52.0561 58.0698 52.1039 58.022C52.1677 57.9582 52.2394 57.9263 52.3191 57.9263H55.092C55.1717 57.9263 55.2354 57.9582 55.2833 58.022C55.347 58.0698 55.3789 58.1335 55.3789 58.2132V69.4007C55.3789 70.4843 55.1239 71.4405 54.6139 72.2692C54.104 73.082 53.3948 73.7195 52.4864 74.1816C51.578 74.6278 50.5342 74.851 49.3549 74.851Z" fill="white"/>
<path d="M69.9132 60.532C69.9132 60.6117 69.8813 60.6834 69.8176 60.7471C69.7698 60.7949 69.706 60.8188 69.6263 60.8188H61.7856C61.7059 60.8188 61.666 60.8587 61.666 60.9384V64.6436C61.666 64.7233 61.7059 64.7631 61.7856 64.7631H66.9251C67.0048 64.7631 67.0685 64.795 67.1163 64.8587C67.1801 64.9066 67.2119 64.9703 67.2119 65.05V67.3687C67.2119 67.4484 67.1801 67.5201 67.1163 67.5839C67.0685 67.6317 67.0048 67.6556 66.9251 67.6556H61.7856C61.7059 67.6556 61.666 67.6954 61.666 67.7751V71.6477C61.666 71.7274 61.7059 71.7672 61.7856 71.7672H69.6263C69.706 71.7672 69.7698 71.7991 69.8176 71.8629C69.8813 71.9107 69.9132 71.9744 69.9132 72.0541V74.3729C69.9132 74.4525 69.8813 74.5243 69.8176 74.588C69.7698 74.6358 69.706 74.6597 69.6263 74.6597H58.5823C58.5026 74.6597 58.4309 74.6358 58.3672 74.588C58.3194 74.5243 58.2954 74.4525 58.2954 74.3729V58.2132C58.2954 58.1335 58.3194 58.0698 58.3672 58.022C58.4309 57.9582 58.5026 57.9263 58.5823 57.9263H69.6263C69.706 57.9263 69.7698 57.9582 69.8176 58.022C69.8813 58.0698 69.9132 58.1335 69.9132 58.2132V60.532Z" fill="white"/>
<path d="M78.1361 74.851C76.893 74.851 75.8014 74.6119 74.8611 74.1338C73.9209 73.6398 73.1957 72.9545 72.6858 72.078C72.1758 71.2015 71.9208 70.1895 71.9208 69.0421V63.5201C71.9208 62.3726 72.1758 61.3607 72.6858 60.4842C73.1957 59.6077 73.9209 58.9303 74.8611 58.4523C75.8014 57.9742 76.893 57.7351 78.1361 57.7351C79.3632 57.7351 80.4389 57.9662 81.3632 58.4283C82.3035 58.8746 83.0286 59.52 83.5386 60.3646C84.0645 61.1933 84.3274 62.1575 84.3274 63.2571C84.3274 63.4005 84.2318 63.4882 84.0406 63.5201L81.2437 63.6874H81.1959C81.0365 63.6874 80.9568 63.5998 80.9568 63.4244C80.9568 62.5798 80.6939 61.9025 80.168 61.3925C79.658 60.8826 78.9807 60.6276 78.1361 60.6276C77.2755 60.6276 76.5823 60.8826 76.0564 61.3925C75.5464 61.9025 75.2914 62.5798 75.2914 63.4244V69.1855C75.2914 70.0142 75.5464 70.6835 76.0564 71.1935C76.5823 71.7035 77.2755 71.9585 78.1361 71.9585C78.9807 71.9585 79.658 71.7035 80.168 71.1935C80.6939 70.6835 80.9568 70.0142 80.9568 69.1855C80.9568 69.0102 81.0525 68.9226 81.2437 68.9226L84.0406 69.0421C84.1202 69.0421 84.184 69.066 84.2318 69.1138C84.2955 69.1616 84.3274 69.2174 84.3274 69.2811C84.3274 70.3808 84.0645 71.3529 83.5386 72.1975C83.0286 73.0422 82.3035 73.6956 81.3632 74.1577C80.4389 74.6199 79.3632 74.851 78.1361 74.851Z" fill="white"/>
<path d="M98.1584 57.9263C98.2381 57.9263 98.3018 57.9582 98.3496 58.022C98.4134 58.0698 98.4453 58.1335 98.4453 58.2132V60.5559C98.4453 60.6356 98.4134 60.7073 98.3496 60.771C98.3018 60.8188 98.2381 60.8427 98.1584 60.8427H93.8794C93.7998 60.8427 93.7599 60.8826 93.7599 60.9623V74.3729C93.7599 74.4525 93.728 74.5243 93.6643 74.588C93.6165 74.6358 93.5527 74.6597 93.4731 74.6597H90.6762C90.5965 74.6597 90.5248 74.6358 90.4611 74.588C90.4132 74.5243 90.3893 74.4525 90.3893 74.3729V60.9623C90.3893 60.8826 90.3495 60.8427 90.2698 60.8427H86.1104C86.0307 60.8427 85.959 60.8188 85.8952 60.771C85.8474 60.7073 85.8235 60.6356 85.8235 60.5559V58.2132C85.8235 58.1335 85.8474 58.0698 85.8952 58.022C85.959 57.9582 86.0307 57.9263 86.1104 57.9263H98.1584Z" fill="white"/>
</svg>
