<svg width="194" height="29" viewBox="0 0 194 29" fill="none" xmlns="http://www.w3.org/2000/svg">
<path d="M15.3671 1.38086H11.4488C9.7168 1.38086 8.05574 2.06889 6.83104 3.2936C5.60633 4.5183 4.9183 6.17936 4.9183 7.91136V11.8297H1V17.0541H4.9183V27.5029H10.1427V17.0541H14.061L15.3671 11.8297H10.1427V7.91136C10.1427 7.56496 10.2803 7.23275 10.5252 6.98781C10.7702 6.74286 11.1024 6.60526 11.4488 6.60526H15.3671V1.38086Z" fill="#F7F6F3" stroke="#F7F6F3" stroke-linecap="round" stroke-linejoin="round"/>
<path d="M75.449 2.70015C74.1983 3.58239 72.8135 4.25716 71.3479 4.69848C70.5613 3.79402 69.5159 3.15296 68.353 2.86201C67.1902 2.57105 65.9661 2.64424 64.8462 3.07167C63.7264 3.4991 62.7648 4.26015 62.0915 5.25189C61.4183 6.24364 61.0659 7.41822 61.0819 8.61678V9.92288C58.7866 9.98239 56.5123 9.47333 54.4613 8.44104C52.4104 7.40874 50.6466 5.88525 49.327 4.00625C49.327 4.00625 44.1026 15.7611 55.8575 20.9855C53.1677 22.8114 49.9633 23.727 46.7148 23.5977C58.4697 30.1282 72.8368 23.5977 72.8368 8.57759C72.8356 8.21378 72.8007 7.85087 72.7324 7.49353C74.0654 6.17893 75.006 4.51917 75.449 2.70015Z" fill="#F7F6F3" stroke="#F7F6F3" stroke-linecap="round" stroke-linejoin="round"/>
<path d="M186.47 1.38086H173.409C169.803 1.38086 166.879 4.30466 166.879 7.91136V20.9724C166.879 24.579 169.803 27.5029 173.409 27.5029H186.47C190.077 27.5029 193.001 24.579 193.001 20.9724V7.91136C193.001 4.30466 190.077 1.38086 186.47 1.38086Z" stroke="#F7F6F3" stroke-width="2" stroke-linecap="round" stroke-linejoin="round"/>
<path d="M185.166 13.6202C185.327 14.7072 185.141 15.8173 184.635 16.7927C184.129 17.7681 183.328 18.5591 182.347 19.0531C181.365 19.5472 180.253 19.7191 179.168 19.5446C178.083 19.37 177.081 18.8577 176.304 18.0807C175.527 17.3037 175.014 16.3014 174.84 15.2165C174.665 14.1316 174.837 13.0192 175.331 12.0377C175.825 11.0561 176.616 10.2553 177.592 9.74922C178.567 9.2431 179.677 9.05744 180.764 9.21862C181.873 9.38304 182.899 9.89971 183.692 10.6923C184.485 11.4849 185.001 12.5114 185.166 13.6202Z" stroke="#F7F6F3" stroke-width="2" stroke-linecap="round" stroke-linejoin="round"/>
<path d="M187.125 7.25879H187.139" stroke="#F7F6F3" stroke-width="2" stroke-linecap="round" stroke-linejoin="round"/>
<path d="M134.927 7.15393C134.772 6.53406 134.456 5.96612 134.011 5.50746C133.566 5.04881 133.008 4.71568 132.393 4.54173C130.147 3.99316 121.161 3.99316 121.161 3.99316C121.161 3.99316 112.175 3.99316 109.928 4.59397C109.314 4.76792 108.755 5.10105 108.311 5.55971C107.866 6.01837 107.55 6.58631 107.395 7.20617C106.983 9.48604 106.782 11.7988 106.794 14.1154C106.779 16.4495 106.98 18.7799 107.395 21.0769C107.566 21.6776 107.889 22.2239 108.332 22.6632C108.776 23.1025 109.326 23.4198 109.928 23.5847C112.175 24.1855 121.161 24.1855 121.161 24.1855C121.161 24.1855 130.147 24.1855 132.393 23.5847C133.008 23.4107 133.566 23.0776 134.011 22.6189C134.456 22.1603 134.772 21.5923 134.927 20.9725C135.335 18.7098 135.536 16.4146 135.528 14.1154C135.543 11.7814 135.341 9.45096 134.927 7.15393Z" fill="#F7F6F3" stroke="#F7F6F3" stroke-linecap="round" stroke-linejoin="round"/>
<path d="M118.223 18.3871L125.733 14.1162L118.223 9.84521V18.3871Z" fill="#44423F" stroke="#44423F" stroke-width="0.75" stroke-linecap="round" stroke-linejoin="round"/>
</svg>
