<svg width="10" height="8" viewBox="0 0 10 8" fill="none" xmlns="http://www.w3.org/2000/svg">
<path d="M9.1287 3.48882L6.46394 0.824061C6.21838 0.578503 5.80912 0.578503 5.56356 0.824061C5.318 1.06962 5.318 1.47888 5.56356 1.72444L7.13695 3.30692L1.31632 3.30692C0.961624 3.30692 0.679687 3.58886 0.679687 3.94356C0.679687 4.29825 0.961624 4.58019 1.31632 4.58019H7.13695L5.56356 6.15358C5.318 6.39914 5.318 6.8084 5.56356 7.05396C5.69089 7.18128 5.85459 7.24495 6.0183 7.24495C6.182 7.24495 6.34571 7.18128 6.47303 7.05396L9.1287 4.39829C9.24693 4.28006 9.31969 4.11636 9.31969 3.94356C9.31969 3.77076 9.25603 3.60705 9.1287 3.48882Z" fill="#76736F"/>
</svg>
