<svg width="10" height="8" viewBox="0 0 10 8" fill="none" xmlns="http://www.w3.org/2000/svg">
<path d="M9.18791 3.47166L6.53333 0.774747C6.28871 0.526226 5.87968 0.52488 5.63346 0.771787C5.38724 1.01869 5.38591 1.43155 5.63053 1.68007L7.19788 3.28162L1.38052 3.26249C1.02602 3.26132 0.743324 3.54481 0.742168 3.90262C0.741013 4.26043 1.02187 4.54577 1.37637 4.54693L7.19373 4.56607L5.6161 6.1481C5.36988 6.39501 5.36855 6.80786 5.61317 7.05639C5.74001 7.18525 5.90341 7.25001 6.06703 7.25055C6.23064 7.25109 6.39446 7.1874 6.52213 7.05938L9.18495 4.38912C9.3035 4.27024 9.37675 4.10534 9.37731 3.93102C9.37788 3.75671 9.31478 3.59135 9.18791 3.47166Z" fill="#76736F"/>
</svg>
