<svg width="24" height="24" viewBox="0 0 24 24" fill="none" xmlns="http://www.w3.org/2000/svg">
<path d="M17.5679 14.709L17.5691 14.7102L22.7372 19.7087C22.7373 19.7089 22.7374 19.709 22.7376 19.7091C23.44 20.3849 23.4352 21.4868 22.73 22.1597C22.0327 22.8249 20.9153 22.8212 20.2224 22.1514L20.2223 22.1513L15.0545 17.1531C15.0543 17.1529 15.0541 17.1527 15.054 17.1526C14.6306 16.7461 14.4617 16.1792 14.5533 15.6458L13.2884 14.4231C10.1703 16.6901 5.7132 16.453 2.87702 13.7114L2.87689 13.7113C-0.219634 10.7151 -0.20418 5.86845 2.91194 2.89531C6.02238 -0.072383 11.0425 -0.0558704 14.1337 2.93223C16.9695 5.67068 17.1962 9.96056 14.8257 12.9508L16.1338 14.2153C16.6432 14.1657 17.1727 14.3302 17.5679 14.709ZM3.9457 3.93676C1.42415 6.3426 1.41147 10.2542 3.91733 12.6767C6.43479 15.1075 10.5318 15.121 13.065 12.7069C15.5866 10.301 15.5992 6.38928 13.0932 3.96685C10.5758 1.53335 6.47883 1.51988 3.9457 3.93676Z" fill="#4F4F4F" stroke="#4F4F4F" stroke-width="0.75"/>
</svg>
