<svg width="14" height="11" viewBox="0 0 14 11" fill="none" xmlns="http://www.w3.org/2000/svg">
<path d="M12.9634 4.92707L8.98158 0.881895C8.61465 0.509131 8.00111 0.507113 7.63178 0.877455C7.26245 1.2478 7.26045 1.86705 7.62738 2.23982L9.97839 4.64203L1.25241 4.61333C0.720669 4.61158 0.296627 5.03678 0.294894 5.57347C0.293161 6.11016 0.714448 6.53815 1.24619 6.5399L9.97217 6.5686L7.60574 8.94153C7.23641 9.31188 7.23441 9.93113 7.60134 10.3039C7.7916 10.4972 8.03671 10.5943 8.28212 10.5951C8.52754 10.5959 8.77327 10.5004 8.96477 10.3084L12.959 6.3032C13.1368 6.12488 13.2467 5.87754 13.2475 5.61608C13.2484 5.35461 13.1537 5.1066 12.9634 4.92707Z" fill="#76736F"/>
</svg>
