<svg width="10" height="8" viewBox="0 0 10 8" fill="none" xmlns="http://www.w3.org/2000/svg">
<path d="M9.1287 3.48885L6.46394 0.824088C6.21838 0.57853 5.80912 0.57853 5.56356 0.824088C5.318 1.06965 5.318 1.47891 5.56356 1.72447C6.14564 2.30991 5.73097 3.30695 4.9054 3.30695L1.31632 3.30695C0.961624 3.30695 0.679687 3.58889 0.679687 3.94358C0.679687 4.29828 0.961624 4.58021 1.31632 4.58021H4.91184C5.73296 4.58021 6.14418 5.57298 5.56356 6.1536C5.318 6.39916 5.318 6.80842 5.56356 7.05398C5.69089 7.18131 5.85459 7.24497 6.0183 7.24497C6.182 7.24497 6.34571 7.18131 6.47303 7.05398L9.1287 4.39832C9.24693 4.28009 9.31969 4.11638 9.31969 3.94358C9.31969 3.77078 9.25603 3.60708 9.1287 3.48885Z" fill="#76736F"/>
</svg>
