<svg width="150" height="23" viewBox="0 0 150 23" fill="none" xmlns="http://www.w3.org/2000/svg">
<path d="M12.3339 0.959766L9.33394 0.949898C8.00787 0.945536 6.7344 1.46813 5.7937 2.40273C4.85299 3.33732 4.3221 4.60735 4.31782 5.93343L4.30814 8.93341L1.30815 8.92354L1.29524 12.9235L4.29522 12.9334L4.26939 20.9333L8.26937 20.9465L8.2952 12.9465L11.2952 12.9564L12.3081 8.95972L8.30811 8.94657L8.3178 5.94658C8.31866 5.68137 8.42484 5.42736 8.61298 5.24044C8.80112 5.05353 9.05581 4.94901 9.32102 4.94988L12.321 4.95975L12.3339 0.959766Z" fill="#F7F6F3" stroke="#F7F6F3" stroke-linecap="round" stroke-linejoin="round"/>
<path d="M58.3304 2.12124C57.3706 2.79356 56.3087 3.3067 55.1855 3.6409C54.5855 2.94644 53.7867 2.45299 52.8971 2.22729C52.0075 2.0016 51.0701 2.05455 50.2116 2.37899C49.3532 2.70342 48.6151 3.28369 48.0971 4.04131C47.5792 4.79892 47.3065 5.69733 47.3158 6.61503L47.3126 7.61503C45.5551 7.65481 43.815 7.25933 42.2473 6.46381C40.6796 5.66828 39.333 4.4974 38.3273 3.05545C38.3273 3.05545 34.2983 12.0422 43.2853 16.0718C41.2213 17.463 38.7657 18.1559 36.2789 18.0488C45.2627 23.0784 56.2788 18.1146 56.3159 6.61464C56.3159 6.33609 56.29 6.05814 56.2386 5.78438C57.2624 4.78123 57.9867 3.51283 58.3304 2.12124Z" fill="#F7F6F3" stroke="#F7F6F3" stroke-linecap="round" stroke-linejoin="round"/>
<path d="M143.334 1.39065L133.334 1.35775C130.573 1.34867 128.327 3.57987 128.318 6.34128L128.286 16.3412C128.277 19.1026 130.508 21.3486 133.27 21.3577L143.27 21.3905C146.031 21.3996 148.277 19.1684 148.286 16.407L148.318 6.40707C148.327 3.64566 146.096 1.39973 143.334 1.39065Z" stroke="#F7F6F3" stroke-width="2" stroke-linecap="round" stroke-linejoin="round"/>
<path d="M142.304 10.7575C142.425 11.5902 142.28 12.4397 141.89 13.1852C141.5 13.9307 140.885 14.5343 140.132 14.9101C139.38 15.2859 138.527 15.4147 137.697 15.2783C136.867 15.1419 136.101 14.7472 135.508 14.1504C134.915 13.5535 134.525 12.7848 134.394 11.9537C134.263 11.1226 134.398 10.2714 134.778 9.52115C135.159 8.77088 135.767 8.15976 136.515 7.77472C137.263 7.38968 138.113 7.25032 138.945 7.37647C139.793 7.50515 140.578 7.90331 141.183 8.51215C141.788 9.12098 142.181 9.90821 142.304 10.7575Z" stroke="#F7F6F3" stroke-width="2" stroke-linecap="round" stroke-linejoin="round"/>
<path d="M143.82 5.89233L143.83 5.89237" stroke="#F7F6F3" stroke-width="2" stroke-linecap="round" stroke-linejoin="round"/>
<path d="M103.86 5.68078C103.743 5.2058 103.502 4.77017 103.163 4.41789C102.823 4.0656 102.397 3.80914 101.926 3.67441C100.208 3.24876 93.3277 3.22613 93.3277 3.22613C93.3277 3.22613 86.4477 3.2035 84.7262 3.65784C84.255 3.78947 83.827 4.04312 83.4852 4.39316C83.1434 4.74321 82.9001 5.17725 82.7798 5.65144C82.4594 7.39595 82.2997 9.16619 82.3027 10.9399C82.2857 12.7269 82.4339 14.5117 82.7455 16.2714C82.875 16.7317 83.121 17.1508 83.4597 17.4882C83.7984 17.8257 84.2185 18.0701 84.6793 18.1978C86.3978 18.6634 93.2777 18.686 93.2777 18.686C93.2777 18.686 100.158 18.7087 101.879 18.2543C102.35 18.1227 102.778 17.8691 103.12 17.519C103.462 17.169 103.705 16.7349 103.826 16.2607C104.144 14.5294 104.303 12.7726 104.303 11.0123C104.32 9.22527 104.171 7.44051 103.86 5.68078Z" fill="#F7F6F3" stroke="#F7F6F3" stroke-linecap="round" stroke-linejoin="round"/>
<path d="M91.0424 14.2392L96.8029 10.9881L91.0635 7.69922L91.0424 14.2392Z" fill="#44423F" stroke="#44423F" stroke-width="0.75" stroke-linecap="round" stroke-linejoin="round"/>
</svg>
