<svg width="10" height="52" viewBox="0 0 10 52" fill="none" xmlns="http://www.w3.org/2000/svg">
<path d="M6.723 1.46289H5.61189C5.12075 1.46289 4.64972 1.658 4.30243 2.00529C3.95514 2.35258 3.76004 2.8236 3.76004 3.31474V4.42585H2.64893V5.90734H3.76004V8.8703H5.24152V5.90734H6.35263L6.723 4.42585H5.24152V3.31474C5.24152 3.21651 5.28054 3.12231 5.35 3.05285C5.41946 2.98339 5.51366 2.94437 5.61189 2.94437H6.723V1.46289Z" fill="#F7F6F3" stroke="#F7F6F3" stroke-linecap="round" stroke-linejoin="round"/>
<path d="M9.4084 16.2816C9.05373 16.5317 8.66104 16.7231 8.24544 16.8482C8.02238 16.5917 7.72593 16.41 7.39619 16.3275C7.06645 16.2449 6.71933 16.2657 6.40177 16.3869C6.0842 16.5081 5.81153 16.7239 5.62062 17.0052C5.42971 17.2864 5.32977 17.6195 5.33433 17.9593V18.3297C4.68345 18.3466 4.0385 18.2022 3.45692 17.9095C2.87534 17.6168 2.37519 17.1848 2.00099 16.6519C2.00099 16.6519 0.519513 19.9853 3.85285 21.4667C3.09008 21.9845 2.18142 22.2441 1.26025 22.2075C4.59359 24.0593 8.66766 22.2075 8.66766 17.9482C8.66732 17.8451 8.6574 17.7421 8.63803 17.6408C9.01603 17.268 9.28278 16.7974 9.4084 16.2816Z" fill="#F7F6F3" stroke="#F7F6F3" stroke-linecap="round" stroke-linejoin="round"/>
<path d="M7.09462 43.4644H3.39091C2.36816 43.4644 1.53906 44.2935 1.53906 45.3162V49.0199C1.53906 50.0427 2.36816 50.8718 3.39091 50.8718H7.09462C8.11737 50.8718 8.94647 50.0427 8.94647 49.0199V45.3162C8.94647 44.2935 8.11737 43.4644 7.09462 43.4644Z" stroke="#F7F6F3" stroke-width="2" stroke-linecap="round" stroke-linejoin="round"/>
<path d="M6.7238 46.9346C6.7695 47.2428 6.71685 47.5576 6.57334 47.8342C6.42982 48.1108 6.20274 48.3351 5.9244 48.4752C5.64606 48.6153 5.33063 48.6641 5.02298 48.6146C4.71532 48.5651 4.43111 48.4198 4.21077 48.1995C3.99043 47.9791 3.84518 47.6949 3.79567 47.3873C3.74617 47.0796 3.79493 46.7642 3.93503 46.4858C4.07512 46.2075 4.29942 45.9804 4.57601 45.8369C4.8526 45.6934 5.16741 45.6407 5.47565 45.6864C5.79006 45.7331 6.08115 45.8796 6.3059 46.1043C6.53066 46.3291 6.67717 46.6202 6.7238 46.9346Z" stroke="#F7F6F3" stroke-width="2" stroke-linecap="round" stroke-linejoin="round"/>
<path d="M7.27832 45.1309H7.28233" stroke="#F7F6F3" stroke-width="2" stroke-linecap="round" stroke-linejoin="round"/>
<path d="M9.23824 31.2274C9.19425 31.0516 9.10465 30.8905 8.97849 30.7605C8.85233 30.6304 8.69408 30.5359 8.51973 30.4866C7.88269 30.3311 5.33454 30.3311 5.33454 30.3311C5.33454 30.3311 2.78639 30.3311 2.14935 30.5014C1.975 30.5508 1.81675 30.6452 1.69059 30.7753C1.56443 30.9053 1.47483 31.0664 1.43084 31.2422C1.31425 31.8887 1.25722 32.5445 1.26047 33.2014C1.25631 33.8633 1.31334 34.5241 1.43084 35.1755C1.47934 35.3458 1.57095 35.5007 1.69682 35.6253C1.82268 35.7499 1.97855 35.8399 2.14935 35.8866C2.78639 36.057 5.33454 36.057 5.33454 36.057C5.33454 36.057 7.88269 36.057 8.51973 35.8866C8.69408 35.8373 8.85233 35.7428 8.97849 35.6128C9.10465 35.4827 9.19425 35.3216 9.23824 35.1459C9.35393 34.5042 9.41096 33.8534 9.40861 33.2014C9.41277 32.5396 9.35574 31.8787 9.23824 31.2274Z" fill="#F7F6F3" stroke="#F7F6F3" stroke-linecap="round" stroke-linejoin="round"/>
<path d="M4.50195 34.4125L6.63158 33.2013L4.50195 31.9902V34.4125Z" fill="#44423F" stroke="#44423F" stroke-width="0.75" stroke-linecap="round" stroke-linejoin="round"/>
</svg>
