<svg width="18" height="14" viewBox="0 0 18 14" fill="none" xmlns="http://www.w3.org/2000/svg">
<path d="M0.383228 7.51211L5.71274 12.8416C6.20386 13.3327 7.02239 13.3327 7.5135 12.8416C8.00462 12.3505 8.00462 11.532 7.5135 11.0409L4.36672 7.8759L16.008 7.8759C16.7174 7.8759 17.2812 7.31202 17.2812 6.60263C17.2812 5.89324 16.7174 5.32937 16.008 5.32937L4.36672 5.32937L7.5135 2.18259C8.00462 1.69148 8.00462 0.872951 7.5135 0.381836C7.25885 0.127183 6.93144 -0.000144054 6.60403 -0.000144025C6.27662 -0.000143996 5.94921 0.127183 5.69455 0.381836L0.383228 5.69316C0.146764 5.92963 0.00124871 6.25704 0.00124874 6.60264C0.00124877 6.94824 0.128574 7.27565 0.383228 7.51211Z" fill="#76736F"/>
</svg>
