<svg width="8" height="10" viewBox="0 0 8 10" fill="none" xmlns="http://www.w3.org/2000/svg">
<path d="M4.51045 9.12919L7.17521 6.46443C7.42076 6.21887 7.42076 5.80961 7.17521 5.56405C6.92965 5.31849 6.52039 5.31849 6.27483 5.56405L4.69234 7.13744L4.69234 1.31681C4.69234 0.962113 4.41041 0.680176 4.05571 0.680176C3.70102 0.680176 3.41908 0.962112 3.41908 1.31681L3.41908 7.13744L1.84569 5.56405C1.60013 5.31849 1.19087 5.31849 0.945312 5.56405C0.817985 5.69138 0.754322 5.85508 0.754322 6.01879C0.754322 6.18249 0.817985 6.3462 0.945312 6.47352L3.60097 9.12919C3.71921 9.24742 3.88291 9.32018 4.05571 9.32018C4.22851 9.32018 4.39222 9.25651 4.51045 9.12919Z" fill="#76736F"/>
</svg>
