<svg width="114" height="24" viewBox="0 0 114 24" fill="none" xmlns="http://www.w3.org/2000/svg">
<path d="M23.6436 1.11488C23.3992 1.15192 23.2177 1.21488 23.0992 1.30377C22.9881 1.39266 22.9103 1.5334 22.8659 1.72599C22.8288 1.91859 22.8103 2.20377 22.8103 2.58155V8.78155L22.5436 8.77044L22.2436 8.78155L17.4214 2.67044V6.9371C17.4214 7.37414 17.4436 7.69636 17.4881 7.90377C17.5325 8.10377 17.6288 8.25192 17.777 8.34822C17.9251 8.4371 18.1659 8.50007 18.4992 8.5371V8.75933C18.2103 8.7371 17.8103 8.72599 17.2992 8.72599C16.8918 8.72599 16.5696 8.7371 16.3325 8.75933V8.5371C16.577 8.50007 16.7547 8.4371 16.8659 8.34822C16.9844 8.25933 17.0621 8.11859 17.0992 7.92599C17.1436 7.7334 17.1659 7.44822 17.1659 7.07044V2.07044C17.1659 1.78896 17.1436 1.58525 17.0992 1.45933C17.0621 1.3334 16.9844 1.24822 16.8659 1.20377C16.7547 1.15933 16.577 1.1297 16.3325 1.11488V0.89266C16.5696 0.914882 16.8918 0.925993 17.2992 0.925993C17.6696 0.925993 17.9881 0.914882 18.2547 0.89266L22.5547 6.19266V2.71488C22.5547 2.27784 22.5325 1.95933 22.4881 1.75933C22.4436 1.55192 22.3473 1.40377 22.1992 1.31488C22.051 1.21859 21.8103 1.15192 21.477 1.11488V0.89266C21.7659 0.914882 22.1659 0.925993 22.677 0.925993C23.0918 0.925993 23.414 0.914882 23.6436 0.89266V1.11488Z" fill="#333333"/>
<path d="M25.5866 0.148215C25.8977 0.148215 26.1422 0.225993 26.3199 0.381549C26.5051 0.529697 26.5977 0.737104 26.5977 1.00377C26.5977 1.27044 26.5051 1.48155 26.3199 1.6371C26.1422 1.78525 25.8977 1.85933 25.5866 1.85933C25.2755 1.85933 25.0273 1.78525 24.8422 1.6371C24.6644 1.48155 24.5755 1.27044 24.5755 1.00377C24.5755 0.737104 24.6644 0.529697 24.8422 0.381549C25.0273 0.225993 25.2755 0.148215 25.5866 0.148215ZM26.4533 7.72599C26.4533 8.0297 26.5051 8.24081 26.6088 8.35933C26.7199 8.47044 26.9051 8.52599 27.1644 8.52599V8.75933C26.4236 8.7297 25.931 8.71488 25.6866 8.71488C25.457 8.71488 24.9422 8.7297 24.1422 8.75933V8.52599C24.4088 8.52599 24.594 8.47044 24.6977 8.35933C24.8014 8.24081 24.8533 8.0297 24.8533 7.72599V4.22599C24.8533 3.88525 24.8014 3.6371 24.6977 3.48155C24.594 3.32599 24.4088 3.24822 24.1422 3.24822V3.01488C24.3792 3.0371 24.6088 3.04822 24.831 3.04822C25.4903 3.04822 26.031 2.99636 26.4533 2.89266V7.72599Z" fill="#333333"/>
<path d="M33.2914 7.94822C33.4099 8.12599 33.5062 8.25933 33.5803 8.34822C33.6543 8.4297 33.7506 8.48896 33.8692 8.52599V8.75933C33.2766 8.7297 32.8877 8.71488 32.7025 8.71488C32.458 8.71488 31.9803 8.7297 31.2692 8.75933V8.52599C31.3729 8.52599 31.4543 8.50747 31.5136 8.47044C31.5729 8.4334 31.6025 8.38155 31.6025 8.31488C31.6025 8.27784 31.584 8.22229 31.5469 8.14822L30.4469 6.15933C30.3729 6.0334 30.2951 5.94822 30.2136 5.90377C30.1321 5.85933 30.0284 5.8297 29.9025 5.81488V7.72599C29.9025 8.0297 29.9506 8.24081 30.0469 8.35933C30.1432 8.47044 30.3173 8.52599 30.5692 8.52599V8.75933C29.8284 8.7297 29.3469 8.71488 29.1247 8.71488C28.8729 8.71488 28.3617 8.7297 27.5914 8.75933V8.52599C27.8506 8.52599 28.0321 8.47044 28.1358 8.35933C28.2469 8.24081 28.3025 8.0297 28.3025 7.72599V1.39266C28.3025 1.05192 28.2469 0.803771 28.1358 0.648215C28.0321 0.49266 27.8506 0.414882 27.5914 0.414882V0.181549C27.8284 0.203771 28.058 0.214882 28.2803 0.214882C28.9247 0.214882 29.4654 0.16303 29.9025 0.0593262V5.60377C30.0506 5.58896 30.1766 5.55933 30.2803 5.51488C30.3914 5.47044 30.4877 5.40377 30.5692 5.31488L31.4136 4.49266C31.658 4.24822 31.7803 4.02229 31.7803 3.81488C31.7803 3.64451 31.7025 3.51118 31.5469 3.41488C31.3914 3.31118 31.184 3.25192 30.9247 3.2371V3.01488C31.3321 3.0371 31.7654 3.04822 32.2247 3.04822C32.8395 3.04822 33.2729 3.0371 33.5247 3.01488V3.2371C33.0877 3.3334 32.6247 3.61859 32.1358 4.09266L31.4247 4.82599L33.2914 7.94822Z" fill="#333333"/>
<path d="M35.5909 0.148215C35.9021 0.148215 36.1465 0.225993 36.3243 0.381549C36.5095 0.529697 36.6021 0.737104 36.6021 1.00377C36.6021 1.27044 36.5095 1.48155 36.3243 1.6371C36.1465 1.78525 35.9021 1.85933 35.5909 1.85933C35.2798 1.85933 35.0317 1.78525 34.8465 1.6371C34.6687 1.48155 34.5798 1.27044 34.5798 1.00377C34.5798 0.737104 34.6687 0.529697 34.8465 0.381549C35.0317 0.225993 35.2798 0.148215 35.5909 0.148215ZM36.4576 7.72599C36.4576 8.0297 36.5095 8.24081 36.6132 8.35933C36.7243 8.47044 36.9095 8.52599 37.1687 8.52599V8.75933C36.428 8.7297 35.9354 8.71488 35.6909 8.71488C35.4613 8.71488 34.9465 8.7297 34.1465 8.75933V8.52599C34.4132 8.52599 34.5983 8.47044 34.7021 8.35933C34.8058 8.24081 34.8576 8.0297 34.8576 7.72599V4.22599C34.8576 3.88525 34.8058 3.6371 34.7021 3.48155C34.5983 3.32599 34.4132 3.24822 34.1465 3.24822V3.01488C34.3835 3.0371 34.6132 3.04822 34.8354 3.04822C35.4946 3.04822 36.0354 2.99636 36.4576 2.89266V7.72599Z" fill="#333333"/>
<path d="M39.9068 3.01488H41.2179V3.2371H39.9068V7.72599C39.9068 7.94822 39.9439 8.10747 40.0179 8.20377C40.0994 8.29266 40.2253 8.3371 40.3957 8.3371C40.7142 8.3371 40.9661 8.11488 41.1513 7.67044L41.3402 7.77044C41.0587 8.5334 40.5513 8.91488 39.8179 8.91488C39.329 8.91488 38.9587 8.78896 38.7068 8.5371C38.5513 8.38155 38.4439 8.18896 38.3846 7.95933C38.3328 7.72229 38.3068 7.40007 38.3068 6.99266V3.2371H37.3735V3.01488H38.3068V1.54822C38.9216 1.54822 39.455 1.4297 39.9068 1.19266V3.01488Z" fill="#333333"/>
<path d="M43.0242 8.8371C42.5501 8.8371 42.1946 8.71488 41.9575 8.47044C41.7279 8.22599 41.6131 7.90377 41.6131 7.50377C41.6131 7.17044 41.6983 6.89636 41.8686 6.68155C42.0464 6.45933 42.2575 6.28896 42.502 6.17044C42.7538 6.05192 43.0723 5.92599 43.4575 5.79266C43.8649 5.65192 44.1612 5.52599 44.3464 5.41488C44.539 5.29636 44.6353 5.1371 44.6353 4.9371V4.07044C44.6353 3.75933 44.5612 3.51859 44.4131 3.34822C44.2723 3.17044 44.0501 3.08155 43.7464 3.08155C43.3909 3.08155 43.1205 3.17044 42.9353 3.34822C43.1427 3.42229 43.302 3.5334 43.4131 3.68155C43.5316 3.8297 43.5909 4.00377 43.5909 4.20377C43.5909 4.45562 43.5057 4.65562 43.3353 4.80377C43.1649 4.95192 42.9575 5.02599 42.7131 5.02599C42.4538 5.02599 42.2538 4.94451 42.1131 4.78155C41.9723 4.61859 41.902 4.41488 41.902 4.17044C41.902 3.96303 41.9501 3.78896 42.0464 3.64822C42.1501 3.50007 42.3057 3.36303 42.5131 3.2371C42.7131 3.11859 42.9575 3.02599 43.2464 2.95933C43.5427 2.89266 43.8649 2.85933 44.2131 2.85933C44.576 2.85933 44.8909 2.89636 45.1575 2.97044C45.4242 3.04451 45.6464 3.17044 45.8242 3.34822C45.9871 3.51118 46.0946 3.71118 46.1464 3.94822C46.2057 4.18525 46.2353 4.50747 46.2353 4.91488V7.9371C46.2353 8.11488 46.2501 8.24081 46.2797 8.31488C46.3168 8.38896 46.3834 8.42599 46.4797 8.42599C46.5909 8.42599 46.7242 8.36303 46.8797 8.2371L46.9909 8.42599C46.6575 8.70007 46.2501 8.8371 45.7686 8.8371C45.3612 8.8371 45.076 8.75562 44.9131 8.59266C44.7501 8.4297 44.6649 8.21118 44.6575 7.9371C44.2871 8.5371 43.7427 8.8371 43.0242 8.8371ZM43.8797 8.12599C44.1686 8.12599 44.4205 7.97414 44.6353 7.67044V5.39266C44.5464 5.54081 44.3575 5.70377 44.0686 5.88155C43.7797 6.06673 43.5612 6.25192 43.4131 6.4371C43.2649 6.62229 43.1909 6.88896 43.1909 7.2371C43.1909 7.54081 43.2538 7.76673 43.3797 7.91488C43.5057 8.05562 43.6723 8.12599 43.8797 8.12599Z" fill="#333333"/>
<path d="M52.7363 0.748215C53.1215 0.748215 53.4289 0.785252 53.6586 0.859326C53.8882 0.9334 54.1215 1.04081 54.3586 1.18155C54.44 1.22599 54.5104 1.26303 54.5697 1.29266C54.6363 1.32229 54.6919 1.3371 54.7363 1.3371C54.803 1.3371 54.8549 1.30007 54.8919 1.22599C54.9289 1.14451 54.9586 1.01859 54.9808 0.848215H55.2363C55.1993 1.34451 55.1808 2.18896 55.1808 3.38155H54.9252C54.8956 2.98155 54.803 2.60007 54.6474 2.2371C54.4993 1.87414 54.2845 1.58155 54.003 1.35933C53.7289 1.1297 53.4067 1.01488 53.0363 1.01488C52.6734 1.01488 52.3771 1.11859 52.1474 1.32599C51.9252 1.52599 51.8141 1.80007 51.8141 2.14822C51.8141 2.40747 51.8697 2.6334 51.9808 2.82599C52.0919 3.01859 52.2474 3.19636 52.4474 3.35933C52.6474 3.51488 52.9549 3.7297 53.3697 4.00377L53.7252 4.24822C54.1623 4.5371 54.5067 4.78896 54.7586 5.00377C55.0104 5.21859 55.2141 5.47044 55.3697 5.75933C55.5326 6.04081 55.6141 6.37044 55.6141 6.74822C55.6141 7.22229 55.4919 7.62229 55.2475 7.94822C55.003 8.26673 54.6697 8.50747 54.2474 8.67044C53.8326 8.8334 53.3697 8.91488 52.8586 8.91488C52.4437 8.91488 52.0993 8.87784 51.8252 8.80377C51.5512 8.7297 51.2993 8.6297 51.0697 8.50377C50.9067 8.40007 50.7808 8.34822 50.6919 8.34822C50.6252 8.34822 50.5734 8.38896 50.5363 8.47044C50.4993 8.54451 50.4697 8.66673 50.4474 8.8371H50.1919C50.2215 8.37044 50.2363 7.37044 50.2363 5.8371H50.4919C50.5437 6.66673 50.7289 7.34081 51.0475 7.85933C51.366 8.37044 51.8549 8.62599 52.5141 8.62599C52.9141 8.62599 53.2437 8.51859 53.503 8.30377C53.7623 8.08896 53.8919 7.78155 53.8919 7.38155C53.8919 6.96673 53.7586 6.61118 53.4919 6.31488C53.2252 6.01859 52.803 5.68525 52.2252 5.31488C51.7808 5.02599 51.4252 4.77414 51.1586 4.55933C50.8919 4.34451 50.6734 4.09266 50.503 3.80377C50.3326 3.50747 50.2474 3.16673 50.2474 2.78155C50.2474 2.3371 50.3586 1.96303 50.5808 1.65933C50.8104 1.34821 51.1141 1.11859 51.4919 0.970437C51.8697 0.822289 52.2845 0.748215 52.7363 0.748215Z" fill="#333333"/>
<path d="M59.2028 2.85933C60.0547 2.85933 60.7214 3.10377 61.2028 3.59266C61.6843 4.07414 61.9251 4.84081 61.9251 5.89266C61.9251 6.94451 61.6843 7.71118 61.2028 8.19266C60.7214 8.67414 60.0547 8.91488 59.2028 8.91488C58.3584 8.91488 57.6917 8.67414 57.2028 8.19266C56.7214 7.71118 56.4806 6.94451 56.4806 5.89266C56.4806 4.84081 56.7214 4.07414 57.2028 3.59266C57.6917 3.10377 58.3584 2.85933 59.2028 2.85933ZM59.2028 3.08155C58.8843 3.08155 58.6288 3.31488 58.4362 3.78155C58.251 4.24081 58.1584 4.94451 58.1584 5.89266C58.1584 6.84081 58.251 7.54451 58.4362 8.00377C58.6288 8.46303 58.8843 8.69266 59.2028 8.69266C59.5288 8.69266 59.7843 8.46673 59.9695 8.01488C60.1547 7.55562 60.2473 6.84822 60.2473 5.89266C60.2473 4.9371 60.151 4.2297 59.9584 3.77044C59.7732 3.31118 59.5214 3.08155 59.2028 3.08155Z" fill="#333333"/>
<path d="M66.7521 2.85933C67.315 2.85933 67.7224 3.00377 67.9743 3.29266C68.1002 3.4334 68.1891 3.61488 68.2409 3.8371C68.2928 4.05933 68.3187 4.35933 68.3187 4.7371V7.72599C68.3187 8.0297 68.3706 8.24081 68.4743 8.35933C68.5854 8.47044 68.7706 8.52599 69.0298 8.52599V8.75933C68.2891 8.7297 67.8002 8.71488 67.5632 8.71488C67.3409 8.71488 66.8595 8.7297 66.1187 8.75933V8.52599C66.3409 8.52599 66.4965 8.47044 66.5854 8.35933C66.6743 8.24081 66.7187 8.0297 66.7187 7.72599V4.27044C66.7187 3.96673 66.6669 3.7371 66.5632 3.58155C66.4669 3.42599 66.2891 3.34822 66.0298 3.34822C65.7261 3.34822 65.4669 3.47414 65.2521 3.72599C65.0372 3.97044 64.9298 4.27414 64.9298 4.6371V7.72599C64.9298 8.0297 64.9743 8.24081 65.0632 8.35933C65.1521 8.47044 65.3076 8.52599 65.5298 8.52599V8.75933C64.8483 8.7297 64.3891 8.71488 64.1521 8.71488C63.9298 8.71488 63.4187 8.7297 62.6187 8.75933V8.52599C62.8854 8.52599 63.0706 8.47044 63.1743 8.35933C63.278 8.24081 63.3298 8.0297 63.3298 7.72599V4.22599C63.3298 3.88525 63.278 3.6371 63.1743 3.48155C63.0706 3.32599 62.8854 3.24822 62.6187 3.24822V3.01488C62.8558 3.0371 63.0854 3.04822 63.3076 3.04822C63.9669 3.04822 64.5076 2.99636 64.9298 2.89266V3.89266C65.2632 3.20377 65.8706 2.85933 66.7521 2.85933Z" fill="#333333"/>
<path d="M70.9105 8.8371C70.4364 8.8371 70.0808 8.71488 69.8438 8.47044C69.6142 8.22599 69.4994 7.90377 69.4994 7.50377C69.4994 7.17044 69.5845 6.89636 69.7549 6.68155C69.9327 6.45933 70.1438 6.28896 70.3882 6.17044C70.6401 6.05192 70.9586 5.92599 71.3438 5.79266C71.7512 5.65192 72.0475 5.52599 72.2327 5.41488C72.4253 5.29636 72.5216 5.1371 72.5216 4.9371V4.07044C72.5216 3.75933 72.4475 3.51859 72.2994 3.34822C72.1586 3.17044 71.9364 3.08155 71.6327 3.08155C71.2771 3.08155 71.0068 3.17044 70.8216 3.34822C71.029 3.42229 71.1882 3.5334 71.2994 3.68155C71.4179 3.8297 71.4771 4.00377 71.4771 4.20377C71.4771 4.45562 71.392 4.65562 71.2216 4.80377C71.0512 4.95192 70.8438 5.02599 70.5994 5.02599C70.3401 5.02599 70.1401 4.94451 69.9994 4.78155C69.8586 4.61859 69.7882 4.41488 69.7882 4.17044C69.7882 3.96303 69.8364 3.78896 69.9327 3.64822C70.0364 3.50007 70.192 3.36303 70.3994 3.2371C70.5994 3.11859 70.8438 3.02599 71.1327 2.95933C71.429 2.89266 71.7512 2.85933 72.0994 2.85933C72.4623 2.85933 72.7771 2.89636 73.0438 2.97044C73.3105 3.04451 73.5327 3.17044 73.7105 3.34822C73.8734 3.51118 73.9808 3.71118 74.0327 3.94822C74.092 4.18525 74.1216 4.50747 74.1216 4.91488V7.9371C74.1216 8.11488 74.1364 8.24081 74.166 8.31488C74.2031 8.38896 74.2697 8.42599 74.366 8.42599C74.4771 8.42599 74.6105 8.36303 74.766 8.2371L74.8771 8.42599C74.5438 8.70007 74.1364 8.8371 73.6549 8.8371C73.2475 8.8371 72.9623 8.75562 72.7994 8.59266C72.6364 8.4297 72.5512 8.21118 72.5438 7.9371C72.1734 8.5371 71.629 8.8371 70.9105 8.8371ZM71.766 8.12599C72.0549 8.12599 72.3068 7.97414 72.5216 7.67044V5.39266C72.4327 5.54081 72.2438 5.70377 71.9549 5.88155C71.666 6.06673 71.4475 6.25192 71.2994 6.4371C71.1512 6.62229 71.0771 6.88896 71.0771 7.2371C71.0771 7.54081 71.1401 7.76673 71.266 7.91488C71.3919 8.05562 71.5586 8.12599 71.766 8.12599Z" fill="#333333"/>
<path d="M79.5973 3.04822C79.9751 3.04822 80.2602 3.0371 80.4528 3.01488V3.2371C80.2973 3.28155 80.1565 3.37785 80.0306 3.52599C79.9121 3.66673 79.7973 3.88896 79.6862 4.19266L78.0639 8.78155C77.9825 8.77414 77.8602 8.77044 77.6973 8.77044C77.5417 8.77044 77.4232 8.77414 77.3417 8.78155L75.3639 3.87044C75.2602 3.61859 75.1528 3.45192 75.0417 3.37044C74.938 3.28896 74.8306 3.24822 74.7195 3.24822V3.01488C75.238 3.05192 75.7639 3.07044 76.2973 3.07044C76.7639 3.07044 77.2454 3.05192 77.7417 3.01488V3.24822C77.4899 3.24822 77.3084 3.26673 77.1973 3.30377C77.0936 3.3334 77.0417 3.42229 77.0417 3.57044C77.0417 3.6297 77.0602 3.72229 77.0973 3.84822L78.3639 7.21488L79.1639 5.01488C79.2825 4.66673 79.3417 4.36673 79.3417 4.11488C79.3417 3.57414 79.0713 3.28155 78.5306 3.2371V3.01488C78.8713 3.0371 79.2269 3.04822 79.5973 3.04822Z" fill="#333333"/>
<path d="M82.0758 8.8371C81.6018 8.8371 81.2462 8.71488 81.0092 8.47044C80.7795 8.22599 80.6647 7.90377 80.6647 7.50377C80.6647 7.17044 80.7499 6.89636 80.9203 6.68155C81.0981 6.45933 81.3092 6.28896 81.5536 6.17044C81.8055 6.05192 82.124 5.92599 82.5092 5.79266C82.9166 5.65192 83.2129 5.52599 83.3981 5.41488C83.5906 5.29636 83.6869 5.1371 83.6869 4.9371V4.07044C83.6869 3.75933 83.6129 3.51859 83.4647 3.34822C83.324 3.17044 83.1018 3.08155 82.7981 3.08155C82.4425 3.08155 82.1721 3.17044 81.9869 3.34822C82.1944 3.42229 82.3536 3.5334 82.4647 3.68155C82.5832 3.8297 82.6425 4.00377 82.6425 4.20377C82.6425 4.45562 82.5573 4.65562 82.3869 4.80377C82.2166 4.95192 82.0092 5.02599 81.7647 5.02599C81.5055 5.02599 81.3055 4.94451 81.1647 4.78155C81.024 4.61859 80.9536 4.41488 80.9536 4.17044C80.9536 3.96303 81.0018 3.78896 81.0981 3.64822C81.2018 3.50007 81.3573 3.36303 81.5647 3.2371C81.7647 3.11859 82.0092 3.02599 82.2981 2.95933C82.5944 2.89266 82.9166 2.85933 83.2647 2.85933C83.6277 2.85933 83.9425 2.89636 84.2092 2.97044C84.4758 3.04451 84.6981 3.17044 84.8758 3.34822C85.0388 3.51118 85.1462 3.71118 85.1981 3.94822C85.2573 4.18525 85.2869 4.50747 85.2869 4.91488V7.9371C85.2869 8.11488 85.3018 8.24081 85.3314 8.31488C85.3684 8.38896 85.4351 8.42599 85.5314 8.42599C85.6425 8.42599 85.7758 8.36303 85.9314 8.2371L86.0425 8.42599C85.7092 8.70007 85.3018 8.8371 84.8203 8.8371C84.4129 8.8371 84.1277 8.75562 83.9647 8.59266C83.8018 8.4297 83.7166 8.21118 83.7092 7.9371C83.3388 8.5371 82.7944 8.8371 82.0758 8.8371ZM82.9314 8.12599C83.2203 8.12599 83.4721 7.97414 83.6869 7.67044V5.39266C83.5981 5.54081 83.4092 5.70377 83.1203 5.88155C82.8314 6.06673 82.6129 6.25192 82.4647 6.4371C82.3166 6.62229 82.2425 6.88896 82.2425 7.2371C82.2425 7.54081 82.3055 7.76673 82.4314 7.91488C82.5573 8.05562 82.724 8.12599 82.9314 8.12599Z" fill="#333333"/>
<path d="M90.4934 2.85933C91.0563 2.85933 91.4637 3.00377 91.7156 3.29266C91.8415 3.4334 91.9304 3.61488 91.9823 3.8371C92.0341 4.05933 92.06 4.35933 92.06 4.7371V7.72599C92.06 8.0297 92.1119 8.24081 92.2156 8.35933C92.3267 8.47044 92.5119 8.52599 92.7711 8.52599V8.75933C92.0304 8.7297 91.5415 8.71488 91.3045 8.71488C91.0823 8.71488 90.6008 8.7297 89.86 8.75933V8.52599C90.0823 8.52599 90.2378 8.47044 90.3267 8.35933C90.4156 8.24081 90.46 8.0297 90.46 7.72599V4.27044C90.46 3.96673 90.4082 3.7371 90.3045 3.58155C90.2082 3.42599 90.0304 3.34822 89.7711 3.34822C89.4674 3.34822 89.2082 3.47414 88.9934 3.72599C88.7785 3.97044 88.6711 4.27414 88.6711 4.6371V7.72599C88.6711 8.0297 88.7156 8.24081 88.8045 8.35933C88.8934 8.47044 89.0489 8.52599 89.2711 8.52599V8.75933C88.5897 8.7297 88.1304 8.71488 87.8934 8.71488C87.6712 8.71488 87.16 8.7297 86.36 8.75933V8.52599C86.6267 8.52599 86.8119 8.47044 86.9156 8.35933C87.0193 8.24081 87.0712 8.0297 87.0712 7.72599V4.22599C87.0712 3.88525 87.0193 3.6371 86.9156 3.48155C86.8119 3.32599 86.6267 3.24822 86.36 3.24822V3.01488C86.5971 3.0371 86.8267 3.04822 87.0489 3.04822C87.7082 3.04822 88.2489 2.99636 88.6711 2.89266V3.89266C89.0045 3.20377 89.6119 2.85933 90.4934 2.85933Z" fill="#333333"/>
<path d="M96.4518 8.00377C97.0592 8.00377 97.5481 7.70748 97.9185 7.11488L98.1185 7.18155C97.9703 7.66303 97.7036 8.07414 97.3185 8.41488C96.9407 8.74821 96.4666 8.91488 95.8962 8.91488C95.111 8.91488 94.4851 8.66673 94.0185 8.17044C93.5592 7.66673 93.3296 6.92599 93.3296 5.94822C93.3296 4.94822 93.5777 4.18525 94.074 3.65933C94.5703 3.12599 95.2296 2.85933 96.0518 2.85933C97.4444 2.85933 98.1407 3.68155 98.1407 5.32599H95.0185C95.011 5.4371 95.0073 5.61118 95.0073 5.84822C95.0073 6.3371 95.074 6.74451 95.2073 7.07044C95.3481 7.39636 95.5259 7.6334 95.7407 7.78155C95.9629 7.9297 96.1999 8.00377 96.4518 8.00377ZM95.9851 3.09266C95.7185 3.09266 95.4962 3.25933 95.3185 3.59266C95.1481 3.91859 95.0407 4.42599 94.9962 5.11488H96.7407C96.7555 4.5297 96.6962 4.04822 96.5629 3.67044C96.437 3.28525 96.2444 3.09266 95.9851 3.09266Z" fill="#333333"/>
<path d="M4.62074 16.4102C4.64851 16.3713 4.68185 16.3519 4.72074 16.3519H5.15407C5.20962 16.3519 5.2374 16.3797 5.2374 16.4352V22.1019C5.2374 22.1574 5.20962 22.1852 5.15407 22.1852H4.72907C4.67351 22.1852 4.64574 22.1574 4.64574 22.1019V17.4686C4.64574 17.4519 4.64018 17.4408 4.62907 17.4352C4.61796 17.4297 4.60962 17.4352 4.60407 17.4519L3.24574 19.5352C3.21796 19.5741 3.18462 19.5936 3.14574 19.5936H2.92907C2.89018 19.5936 2.85685 19.5769 2.82907 19.5436L1.47074 17.4769C1.46518 17.4602 1.45685 17.4547 1.44574 17.4602C1.43462 17.4658 1.42907 17.4769 1.42907 17.4936V22.1019C1.42907 22.1574 1.40129 22.1852 1.34574 22.1852H0.920736C0.86518 22.1852 0.837402 22.1574 0.837402 22.1019V16.4352C0.837402 16.3797 0.86518 16.3519 0.920736 16.3519H1.35407C1.39851 16.3519 1.43185 16.3686 1.45407 16.4019L3.02074 18.7769C3.02629 18.7824 3.03462 18.7852 3.04574 18.7852C3.05685 18.7852 3.06518 18.7824 3.07074 18.7769L4.62074 16.4102Z" fill="#4F4F4F"/>
<path d="M8.1361 17.9019C8.6361 17.9019 9.02221 18.0297 9.29443 18.2852C9.56666 18.5408 9.70277 18.8797 9.70277 19.3019V22.1019C9.70277 22.1574 9.67499 22.1852 9.61943 22.1852H9.19443C9.13888 22.1852 9.1111 22.1574 9.1111 22.1019V21.7602C9.1111 21.7491 9.10555 21.7408 9.09443 21.7352C9.08888 21.7297 9.08054 21.7324 9.06943 21.7436C8.93054 21.9102 8.74999 22.038 8.52777 22.1269C8.30554 22.2102 8.05832 22.2519 7.7861 22.2519C7.39166 22.2519 7.0611 22.1519 6.79443 21.9519C6.52777 21.7519 6.39443 21.4463 6.39443 21.0352C6.39443 20.6186 6.54443 20.2908 6.84443 20.0519C7.14999 19.8074 7.57221 19.6852 8.1111 19.6852H9.07777C9.09999 19.6852 9.1111 19.6741 9.1111 19.6519V19.3352C9.1111 19.0519 9.03054 18.8297 8.86943 18.6686C8.71388 18.5019 8.46943 18.4186 8.1361 18.4186C7.86943 18.4186 7.65277 18.4713 7.4861 18.5769C7.31943 18.6769 7.21666 18.8186 7.17777 19.0019C7.1611 19.0574 7.12777 19.0824 7.07777 19.0769L6.62777 19.0186C6.56666 19.0074 6.54166 18.9852 6.55277 18.9519C6.59721 18.6408 6.76388 18.388 7.05277 18.1936C7.34166 17.9991 7.70277 17.9019 8.1361 17.9019ZM7.90277 21.7436C8.23054 21.7436 8.51388 21.663 8.75277 21.5019C8.99166 21.3352 9.1111 21.113 9.1111 20.8352V20.1852C9.1111 20.163 9.09999 20.1519 9.07777 20.1519H8.20277C7.8361 20.1519 7.54166 20.2269 7.31943 20.3769C7.09721 20.5269 6.9861 20.7352 6.9861 21.0019C6.9861 21.2463 7.06943 21.4324 7.2361 21.5602C7.40832 21.6824 7.63054 21.7436 7.90277 21.7436Z" fill="#4F4F4F"/>
<path d="M12.684 17.9102C13.1284 17.9102 13.4812 18.0408 13.7423 18.3019C14.009 18.563 14.1423 18.913 14.1423 19.3519V22.1019C14.1423 22.1574 14.1145 22.1852 14.059 22.1852H13.634C13.5784 22.1852 13.5506 22.1574 13.5506 22.1019V19.4686C13.5506 19.163 13.4562 18.913 13.2673 18.7186C13.084 18.5241 12.8451 18.4269 12.5506 18.4269C12.2451 18.4269 11.9978 18.5213 11.809 18.7102C11.6201 18.8991 11.5256 19.1463 11.5256 19.4519V22.1019C11.5256 22.1574 11.4978 22.1852 11.4423 22.1852H11.0173C10.9617 22.1852 10.934 22.1574 10.934 22.1019V18.0519C10.934 17.9963 10.9617 17.9686 11.0173 17.9686H11.4423C11.4978 17.9686 11.5256 17.9963 11.5256 18.0519V18.4102C11.5256 18.4213 11.5284 18.4297 11.534 18.4352C11.5451 18.4408 11.5534 18.438 11.559 18.4269C11.8034 18.0824 12.1784 17.9102 12.684 17.9102Z" fill="#4F4F4F"/>
<path d="M16.8845 17.9019C17.3845 17.9019 17.7706 18.0297 18.0428 18.2852C18.315 18.5408 18.4511 18.8797 18.4511 19.3019V22.1019C18.4511 22.1574 18.4234 22.1852 18.3678 22.1852H17.9428C17.8873 22.1852 17.8595 22.1574 17.8595 22.1019V21.7602C17.8595 21.7491 17.8539 21.7408 17.8428 21.7352C17.8372 21.7297 17.8289 21.7324 17.8178 21.7436C17.6789 21.9102 17.4984 22.038 17.2761 22.1269C17.0539 22.2102 16.8067 22.2519 16.5345 22.2519C16.14 22.2519 15.8095 22.1519 15.5428 21.9519C15.2761 21.7519 15.1428 21.4463 15.1428 21.0352C15.1428 20.6186 15.2928 20.2908 15.5928 20.0519C15.8984 19.8074 16.3206 19.6852 16.8595 19.6852H17.8261C17.8484 19.6852 17.8595 19.6741 17.8595 19.6519V19.3352C17.8595 19.0519 17.7789 18.8297 17.6178 18.6686C17.4623 18.5019 17.2178 18.4186 16.8845 18.4186C16.6178 18.4186 16.4011 18.4713 16.2345 18.5769C16.0678 18.6769 15.965 18.8186 15.9261 19.0019C15.9095 19.0574 15.8761 19.0824 15.8261 19.0769L15.3761 19.0186C15.315 19.0074 15.29 18.9852 15.3011 18.9519C15.3456 18.6408 15.5122 18.388 15.8011 18.1936C16.09 17.9991 16.4511 17.9019 16.8845 17.9019ZM16.6511 21.7436C16.9789 21.7436 17.2622 21.663 17.5011 21.5019C17.74 21.3352 17.8595 21.113 17.8595 20.8352V20.1852C17.8595 20.163 17.8484 20.1519 17.8261 20.1519H16.9511C16.5845 20.1519 16.29 20.2269 16.0678 20.3769C15.8456 20.5269 15.7345 20.7352 15.7345 21.0019C15.7345 21.2463 15.8178 21.4324 15.9845 21.5602C16.1567 21.6824 16.3789 21.7436 16.6511 21.7436Z" fill="#4F4F4F"/>
<path d="M22.2823 18.0519C22.2823 17.9963 22.3101 17.9686 22.3657 17.9686H22.7907C22.8462 17.9686 22.874 17.9963 22.874 18.0519V22.0436C22.874 22.6658 22.6934 23.1213 22.3323 23.4102C21.9768 23.6991 21.4851 23.8436 20.8573 23.8436C20.7295 23.8436 20.6323 23.8408 20.5657 23.8352C20.5101 23.8297 20.4823 23.7991 20.4823 23.7436L20.499 23.3602C20.499 23.3324 20.5073 23.3102 20.524 23.2936C20.5407 23.2824 20.5601 23.2797 20.5823 23.2852L20.8073 23.2936C21.324 23.2936 21.699 23.1908 21.9323 22.9852C22.1657 22.7852 22.2823 22.4658 22.2823 22.0269V21.7186C22.2823 21.7074 22.2768 21.7019 22.2657 21.7019C22.2601 21.6963 22.2518 21.6991 22.2407 21.7102C21.9851 22.0436 21.6212 22.2102 21.149 22.2102C20.7879 22.2102 20.4657 22.113 20.1823 21.9186C19.9045 21.7241 19.7184 21.4491 19.624 21.0936C19.5573 20.8658 19.524 20.5269 19.524 20.0769C19.524 19.8324 19.5295 19.6269 19.5407 19.4602C19.5573 19.2936 19.5879 19.1436 19.6323 19.0102C19.7323 18.6769 19.9129 18.4102 20.174 18.2102C20.4351 18.0047 20.749 17.9019 21.1157 17.9019C21.6101 17.9019 21.9851 18.0658 22.2407 18.3936C22.2518 18.4047 22.2601 18.4074 22.2657 18.4019C22.2768 18.3963 22.2823 18.388 22.2823 18.3769V18.0519ZM22.2407 20.9102C22.2573 20.8269 22.2684 20.7241 22.274 20.6019C22.2795 20.4797 22.2823 20.3019 22.2823 20.0686C22.2823 19.7852 22.2795 19.5963 22.274 19.5019C22.2684 19.4019 22.2545 19.3102 22.2323 19.2269C22.1879 18.9936 22.0768 18.8019 21.899 18.6519C21.7268 18.4963 21.5073 18.4186 21.2407 18.4186C20.9795 18.4186 20.7573 18.4936 20.574 18.6436C20.3962 18.7936 20.2712 18.988 20.199 19.2269C20.1434 19.4047 20.1157 19.6824 20.1157 20.0602C20.1157 20.4658 20.1434 20.7463 20.199 20.9019C20.2545 21.1352 20.374 21.3297 20.5573 21.4852C20.7462 21.6352 20.974 21.7102 21.2407 21.7102C21.5129 21.7102 21.7351 21.6352 21.9073 21.4852C22.0851 21.3352 22.1962 21.1436 22.2407 20.9102Z" fill="#4F4F4F"/>
<path d="M24.542 17.2019C24.4086 17.2019 24.2975 17.1574 24.2086 17.0686C24.1197 16.9797 24.0753 16.8686 24.0753 16.7352C24.0753 16.5963 24.1197 16.4852 24.2086 16.4019C24.2975 16.313 24.4086 16.2686 24.542 16.2686C24.6753 16.2686 24.7864 16.313 24.8753 16.4019C24.9642 16.4852 25.0086 16.5963 25.0086 16.7352C25.0086 16.8686 24.9642 16.9797 24.8753 17.0686C24.7864 17.1574 24.6753 17.2019 24.542 17.2019ZM24.3086 22.1769C24.2531 22.1769 24.2253 22.1491 24.2253 22.0936V18.0436C24.2253 17.988 24.2531 17.9602 24.3086 17.9602H24.7336C24.7892 17.9602 24.817 17.988 24.817 18.0436V22.0936C24.817 22.1491 24.7892 22.1769 24.7336 22.1769H24.3086Z" fill="#4F4F4F"/>
<path d="M28.016 17.9102C28.4604 17.9102 28.8132 18.0408 29.0743 18.3019C29.341 18.563 29.4743 18.913 29.4743 19.3519V22.1019C29.4743 22.1574 29.4465 22.1852 29.391 22.1852H28.966C28.9104 22.1852 28.8827 22.1574 28.8827 22.1019V19.4686C28.8827 19.163 28.7882 18.913 28.5993 18.7186C28.416 18.5241 28.1771 18.4269 27.8827 18.4269C27.5771 18.4269 27.3299 18.5213 27.141 18.7102C26.9521 18.8991 26.8576 19.1463 26.8576 19.4519V22.1019C26.8576 22.1574 26.8299 22.1852 26.7743 22.1852H26.3493C26.2938 22.1852 26.266 22.1574 26.266 22.1019V18.0519C26.266 17.9963 26.2938 17.9686 26.3493 17.9686H26.7743C26.8299 17.9686 26.8576 17.9963 26.8576 18.0519V18.4102C26.8576 18.4213 26.8604 18.4297 26.866 18.4352C26.8771 18.4408 26.8854 18.438 26.891 18.4269C27.1354 18.0824 27.5104 17.9102 28.016 17.9102Z" fill="#4F4F4F"/>
<path d="M33.3582 18.0519C33.3582 17.9963 33.3859 17.9686 33.4415 17.9686H33.8665C33.9221 17.9686 33.9498 17.9963 33.9498 18.0519V22.0436C33.9498 22.6658 33.7693 23.1213 33.4082 23.4102C33.0526 23.6991 32.5609 23.8436 31.9332 23.8436C31.8054 23.8436 31.7082 23.8408 31.6415 23.8352C31.5859 23.8297 31.5582 23.7991 31.5582 23.7436L31.5748 23.3602C31.5748 23.3324 31.5832 23.3102 31.5998 23.2936C31.6165 23.2824 31.6359 23.2797 31.6582 23.2852L31.8832 23.2936C32.3998 23.2936 32.7748 23.1908 33.0082 22.9852C33.2415 22.7852 33.3582 22.4658 33.3582 22.0269V21.7186C33.3582 21.7074 33.3526 21.7019 33.3415 21.7019C33.3359 21.6963 33.3276 21.6991 33.3165 21.7102C33.0609 22.0436 32.6971 22.2102 32.2248 22.2102C31.8637 22.2102 31.5415 22.113 31.2582 21.9186C30.9804 21.7241 30.7943 21.4491 30.6998 21.0936C30.6332 20.8658 30.5998 20.5269 30.5998 20.0769C30.5998 19.8324 30.6054 19.6269 30.6165 19.4602C30.6332 19.2936 30.6637 19.1436 30.7082 19.0102C30.8082 18.6769 30.9887 18.4102 31.2498 18.2102C31.5109 18.0047 31.8248 17.9019 32.1915 17.9019C32.6859 17.9019 33.0609 18.0658 33.3165 18.3936C33.3276 18.4047 33.3359 18.4074 33.3415 18.4019C33.3526 18.3963 33.3582 18.388 33.3582 18.3769V18.0519ZM33.3165 20.9102C33.3332 20.8269 33.3443 20.7241 33.3498 20.6019C33.3554 20.4797 33.3582 20.3019 33.3582 20.0686C33.3582 19.7852 33.3554 19.5963 33.3498 19.5019C33.3443 19.4019 33.3304 19.3102 33.3082 19.2269C33.2637 18.9936 33.1526 18.8019 32.9748 18.6519C32.8026 18.4963 32.5832 18.4186 32.3165 18.4186C32.0554 18.4186 31.8332 18.4936 31.6498 18.6436C31.4721 18.7936 31.3471 18.988 31.2748 19.2269C31.2193 19.4047 31.1915 19.6824 31.1915 20.0602C31.1915 20.4658 31.2193 20.7463 31.2748 20.9019C31.3304 21.1352 31.4498 21.3297 31.6332 21.4852C31.8221 21.6352 32.0498 21.7102 32.3165 21.7102C32.5887 21.7102 32.8109 21.6352 32.9832 21.4852C33.1609 21.3352 33.2721 21.1436 33.3165 20.9102Z" fill="#4F4F4F"/>
<path d="M40.5194 16.3519C40.575 16.3519 40.6028 16.3797 40.6028 16.4352V16.7936C40.6028 16.8491 40.575 16.8769 40.5194 16.8769H38.8861C38.8639 16.8769 38.8528 16.888 38.8528 16.9102V22.1019C38.8528 22.1574 38.825 22.1852 38.7694 22.1852H38.3444C38.2889 22.1852 38.2611 22.1574 38.2611 22.1019V16.9102C38.2611 16.888 38.25 16.8769 38.2278 16.8769H36.6611C36.6055 16.8769 36.5778 16.8491 36.5778 16.7936V16.4352C36.5778 16.3797 36.6055 16.3519 36.6611 16.3519H40.5194Z" fill="#4F4F4F"/>
<path d="M42.8911 17.9269C43.0744 17.9269 43.2328 17.963 43.3661 18.0352C43.4106 18.0574 43.4272 18.0936 43.4161 18.1436L43.3244 18.5519C43.3078 18.6074 43.2717 18.6241 43.2161 18.6019C43.1217 18.563 43.0133 18.5436 42.8911 18.5436L42.7828 18.5519C42.4939 18.563 42.255 18.6713 42.0661 18.8769C41.8772 19.0769 41.7828 19.3324 41.7828 19.6436V22.1019C41.7828 22.1574 41.755 22.1852 41.6994 22.1852H41.2744C41.2189 22.1852 41.1911 22.1574 41.1911 22.1019V18.0519C41.1911 17.9963 41.2189 17.9686 41.2744 17.9686H41.6994C41.755 17.9686 41.7828 17.9963 41.7828 18.0519V18.5602C41.7828 18.5769 41.7856 18.588 41.7911 18.5936C41.8022 18.5936 41.8106 18.588 41.8161 18.5769C41.9328 18.3713 42.08 18.213 42.2578 18.1019C42.4411 17.9852 42.6522 17.9269 42.8911 17.9269Z" fill="#4F4F4F"/>
<path d="M46.7766 18.0519C46.7766 17.9963 46.8044 17.9686 46.8599 17.9686H47.2849C47.3405 17.9686 47.3683 17.9963 47.3683 18.0519V22.1019C47.3683 22.1574 47.3405 22.1852 47.2849 22.1852H46.8599C46.8044 22.1852 46.7766 22.1574 46.7766 22.1019V21.7436C46.7766 21.7324 46.771 21.7241 46.7599 21.7186C46.7488 21.713 46.7405 21.7158 46.7349 21.7269C46.5016 22.0713 46.1322 22.2436 45.6266 22.2436C45.3599 22.2436 45.1127 22.1908 44.8849 22.0852C44.6627 21.9741 44.4849 21.8158 44.3516 21.6102C44.2238 21.4047 44.1599 21.1574 44.1599 20.8686V18.0519C44.1599 17.9963 44.1877 17.9686 44.2433 17.9686H44.6683C44.7238 17.9686 44.7516 17.9963 44.7516 18.0519V20.6936C44.7516 21.0102 44.8405 21.263 45.0183 21.4519C45.196 21.6352 45.4377 21.7269 45.7433 21.7269C46.0599 21.7269 46.3099 21.6324 46.4933 21.4436C46.6821 21.2547 46.7766 21.0047 46.7766 20.6936V18.0519Z" fill="#4F4F4F"/>
<path d="M50.0777 22.2269C49.7666 22.2269 49.4888 22.1769 49.2444 22.0769C49.0055 21.9769 48.8194 21.8436 48.686 21.6769C48.5583 21.5102 48.4944 21.3241 48.4944 21.1186V21.0186C48.4944 20.963 48.5221 20.9352 48.5777 20.9352H48.9777C49.0333 20.9352 49.061 20.963 49.061 21.0186V21.0852C49.061 21.2686 49.1555 21.4297 49.3444 21.5686C49.5388 21.7019 49.7805 21.7686 50.0694 21.7686C50.3583 21.7686 50.5916 21.7047 50.7694 21.5769C50.9471 21.4436 51.036 21.2769 51.036 21.0769C51.036 20.938 50.9888 20.8241 50.8944 20.7352C50.8055 20.6463 50.6971 20.5769 50.5694 20.5269C50.4471 20.4769 50.2555 20.413 49.9944 20.3352C49.6833 20.2463 49.4277 20.1574 49.2277 20.0686C49.0277 19.9797 48.8583 19.8574 48.7194 19.7019C48.586 19.5408 48.5194 19.338 48.5194 19.0936C48.5194 18.738 48.6583 18.4547 48.936 18.2436C49.2138 18.0324 49.5805 17.9269 50.036 17.9269C50.3416 17.9269 50.611 17.9769 50.8444 18.0769C51.0833 18.1769 51.2666 18.3158 51.3944 18.4936C51.5221 18.6658 51.586 18.8602 51.586 19.0769V19.1019C51.586 19.1574 51.5583 19.1852 51.5027 19.1852H51.111C51.0555 19.1852 51.0277 19.1574 51.0277 19.1019V19.0769C51.0277 18.888 50.936 18.7297 50.7527 18.6019C50.5749 18.4741 50.3333 18.4102 50.0277 18.4102C49.7444 18.4102 49.5166 18.4686 49.3444 18.5852C49.1721 18.6963 49.086 18.8519 49.086 19.0519C49.086 19.2408 49.1694 19.3852 49.336 19.4852C49.5027 19.5852 49.761 19.6852 50.111 19.7852C50.4333 19.8797 50.6944 19.9686 50.8944 20.0519C51.0944 20.1352 51.2666 20.2574 51.411 20.4186C51.5555 20.5741 51.6277 20.7797 51.6277 21.0352C51.6277 21.3963 51.486 21.6852 51.2027 21.9019C50.9194 22.1186 50.5444 22.2269 50.0777 22.2269Z" fill="#4F4F4F"/>
<path d="M54.5899 18.3769C54.5899 18.4324 54.5622 18.4602 54.5066 18.4602H53.5649C53.5427 18.4602 53.5316 18.4713 53.5316 18.4936V20.9519C53.5316 21.2186 53.5899 21.4074 53.7066 21.5186C53.8288 21.6241 54.0177 21.6769 54.2733 21.6769H54.4816C54.5372 21.6769 54.5649 21.7047 54.5649 21.7602V22.1019C54.5649 22.1574 54.5372 22.1852 54.4816 22.1852C54.4149 22.1908 54.3122 22.1936 54.1733 22.1936C53.7733 22.1936 53.4705 22.1186 53.2649 21.9686C53.0594 21.8186 52.9566 21.5408 52.9566 21.1352V18.4936C52.9566 18.4713 52.9455 18.4602 52.9233 18.4602H52.4149C52.3594 18.4602 52.3316 18.4324 52.3316 18.3769V18.0519C52.3316 17.9963 52.3594 17.9686 52.4149 17.9686H52.9233C52.9455 17.9686 52.9566 17.9574 52.9566 17.9352V16.9686C52.9566 16.913 52.9844 16.8852 53.0399 16.8852H53.4483C53.5038 16.8852 53.5316 16.913 53.5316 16.9686V17.9352C53.5316 17.9574 53.5427 17.9686 53.5649 17.9686H54.5066C54.5622 17.9686 54.5899 17.9963 54.5899 18.0519V18.3769Z" fill="#4F4F4F"/>
<path d="M58.845 19.3686C58.8672 19.5241 58.8784 19.7186 58.8784 19.9519V20.2186C58.8784 20.2741 58.8506 20.3019 58.795 20.3019H56.1034C56.0811 20.3019 56.07 20.313 56.07 20.3352C56.0811 20.6408 56.0978 20.838 56.12 20.9269C56.1811 21.1769 56.3117 21.3741 56.5117 21.5186C56.7117 21.663 56.9672 21.7352 57.2784 21.7352C57.5117 21.7352 57.7172 21.6824 57.895 21.5769C58.0728 21.4713 58.2117 21.3213 58.3117 21.1269C58.345 21.0769 58.3839 21.0658 58.4284 21.0936L58.7533 21.2852C58.7978 21.313 58.8089 21.3519 58.7867 21.4019C58.6478 21.6686 58.4395 21.8797 58.1617 22.0352C57.8839 22.1852 57.5645 22.2602 57.2034 22.2602C56.8089 22.2547 56.4784 22.1602 56.2117 21.9769C55.945 21.7936 55.7534 21.538 55.6367 21.2102C55.5367 20.9436 55.4867 20.5602 55.4867 20.0602C55.4867 19.8269 55.4895 19.638 55.495 19.4936C55.5061 19.3436 55.5284 19.2102 55.5617 19.0936C55.6561 18.7324 55.845 18.4436 56.1283 18.2269C56.4172 18.0102 56.7645 17.9019 57.17 17.9019C57.6756 17.9019 58.0645 18.0297 58.3367 18.2852C58.6089 18.5408 58.7784 18.9019 58.845 19.3686ZM57.17 18.4186C56.8978 18.4186 56.67 18.4908 56.4867 18.6352C56.3089 18.7741 56.1922 18.963 56.1367 19.2019C56.1034 19.3186 56.0811 19.5074 56.07 19.7686C56.07 19.7908 56.0811 19.8019 56.1034 19.8019H58.2617C58.2839 19.8019 58.295 19.7908 58.295 19.7686C58.2839 19.5186 58.2672 19.3408 58.245 19.2352C58.1839 18.9852 58.0589 18.788 57.87 18.6436C57.6867 18.4936 57.4534 18.4186 57.17 18.4186Z" fill="#4F4F4F"/>
<path d="M63.2884 19.3686C63.3106 19.5241 63.3217 19.7186 63.3217 19.9519V20.2186C63.3217 20.2741 63.2939 20.3019 63.2384 20.3019H60.5467C60.5245 20.3019 60.5134 20.313 60.5134 20.3352C60.5245 20.6408 60.5412 20.838 60.5634 20.9269C60.6245 21.1769 60.755 21.3741 60.955 21.5186C61.155 21.663 61.4106 21.7352 61.7217 21.7352C61.955 21.7352 62.1606 21.6824 62.3384 21.5769C62.5162 21.4713 62.655 21.3213 62.755 21.1269C62.7884 21.0769 62.8273 21.0658 62.8717 21.0936L63.1967 21.2852C63.2412 21.313 63.2523 21.3519 63.23 21.4019C63.0912 21.6686 62.8828 21.8797 62.605 22.0352C62.3273 22.1852 62.0078 22.2602 61.6467 22.2602C61.2523 22.2547 60.9217 22.1602 60.655 21.9769C60.3884 21.7936 60.1967 21.538 60.08 21.2102C59.98 20.9436 59.93 20.5602 59.93 20.0602C59.93 19.8269 59.9328 19.638 59.9384 19.4936C59.9495 19.3436 59.9717 19.2102 60.005 19.0936C60.0995 18.7324 60.2884 18.4436 60.5717 18.2269C60.8606 18.0102 61.2078 17.9019 61.6134 17.9019C62.1189 17.9019 62.5078 18.0297 62.78 18.2852C63.0523 18.5408 63.2217 18.9019 63.2884 19.3686ZM61.6134 18.4186C61.3412 18.4186 61.1134 18.4908 60.93 18.6352C60.7523 18.7741 60.6356 18.963 60.58 19.2019C60.5467 19.3186 60.5245 19.5074 60.5134 19.7686C60.5134 19.7908 60.5245 19.8019 60.5467 19.8019H62.705C62.7273 19.8019 62.7384 19.7908 62.7384 19.7686C62.7273 19.5186 62.7106 19.3408 62.6884 19.2352C62.6273 18.9852 62.5023 18.788 62.3134 18.6436C62.13 18.4936 61.8967 18.4186 61.6134 18.4186Z" fill="#4F4F4F"/>
<path d="M70.45 22.0852C70.4611 22.0963 70.4667 22.113 70.4667 22.1352C70.4667 22.1463 70.4611 22.1574 70.45 22.1686C70.4389 22.1797 70.4223 22.1852 70.4 22.1852H69.9084C69.875 22.1852 69.8417 22.1686 69.8084 22.1352C69.5973 21.8963 69.4361 21.7074 69.325 21.5686C69.3084 21.5519 69.2917 21.5519 69.275 21.5686C69.0084 21.8074 68.7389 21.9824 68.4667 22.0936C68.2 22.1991 67.9056 22.2519 67.5834 22.2519C67.0889 22.2519 66.6889 22.138 66.3834 21.9102C66.0834 21.6769 65.9334 21.3408 65.9334 20.9019C65.9334 20.5186 66.0417 20.1908 66.2584 19.9186C66.4806 19.6463 66.7889 19.3769 67.1834 19.1102C67.2111 19.0991 67.2139 19.0852 67.1917 19.0686C66.8695 18.6741 66.6556 18.3769 66.55 18.1769C66.4445 17.9713 66.3917 17.763 66.3917 17.5519C66.3917 17.1797 66.5195 16.8769 66.775 16.6436C67.0306 16.4047 67.3695 16.2852 67.7917 16.2852C68.2139 16.2852 68.5611 16.4047 68.8334 16.6436C69.1056 16.8769 69.2417 17.1824 69.2417 17.5602C69.2417 17.8991 69.1389 18.1936 68.9334 18.4436C68.7278 18.6936 68.4389 18.9463 68.0667 19.2019C68.0445 19.2074 68.0417 19.2213 68.0584 19.2436C68.3139 19.5602 68.6334 19.938 69.0167 20.3769C69.1556 20.5491 69.25 20.663 69.3 20.7186C69.3167 20.7352 69.3334 20.7352 69.35 20.7186C69.5667 20.4463 69.7473 20.2074 69.8917 20.0019C69.925 19.9574 69.9639 19.9491 70.0084 19.9769L70.325 20.1602C70.375 20.1936 70.3834 20.2324 70.35 20.2769C70.1167 20.6213 69.8945 20.9102 69.6834 21.1436V21.1602C69.6834 21.1769 69.6945 21.1991 69.7167 21.2269C69.6945 21.1991 69.8889 21.4297 70.3 21.9186L70.45 22.0852ZM67.8084 16.8352C67.5584 16.8352 67.3584 16.9047 67.2084 17.0436C67.0584 17.1769 66.9834 17.3602 66.9834 17.5936C66.9834 17.7269 67.025 17.8686 67.1084 18.0186C67.1917 18.1686 67.3723 18.4158 67.65 18.7602C67.6667 18.7769 67.6834 18.7797 67.7 18.7686C68.0056 18.5574 68.2389 18.3602 68.4 18.1769C68.5667 17.9936 68.65 17.788 68.65 17.5602C68.65 17.3436 68.5723 17.1686 68.4167 17.0352C68.2611 16.9019 68.0584 16.8352 67.8084 16.8352ZM67.6 21.7436C67.8389 21.7436 68.0639 21.6963 68.275 21.6019C68.4917 21.5019 68.7084 21.3547 68.925 21.1602C68.9417 21.1436 68.9417 21.1269 68.925 21.1102L68.6334 20.7602C68.4834 20.5769 68.3695 20.4436 68.2917 20.3602L67.5917 19.5519C67.5861 19.5352 67.5723 19.5324 67.55 19.5436C67.2278 19.7602 66.9778 19.9741 66.8 20.1852C66.6278 20.3963 66.5417 20.6352 66.5417 20.9019C66.5417 21.1686 66.6361 21.3769 66.825 21.5269C67.0139 21.6713 67.2722 21.7436 67.6 21.7436Z" fill="#4F4F4F"/>
<path d="M75.2117 22.2602C74.8228 22.2602 74.4811 22.1852 74.1867 22.0352C73.8922 21.8797 73.6617 21.663 73.495 21.3852C73.3339 21.1019 73.2534 20.7769 73.2534 20.4102V18.1186C73.2534 17.7574 73.3339 17.438 73.495 17.1602C73.6617 16.8824 73.8922 16.6686 74.1867 16.5186C74.4811 16.363 74.8228 16.2852 75.2117 16.2852C75.6006 16.2852 75.9422 16.3602 76.2367 16.5102C76.5311 16.6602 76.7589 16.8713 76.92 17.1436C77.0867 17.4158 77.17 17.7297 77.17 18.0852C77.17 18.113 77.1617 18.1352 77.145 18.1519C77.1283 18.1686 77.1089 18.1769 77.0867 18.1769L76.6617 18.2019C76.6061 18.2019 76.5783 18.1769 76.5783 18.1269V18.1019C76.5783 17.7074 76.4534 17.3936 76.2034 17.1602C75.9534 16.9213 75.6228 16.8019 75.2117 16.8019C74.8006 16.8019 74.47 16.9213 74.22 17.1602C73.97 17.3991 73.845 17.713 73.845 18.1019V20.4352C73.845 20.8241 73.97 21.138 74.22 21.3769C74.47 21.6158 74.8006 21.7352 75.2117 21.7352C75.6228 21.7352 75.9534 21.6186 76.2034 21.3852C76.4534 21.1463 76.5783 20.8297 76.5783 20.4352V20.4186C76.5783 20.3686 76.6061 20.3436 76.6617 20.3436L77.0867 20.3686C77.1422 20.3686 77.17 20.3936 77.17 20.4436C77.17 20.8047 77.0867 21.1241 76.92 21.4019C76.7589 21.6741 76.5311 21.8852 76.2367 22.0352C75.9422 22.1852 75.6006 22.2602 75.2117 22.2602Z" fill="#4F4F4F"/>
<path d="M79.9821 22.2519C79.5821 22.2519 79.2376 22.1491 78.9487 21.9436C78.6598 21.738 78.4598 21.4547 78.3487 21.0936C78.271 20.838 78.2321 20.4963 78.2321 20.0686C78.2321 19.6408 78.271 19.3019 78.3487 19.0519C78.4543 18.6963 78.6515 18.4158 78.9404 18.2102C79.2293 18.0047 79.5793 17.9019 79.9904 17.9019C80.3848 17.9019 80.7237 18.0047 81.0071 18.2102C81.296 18.4158 81.4932 18.6936 81.5987 19.0436C81.6765 19.2824 81.7154 19.6241 81.7154 20.0686C81.7154 20.5186 81.6765 20.8602 81.5987 21.0936C81.4932 21.4547 81.296 21.738 81.0071 21.9436C80.7237 22.1491 80.3821 22.2519 79.9821 22.2519ZM79.9821 21.7352C80.2487 21.7352 80.4765 21.663 80.6654 21.5186C80.8543 21.3686 80.9821 21.1686 81.0487 20.9186C81.0987 20.7186 81.1237 20.438 81.1237 20.0769C81.1237 19.7102 81.1015 19.4297 81.0571 19.2352C80.9904 18.9852 80.8598 18.788 80.6654 18.6436C80.4765 18.4936 80.2459 18.4186 79.9737 18.4186C79.7015 18.4186 79.471 18.4936 79.2821 18.6436C79.0932 18.788 78.9654 18.9852 78.8987 19.2352C78.8543 19.4297 78.8321 19.7102 78.8321 20.0769C78.8321 20.4436 78.8543 20.7241 78.8987 20.9186C78.9598 21.1686 79.0848 21.3686 79.2737 21.5186C79.4682 21.663 79.7043 21.7352 79.9821 21.7352Z" fill="#4F4F4F"/>
<path d="M88.4664 16.7852C88.4664 16.8408 88.4386 16.8686 88.383 16.8686H85.3247C85.3025 16.8686 85.2914 16.8797 85.2914 16.9019V18.9602C85.2914 18.9824 85.3025 18.9936 85.3247 18.9936H87.4664C87.5219 18.9936 87.5497 19.0213 87.5497 19.0769V19.4269C87.5497 19.4824 87.5219 19.5102 87.4664 19.5102H85.3247C85.3025 19.5102 85.2914 19.5213 85.2914 19.5436V22.1019C85.2914 22.1574 85.2636 22.1852 85.208 22.1852H84.783C84.7275 22.1852 84.6997 22.1574 84.6997 22.1019V16.4352C84.6997 16.3797 84.7275 16.3519 84.783 16.3519H88.383C88.4386 16.3519 88.4664 16.3797 88.4664 16.4352V16.7852Z" fill="#4F4F4F"/>
<path d="M90.594 22.2519C90.194 22.2519 89.8496 22.1491 89.5607 21.9436C89.2718 21.738 89.0718 21.4547 88.9607 21.0936C88.8829 20.838 88.844 20.4963 88.844 20.0686C88.844 19.6408 88.8829 19.3019 88.9607 19.0519C89.0663 18.6963 89.2635 18.4158 89.5524 18.2102C89.8413 18.0047 90.1913 17.9019 90.6024 17.9019C90.9968 17.9019 91.3357 18.0047 91.619 18.2102C91.9079 18.4158 92.1052 18.6936 92.2107 19.0436C92.2885 19.2824 92.3274 19.6241 92.3274 20.0686C92.3274 20.5186 92.2885 20.8602 92.2107 21.0936C92.1052 21.4547 91.9079 21.738 91.619 21.9436C91.3357 22.1491 90.994 22.2519 90.594 22.2519ZM90.594 21.7352C90.8607 21.7352 91.0885 21.663 91.2774 21.5186C91.4663 21.3686 91.594 21.1686 91.6607 20.9186C91.7107 20.7186 91.7357 20.438 91.7357 20.0769C91.7357 19.7102 91.7135 19.4297 91.669 19.2352C91.6024 18.9852 91.4718 18.788 91.2774 18.6436C91.0885 18.4936 90.8579 18.4186 90.5857 18.4186C90.3135 18.4186 90.0829 18.4936 89.894 18.6436C89.7052 18.788 89.5774 18.9852 89.5107 19.2352C89.4663 19.4297 89.444 19.7102 89.444 20.0769C89.444 20.4436 89.4663 20.7241 89.5107 20.9186C89.5718 21.1686 89.6968 21.3686 89.8857 21.5186C90.0802 21.663 90.3163 21.7352 90.594 21.7352Z" fill="#4F4F4F"/>
<path d="M96.0767 18.0519C96.0767 17.9963 96.1045 17.9686 96.1601 17.9686H96.5851C96.6406 17.9686 96.6684 17.9963 96.6684 18.0519V22.1019C96.6684 22.1574 96.6406 22.1852 96.5851 22.1852H96.1601C96.1045 22.1852 96.0767 22.1574 96.0767 22.1019V21.7436C96.0767 21.7324 96.0712 21.7241 96.0601 21.7186C96.049 21.713 96.0406 21.7158 96.0351 21.7269C95.8017 22.0713 95.4323 22.2436 94.9267 22.2436C94.6601 22.2436 94.4128 22.1908 94.1851 22.0852C93.9628 21.9741 93.7851 21.8158 93.6517 21.6102C93.5239 21.4047 93.4601 21.1574 93.4601 20.8686V18.0519C93.4601 17.9963 93.4878 17.9686 93.5434 17.9686H93.9684C94.0239 17.9686 94.0517 17.9963 94.0517 18.0519V20.6936C94.0517 21.0102 94.1406 21.263 94.3184 21.4519C94.4962 21.6352 94.7378 21.7269 95.0434 21.7269C95.3601 21.7269 95.6101 21.6324 95.7934 21.4436C95.9823 21.2547 96.0767 21.0047 96.0767 20.6936V18.0519Z" fill="#4F4F4F"/>
<path d="M99.7445 17.9102C100.189 17.9102 100.542 18.0408 100.803 18.3019C101.069 18.563 101.203 18.913 101.203 19.3519V22.1019C101.203 22.1574 101.175 22.1852 101.119 22.1852H100.694C100.639 22.1852 100.611 22.1574 100.611 22.1019V19.4686C100.611 19.163 100.517 18.913 100.328 18.7186C100.144 18.5241 99.9056 18.4269 99.6112 18.4269C99.3056 18.4269 99.0584 18.5213 98.8695 18.7102C98.6806 18.8991 98.5862 19.1463 98.5862 19.4519V22.1019C98.5862 22.1574 98.5584 22.1852 98.5028 22.1852H98.0778C98.0223 22.1852 97.9945 22.1574 97.9945 22.1019V18.0519C97.9945 17.9963 98.0223 17.9686 98.0778 17.9686H98.5028C98.5584 17.9686 98.5862 17.9963 98.5862 18.0519V18.4102C98.5862 18.4213 98.5889 18.4297 98.5945 18.4352C98.6056 18.4408 98.6139 18.438 98.6195 18.4269C98.8639 18.0824 99.2389 17.9102 99.7445 17.9102Z" fill="#4F4F4F"/>
<path d="M105.046 16.4352C105.046 16.3797 105.074 16.3519 105.13 16.3519H105.555C105.61 16.3519 105.638 16.3797 105.638 16.4352V22.1019C105.638 22.1574 105.61 22.1852 105.555 22.1852H105.13C105.074 22.1852 105.046 22.1574 105.046 22.1019V21.7519C105.046 21.7408 105.041 21.7352 105.03 21.7352C105.024 21.7297 105.016 21.7324 105.005 21.7436C104.882 21.9047 104.73 22.0297 104.546 22.1186C104.369 22.2074 104.169 22.2519 103.946 22.2519C103.557 22.2519 103.23 22.1519 102.963 21.9519C102.702 21.7519 102.521 21.4797 102.421 21.1352C102.344 20.8852 102.305 20.5324 102.305 20.0769C102.305 19.6158 102.338 19.2713 102.405 19.0436C102.505 18.688 102.688 18.4102 102.955 18.2102C103.221 18.0047 103.552 17.9019 103.946 17.9019C104.163 17.9019 104.363 17.9463 104.546 18.0352C104.73 18.1186 104.882 18.2408 105.005 18.4019C105.016 18.413 105.024 18.4186 105.03 18.4186C105.041 18.413 105.046 18.4047 105.046 18.3936V16.4352ZM104.896 21.0936C104.946 20.9824 104.982 20.8519 105.005 20.7019C105.027 20.5519 105.038 20.3436 105.038 20.0769C105.038 19.8102 105.027 19.6019 105.005 19.4519C104.982 19.2963 104.944 19.1602 104.888 19.0436C104.821 18.8547 104.71 18.7047 104.555 18.5936C104.405 18.4769 104.224 18.4186 104.013 18.4186C103.791 18.4186 103.599 18.4741 103.438 18.5852C103.277 18.6963 103.16 18.8436 103.088 19.0269C103.021 19.1491 102.971 19.288 102.938 19.4436C102.91 19.5936 102.896 19.8047 102.896 20.0769C102.896 20.338 102.908 20.5436 102.93 20.6936C102.952 20.838 102.991 20.9686 103.046 21.0852C103.113 21.2852 103.23 21.4436 103.396 21.5602C103.569 21.6769 103.771 21.7352 104.005 21.7352C104.227 21.7352 104.413 21.6769 104.563 21.5602C104.713 21.4436 104.824 21.288 104.896 21.0936Z" fill="#4F4F4F"/>
<path d="M110.212 19.3686C110.234 19.5241 110.246 19.7186 110.246 19.9519V20.2186C110.246 20.2741 110.218 20.3019 110.162 20.3019H107.471C107.448 20.3019 107.437 20.313 107.437 20.3352C107.448 20.6408 107.465 20.838 107.487 20.9269C107.548 21.1769 107.679 21.3741 107.879 21.5186C108.079 21.663 108.334 21.7352 108.646 21.7352C108.879 21.7352 109.084 21.6824 109.262 21.5769C109.44 21.4713 109.579 21.3213 109.679 21.1269C109.712 21.0769 109.751 21.0658 109.796 21.0936L110.121 21.2852C110.165 21.313 110.176 21.3519 110.154 21.4019C110.015 21.6686 109.807 21.8797 109.529 22.0352C109.251 22.1852 108.932 22.2602 108.571 22.2602C108.176 22.2547 107.846 22.1602 107.579 21.9769C107.312 21.7936 107.121 21.538 107.004 21.2102C106.904 20.9436 106.854 20.5602 106.854 20.0602C106.854 19.8269 106.857 19.638 106.862 19.4936C106.873 19.3436 106.896 19.2102 106.929 19.0936C107.023 18.7324 107.212 18.4436 107.496 18.2269C107.784 18.0102 108.132 17.9019 108.537 17.9019C109.043 17.9019 109.432 18.0297 109.704 18.2852C109.976 18.5408 110.146 18.9019 110.212 19.3686ZM108.537 18.4186C108.265 18.4186 108.037 18.4908 107.854 18.6352C107.676 18.7741 107.559 18.963 107.504 19.2019C107.471 19.3186 107.448 19.5074 107.437 19.7686C107.437 19.7908 107.448 19.8019 107.471 19.8019H109.629C109.651 19.8019 109.662 19.7908 109.662 19.7686C109.651 19.5186 109.634 19.3408 109.612 19.2352C109.551 18.9852 109.426 18.788 109.237 18.6436C109.054 18.4936 108.821 18.4186 108.537 18.4186Z" fill="#4F4F4F"/>
<path d="M113.122 17.9269C113.306 17.9269 113.464 17.963 113.597 18.0352C113.642 18.0574 113.658 18.0936 113.647 18.1436L113.556 18.5519C113.539 18.6074 113.503 18.6241 113.447 18.6019C113.353 18.563 113.244 18.5436 113.122 18.5436L113.014 18.5519C112.725 18.563 112.486 18.6713 112.297 18.8769C112.108 19.0769 112.014 19.3324 112.014 19.6436V22.1019C112.014 22.1574 111.986 22.1852 111.931 22.1852H111.506C111.45 22.1852 111.422 22.1574 111.422 22.1019V18.0519C111.422 17.9963 111.45 17.9686 111.506 17.9686H111.931C111.986 17.9686 112.014 17.9963 112.014 18.0519V18.5602C112.014 18.5769 112.017 18.588 112.022 18.5936C112.033 18.5936 112.042 18.588 112.047 18.5769C112.164 18.3713 112.311 18.213 112.489 18.1019C112.672 17.9852 112.883 17.9269 113.122 17.9269Z" fill="#4F4F4F"/>
</svg>
