<svg width="25" height="24" viewBox="0 0 25 24" fill="none" xmlns="http://www.w3.org/2000/svg">
<path d="M18.0232 14.709L18.0244 14.7102L23.1925 19.7087C23.1926 19.7089 23.1927 19.709 23.1929 19.7091C23.8953 20.3849 23.8905 21.4868 23.1853 22.1597C22.488 22.8249 21.3706 22.8212 20.6777 22.1514L20.6776 22.1513L15.5099 17.1531C15.5097 17.1529 15.5095 17.1527 15.5093 17.1526C15.086 16.7461 14.917 16.1792 15.0087 15.6458L13.7438 14.4231C10.6257 16.6901 6.16852 16.453 3.33234 13.7114L3.33221 13.7113C0.235689 10.7151 0.251142 5.86845 3.36727 2.89531C6.4777 -0.072383 11.4978 -0.0558704 14.589 2.93223C17.4248 5.67068 17.6516 9.96056 15.281 12.9508L16.5892 14.2153C17.0985 14.1657 17.628 14.3302 18.0232 14.709ZM4.40103 3.93676C1.87947 6.3426 1.86679 10.2542 4.37266 12.6767C6.89011 15.1075 10.9872 15.121 13.5203 12.7069C16.0419 10.301 16.0546 6.38928 13.5486 3.96685C11.0311 1.53335 6.93415 1.51988 4.40103 3.93676Z" fill="#4F4F4F" stroke="#4F4F4F" stroke-width="0.75"/>
</svg>
