<svg width="150" height="22" viewBox="0 0 150 22" fill="none" xmlns="http://www.w3.org/2000/svg">
<path d="M12 1H9C7.67392 1 6.40215 1.52678 5.46447 2.46447C4.52678 3.40215 4 4.67392 4 6V9H1V13H4V21H8V13H11L12 9H8V6C8 5.73478 8.10536 5.48043 8.29289 5.29289C8.48043 5.10536 8.73478 5 9 5H12V1Z" fill="#F7F6F3" stroke="#F7F6F3" stroke-linecap="round" stroke-linejoin="round"/>
<path d="M58 2.01006C57.0424 2.68553 55.9821 3.20217 54.86 3.54006C54.2577 2.84757 53.4573 2.35675 52.567 2.13398C51.6767 1.91122 50.7395 1.96725 49.8821 2.29451C49.0247 2.62177 48.2884 3.20446 47.773 3.96377C47.2575 4.72309 46.9877 5.62239 47 6.54006V7.54006C45.2426 7.58562 43.5013 7.19587 41.931 6.4055C40.3607 5.61513 39.0103 4.44869 38 3.01006C38 3.01006 34 12.0101 43 16.0101C40.9405 17.408 38.4872 18.109 36 18.0101C45 23.0101 56 18.0101 56 6.51006C55.9991 6.23151 55.9723 5.95365 55.92 5.68006C56.9406 4.67355 57.6608 3.40277 58 2.01006Z" fill="#F7F6F3" stroke="#F7F6F3" stroke-linecap="round" stroke-linejoin="round"/>
<path d="M143.002 1H133.002C130.241 1 128.002 3.23858 128.002 6V16C128.002 18.7614 130.241 21 133.002 21H143.002C145.763 21 148.002 18.7614 148.002 16V6C148.002 3.23858 145.763 1 143.002 1Z" stroke="#F7F6F3" stroke-width="2" stroke-linecap="round" stroke-linejoin="round"/>
<path d="M142.002 10.3703C142.125 11.2025 141.983 12.0525 141.595 12.7993C141.208 13.5461 140.595 14.1517 139.843 14.53C139.092 14.9082 138.24 15.0399 137.409 14.9062C136.579 14.7726 135.811 14.3804 135.216 13.7855C134.622 13.1905 134.229 12.4232 134.096 11.5925C133.962 10.7619 134.094 9.9102 134.472 9.15868C134.85 8.40716 135.456 7.79404 136.203 7.40654C136.949 7.01904 137.799 6.87689 138.632 7.0003C139.481 7.12619 140.267 7.52176 140.873 8.12861C141.48 8.73545 141.876 9.52138 142.002 10.3703Z" stroke="#F7F6F3" stroke-width="2" stroke-linecap="round" stroke-linejoin="round"/>
<path d="M143.502 5.5H143.512" stroke="#F7F6F3" stroke-width="2" stroke-linecap="round" stroke-linejoin="round"/>
<path d="M103.541 5.42C103.422 4.94541 103.18 4.51057 102.839 4.15941C102.499 3.80824 102.071 3.55318 101.601 3.42C99.8806 3 93.0006 3 93.0006 3C93.0006 3 86.1206 3 84.4006 3.46C83.9298 3.59318 83.5025 3.84824 83.1619 4.19941C82.8213 4.55057 82.5794 4.98541 82.4606 5.46C82.1458 7.20556 81.9918 8.97631 82.0006 10.75C81.9894 12.537 82.1433 14.3213 82.4606 16.08C82.5915 16.5398 82.8389 16.9581 83.1787 17.2945C83.5186 17.6308 83.9394 17.8738 84.4006 18C86.1206 18.46 93.0006 18.46 93.0006 18.46C93.0006 18.46 99.8806 18.46 101.601 18C102.071 17.8668 102.499 17.6118 102.839 17.2606C103.18 16.9094 103.422 16.4746 103.541 16C103.853 14.2676 104.007 12.5103 104.001 10.75C104.012 8.96295 103.858 7.1787 103.541 5.42Z" fill="#F7F6F3" stroke="#F7F6F3" stroke-linecap="round" stroke-linejoin="round"/>
<path d="M90.75 14.0205L96.5 10.7505L90.75 7.48047V14.0205Z" fill="#44423F" stroke="#44423F" stroke-width="0.75" stroke-linecap="round" stroke-linejoin="round"/>
</svg>
