<svg width="8" height="6" viewBox="0 0 8 6" fill="none" xmlns="http://www.w3.org/2000/svg">
<path d="M7.09701 2.61626L5.09844 0.617695C4.91428 0.433526 4.60733 0.433526 4.42316 0.617695C4.23899 0.801863 4.23899 1.10881 4.42316 1.29298L5.6032 2.47984L1.23773 2.47984C0.971707 2.47984 0.760254 2.69129 0.760254 2.95732C0.760254 3.22334 0.971707 3.43479 1.23773 3.43479L5.6032 3.43479L4.42316 4.61483C4.23899 4.799 4.23899 5.10595 4.42316 5.29012C4.51865 5.38561 4.64143 5.43336 4.76421 5.43336C4.88699 5.43336 5.00977 5.38561 5.10526 5.29012L7.09701 3.29837C7.18569 3.20969 7.24025 3.08692 7.24025 2.95732C7.24025 2.82772 7.19251 2.70494 7.09701 2.61626Z" fill="#76736F"/>
</svg>
