<svg width="14" height="11" viewBox="0 0 14 11" fill="none" xmlns="http://www.w3.org/2000/svg">
<path d="M13.1935 5.23311L9.1964 1.23597C8.82806 0.867633 8.21417 0.867633 7.84583 1.23597C7.47749 1.60431 7.47749 2.2182 7.84583 2.58654L10.2059 4.96026L1.47497 4.96026C0.942925 4.96026 0.52002 5.38317 0.52002 5.91521C0.52002 6.44725 0.942925 6.87016 1.47497 6.87016L10.2059 6.87016L7.84583 9.23024C7.47749 9.59858 7.47749 10.2125 7.84583 10.5808C8.03682 10.7718 8.28238 10.8673 8.52794 10.8673C8.77349 10.8673 9.01905 10.7718 9.21004 10.5808L13.1935 6.59732C13.3709 6.41997 13.48 6.17441 13.48 5.91521C13.48 5.65601 13.3845 5.41045 13.1935 5.23311Z" fill="#76736F"/>
</svg>
