<svg width="9" height="7" viewBox="0 0 9 7" fill="none" xmlns="http://www.w3.org/2000/svg">
<path d="M8.51586 3.16493L5.86134 0.468215C5.61672 0.219712 5.2077 0.218366 4.96148 0.465255C4.71527 0.712144 4.71393 1.12497 4.95855 1.37347L6.52587 2.97491L0.708628 2.95577C0.35414 2.95461 0.0714494 3.23807 0.0702941 3.59586C0.0691388 3.95364 0.349993 4.23896 0.704481 4.24012L6.52172 4.25926L4.94412 5.84118C4.69791 6.08806 4.69657 6.50089 4.94119 6.74939C5.06803 6.87825 5.23143 6.943 5.39504 6.94354C5.55865 6.94408 5.72247 6.8804 5.85013 6.75238L8.5129 4.08233C8.63145 3.96346 8.70469 3.79856 8.70526 3.62426C8.70582 3.44995 8.64273 3.28461 8.51586 3.16493Z" fill="#76736F"/>
</svg>
