<svg width="20" height="110" viewBox="0 0 20 110" fill="none" xmlns="http://www.w3.org/2000/svg">
<path d="M13.4611 0.942382L11.0625 0.934492C10.0022 0.931004 8.98396 1.35276 8.23179 2.10697C7.47962 2.86118 7.05511 3.88607 7.05166 4.95617L7.04384 7.37707L4.64517 7.36918L4.63475 10.597L7.03342 10.6049L7.01257 17.0607L10.2108 17.0712L10.2316 10.6155L12.6303 10.6233L13.4403 7.39811L10.2421 7.38759L10.2499 4.96669C10.2506 4.75267 10.3355 4.54769 10.4859 4.39685C10.6363 4.24601 10.84 4.16166 11.052 4.16236L13.4507 4.17025L13.4611 0.942382Z" fill="#F7F6F3" stroke="#F7F6F3" stroke-linecap="round" stroke-linejoin="round"/>
<path d="M19.1539 33.2485C18.3865 33.791 17.5374 34.2052 16.6394 34.4749C16.1596 33.9145 15.521 33.5163 14.8097 33.3342C14.0985 33.1521 13.3489 33.1948 12.6625 33.4567C11.9762 33.7185 11.386 34.1868 10.9719 34.7982C10.5578 35.4095 10.3397 36.1345 10.3471 36.8751L10.3445 37.682C8.93931 37.7142 7.54803 37.3951 6.29459 36.7532C5.04116 36.1112 3.96447 35.1664 3.16042 34.0028C3.16042 34.0028 -0.0612089 41.255 7.12427 44.5065C5.47399 45.6292 3.51058 46.1884 1.52225 46.102C8.70512 50.1605 17.5131 46.1546 17.5431 36.8745C17.5431 36.6498 17.5224 36.4255 17.4813 36.2046C18.3 35.395 18.8791 34.3714 19.1539 33.2485Z" fill="#F7F6F3" stroke="#F7F6F3" stroke-linecap="round" stroke-linejoin="round"/>
<path d="M13.9669 92.4586L5.97138 92.4323C3.76349 92.4251 1.9678 94.2257 1.9606 96.4541L1.93455 104.524C1.92735 106.752 3.71137 108.565 5.91927 108.572L13.9148 108.598C16.1227 108.605 17.9184 106.805 17.9255 104.576L17.9516 96.5067C17.9588 94.2783 16.1748 92.4659 13.9669 92.4586Z" stroke="#F7F6F3" stroke-width="2" stroke-linecap="round" stroke-linejoin="round"/>
<path d="M13.1425 100.018C13.239 100.689 13.1231 101.375 12.8114 101.977C12.4996 102.578 12.0078 103.065 11.4059 103.369C10.8041 103.672 10.1228 103.776 9.45896 103.666C8.79515 103.556 8.18262 103.237 7.7085 102.756C7.23438 102.274 6.9228 101.654 6.81809 100.983C6.71339 100.312 6.82088 99.6254 7.12528 99.02C7.42967 98.4145 7.91548 97.9213 8.5136 97.6106C9.11172 97.2999 9.79168 97.1874 10.4568 97.2892C11.1352 97.393 11.7626 97.7143 12.2462 98.2056C12.7298 98.6969 13.0441 99.3321 13.1425 100.018Z" stroke="#F7F6F3" stroke-width="2" stroke-linecap="round" stroke-linejoin="round"/>
<path d="M14.355 96.0916L14.363 96.0916" stroke="#F7F6F3" stroke-width="2" stroke-linecap="round" stroke-linejoin="round"/>
<path d="M18.6814 65.8112C18.5876 65.4279 18.3953 65.0763 18.1239 64.792C17.8525 64.5078 17.5115 64.3008 17.1355 64.1921C15.7613 63.8487 10.2604 63.8306 10.2604 63.8306C10.2604 63.8306 4.75946 63.8125 3.38303 64.1792C3.00629 64.2854 2.664 64.4901 2.39073 64.7726C2.11747 65.0551 1.9229 65.4053 1.82669 65.788C1.57045 67.1958 1.44272 68.6243 1.44511 70.0557C1.43148 71.4977 1.54995 72.938 1.79901 74.358C1.90252 74.7295 2.0992 75.0677 2.37004 75.34C2.64088 75.6123 2.97673 75.8095 3.34514 75.9125C4.71918 76.2882 10.2201 76.3063 10.2201 76.3063C10.2201 76.3063 15.721 76.3244 17.0975 75.9577C17.4742 75.8515 17.8165 75.6468 18.0898 75.3643C18.363 75.0818 18.5576 74.7316 18.6538 74.3489C18.9081 72.9517 19.0358 71.5341 19.0353 70.1135C19.0489 68.6715 18.9304 67.2312 18.6814 65.8112Z" fill="#F7F6F3" stroke="#F7F6F3" stroke-linecap="round" stroke-linejoin="round"/>
<path d="M8.43169 72.7179L13.0376 70.0942L8.44873 67.4403L8.43169 72.7179Z" fill="#44423F" stroke="#44423F" stroke-width="0.75" stroke-linecap="round" stroke-linejoin="round"/>
</svg>
