<svg width="10" height="8" viewBox="0 0 10 8" fill="none" xmlns="http://www.w3.org/2000/svg">
<path d="M9.11412 3.24059L6.45956 0.543668C6.21494 0.295147 5.80591 0.293801 5.55969 0.540708C5.31348 0.787615 5.31214 1.20047 5.55676 1.44899L7.1241 3.05055L1.30678 3.03141C0.952288 3.03024 0.669593 3.31373 0.668438 3.67154C0.667282 4.02935 0.948141 4.31469 1.30263 4.31585L7.11995 4.33499L5.54233 5.91702C5.29612 6.16393 5.29478 6.57679 5.5394 6.82531C5.66624 6.95417 5.82965 7.01893 5.99326 7.01947C6.15687 7.02001 6.32069 6.95632 6.44836 6.8283L9.11116 4.15805C9.22971 4.03916 9.30296 3.87426 9.30352 3.69994C9.30409 3.52563 9.24099 3.36027 9.11412 3.24059Z" fill="#76736F"/>
</svg>
