<svg width="14" height="11" viewBox="0 0 14 11" fill="none" xmlns="http://www.w3.org/2000/svg">
<path d="M13.5255 4.64276L9.54365 0.597778C9.17672 0.225032 8.56317 0.223014 8.19384 0.593338C7.82451 0.963662 7.82251 1.58289 8.18944 1.95563L10.5405 4.35773L1.81443 4.32902C1.28268 4.32728 0.858639 4.75246 0.856906 5.28912C0.855174 5.82579 1.27646 6.25375 1.80821 6.2555L10.5342 6.2842L8.1678 8.65702C7.79847 9.02735 7.79647 9.64657 8.16341 10.0193C8.35367 10.2126 8.59877 10.3097 8.84419 10.3105C9.08961 10.3113 9.33534 10.2158 9.52685 10.0238L13.5211 6.01882C13.6989 5.84051 13.8088 5.59318 13.8096 5.33173C13.8105 5.07028 13.7158 4.82228 13.5255 4.64276Z" fill="#76736F"/>
</svg>
