<svg width="6" height="6" viewBox="0 0 6 6" fill="none" xmlns="http://www.w3.org/2000/svg">
<path d="M3.31708 5.58044L4.98255 3.91496C5.13602 3.76149 5.13602 3.5057 4.98255 3.35223C4.82908 3.19875 4.57329 3.19875 4.41981 3.35223L3.43076 4.33559L3.43076 0.697699C3.43076 0.476015 3.25455 0.299805 3.03287 0.299805C2.81118 0.299805 2.63497 0.476015 2.63497 0.697699L2.63497 4.33559L1.6516 3.35223C1.49813 3.19875 1.24234 3.19875 1.08887 3.35223C1.00929 3.4318 0.969498 3.53412 0.969498 3.63644C0.969498 3.73875 1.00929 3.84107 1.08887 3.92065L2.74866 5.58044C2.82255 5.65433 2.92487 5.69981 3.03287 5.69981C3.14087 5.69981 3.24318 5.66002 3.31708 5.58044Z" fill="#76736F"/>
</svg>
