<svg width="9" height="8" viewBox="0 0 9 8" fill="none" xmlns="http://www.w3.org/2000/svg">
<path d="M8.78246 3.8286L6.12794 1.13168C5.88332 0.883159 5.4743 0.881814 5.22808 1.12872C4.98187 1.37563 4.98054 1.78848 5.22515 2.03701L6.79247 3.63856L0.975229 3.61942C0.620741 3.61826 0.33805 3.90174 0.336895 4.25955C0.33574 4.61736 0.616594 4.9027 0.971082 4.90387L6.78832 4.923L5.21072 6.50504C4.96451 6.75194 4.96317 7.1648 5.20779 7.41332C5.33463 7.54218 5.49803 7.60694 5.66164 7.60748C5.82525 7.60802 5.98907 7.54433 6.11673 7.41631L8.7795 4.74606C8.89805 4.62718 8.9713 4.46227 8.97186 4.28796C8.97242 4.11364 8.90933 3.94829 8.78246 3.8286Z" fill="#76736F"/>
</svg>
