<svg width="18" height="14" viewBox="0 0 18 14" fill="none" xmlns="http://www.w3.org/2000/svg">
<path d="M16.898 5.69785L11.5685 0.368337C11.0774 -0.122779 10.2589 -0.122779 9.76775 0.368337C9.27663 0.859453 9.27663 1.67798 9.76775 2.16909L12.9145 5.33406L1.27326 5.33406C0.563874 5.33406 0 5.89794 0 6.60733C0 7.31672 0.563874 7.88059 1.27326 7.88059L12.9145 7.88059L9.76775 11.0274C9.27663 11.5185 9.27663 12.337 9.76775 12.8281C10.0224 13.0828 10.3498 13.2101 10.6772 13.2101C11.0046 13.2101 11.332 13.0828 11.5867 12.8281L16.898 7.5168C17.1345 7.28034 17.28 6.95293 17.28 6.60733C17.28 6.26173 17.1527 5.93432 16.898 5.69785Z" fill="#76736F"/>
</svg>
