<svg width="24" height="24" viewBox="0 0 24 24" fill="none" xmlns="http://www.w3.org/2000/svg">
<path d="M17.8018 14.709L17.803 14.7102L22.971 19.7087C22.9712 19.7089 22.9713 19.709 22.9714 19.7091C23.6739 20.3849 23.6691 21.4868 22.9639 22.1597C22.2666 22.8249 21.1492 22.8212 20.4562 22.1514L20.4562 22.1513L15.2884 17.1531C15.2882 17.1529 15.288 17.1527 15.2878 17.1526C14.8645 16.7461 14.6956 16.1792 14.7872 15.6458L13.5223 14.4231C10.4042 16.6901 5.94708 16.453 3.11091 13.7114L3.11077 13.7113C0.0142532 10.7151 0.0297068 5.86845 3.14583 2.89531C6.25626 -0.0723832 11.2764 -0.0558705 14.3676 2.93223C17.2034 5.67068 17.4301 9.96056 15.0596 12.9508L16.3677 14.2153C16.8771 14.1657 17.4066 14.3302 17.8018 14.709ZM4.17959 3.93676C1.65803 6.34261 1.64535 10.2542 4.15122 12.6767C6.66868 15.1075 10.7657 15.121 13.2989 12.7069C15.8205 10.301 15.8331 6.38928 13.3271 3.96685C10.8097 1.53335 6.71271 1.51988 4.17959 3.93676Z" fill="#4F4F4F" stroke="#4F4F4F" stroke-width="0.75"/>
</svg>
