<svg width="9" height="7" viewBox="0 0 9 7" fill="none" xmlns="http://www.w3.org/2000/svg">
<path d="M8.49944 2.9857L5.84486 0.288785C5.60024 0.040264 5.1912 0.0389186 4.94498 0.285825C4.69876 0.532732 4.69743 0.945589 4.94205 1.19411L6.5094 2.79566L0.692039 2.77653C0.337544 2.77536 0.0548471 3.05885 0.0536918 3.41666C0.0525364 3.77447 0.333396 4.05981 0.687892 4.06097L6.50525 4.08011L4.92762 5.66214C4.6814 5.90905 4.68007 6.3219 4.92469 6.57042C5.05153 6.69929 5.21494 6.76405 5.37855 6.76459C5.54216 6.76512 5.70598 6.70144 5.83365 6.57341L8.49647 3.90316C8.61503 3.78428 8.68828 3.61938 8.68884 3.44506C8.6894 3.27074 8.62631 3.10539 8.49944 2.9857Z" fill="#76736F"/>
</svg>
