<svg width="20" height="109" viewBox="0 0 20 109" fill="none" xmlns="http://www.w3.org/2000/svg">
<path d="M12.8 1H10.4C9.33913 1 8.32172 1.42143 7.57157 2.17157C6.82143 2.92172 6.4 3.93913 6.4 5V7.4H4V10.6H6.4V17H9.6V10.6H12L12.8 7.4H9.6V5C9.6 4.78783 9.68429 4.58434 9.83431 4.43431C9.98434 4.28429 10.1878 4.2 10.4 4.2H12.8V1Z" fill="#F7F6F3" stroke="#F7F6F3" stroke-linecap="round" stroke-linejoin="round"/>
<path d="M18.6 33.008C17.8339 33.5484 16.9857 33.9617 16.088 34.232C15.6062 33.6781 14.9659 33.2854 14.2536 33.1072C13.5414 32.929 12.7916 32.9738 12.1057 33.2356C11.4197 33.4974 10.8308 33.9636 10.4184 34.571C10.006 35.1785 9.79016 35.8979 9.8 36.632V37.432C8.39411 37.4685 7.00102 37.1567 5.74481 36.5244C4.48859 35.8921 3.40825 34.959 2.6 33.808C2.6 33.808 -0.6 41.008 6.6 44.208C4.95242 45.3264 2.98973 45.8872 1 45.808C8.2 49.808 17 45.808 17 36.608C16.9993 36.3852 16.9778 36.1629 16.936 35.944C17.7525 35.1388 18.3287 34.1222 18.6 33.008Z" fill="#F7F6F3" stroke="#F7F6F3" stroke-linecap="round" stroke-linejoin="round"/>
<path d="M13.6016 91.7231H5.60156C3.39242 91.7231 1.60156 93.514 1.60156 95.7231V103.723C1.60156 105.932 3.39242 107.723 5.60156 107.723H13.6016C15.8107 107.723 17.6016 105.932 17.6016 103.723V95.7231C17.6016 93.514 15.8107 91.7231 13.6016 91.7231Z" stroke="#F7F6F3" stroke-width="2" stroke-linecap="round" stroke-linejoin="round"/>
<path d="M12.8014 99.2194C12.9002 99.8852 12.7864 100.565 12.4764 101.163C12.1664 101.76 11.6759 102.245 11.0747 102.547C10.4735 102.85 9.79218 102.955 9.12765 102.848C8.46313 102.741 7.84923 102.427 7.3733 101.952C6.89736 101.476 6.58361 100.862 6.47668 100.197C6.36975 99.5326 6.47508 98.8513 6.77769 98.2501C7.0803 97.6489 7.56477 97.1584 8.16221 96.8484C8.75965 96.5384 9.43963 96.4247 10.1054 96.5234C10.7846 96.6241 11.4133 96.9406 11.8988 97.426C12.3843 97.9115 12.7007 98.5402 12.8014 99.2194Z" stroke="#F7F6F3" stroke-width="2" stroke-linecap="round" stroke-linejoin="round"/>
<path d="M14.0015 95.3231H14.0095" stroke="#F7F6F3" stroke-width="2" stroke-linecap="round" stroke-linejoin="round"/>
<path d="M18.2325 65.291C18.1374 64.9113 17.9439 64.5634 17.6714 64.2825C17.3989 64.0016 17.0571 63.7975 16.6805 63.691C15.3045 63.355 9.80046 63.355 9.80046 63.355C9.80046 63.355 4.29646 63.355 2.92046 63.723C2.54386 63.8295 2.20204 64.0336 1.92953 64.3145C1.65703 64.5954 1.46349 64.9433 1.36846 65.323C1.11663 66.7194 0.993446 68.136 1.00046 69.555C0.991481 70.9846 1.11467 72.412 1.36846 73.819C1.47322 74.1869 1.6711 74.5215 1.94297 74.7906C2.21484 75.0596 2.55151 75.254 2.92046 75.355C4.29646 75.723 9.80046 75.723 9.80046 75.723C9.80046 75.723 15.3045 75.723 16.6805 75.355C17.0571 75.2484 17.3989 75.0444 17.6714 74.7635C17.9439 74.4825 18.1374 74.1347 18.2325 73.755C18.4823 72.3691 18.6055 70.9632 18.6005 69.555C18.6094 68.1253 18.4862 66.6979 18.2325 65.291Z" fill="#F7F6F3" stroke="#F7F6F3" stroke-linecap="round" stroke-linejoin="round"/>
<path d="M7.99927 72.1712L12.5993 69.5552L7.99927 66.9392V72.1712Z" fill="#44423F" stroke="#44423F" stroke-width="0.75" stroke-linecap="round" stroke-linejoin="round"/>
</svg>
