<svg width="20" height="110" viewBox="0 0 20 110" fill="none" xmlns="http://www.w3.org/2000/svg">
<path d="M12.8931 0.663451L10.4945 0.655561C9.43424 0.652073 8.41603 1.07383 7.66387 1.82804C6.91171 2.58225 6.48721 3.60714 6.48375 4.67724L6.47593 7.09814L4.0773 7.09025L4.06688 10.3181L6.46551 10.326L6.44467 16.7817L9.64285 16.7923L9.66369 10.3365L12.0623 10.3444L12.8723 7.11918L9.67411 7.10866L9.68193 4.68776C9.68262 4.47374 9.76752 4.26876 9.91796 4.11792C10.0684 3.96708 10.272 3.88273 10.4841 3.88343L12.8827 3.89132L12.8931 0.663451Z" fill="#F7F6F3" stroke="#F7F6F3" stroke-linecap="round" stroke-linejoin="round"/>
<path d="M18.5856 32.9695C17.8182 33.5121 16.9691 33.9262 16.071 34.196C15.5913 33.6355 14.9526 33.2374 14.2413 33.0553C13.5301 32.8731 12.7806 32.9159 12.0942 33.1777C11.4078 33.4396 10.8176 33.9079 10.4035 34.5192C9.98941 35.1306 9.77133 35.8557 9.77877 36.5962L9.77617 37.4032C8.37095 37.4353 6.97967 37.1162 5.72624 36.4743C4.4728 35.8324 3.39611 34.8875 2.59206 33.7239C2.59206 33.7239 -0.629569 40.9762 6.55591 44.2278C4.90563 45.3505 2.94222 45.9097 0.953887 45.8233C8.13676 49.8819 16.9448 45.8759 16.9748 36.5957C16.9747 36.3709 16.9541 36.1466 16.913 35.9257C17.7316 35.1161 18.3108 34.0925 18.5856 32.9695Z" fill="#F7F6F3" stroke="#F7F6F3" stroke-linecap="round" stroke-linejoin="round"/>
<path d="M13.3984 92.1797L5.40299 92.1534C3.19511 92.1461 1.39944 93.9467 1.39224 96.1751L1.36619 104.245C1.35899 106.473 3.143 108.286 5.35088 108.293L13.3463 108.319C15.5542 108.327 17.3499 106.526 17.3571 104.298L17.3831 96.2277C17.3903 93.9993 15.6063 92.187 13.3984 92.1797Z" stroke="#F7F6F3" stroke-width="2" stroke-linecap="round" stroke-linejoin="round"/>
<path d="M12.5742 99.7386C12.6707 100.411 12.5548 101.096 12.243 101.698C11.9312 102.299 11.4394 102.786 10.8376 103.09C10.2357 103.393 9.55441 103.497 8.8906 103.387C8.22679 103.277 7.61426 102.958 7.14014 102.477C6.66602 101.995 6.35444 101.375 6.24973 100.704C6.14503 100.033 6.25252 99.3465 6.55692 98.741C6.86132 98.1356 7.34712 97.6424 7.94524 97.3317C8.54336 97.0209 9.22332 96.9085 9.88843 97.0102C10.5669 97.1141 11.1942 97.4353 11.6778 97.9266C12.1615 98.4179 12.4757 99.0532 12.5742 99.7386Z" stroke="#F7F6F3" stroke-width="2" stroke-linecap="round" stroke-linejoin="round"/>
<path d="M13.7866 95.8126L13.7946 95.8126" stroke="#F7F6F3" stroke-width="2" stroke-linecap="round" stroke-linejoin="round"/>
<path d="M18.113 65.5324C18.0193 65.1491 17.827 64.7976 17.5555 64.5133C17.2841 64.2291 16.9431 64.0221 16.5671 63.9134C15.193 63.57 9.69203 63.5519 9.69203 63.5519C9.69203 63.5519 4.1911 63.5338 2.81467 63.9005C2.43793 64.0067 2.09564 64.2114 1.82237 64.4939C1.54911 64.7764 1.35454 65.1266 1.25833 65.5093C1.00209 66.917 0.874362 68.3455 0.876747 69.7769C0.863119 71.2189 0.981592 72.6591 1.23065 74.0791C1.33416 74.4505 1.53084 74.7887 1.80168 75.061C2.07253 75.3333 2.40838 75.5305 2.77678 75.6336C4.15082 76.0093 9.65175 76.0274 9.65175 76.0274C9.65175 76.0274 15.1527 76.0455 16.5291 75.6788C16.9058 75.5726 17.2481 75.3679 17.5214 75.0854C17.7947 74.8029 17.9892 74.4527 18.0855 74.07C18.3397 72.6729 18.4674 71.2552 18.4669 69.8347C18.4806 68.3927 18.3621 66.9525 18.113 65.5324Z" fill="#F7F6F3" stroke="#F7F6F3" stroke-linecap="round" stroke-linejoin="round"/>
<path d="M7.86333 72.4387L12.4692 69.8152L7.88037 67.1614L7.86333 72.4387Z" fill="#44423F" stroke="#44423F" stroke-width="0.75" stroke-linecap="round" stroke-linejoin="round"/>
</svg>
