<svg width="14" height="11" viewBox="0 0 14 11" fill="none" xmlns="http://www.w3.org/2000/svg">
<path d="M12.9629 4.59849L8.98109 0.553512C8.61416 0.180766 8.00062 0.178748 7.63129 0.549072C7.26196 0.919396 7.25996 1.53862 7.62689 1.91137L9.9779 4.31346L1.25192 4.28476C0.720181 4.28301 0.296139 4.7082 0.294406 5.24486C0.292674 5.78152 0.713961 6.20949 1.2457 6.21124L9.97168 6.23994L7.60525 8.61276C7.23592 8.98308 7.23393 9.6023 7.60085 9.97505C7.79111 10.1683 8.03622 10.2655 8.28164 10.2663C8.52706 10.2671 8.77278 10.1716 8.96429 9.97953L12.9585 5.97455C13.1363 5.79625 13.2462 5.54891 13.247 5.28746C13.2479 5.02601 13.1532 4.77801 12.9629 4.59849Z" fill="#76736F"/>
</svg>
