<svg width="10" height="8" viewBox="0 0 10 8" fill="none" xmlns="http://www.w3.org/2000/svg">
<path d="M9.12919 3.48882L6.46443 0.824061C6.21887 0.578503 5.80961 0.578503 5.56405 0.824061C5.31849 1.06962 5.31849 1.47888 5.56405 1.72444L7.13744 3.30692L1.31681 3.30692C0.962113 3.30692 0.680176 3.58886 0.680176 3.94356C0.680176 4.29825 0.962113 4.58019 1.31681 4.58019H7.13744L5.56405 6.15358C5.31849 6.39914 5.31849 6.8084 5.56405 7.05396C5.69138 7.18128 5.85508 7.24495 6.01879 7.24495C6.18249 7.24495 6.3462 7.18128 6.47352 7.05396L9.12919 4.39829C9.24742 4.28006 9.32018 4.11636 9.32018 3.94356C9.32018 3.77076 9.25651 3.60705 9.12919 3.48882Z" fill="#76736F"/>
</svg>
