<svg width="10" height="7" viewBox="0 0 10 7" fill="none" xmlns="http://www.w3.org/2000/svg">
<path d="M9.3864 3.13445L6.73182 0.437928C6.4872 0.189443 6.07817 0.188098 5.83195 0.434968C5.58573 0.681839 5.58439 1.09464 5.82901 1.34312L7.39637 2.94444L1.579 2.9253C1.22451 2.92414 0.941811 3.20758 0.940656 3.56534C0.939501 3.9231 1.22036 4.20839 1.57486 4.20956L7.39222 4.22869L5.81459 5.81049C5.56837 6.05737 5.56704 6.47016 5.81166 6.71865C5.9385 6.84749 6.1019 6.91224 6.26552 6.91278C6.42913 6.91332 6.59295 6.84964 6.72062 6.72164L9.38344 4.05178C9.50199 3.93291 9.57524 3.76803 9.5758 3.59374C9.57637 3.41945 9.51327 3.25412 9.3864 3.13445Z" fill="#76736F"/>
</svg>
