<svg width="194" height="29" viewBox="0 0 194 29" fill="none" xmlns="http://www.w3.org/2000/svg">
<path d="M15.3671 1.38086H11.4488C9.7168 1.38086 8.05574 2.06889 6.83104 3.2936C5.60633 4.5183 4.9183 6.17936 4.9183 7.91136V11.8297H1V17.0541H4.9183V27.5029H10.1427V17.0541H14.061L15.3671 11.8297H10.1427V7.91136C10.1427 7.56496 10.2803 7.23275 10.5252 6.98781C10.7702 6.74286 11.1024 6.60526 11.4488 6.60526H15.3671V1.38086Z" fill="#F7F6F3" stroke="#F7F6F3" stroke-linecap="round" stroke-linejoin="round"/>
<path d="M75.4484 2.70015C74.1977 3.58239 72.8129 4.25716 71.3473 4.69848C70.5607 3.79402 69.5153 3.15296 68.3524 2.86201C67.1896 2.57105 65.9655 2.64424 64.8456 3.07167C63.7257 3.4991 62.7642 4.26015 62.0909 5.25189C61.4177 6.24364 61.0653 7.41822 61.0813 8.61678V9.92288C58.786 9.98239 56.5116 9.47333 54.4607 8.44104C52.4098 7.40874 50.646 5.88525 49.3264 4.00625C49.3264 4.00625 44.102 15.7611 55.8569 20.9855C53.1671 22.8114 49.9627 23.727 46.7142 23.5977C58.4691 30.1282 72.8362 23.5977 72.8362 8.57759C72.835 8.21378 72.8 7.85087 72.7317 7.49353C74.0648 6.17893 75.0054 4.51917 75.4484 2.70015Z" fill="#F7F6F3" stroke="#F7F6F3" stroke-linecap="round" stroke-linejoin="round"/>
<path d="M186.469 1.38086H173.408C169.801 1.38086 166.877 4.30466 166.877 7.91136V20.9724C166.877 24.579 169.801 27.5029 173.408 27.5029H186.469C190.076 27.5029 192.999 24.579 192.999 20.9724V7.91136C192.999 4.30466 190.076 1.38086 186.469 1.38086Z" stroke="#F7F6F3" stroke-width="2" stroke-linecap="round" stroke-linejoin="round"/>
<path d="M185.164 13.6202C185.325 14.7072 185.139 15.8173 184.633 16.7927C184.127 17.7681 183.326 18.5591 182.345 19.0531C181.363 19.5472 180.251 19.7191 179.166 19.5446C178.081 19.37 177.079 18.8577 176.302 18.0807C175.525 17.3037 175.012 16.3014 174.838 15.2165C174.663 14.1316 174.835 13.0192 175.329 12.0377C175.823 11.0561 176.614 10.2553 177.59 9.74922C178.565 9.2431 179.675 9.05744 180.762 9.21862C181.871 9.38304 182.897 9.89971 183.69 10.6923C184.483 11.4849 184.999 12.5114 185.164 13.6202Z" stroke="#F7F6F3" stroke-width="2" stroke-linecap="round" stroke-linejoin="round"/>
<path d="M187.123 7.25879H187.137" stroke="#F7F6F3" stroke-width="2" stroke-linecap="round" stroke-linejoin="round"/>
<path d="M134.928 7.15393C134.773 6.53406 134.457 5.96612 134.012 5.50746C133.567 5.04881 133.009 4.71568 132.394 4.54173C130.148 3.99316 121.162 3.99316 121.162 3.99316C121.162 3.99316 112.176 3.99316 109.929 4.59397C109.314 4.76792 108.756 5.10105 108.311 5.55971C107.866 6.01837 107.55 6.58631 107.395 7.20617C106.984 9.48604 106.783 11.7988 106.794 14.1154C106.78 16.4495 106.981 18.7799 107.395 21.0769C107.566 21.6776 107.889 22.2239 108.333 22.6632C108.777 23.1025 109.327 23.4198 109.929 23.5847C112.176 24.1855 121.162 24.1855 121.162 24.1855C121.162 24.1855 130.148 24.1855 132.394 23.5847C133.009 23.4107 133.567 23.0776 134.012 22.6189C134.457 22.1603 134.773 21.5923 134.928 20.9725C135.336 18.7098 135.537 16.4146 135.529 14.1154C135.543 11.7814 135.342 9.45096 134.928 7.15393Z" fill="#F7F6F3" stroke="#F7F6F3" stroke-linecap="round" stroke-linejoin="round"/>
<path d="M118.222 18.3869L125.732 14.1159L118.222 9.84497V18.3869Z" fill="#44423F" stroke="#44423F" stroke-width="0.75" stroke-linecap="round" stroke-linejoin="round"/>
</svg>
