<svg width="10" height="8" viewBox="0 0 10 8" fill="none" xmlns="http://www.w3.org/2000/svg">
<path d="M9.1287 3.82031L6.46394 1.16542C6.21838 0.920771 5.80912 0.920771 5.56356 1.16542C5.318 1.41007 5.318 1.81782 5.56356 2.06246C6.1447 2.6448 5.73226 3.63909 4.90955 3.63909L1.31632 3.63909C0.961624 3.63909 0.679687 3.91998 0.679687 4.27336C0.679687 4.62674 0.961624 4.90763 1.31632 4.90763H4.91596C5.73423 4.90763 6.14324 5.89767 5.56356 6.4752C5.318 6.71985 5.318 7.12759 5.56356 7.37224C5.69089 7.4991 5.85459 7.56252 6.0183 7.56252C6.182 7.56252 6.34571 7.4991 6.47303 7.37224L9.1287 4.72641C9.24693 4.60862 9.31969 4.44552 9.31969 4.27336C9.31969 4.1012 9.25603 3.9381 9.1287 3.82031Z" fill="#76736F"/>
</svg>
