<svg width="18" height="14" viewBox="0 0 18 14" fill="none" xmlns="http://www.w3.org/2000/svg">
<path d="M0.860921 8.06002L6.17008 13.4535C6.65932 13.9505 7.47739 13.9532 7.96983 13.4594C8.46227 12.9656 8.46493 12.14 7.97569 11.6429L4.84099 8.44008L16.4757 8.47834C17.1847 8.48068 17.7501 7.91375 17.7524 7.19818C17.7547 6.48262 17.193 5.91198 16.484 5.90965L4.84929 5.87138L8.00455 2.70754C8.49699 2.21377 8.49965 1.38811 8.01041 0.891109C7.75673 0.633402 7.42992 0.503889 7.10269 0.502813C6.77547 0.501737 6.44783 0.629096 6.19249 0.885129L0.866845 6.22524C0.629745 6.46298 0.483245 6.79277 0.482119 7.14138C0.480993 7.48998 0.607182 7.82066 0.860921 8.06002Z" fill="#76736F"/>
</svg>
