<svg width="10" height="7" viewBox="0 0 10 7" fill="none" xmlns="http://www.w3.org/2000/svg">
<path d="M9.43398 3.20836L6.77941 0.511442C6.53479 0.26292 6.12575 0.261575 5.87954 0.508482C5.63332 0.755389 5.63198 1.16825 5.8766 1.41677L7.44395 3.01832L1.62661 2.99918C1.27211 2.99802 0.989417 3.2815 0.988262 3.63931C0.987107 3.99712 1.26797 4.28246 1.62246 4.28363L7.4398 4.30276L5.86218 5.8848C5.61596 6.1317 5.61462 6.54456 5.85924 6.79308C5.98608 6.92194 6.14949 6.9867 6.3131 6.98724C6.47671 6.98778 6.64053 6.9241 6.7682 6.79607L9.43101 4.12582C9.54956 4.00694 9.62281 3.84203 9.62338 3.66772C9.62394 3.4934 9.56085 3.32805 9.43398 3.20836Z" fill="#76736F"/>
</svg>
