<svg width="8" height="6" viewBox="0 0 8 6" fill="none" xmlns="http://www.w3.org/2000/svg">
<path d="M7.09701 2.61631L5.09844 0.617741C4.91428 0.433572 4.60733 0.433572 4.42316 0.617741C4.23899 0.801909 4.23899 1.10886 4.42316 1.29302L5.6032 2.47989L1.23773 2.47989C0.971707 2.47989 0.760254 2.69134 0.760254 2.95736C0.760254 3.22338 0.971707 3.43484 1.23773 3.43484L5.6032 3.43484L4.42316 4.61488C4.23899 4.79905 4.23899 5.10599 4.42316 5.29016C4.51865 5.38566 4.64143 5.4334 4.76421 5.4334C4.88699 5.4334 5.00977 5.38566 5.10526 5.29016L7.09701 3.29841C7.18569 3.20974 7.24025 3.08696 7.24025 2.95736C7.24025 2.82776 7.19251 2.70498 7.09701 2.61631Z" fill="#76736F"/>
</svg>
