<svg width="194" height="29" viewBox="0 0 194 29" fill="none" xmlns="http://www.w3.org/2000/svg">
<path d="M15.3671 1.38086H11.4488C9.7168 1.38086 8.05574 2.06889 6.83104 3.2936C5.60633 4.5183 4.9183 6.17936 4.9183 7.91136V11.8297H1V17.0541H4.9183V27.5029H10.1427V17.0541H14.061L15.3671 11.8297H10.1427V7.91136C10.1427 7.56496 10.2803 7.23275 10.5252 6.98781C10.7702 6.74286 11.1024 6.60526 11.4488 6.60526H15.3671V1.38086Z" fill="#F7F6F3" stroke="#F7F6F3" stroke-linecap="round" stroke-linejoin="round"/>
<path d="M75.4486 2.70015C74.1978 3.58239 72.813 4.25716 71.3474 4.69848C70.5608 3.79402 69.5154 3.15296 68.3526 2.86201C67.1897 2.57105 65.9656 2.64424 64.8457 3.07167C63.7259 3.4991 62.7643 4.26015 62.091 5.25189C61.4178 6.24364 61.0654 7.41822 61.0815 8.61678V9.92288C58.7862 9.98239 56.5118 9.47333 54.4608 8.44104C52.4099 7.40874 50.6461 5.88525 49.3266 4.00625C49.3266 4.00625 44.1022 15.7611 55.8571 20.9855C53.1672 22.8114 49.9628 23.727 46.7144 23.5977C58.4693 30.1282 72.8364 23.5977 72.8364 8.57759C72.8351 8.21378 72.8002 7.85087 72.7319 7.49353C74.0649 6.17893 75.0056 4.51917 75.4486 2.70015Z" fill="#F7F6F3" stroke="#F7F6F3" stroke-linecap="round" stroke-linejoin="round"/>
<path d="M186.469 1.38086H173.408C169.801 1.38086 166.877 4.30466 166.877 7.91136V20.9724C166.877 24.579 169.801 27.5029 173.408 27.5029H186.469C190.076 27.5029 192.999 24.579 192.999 20.9724V7.91136C192.999 4.30466 190.076 1.38086 186.469 1.38086Z" stroke="#F7F6F3" stroke-width="2" stroke-linecap="round" stroke-linejoin="round"/>
<path d="M185.164 13.6201C185.325 14.7071 185.139 15.8172 184.633 16.7926C184.127 17.768 183.326 18.559 182.345 19.053C181.363 19.5471 180.251 19.719 179.166 19.5444C178.081 19.3699 177.079 18.8576 176.302 18.0806C175.525 17.3036 175.012 16.3013 174.838 15.2164C174.663 14.1315 174.835 13.0191 175.329 12.0376C175.823 11.056 176.614 10.2552 177.59 9.74909C178.565 9.24298 179.675 9.05731 180.762 9.2185C181.871 9.38292 182.897 9.89959 183.69 10.6922C184.483 11.4848 184.999 12.5113 185.164 13.6201Z" stroke="#F7F6F3" stroke-width="2" stroke-linecap="round" stroke-linejoin="round"/>
<path d="M187.124 7.25879H187.137" stroke="#F7F6F3" stroke-width="2" stroke-linecap="round" stroke-linejoin="round"/>
<path d="M134.928 7.15405C134.772 6.53419 134.456 5.96624 134.012 5.50759C133.567 5.04893 133.009 4.7158 132.394 4.54185C130.147 3.99329 121.161 3.99329 121.161 3.99329C121.161 3.99329 112.175 3.99329 109.929 4.59409C109.314 4.76804 108.756 5.10117 108.311 5.55983C107.866 6.01849 107.55 6.58643 107.395 7.20629C106.984 9.48616 106.783 11.7989 106.794 14.1156C106.78 16.4496 106.981 18.78 107.395 21.0771C107.566 21.6777 107.889 22.224 108.333 22.6633C108.777 23.1026 109.326 23.42 109.929 23.5848C112.175 24.1856 121.161 24.1856 121.161 24.1856C121.161 24.1856 130.147 24.1856 132.394 23.5848C133.009 23.4108 133.567 23.0777 134.012 22.619C134.456 22.1604 134.772 21.5924 134.928 20.9726C135.336 18.7099 135.537 16.4147 135.528 14.1156C135.543 11.7815 135.342 9.45108 134.928 7.15405Z" fill="#F7F6F3" stroke="#F7F6F3" stroke-linecap="round" stroke-linejoin="round"/>
<path d="M118.222 18.3871L125.732 14.1162L118.222 9.84521V18.3871Z" fill="#44423F" stroke="#44423F" stroke-width="0.75" stroke-linecap="round" stroke-linejoin="round"/>
</svg>
