<svg width="24" height="23" viewBox="0 0 24 23" fill="none" xmlns="http://www.w3.org/2000/svg">
<path d="M14.1825 2.8387C17.0289 5.5443 17.2712 9.7976 14.9106 12.7715L16.2208 14.0182C16.7295 13.9671 17.2597 14.1279 17.6568 14.5026L17.658 14.5037L13.9241 3.1105M14.1825 2.8387L13.9241 3.1105M14.1825 2.8387C14.1825 2.83874 14.1826 2.83879 14.1826 2.83883L13.9241 3.1105M14.1825 2.8387C11.0803 -0.112944 6.05943 -0.112899 2.95732 2.83883C-0.152517 5.79791 -0.152317 10.6067 2.95718 13.5684L2.95732 13.5686C5.80416 16.2774 10.2638 16.4973 13.3756 14.239M13.9241 3.1105C10.9668 0.2965 6.17318 0.2965 3.21582 3.1105C0.261395 5.9217 0.261395 10.4829 3.21582 13.2969C6.00545 15.9513 10.4283 16.0997 13.4033 13.7477M13.3756 14.239L13.1624 14.0362L13.4185 13.767M13.3756 14.239C13.4635 14.1753 13.5502 14.1096 13.6358 14.0419L13.4185 13.767M13.3756 14.239L14.6447 15.4466M13.4185 13.767L13.1624 14.0362L13.1448 14.0194L13.4033 13.7477M13.4185 13.767L13.4033 13.7477M13.4033 13.7477L13.4209 13.7645L15.06 15.3241M15.06 15.3241L14.7035 15.2076C14.6779 15.2861 14.6583 15.366 14.6447 15.4466M15.06 15.3241C14.9099 15.7833 15.0276 16.3069 15.4102 16.6681M15.06 15.3241L14.8015 15.5958L14.6447 15.4466M14.6447 15.4466C14.5556 15.977 14.7275 16.5389 15.1522 16.9402L15.1516 16.9397L15.4102 16.6681M15.4102 16.6681L15.1527 16.9408L20.3395 21.8789L20.3396 21.879C21.0346 22.5403 22.1507 22.5403 22.8458 21.879C23.5509 21.2081 23.5521 20.1116 22.8454 19.4424C22.8453 19.4423 22.8452 19.4422 22.8451 19.4421L22.5873 19.7145C23.1376 20.2353 23.1376 21.0837 22.5873 21.6073C22.037 22.1309 21.1483 22.1309 20.5981 21.6073L15.4102 16.6681ZM3.99222 3.87497C1.47857 6.26676 1.47857 10.1406 3.99222 12.5324C6.51936 14.9343 10.6206 14.9343 13.1477 12.5324C15.6614 10.1406 15.6614 6.26676 13.1477 3.87497C10.6206 1.47034 6.51935 1.47034 3.99222 3.87497Z" fill="#4F4F4F" stroke="#4F4F4F" stroke-width="0.75"/>
</svg>
