<svg width="8" height="10" viewBox="0 0 8 10" fill="none" xmlns="http://www.w3.org/2000/svg">
<path d="M4.51045 9.12906L7.17521 6.46431C7.42076 6.21875 7.42076 5.80949 7.17521 5.56393C6.92965 5.31837 6.52039 5.31837 6.27483 5.56393L4.69234 7.13732L4.69234 1.31669C4.69234 0.96199 4.41041 0.680054 4.05571 0.680054C3.70102 0.680054 3.41908 0.96199 3.41908 1.31669L3.41908 7.13732L1.84569 5.56393C1.60013 5.31837 1.19087 5.31837 0.945312 5.56393C0.817985 5.69125 0.754322 5.85496 0.754322 6.01866C0.754322 6.18237 0.817985 6.34607 0.945312 6.4734L3.60097 9.12906C3.71921 9.2473 3.88291 9.32005 4.05571 9.32005C4.22851 9.32005 4.39222 9.25639 4.51045 9.12906Z" fill="#76736F"/>
</svg>
