<svg width="9" height="7" viewBox="0 0 9 7" fill="none" xmlns="http://www.w3.org/2000/svg">
<path d="M8.6783 3.19832L6.02373 0.501201C5.77911 0.252662 5.37008 0.251316 5.12386 0.498241C4.87764 0.745166 4.87631 1.15805 5.12093 1.40659L6.68827 3.00826L0.870931 2.98913C0.516436 2.98796 0.23374 3.27147 0.232585 3.6293C0.23143 3.98714 0.512289 4.2725 0.866783 4.27367L6.68412 4.2928L5.1065 5.87495C4.86028 6.12187 4.85895 6.53476 5.10357 6.7833C5.2304 6.91217 5.39381 6.97694 5.55742 6.97748C5.72104 6.97801 5.88486 6.91433 6.01252 6.78629L8.67534 4.11584C8.79389 3.99695 8.86714 3.83204 8.8677 3.65771C8.86826 3.48338 8.80517 3.31801 8.6783 3.19832Z" fill="#76736F"/>
</svg>
