<svg width="10" height="52" viewBox="0 0 10 52" fill="none" xmlns="http://www.w3.org/2000/svg">
<path d="M6.33384 1.46289H5.22273C4.73159 1.46289 4.26056 1.658 3.91327 2.00529C3.56598 2.35258 3.37088 2.8236 3.37088 3.31474V4.42585H2.25977V5.90733H3.37088V8.8703H4.85236V5.90733H5.96347L6.33384 4.42585H4.85236V3.31474C4.85236 3.21651 4.89138 3.12231 4.96084 3.05285C5.0303 2.98339 5.1245 2.94437 5.22273 2.94437H6.33384V1.46289Z" fill="#F7F6F3" stroke="#F7F6F3" stroke-linecap="round" stroke-linejoin="round"/>
<path d="M9.01924 16.2816C8.66457 16.5317 8.27187 16.7231 7.85628 16.8482C7.63322 16.5917 7.33677 16.41 7.00703 16.3275C6.67729 16.2449 6.33017 16.2657 6.01261 16.3869C5.69504 16.5081 5.42237 16.7239 5.23146 17.0052C5.04055 17.2864 4.94061 17.6195 4.94517 17.9593V18.3297C4.29429 18.3466 3.64934 18.2022 3.06776 17.9095C2.48618 17.6168 1.98603 17.1848 1.61183 16.6519C1.61183 16.6519 0.130353 19.9853 3.46369 21.4667C2.70092 21.9845 1.79226 22.2441 0.871094 22.2075C4.20443 24.0593 8.2785 22.2075 8.2785 17.9482C8.27816 17.8451 8.26824 17.7421 8.24887 17.6408C8.62687 17.268 8.89362 16.7974 9.01924 16.2816Z" fill="#F7F6F3" stroke="#F7F6F3" stroke-linecap="round" stroke-linejoin="round"/>
<path d="M6.70399 43.4644H3.00029C1.97754 43.4644 1.14844 44.2935 1.14844 45.3162V49.0199C1.14844 50.0427 1.97754 50.8718 3.00029 50.8718H6.70399C7.72674 50.8718 8.55584 50.0427 8.55584 49.0199V45.3162C8.55584 44.2935 7.72674 43.4644 6.70399 43.4644Z" stroke="#F7F6F3" stroke-width="2" stroke-linecap="round" stroke-linejoin="round"/>
<path d="M6.33122 46.9346C6.37693 47.2428 6.32428 47.5576 6.18076 47.8342C6.03724 48.1108 5.81016 48.3351 5.53182 48.4752C5.25348 48.6153 4.93805 48.6641 4.6304 48.6146C4.32275 48.5651 4.03854 48.4198 3.81819 48.1995C3.59785 47.9791 3.4526 47.6949 3.40309 47.3873C3.35359 47.0796 3.40235 46.7642 3.54245 46.4858C3.68255 46.2075 3.90684 45.9804 4.18343 45.8369C4.46003 45.6934 4.77483 45.6407 5.08307 45.6864C5.39749 45.7331 5.68857 45.8796 5.91333 46.1043C6.13808 46.3291 6.28459 46.6202 6.33122 46.9346Z" stroke="#F7F6F3" stroke-width="2" stroke-linecap="round" stroke-linejoin="round"/>
<path d="M6.88867 45.1309H6.89203" stroke="#F7F6F3" stroke-width="2" stroke-linecap="round" stroke-linejoin="round"/>
<path d="M8.84908 31.2271C8.80509 31.0513 8.71549 30.8903 8.58933 30.7602C8.46317 30.6302 8.30492 30.5357 8.13057 30.4864C7.49353 30.3308 4.94538 30.3308 4.94538 30.3308C4.94538 30.3308 2.39723 30.3308 1.76019 30.5012C1.58584 30.5505 1.42759 30.645 1.30143 30.775C1.17527 30.9051 1.08567 31.0661 1.04168 31.2419C0.925089 31.8884 0.86806 32.5443 0.871305 33.2012C0.86715 33.863 0.924182 34.5239 1.04168 35.1753C1.09018 35.3456 1.18179 35.5005 1.30766 35.6251C1.43352 35.7496 1.58939 35.8396 1.76019 35.8864C2.39723 36.0567 4.94538 36.0567 4.94538 36.0567C4.94538 36.0567 7.49353 36.0567 8.13057 35.8864C8.30492 35.837 8.46317 35.7426 8.58933 35.6125C8.71549 35.4825 8.80509 35.3214 8.84908 35.1456C8.96477 34.504 9.0218 33.8532 9.01945 33.2012C9.02361 32.5393 8.96658 31.8785 8.84908 31.2271Z" fill="#F7F6F3" stroke="#F7F6F3" stroke-linecap="round" stroke-linejoin="round"/>
<path d="M4.11182 34.4127L6.24145 33.2016L4.11182 31.9905V34.4127Z" fill="#44423F" stroke="#44423F" stroke-width="0.75" stroke-linecap="round" stroke-linejoin="round"/>
</svg>
