<svg width="8" height="10" viewBox="0 0 8 10" fill="none" xmlns="http://www.w3.org/2000/svg">
<path d="M4.51142 9.12894L7.17618 6.46418C7.42174 6.21863 7.42174 5.80936 7.17618 5.56381C6.93062 5.31825 6.52136 5.31825 6.2758 5.56381L4.69332 7.13719L4.69332 1.31656C4.69332 0.961868 4.41138 0.679932 4.05669 0.679931C3.70199 0.679931 3.42006 0.961868 3.42006 1.31656L3.42006 7.13719L1.84667 5.56381C1.60111 5.31825 1.19185 5.31825 0.946288 5.56381C0.818962 5.69113 0.755298 5.85484 0.755298 6.01854C0.755298 6.18225 0.818962 6.34595 0.946288 6.47328L3.60195 9.12894C3.72018 9.24717 3.88389 9.31993 4.05669 9.31993C4.22949 9.31993 4.39319 9.25627 4.51142 9.12894Z" fill="#76736F"/>
</svg>
