<svg width="106" height="24" viewBox="0 0 106 24" fill="none" xmlns="http://www.w3.org/2000/svg">
<path d="M10.4824 0.748335C10.8676 0.748335 11.175 0.785372 11.4047 0.859446C11.6343 0.93352 11.8676 1.04093 12.1047 1.18167C12.1861 1.22611 12.2565 1.26315 12.3158 1.29278C12.3824 1.32241 12.438 1.33722 12.4824 1.33722C12.5491 1.33722 12.601 1.30019 12.638 1.22611C12.675 1.14463 12.7047 1.01871 12.7269 0.848335H12.9824C12.9454 1.34463 12.9269 2.18908 12.9269 3.38167H12.6713C12.6417 2.98167 12.5491 2.60019 12.3935 2.23722C12.2454 1.87426 12.0306 1.58167 11.7491 1.35945C11.475 1.12982 11.1528 1.015 10.7824 1.015C10.4195 1.015 10.1232 1.11871 9.89354 1.32611C9.67132 1.52611 9.56021 1.80019 9.56021 2.14833C9.56021 2.40759 9.61577 2.63352 9.72688 2.82611C9.83799 3.01871 9.99354 3.19648 10.1935 3.35945C10.3935 3.515 10.701 3.72982 11.1158 4.00389L11.4713 4.24834C11.9084 4.53722 12.2528 4.78908 12.5047 5.00389C12.7565 5.21871 12.9602 5.47056 13.1158 5.75945C13.2787 6.04093 13.3602 6.37056 13.3602 6.74834C13.3602 7.22241 13.238 7.62241 12.9935 7.94834C12.7491 8.26685 12.4158 8.5076 11.9935 8.67056C11.5787 8.83352 11.1158 8.915 10.6047 8.915C10.1898 8.915 9.8454 8.87797 9.57132 8.80389C9.29725 8.72982 9.0454 8.62982 8.81577 8.50389C8.6528 8.40019 8.52688 8.34834 8.43799 8.34834C8.37132 8.34834 8.31947 8.38908 8.28243 8.47056C8.2454 8.54463 8.21577 8.66685 8.19354 8.83722H7.93799C7.96762 8.37056 7.98243 7.37056 7.98243 5.83722H8.23799C8.28984 6.66685 8.47503 7.34093 8.79354 7.85945C9.11206 8.37056 9.60095 8.62611 10.2602 8.62611C10.6602 8.62611 10.9898 8.51871 11.2491 8.30389C11.5084 8.08908 11.638 7.78167 11.638 7.38167C11.638 6.96685 11.5047 6.6113 11.238 6.315C10.9713 6.01871 10.5491 5.68537 9.97132 5.315C9.52688 5.02611 9.17132 4.77426 8.90466 4.55945C8.63799 4.34463 8.41947 4.09278 8.2491 3.80389C8.07873 3.50759 7.99354 3.16685 7.99354 2.78167C7.99354 2.33722 8.10465 1.96315 8.32688 1.65945C8.55651 1.34833 8.86021 1.11871 9.23799 0.970557C9.61577 0.822409 10.0306 0.748335 10.4824 0.748335Z" fill="#333333"/>
<path d="M15.5489 8.83722C15.0749 8.83722 14.7193 8.715 14.4823 8.47056C14.2526 8.22611 14.1378 7.90389 14.1378 7.50389C14.1378 7.17056 14.223 6.89648 14.3934 6.68167C14.5711 6.45945 14.7823 6.28908 15.0267 6.17056C15.2786 6.05204 15.5971 5.92611 15.9823 5.79278C16.3897 5.65204 16.686 5.52611 16.8711 5.415C17.0637 5.29648 17.16 5.13722 17.16 4.93722V4.07056C17.16 3.75945 17.086 3.51871 16.9378 3.34834C16.7971 3.17056 16.5749 3.08167 16.2711 3.08167C15.9156 3.08167 15.6452 3.17056 15.46 3.34834C15.6674 3.42241 15.8267 3.53352 15.9378 3.68167C16.0563 3.82982 16.1156 4.00389 16.1156 4.20389C16.1156 4.45574 16.0304 4.65574 15.86 4.80389C15.6897 4.95204 15.4823 5.02611 15.2378 5.02611C14.9786 5.02611 14.7786 4.94463 14.6378 4.78167C14.4971 4.61871 14.4267 4.415 14.4267 4.17056C14.4267 3.96315 14.4749 3.78908 14.5711 3.64834C14.6749 3.50019 14.8304 3.36315 15.0378 3.23722C15.2378 3.11871 15.4823 3.02611 15.7711 2.95945C16.0674 2.89278 16.3897 2.85945 16.7378 2.85945C17.1008 2.85945 17.4156 2.89648 17.6823 2.97056C17.9489 3.04463 18.1711 3.17056 18.3489 3.34834C18.5119 3.5113 18.6193 3.7113 18.6711 3.94834C18.7304 4.18537 18.76 4.50759 18.76 4.915V7.93722C18.76 8.115 18.7749 8.24093 18.8045 8.315C18.8415 8.38908 18.9082 8.42611 19.0045 8.42611C19.1156 8.42611 19.2489 8.36315 19.4045 8.23722L19.5156 8.42611C19.1823 8.70019 18.7749 8.83722 18.2934 8.83722C17.886 8.83722 17.6008 8.75574 17.4378 8.59278C17.2749 8.42982 17.1897 8.2113 17.1823 7.93722C16.8119 8.53722 16.2674 8.83722 15.5489 8.83722ZM16.4045 8.12611C16.6934 8.12611 16.9452 7.97426 17.16 7.67056V5.39278C17.0711 5.54093 16.8823 5.70389 16.5934 5.88167C16.3045 6.06685 16.086 6.25204 15.9378 6.43722C15.7897 6.62241 15.7156 6.88908 15.7156 7.23722C15.7156 7.54093 15.7786 7.76685 15.9045 7.915C16.0304 8.05574 16.1971 8.12611 16.4045 8.12611Z" fill="#333333"/>
<path d="M23.9665 2.85945C24.5294 2.85945 24.9368 3.00389 25.1887 3.29278C25.3146 3.43352 25.4035 3.615 25.4554 3.83722C25.5072 4.05945 25.5331 4.35945 25.5331 4.73722V7.72611C25.5331 8.02982 25.585 8.24093 25.6887 8.35945C25.7998 8.47056 25.985 8.52611 26.2442 8.52611V8.75945C25.5035 8.72982 25.0146 8.715 24.7776 8.715C24.5554 8.715 24.0739 8.72982 23.3331 8.75945V8.52611C23.5554 8.52611 23.7109 8.47056 23.7998 8.35945C23.8887 8.24093 23.9331 8.02982 23.9331 7.72611V4.27056C23.9331 3.96685 23.8813 3.73722 23.7776 3.58167C23.6813 3.42611 23.5035 3.34834 23.2442 3.34834C22.9405 3.34834 22.6813 3.47426 22.4665 3.72611C22.2516 3.97056 22.1442 4.27426 22.1442 4.63722V7.72611C22.1442 8.02982 22.1887 8.24093 22.2776 8.35945C22.3665 8.47056 22.522 8.52611 22.7442 8.52611V8.75945C22.0628 8.72982 21.6035 8.715 21.3665 8.715C21.1442 8.715 20.6331 8.72982 19.8331 8.75945V8.52611C20.0998 8.52611 20.285 8.47056 20.3887 8.35945C20.4924 8.24093 20.5442 8.02982 20.5442 7.72611V4.22611C20.5442 3.88537 20.4924 3.63722 20.3887 3.48167C20.285 3.32611 20.0998 3.24834 19.8331 3.24834V3.015C20.0702 3.03722 20.2998 3.04834 20.522 3.04834C21.1813 3.04834 21.722 2.99648 22.1442 2.89278V3.89278C22.4776 3.20389 23.085 2.85945 23.9665 2.85945Z" fill="#333333"/>
<path d="M26.136 10.6483C26.5064 10.6335 26.7953 10.4854 27.0027 10.2039C27.2175 9.92241 27.3249 9.50759 27.3249 8.95945V4.22611C27.3249 3.88537 27.2693 3.63722 27.1582 3.48167C27.0545 3.32611 26.873 3.24834 26.6138 3.24834V3.015C26.8508 3.03722 27.0804 3.04834 27.3027 3.04834C27.9471 3.04834 28.4878 2.99648 28.9249 2.89278V7.715C28.9249 8.33722 28.8619 8.84834 28.736 9.24834C28.6175 9.64834 28.4138 9.98167 28.1249 10.2483C27.6878 10.6483 27.0249 10.8483 26.136 10.8483V10.6483ZM28.0027 0.148335C28.3138 0.148335 28.5582 0.226113 28.736 0.381668C28.9212 0.529816 29.0138 0.737224 29.0138 1.00389C29.0138 1.27056 28.9212 1.48167 28.736 1.63722C28.5582 1.78537 28.3138 1.85945 28.0027 1.85945C27.6915 1.85945 27.4434 1.78537 27.2582 1.63722C27.0804 1.48167 26.9915 1.27056 26.9915 1.00389C26.9915 0.737224 27.0804 0.529816 27.2582 0.381668C27.4434 0.226113 27.6915 0.148335 28.0027 0.148335Z" fill="#333333"/>
<path d="M31.4235 8.83722C30.9494 8.83722 30.5939 8.715 30.3568 8.47056C30.1272 8.22611 30.0124 7.90389 30.0124 7.50389C30.0124 7.17056 30.0976 6.89648 30.2679 6.68167C30.4457 6.45945 30.6568 6.28908 30.9013 6.17056C31.1531 6.05204 31.4716 5.92611 31.8568 5.79278C32.2642 5.65204 32.5605 5.52611 32.7457 5.415C32.9383 5.29648 33.0346 5.13722 33.0346 4.93722V4.07056C33.0346 3.75945 32.9605 3.51871 32.8124 3.34834C32.6716 3.17056 32.4494 3.08167 32.1457 3.08167C31.7902 3.08167 31.5198 3.17056 31.3346 3.34834C31.542 3.42241 31.7013 3.53352 31.8124 3.68167C31.9309 3.82982 31.9902 4.00389 31.9902 4.20389C31.9902 4.45574 31.905 4.65574 31.7346 4.80389C31.5642 4.95204 31.3568 5.02611 31.1124 5.02611C30.8531 5.02611 30.6531 4.94463 30.5124 4.78167C30.3716 4.61871 30.3013 4.415 30.3013 4.17056C30.3013 3.96315 30.3494 3.78908 30.4457 3.64834C30.5494 3.50019 30.705 3.36315 30.9124 3.23722C31.1124 3.11871 31.3568 3.02611 31.6457 2.95945C31.942 2.89278 32.2642 2.85945 32.6124 2.85945C32.9753 2.85945 33.2902 2.89648 33.5568 2.97056C33.8235 3.04463 34.0457 3.17056 34.2235 3.34834C34.3865 3.5113 34.4939 3.7113 34.5457 3.94834C34.605 4.18537 34.6346 4.50759 34.6346 4.915V7.93722C34.6346 8.115 34.6494 8.24093 34.679 8.315C34.7161 8.38908 34.7828 8.42611 34.879 8.42611C34.9902 8.42611 35.1235 8.36315 35.279 8.23722L35.3902 8.42611C35.0568 8.70019 34.6494 8.83722 34.1679 8.83722C33.7605 8.83722 33.4753 8.75574 33.3124 8.59278C33.1494 8.42982 33.0642 8.2113 33.0568 7.93722C32.6865 8.53722 32.142 8.83722 31.4235 8.83722ZM32.279 8.12611C32.5679 8.12611 32.8198 7.97426 33.0346 7.67056V5.39278C32.9457 5.54093 32.7568 5.70389 32.4679 5.88167C32.179 6.06685 31.9605 6.25204 31.8124 6.43722C31.6642 6.62241 31.5902 6.88908 31.5902 7.23722C31.5902 7.54093 31.6531 7.76685 31.779 7.915C31.905 8.05574 32.0716 8.12611 32.279 8.12611Z" fill="#333333"/>
<path d="M39.841 2.85945C40.404 2.85945 40.8114 3.00389 41.0632 3.29278C41.1892 3.43352 41.2781 3.615 41.3299 3.83722C41.3818 4.05945 41.4077 4.35945 41.4077 4.73722V7.72611C41.4077 8.02982 41.4595 8.24093 41.5633 8.35945C41.6744 8.47056 41.8596 8.52611 42.1188 8.52611V8.75945C41.3781 8.72982 40.8892 8.715 40.6521 8.715C40.4299 8.715 39.9484 8.72982 39.2077 8.75945V8.52611C39.4299 8.52611 39.5855 8.47056 39.6744 8.35945C39.7632 8.24093 39.8077 8.02982 39.8077 7.72611V4.27056C39.8077 3.96685 39.7558 3.73722 39.6521 3.58167C39.5558 3.42611 39.3781 3.34834 39.1188 3.34834C38.8151 3.34834 38.5558 3.47426 38.341 3.72611C38.1262 3.97056 38.0188 4.27426 38.0188 4.63722V7.72611C38.0188 8.02982 38.0633 8.24093 38.1521 8.35945C38.241 8.47056 38.3966 8.52611 38.6188 8.52611V8.75945C37.9373 8.72982 37.4781 8.715 37.241 8.715C37.0188 8.715 36.5077 8.72982 35.7077 8.75945V8.52611C35.9744 8.52611 36.1595 8.47056 36.2633 8.35945C36.367 8.24093 36.4188 8.02982 36.4188 7.72611V4.22611C36.4188 3.88537 36.367 3.63722 36.2633 3.48167C36.1595 3.32611 35.9744 3.24834 35.7077 3.24834V3.015C35.9447 3.03722 36.1744 3.04834 36.3966 3.04834C37.0558 3.04834 37.5966 2.99648 38.0188 2.89278V3.89278C38.3521 3.20389 38.9595 2.85945 39.841 2.85945Z" fill="#333333"/>
<path d="M43.9995 8.83722C43.5254 8.83722 43.1698 8.715 42.9328 8.47056C42.7032 8.22611 42.5883 7.90389 42.5883 7.50389C42.5883 7.17056 42.6735 6.89648 42.8439 6.68167C43.0217 6.45945 43.2328 6.28908 43.4772 6.17056C43.7291 6.05204 44.0476 5.92611 44.4328 5.79278C44.8402 5.65204 45.1365 5.52611 45.3217 5.415C45.5143 5.29648 45.6106 5.13722 45.6106 4.93722V4.07056C45.6106 3.75945 45.5365 3.51871 45.3883 3.34834C45.2476 3.17056 45.0254 3.08167 44.7217 3.08167C44.3661 3.08167 44.0957 3.17056 43.9106 3.34834C44.118 3.42241 44.2772 3.53352 44.3883 3.68167C44.5069 3.82982 44.5661 4.00389 44.5661 4.20389C44.5661 4.45574 44.4809 4.65574 44.3106 4.80389C44.1402 4.95204 43.9328 5.02611 43.6883 5.02611C43.4291 5.02611 43.2291 4.94463 43.0883 4.78167C42.9476 4.61871 42.8772 4.415 42.8772 4.17056C42.8772 3.96315 42.9254 3.78908 43.0217 3.64834C43.1254 3.50019 43.2809 3.36315 43.4883 3.23722C43.6883 3.11871 43.9328 3.02611 44.2217 2.95945C44.518 2.89278 44.8402 2.85945 45.1883 2.85945C45.5513 2.85945 45.8661 2.89648 46.1328 2.97056C46.3994 3.04463 46.6217 3.17056 46.7994 3.34834C46.9624 3.5113 47.0698 3.7113 47.1217 3.94834C47.1809 4.18537 47.2106 4.50759 47.2106 4.915V7.93722C47.2106 8.115 47.2254 8.24093 47.255 8.315C47.292 8.38908 47.3587 8.42611 47.455 8.42611C47.5661 8.42611 47.6994 8.36315 47.855 8.23722L47.9661 8.42611C47.6328 8.70019 47.2254 8.83722 46.7439 8.83722C46.3365 8.83722 46.0513 8.75574 45.8883 8.59278C45.7254 8.42982 45.6402 8.2113 45.6328 7.93722C45.2624 8.53722 44.718 8.83722 43.9995 8.83722ZM44.855 8.12611C45.1439 8.12611 45.3957 7.97426 45.6106 7.67056V5.39278C45.5217 5.54093 45.3328 5.70389 45.0439 5.88167C44.755 6.06685 44.5365 6.25204 44.3883 6.43722C44.2402 6.62241 44.1661 6.88908 44.1661 7.23722C44.1661 7.54093 44.2291 7.76685 44.355 7.915C44.4809 8.05574 44.6476 8.12611 44.855 8.12611Z" fill="#333333"/>
<path d="M60.4894 1.115C60.2375 1.12982 60.056 1.15945 59.9449 1.20389C59.8338 1.24834 59.756 1.33352 59.7116 1.45945C59.6746 1.58537 59.656 1.78908 59.656 2.07056V7.58167C59.656 7.86315 59.6746 8.06685 59.7116 8.19278C59.756 8.31871 59.8338 8.40389 59.9449 8.44833C60.0635 8.49278 60.2449 8.52241 60.4894 8.53722V8.75945C60.082 8.73722 59.5005 8.72611 58.7449 8.72611C57.9523 8.72611 57.3672 8.73722 56.9894 8.75945V8.53722C57.256 8.52241 57.4486 8.49278 57.5672 8.44833C57.6931 8.40389 57.7783 8.31871 57.8227 8.19278C57.8672 8.06685 57.8894 7.86315 57.8894 7.58167V1.77056L55.2116 8.77056H55.0338L52.0338 1.615V6.93722C52.0338 7.37426 52.056 7.69648 52.1005 7.90389C52.1449 8.10389 52.2412 8.25204 52.3894 8.34834C52.5375 8.43722 52.7783 8.50019 53.1116 8.53722V8.75945C52.8227 8.73722 52.4227 8.72611 51.9116 8.72611C51.5042 8.72611 51.182 8.73722 50.9449 8.75945V8.53722C51.1894 8.50019 51.3672 8.43722 51.4783 8.34834C51.5968 8.25945 51.6746 8.11871 51.7116 7.92611C51.756 7.73352 51.7783 7.44834 51.7783 7.07056V2.07056C51.7783 1.78908 51.756 1.58537 51.7116 1.45945C51.6746 1.33352 51.5968 1.24834 51.4783 1.20389C51.3672 1.15945 51.1894 1.12982 50.9449 1.115V0.89278C51.182 0.915002 51.5042 0.926112 51.9116 0.926112C52.5931 0.926112 53.1783 0.915002 53.6672 0.89278L55.9116 6.30389L57.956 0.926112H58.7449C59.5005 0.926112 60.082 0.915002 60.4894 0.89278V1.115Z" fill="#333333"/>
<path d="M64.1805 8.00389C64.7879 8.00389 65.2768 7.70759 65.6472 7.115L65.8472 7.18167C65.699 7.66315 65.4324 8.07426 65.0472 8.415C64.6694 8.74834 64.1953 8.915 63.625 8.915C62.8398 8.915 62.2139 8.66685 61.7472 8.17056C61.2879 7.66685 61.0583 6.92611 61.0583 5.94834C61.0583 4.94834 61.3065 4.18537 61.8027 3.65945C62.299 3.12611 62.9583 2.85945 63.7805 2.85945C65.1731 2.85945 65.8694 3.68167 65.8694 5.32611H62.7472C62.7398 5.43722 62.7361 5.6113 62.7361 5.84834C62.7361 6.33722 62.8027 6.74463 62.9361 7.07056C63.0768 7.39648 63.2546 7.63352 63.4694 7.78167C63.6916 7.92982 63.9287 8.00389 64.1805 8.00389ZM63.7139 3.09278C63.4472 3.09278 63.225 3.25945 63.0472 3.59278C62.8768 3.91871 62.7694 4.42611 62.725 5.115H64.4694C64.4842 4.52982 64.425 4.04834 64.2916 3.67056C64.1657 3.28537 63.9731 3.09278 63.7139 3.09278Z" fill="#333333"/>
<path d="M68.7128 2.85945C68.9943 2.85945 69.2536 2.89648 69.4906 2.97056C69.7276 3.03722 69.9091 3.115 70.035 3.20389C70.1091 3.25574 70.1758 3.28167 70.235 3.28167C70.3017 3.28167 70.3573 3.24833 70.4017 3.18167C70.4536 3.10759 70.4869 3.00389 70.5017 2.87056H70.735C70.7054 3.24833 70.6906 3.90019 70.6906 4.82611H70.4573C70.3906 4.33722 70.2424 3.92982 70.0128 3.60389C69.7906 3.27056 69.4647 3.10389 69.035 3.10389C68.8128 3.10389 68.6276 3.16685 68.4795 3.29278C68.3387 3.41871 68.2684 3.59278 68.2684 3.815C68.2684 4.06685 68.3536 4.28537 68.5239 4.47056C68.6943 4.64834 68.961 4.86685 69.3239 5.12611L69.6462 5.35945C70.098 5.70019 70.4313 6.00389 70.6462 6.27056C70.861 6.53722 70.9684 6.87056 70.9684 7.27056C70.9684 7.59648 70.8721 7.88537 70.6795 8.13722C70.4943 8.38908 70.2425 8.58167 69.9239 8.715C69.6054 8.84834 69.2536 8.915 68.8684 8.915C68.461 8.915 68.1128 8.83722 67.8239 8.68167C67.5869 8.56315 67.4165 8.48537 67.3128 8.44833C67.2387 8.42611 67.1721 8.45204 67.1128 8.52611C67.061 8.59278 67.0202 8.69648 66.9906 8.83722H66.7573C66.7869 8.415 66.8017 7.67426 66.8017 6.615H67.035C67.1832 7.97797 67.6832 8.65945 68.535 8.65945C68.7499 8.65945 68.9313 8.59648 69.0795 8.47056C69.235 8.33722 69.3128 8.13722 69.3128 7.87056C69.3128 7.66315 69.2647 7.47797 69.1684 7.315C69.0795 7.15204 68.9647 7.00759 68.8239 6.88167C68.6832 6.75574 68.4721 6.58167 68.1906 6.35945C67.8573 6.09278 67.6017 5.87796 67.4239 5.715C67.2536 5.55204 67.1054 5.35945 66.9795 5.13722C66.861 4.915 66.8017 4.66685 66.8017 4.39278C66.8017 3.91871 66.9869 3.54463 67.3573 3.27056C67.7276 2.99648 68.1795 2.85945 68.7128 2.85945Z" fill="#333333"/>
<path d="M73.9008 3.89278C74.2341 3.20389 74.8378 2.85945 75.7119 2.85945C76.2896 2.85945 76.697 3.00389 76.9341 3.29278C77.06 3.43352 77.1489 3.61871 77.2008 3.84834C77.26 4.07056 77.2896 4.36685 77.2896 4.73722V7.72611C77.2896 8.02982 77.3415 8.24093 77.4452 8.35945C77.5489 8.47056 77.7341 8.52611 78.0007 8.52611V8.75945C77.2304 8.72982 76.7415 8.715 76.5341 8.715C76.2822 8.715 75.8008 8.72982 75.0896 8.75945V8.52611C75.3119 8.52611 75.4674 8.47056 75.5563 8.35945C75.6452 8.24093 75.6896 8.02982 75.6896 7.72611V4.27056C75.6896 3.96685 75.6378 3.73722 75.5341 3.58167C75.4378 3.42611 75.26 3.34834 75.0007 3.34834C74.6896 3.34834 74.4267 3.47056 74.2119 3.715C74.0045 3.95204 73.9008 4.25574 73.9008 4.62611V7.72611C73.9008 8.02982 73.9452 8.24093 74.0341 8.35945C74.123 8.47056 74.2785 8.52611 74.5007 8.52611V8.75945C73.7896 8.72982 73.3304 8.715 73.123 8.715C72.8711 8.715 72.36 8.72982 71.5896 8.75945V8.52611C71.8489 8.52611 72.0304 8.47056 72.1341 8.35945C72.2452 8.24093 72.3008 8.02982 72.3008 7.72611V1.40389C72.3008 1.06315 72.2452 0.815002 72.1341 0.659446C72.0304 0.50389 71.8489 0.426112 71.5896 0.426112V0.192779C71.8267 0.215002 72.0563 0.226113 72.2785 0.226113C72.923 0.226113 73.4637 0.174261 73.9008 0.0705566V3.89278Z" fill="#333333"/>
<path d="M82.2274 2.85945C82.5607 2.85945 82.8126 2.95945 82.983 3.15945C83.1533 3.35945 83.2385 3.60019 83.2385 3.88167C83.2385 4.15574 83.157 4.38167 82.9941 4.55945C82.8385 4.72982 82.6311 4.815 82.3718 4.815C82.12 4.815 81.92 4.75204 81.7718 4.62611C81.6237 4.49278 81.5496 4.31871 81.5496 4.10389C81.5496 3.74834 81.7126 3.45945 82.0385 3.23722C82.0089 3.22982 81.9644 3.22611 81.9052 3.22611C81.8311 3.22611 81.7719 3.23352 81.7274 3.24834C81.4459 3.29278 81.2052 3.46315 81.0052 3.75945C80.8126 4.05574 80.7163 4.35945 80.7163 4.67056V7.615C80.7163 7.95574 80.7978 8.19278 80.9607 8.32611C81.1311 8.45945 81.3978 8.52611 81.7607 8.52611V8.75945C81.657 8.75945 81.5718 8.75574 81.5052 8.74834C80.7496 8.72611 80.2459 8.715 79.9941 8.715C79.7941 8.715 79.3385 8.72611 78.6274 8.74834C78.5681 8.75574 78.4941 8.75945 78.4052 8.75945V8.52611C78.6718 8.52611 78.857 8.47056 78.9607 8.35945C79.0644 8.24093 79.1163 8.02982 79.1163 7.72611V4.22611C79.1163 3.88537 79.0644 3.63722 78.9607 3.48167C78.857 3.32611 78.6718 3.24834 78.4052 3.24834V3.015C78.6422 3.03722 78.8718 3.04834 79.0941 3.04834C79.7533 3.04834 80.2941 2.99648 80.7163 2.89278V3.92611C80.857 3.60759 81.0607 3.35204 81.3274 3.15945C81.5941 2.95945 81.8941 2.85945 82.2274 2.85945Z" fill="#333333"/>
<path d="M85.0585 8.83722C84.5844 8.83722 84.2288 8.715 83.9918 8.47056C83.7622 8.22611 83.6474 7.90389 83.6474 7.50389C83.6474 7.17056 83.7326 6.89648 83.9029 6.68167C84.0807 6.45945 84.2918 6.28908 84.5363 6.17056C84.7881 6.05204 85.1066 5.92611 85.4918 5.79278C85.8992 5.65204 86.1955 5.52611 86.3807 5.415C86.5733 5.29648 86.6696 5.13722 86.6696 4.93722V4.07056C86.6696 3.75945 86.5955 3.51871 86.4474 3.34834C86.3066 3.17056 86.0844 3.08167 85.7807 3.08167C85.4251 3.08167 85.1548 3.17056 84.9696 3.34834C85.177 3.42241 85.3363 3.53352 85.4474 3.68167C85.5659 3.82982 85.6251 4.00389 85.6251 4.20389C85.6251 4.45574 85.54 4.65574 85.3696 4.80389C85.1992 4.95204 84.9918 5.02611 84.7474 5.02611C84.4881 5.02611 84.2881 4.94463 84.1474 4.78167C84.0066 4.61871 83.9363 4.415 83.9363 4.17056C83.9363 3.96315 83.9844 3.78908 84.0807 3.64834C84.1844 3.50019 84.34 3.36315 84.5474 3.23722C84.7474 3.11871 84.9918 3.02611 85.2807 2.95945C85.577 2.89278 85.8992 2.85945 86.2474 2.85945C86.6103 2.85945 86.9251 2.89648 87.1918 2.97056C87.4585 3.04463 87.6807 3.17056 87.8585 3.34834C88.0214 3.5113 88.1288 3.7113 88.1807 3.94834C88.24 4.18537 88.2696 4.50759 88.2696 4.915V7.93722C88.2696 8.115 88.2844 8.24093 88.314 8.315C88.3511 8.38908 88.4177 8.42611 88.514 8.42611C88.6251 8.42611 88.7585 8.36315 88.914 8.23722L89.0251 8.42611C88.6918 8.70019 88.2844 8.83722 87.8029 8.83722C87.3955 8.83722 87.1103 8.75574 86.9474 8.59278C86.7844 8.42982 86.6992 8.2113 86.6918 7.93722C86.3214 8.53722 85.777 8.83722 85.0585 8.83722ZM85.914 8.12611C86.2029 8.12611 86.4548 7.97426 86.6696 7.67056V5.39278C86.5807 5.54093 86.3918 5.70389 86.1029 5.88167C85.814 6.06685 85.5955 6.25204 85.4474 6.43722C85.2992 6.62241 85.2251 6.88908 85.2251 7.23722C85.2251 7.54093 85.2881 7.76685 85.414 7.915C85.54 8.05574 85.7066 8.12611 85.914 8.12611Z" fill="#333333"/>
<path d="M98.276 7.72611C98.276 8.02982 98.3279 8.24093 98.4316 8.35945C98.5427 8.47056 98.7279 8.52611 98.9871 8.52611V8.75945C98.2464 8.72982 97.7575 8.715 97.5205 8.715C97.313 8.715 96.8538 8.72982 96.1427 8.75945V8.52611C96.3427 8.52611 96.4797 8.47056 96.5538 8.35945C96.6353 8.24834 96.676 8.03722 96.676 7.72611V4.27056C96.676 3.95945 96.6279 3.72982 96.5316 3.58167C96.4427 3.42611 96.2686 3.34834 96.0093 3.34834C95.7353 3.34834 95.4945 3.46315 95.2871 3.69278C95.0871 3.92241 94.9686 4.20389 94.9316 4.53722V7.72611C94.9316 8.02982 94.976 8.24093 95.0649 8.35945C95.1612 8.47056 95.3316 8.52611 95.576 8.52611V8.75945C94.8649 8.72982 94.3982 8.715 94.176 8.715C93.9686 8.715 93.5093 8.72982 92.7982 8.75945V8.52611C92.9982 8.52611 93.1353 8.47056 93.2094 8.35945C93.2908 8.24093 93.3316 8.02982 93.3316 7.72611V4.27056C93.3316 3.95945 93.2908 3.72982 93.2094 3.58167C93.1279 3.42611 92.9686 3.34834 92.7316 3.34834C92.4353 3.34834 92.1797 3.47426 91.9649 3.72611C91.7575 3.97056 91.6538 4.27426 91.6538 4.63722V7.72611C91.6538 8.02982 91.6908 8.24093 91.7649 8.35945C91.8464 8.47056 91.9871 8.52611 92.1871 8.52611V8.75945C91.5353 8.72982 91.0982 8.715 90.876 8.715C90.6538 8.715 90.1427 8.72982 89.3427 8.75945V8.52611C89.6093 8.52611 89.7945 8.47056 89.8982 8.35945C90.0019 8.24093 90.0538 8.02982 90.0538 7.72611V4.22611C90.0538 3.88537 90.0019 3.63722 89.8982 3.48167C89.7945 3.32611 89.6093 3.24834 89.3427 3.24834V3.015C89.5797 3.03722 89.8093 3.04834 90.0316 3.04834C90.6908 3.04834 91.2316 2.99648 91.6538 2.89278V3.89278C91.9797 3.20389 92.5538 2.85945 93.376 2.85945C93.939 2.85945 94.3464 3.00389 94.5982 3.29278C94.739 3.44093 94.8316 3.66315 94.876 3.95945C95.0686 3.55945 95.3205 3.27796 95.6316 3.115C95.9427 2.94463 96.3056 2.85945 96.7205 2.85945C97.2834 2.85945 97.6908 3.00389 97.9427 3.29278C98.0612 3.42611 98.1464 3.60759 98.1982 3.83722C98.2501 4.06685 98.276 4.36685 98.276 4.73722V7.72611Z" fill="#333333"/>
<path d="M4.13486 22.1855C4.08486 22.1855 4.05153 22.166 4.03486 22.1271L2.80986 19.5438C2.80431 19.5271 2.7932 19.5188 2.77653 19.5188H1.35986C1.33764 19.5188 1.32653 19.5299 1.32653 19.5521V22.1021C1.32653 22.1577 1.29875 22.1855 1.2432 22.1855H0.818197C0.762641 22.1855 0.734863 22.1577 0.734863 22.1021V16.4355C0.734863 16.3799 0.762641 16.3521 0.818197 16.3521H2.97653C3.45431 16.3521 3.84042 16.5021 4.13486 16.8021C4.42931 17.0966 4.57653 17.4827 4.57653 17.9605C4.57653 18.3494 4.47097 18.6799 4.25986 18.9521C4.04875 19.2244 3.76264 19.3994 3.40153 19.4771C3.37931 19.4882 3.37375 19.5021 3.38486 19.5188L4.63486 22.0855C4.64042 22.0966 4.6432 22.1105 4.6432 22.1271C4.6432 22.166 4.62097 22.1855 4.57653 22.1855H4.13486ZM1.35986 16.8688C1.33764 16.8688 1.32653 16.8799 1.32653 16.9021V19.0105C1.32653 19.0327 1.33764 19.0438 1.35986 19.0438H2.90986C3.23209 19.0438 3.4932 18.9438 3.6932 18.7438C3.8932 18.5438 3.9932 18.2827 3.9932 17.9605C3.9932 17.6382 3.8932 17.3771 3.6932 17.1771C3.4932 16.9716 3.23209 16.8688 2.90986 16.8688H1.35986Z" fill="#4F4F4F"/>
<path d="M8.92966 19.3688C8.95188 19.5244 8.96299 19.7188 8.96299 19.9521V20.2188C8.96299 20.2744 8.93521 20.3021 8.87966 20.3021H6.18799C6.16577 20.3021 6.15465 20.3132 6.15465 20.3355C6.16577 20.641 6.18243 20.8382 6.20466 20.9271C6.26577 21.1771 6.39632 21.3744 6.59632 21.5188C6.79632 21.6632 7.05188 21.7355 7.36299 21.7355C7.59632 21.7355 7.80188 21.6827 7.97966 21.5771C8.15743 21.4716 8.29632 21.3216 8.39632 21.1271C8.42966 21.0771 8.46854 21.066 8.51299 21.0938L8.83799 21.2855C8.88243 21.3132 8.89355 21.3521 8.87132 21.4021C8.73243 21.6688 8.5241 21.8799 8.24632 22.0355C7.96854 22.1855 7.6491 22.2605 7.28799 22.2605C6.89354 22.2549 6.56299 22.1605 6.29632 21.9771C6.02965 21.7938 5.83799 21.5382 5.72132 21.2105C5.62132 20.9438 5.57132 20.5605 5.57132 20.0605C5.57132 19.8271 5.5741 19.6382 5.57966 19.4938C5.59077 19.3438 5.61299 19.2105 5.64632 19.0938C5.74077 18.7327 5.92966 18.4438 6.21299 18.2271C6.50188 18.0105 6.8491 17.9021 7.25466 17.9021C7.76021 17.9021 8.1491 18.0299 8.42132 18.2855C8.69354 18.541 8.86299 18.9021 8.92966 19.3688ZM7.25466 18.4188C6.98243 18.4188 6.75465 18.491 6.57132 18.6355C6.39354 18.7744 6.27688 18.9632 6.22132 19.2021C6.18799 19.3188 6.16577 19.5077 6.15465 19.7688C6.15465 19.791 6.16577 19.8021 6.18799 19.8021H8.34632C8.36854 19.8021 8.37966 19.791 8.37966 19.7688C8.36854 19.5188 8.35188 19.341 8.32966 19.2355C8.26854 18.9855 8.14354 18.7882 7.95466 18.6438C7.77132 18.4938 7.53799 18.4188 7.25466 18.4188Z" fill="#4F4F4F"/>
<path d="M11.4498 22.2271C11.1387 22.2271 10.8609 22.1771 10.6164 22.0771C10.3776 21.9771 10.1914 21.8438 10.0581 21.6771C9.93033 21.5105 9.86644 21.3244 9.86644 21.1188V21.0188C9.86644 20.9632 9.89422 20.9355 9.94977 20.9355H10.3498C10.4053 20.9355 10.4331 20.9632 10.4331 21.0188V21.0855C10.4331 21.2688 10.5276 21.4299 10.7164 21.5688C10.9109 21.7021 11.1526 21.7688 11.4414 21.7688C11.7303 21.7688 11.9637 21.7049 12.1414 21.5771C12.3192 21.4438 12.4081 21.2771 12.4081 21.0771C12.4081 20.9382 12.3609 20.8244 12.2664 20.7355C12.1776 20.6466 12.0692 20.5771 11.9414 20.5271C11.8192 20.4771 11.6276 20.4132 11.3664 20.3355C11.0553 20.2466 10.7998 20.1577 10.5998 20.0688C10.3998 19.9799 10.2303 19.8577 10.0914 19.7021C9.95811 19.541 9.89144 19.3382 9.89144 19.0938C9.89144 18.7382 10.0303 18.4549 10.3081 18.2438C10.5859 18.0327 10.9525 17.9271 11.4081 17.9271C11.7137 17.9271 11.9831 17.9771 12.2164 18.0771C12.4553 18.1771 12.6387 18.316 12.7664 18.4938C12.8942 18.666 12.9581 18.8605 12.9581 19.0771V19.1021C12.9581 19.1577 12.9303 19.1855 12.8748 19.1855H12.4831C12.4276 19.1855 12.3998 19.1577 12.3998 19.1021V19.0771C12.3998 18.8882 12.3081 18.7299 12.1248 18.6021C11.947 18.4744 11.7053 18.4105 11.3998 18.4105C11.1164 18.4105 10.8887 18.4688 10.7164 18.5855C10.5442 18.6966 10.4581 18.8521 10.4581 19.0521C10.4581 19.241 10.5414 19.3855 10.7081 19.4855C10.8748 19.5855 11.1331 19.6855 11.4831 19.7855C11.8053 19.8799 12.0664 19.9688 12.2664 20.0521C12.4664 20.1355 12.6387 20.2577 12.7831 20.4188C12.9276 20.5744 12.9998 20.7799 12.9998 21.0355C12.9998 21.3966 12.8581 21.6855 12.5748 21.9021C12.2914 22.1188 11.9164 22.2271 11.4498 22.2271Z" fill="#4F4F4F"/>
<path d="M17.3118 19.3688C17.334 19.5244 17.3451 19.7188 17.3451 19.9521V20.2188C17.3451 20.2744 17.3174 20.3021 17.2618 20.3021H14.5702C14.5479 20.3021 14.5368 20.3132 14.5368 20.3355C14.5479 20.641 14.5646 20.8382 14.5868 20.9271C14.6479 21.1771 14.7785 21.3744 14.9785 21.5188C15.1785 21.6632 15.434 21.7355 15.7452 21.7355C15.9785 21.7355 16.184 21.6827 16.3618 21.5771C16.5396 21.4716 16.6785 21.3216 16.7785 21.1271C16.8118 21.0771 16.8507 21.066 16.8952 21.0938L17.2201 21.2855C17.2646 21.3132 17.2757 21.3521 17.2535 21.4021C17.1146 21.6688 16.9063 21.8799 16.6285 22.0355C16.3507 22.1855 16.0313 22.2605 15.6702 22.2605C15.2757 22.2549 14.9452 22.1605 14.6785 21.9771C14.4118 21.7938 14.2201 21.5382 14.1035 21.2105C14.0035 20.9438 13.9535 20.5605 13.9535 20.0605C13.9535 19.8271 13.9563 19.6382 13.9618 19.4938C13.9729 19.3438 13.9952 19.2105 14.0285 19.0938C14.1229 18.7327 14.3118 18.4438 14.5952 18.2271C14.884 18.0105 15.2313 17.9021 15.6368 17.9021C16.1424 17.9021 16.5313 18.0299 16.8035 18.2855C17.0757 18.541 17.2452 18.9021 17.3118 19.3688ZM15.6368 18.4188C15.3646 18.4188 15.1368 18.491 14.9535 18.6355C14.7757 18.7744 14.659 18.9632 14.6035 19.2021C14.5702 19.3188 14.5479 19.5077 14.5368 19.7688C14.5368 19.791 14.5479 19.8021 14.5702 19.8021H16.7285C16.7507 19.8021 16.7618 19.791 16.7618 19.7688C16.7507 19.5188 16.734 19.341 16.7118 19.2355C16.6507 18.9855 16.5257 18.7882 16.3368 18.6438C16.1535 18.4938 15.9201 18.4188 15.6368 18.4188Z" fill="#4F4F4F"/>
<path d="M19.9395 17.9021C20.4395 17.9021 20.8256 18.0299 21.0978 18.2855C21.37 18.541 21.5062 18.8799 21.5062 19.3021V22.1021C21.5062 22.1577 21.4784 22.1855 21.4228 22.1855H20.9978C20.9423 22.1855 20.9145 22.1577 20.9145 22.1021V21.7605C20.9145 21.7494 20.9089 21.741 20.8978 21.7355C20.8923 21.7299 20.8839 21.7327 20.8728 21.7438C20.7339 21.9105 20.5534 22.0382 20.3312 22.1271C20.1089 22.2105 19.8617 22.2521 19.5895 22.2521C19.195 22.2521 18.8645 22.1521 18.5978 21.9521C18.3312 21.7521 18.1978 21.4466 18.1978 21.0355C18.1978 20.6188 18.3478 20.291 18.6478 20.0521C18.9534 19.8077 19.3756 19.6855 19.9145 19.6855H20.8812C20.9034 19.6855 20.9145 19.6744 20.9145 19.6521V19.3355C20.9145 19.0521 20.8339 18.8299 20.6728 18.6688C20.5173 18.5021 20.2728 18.4188 19.9395 18.4188C19.6728 18.4188 19.4562 18.4716 19.2895 18.5771C19.1228 18.6771 19.02 18.8188 18.9812 19.0021C18.9645 19.0577 18.9312 19.0827 18.8812 19.0771L18.4312 19.0188C18.37 19.0077 18.345 18.9855 18.3562 18.9521C18.4006 18.641 18.5673 18.3882 18.8562 18.1938C19.145 17.9994 19.5062 17.9021 19.9395 17.9021ZM19.7062 21.7438C20.0339 21.7438 20.3173 21.6632 20.5562 21.5021C20.795 21.3355 20.9145 21.1132 20.9145 20.8355V20.1855C20.9145 20.1632 20.9034 20.1521 20.8812 20.1521H20.0062C19.6395 20.1521 19.345 20.2271 19.1228 20.3771C18.9006 20.5271 18.7895 20.7355 18.7895 21.0021C18.7895 21.2466 18.8728 21.4327 19.0395 21.5605C19.2117 21.6827 19.4339 21.7438 19.7062 21.7438Z" fill="#4F4F4F"/>
<path d="M24.4373 17.9271C24.6207 17.9271 24.779 17.9632 24.9123 18.0355C24.9568 18.0577 24.9734 18.0938 24.9623 18.1438L24.8707 18.5521C24.854 18.6077 24.8179 18.6244 24.7623 18.6021C24.6679 18.5632 24.5596 18.5438 24.4373 18.5438L24.329 18.5521C24.0401 18.5632 23.8012 18.6716 23.6123 18.8771C23.4235 19.0771 23.329 19.3327 23.329 19.6438V22.1021C23.329 22.1577 23.3012 22.1855 23.2457 22.1855H22.8207C22.7651 22.1855 22.7373 22.1577 22.7373 22.1021V18.0521C22.7373 17.9966 22.7651 17.9688 22.8207 17.9688H23.2457C23.3012 17.9688 23.329 17.9966 23.329 18.0521V18.5605C23.329 18.5771 23.3318 18.5882 23.3373 18.5938C23.3484 18.5938 23.3568 18.5882 23.3623 18.5771C23.479 18.3716 23.6262 18.2132 23.804 18.1021C23.9873 17.9855 24.1985 17.9271 24.4373 17.9271Z" fill="#4F4F4F"/>
<path d="M27.3238 22.2521C26.9238 22.2521 26.5794 22.1494 26.2905 21.9438C26.0071 21.7327 25.8127 21.4494 25.7071 21.0938C25.6349 20.8494 25.5988 20.5049 25.5988 20.0605C25.5988 19.6605 25.6349 19.3216 25.7071 19.0438C25.8071 18.6994 26.0016 18.4244 26.2905 18.2188C26.5794 18.0077 26.9238 17.9021 27.3238 17.9021C27.7294 17.9021 28.0794 18.0049 28.3738 18.2105C28.6738 18.416 28.8682 18.6716 28.9571 18.9771C28.9849 19.0771 29.0016 19.1605 29.0071 19.2271V19.2438C29.0071 19.2827 28.9821 19.3077 28.9321 19.3188L28.5155 19.3771H28.4988C28.4599 19.3771 28.4349 19.3521 28.4238 19.3021L28.3988 19.1771C28.3488 18.966 28.2266 18.7882 28.0321 18.6438C27.8377 18.4938 27.6016 18.4188 27.3238 18.4188C27.046 18.4188 26.8127 18.4938 26.6238 18.6438C26.4405 18.7882 26.321 18.9827 26.2655 19.2271C26.2155 19.4382 26.1905 19.7188 26.1905 20.0688C26.1905 20.4355 26.2155 20.7188 26.2655 20.9188C26.321 21.1688 26.4405 21.3688 26.6238 21.5188C26.8127 21.6632 27.046 21.7355 27.3238 21.7355C27.596 21.7355 27.8294 21.666 28.0238 21.5271C28.2238 21.3827 28.3488 21.1994 28.3988 20.9771V20.9438L28.4071 20.9105C28.4127 20.8549 28.446 20.8327 28.5071 20.8438L28.9155 20.9105C28.971 20.9216 28.996 20.9521 28.9905 21.0021L28.9571 21.1688C28.8738 21.491 28.6821 21.7521 28.3821 21.9521C28.0821 22.1521 27.7294 22.2521 27.3238 22.2521Z" fill="#4F4F4F"/>
<path d="M31.8116 17.9105C32.256 17.9105 32.6088 18.041 32.8699 18.3021C33.1366 18.5632 33.2699 18.9132 33.2699 19.3521V22.1021C33.2699 22.1577 33.2421 22.1855 33.1866 22.1855H32.7616C32.706 22.1855 32.6782 22.1577 32.6782 22.1021V19.4688C32.6782 19.1632 32.5838 18.9132 32.3949 18.7188C32.2116 18.5244 31.9727 18.4271 31.6782 18.4271C31.3727 18.4271 31.1254 18.5216 30.9366 18.7105C30.7477 18.8994 30.6532 19.1466 30.6532 19.4521V22.1021C30.6532 22.1577 30.6254 22.1855 30.5699 22.1855H30.1449C30.0893 22.1855 30.0616 22.1577 30.0616 22.1021V16.4355C30.0616 16.3799 30.0893 16.3521 30.1449 16.3521H30.5699C30.6254 16.3521 30.6532 16.3799 30.6532 16.4355V18.4105C30.6532 18.4216 30.656 18.4299 30.6616 18.4355C30.6727 18.441 30.681 18.4382 30.6866 18.4271C30.931 18.0827 31.306 17.9105 31.8116 17.9105Z" fill="#4F4F4F"/>
<path d="M39.797 22.1855C39.747 22.1855 39.7137 22.1632 39.697 22.1188L39.3637 21.0688C39.3582 21.0521 39.347 21.0438 39.3304 21.0438H36.8387C36.822 21.0438 36.8109 21.0521 36.8054 21.0688L36.472 22.1188C36.4554 22.1632 36.422 22.1855 36.372 22.1855H35.922C35.8609 22.1855 35.8387 22.1549 35.8554 22.0938L37.697 16.4188C37.7137 16.3744 37.747 16.3521 37.797 16.3521H38.3637C38.4137 16.3521 38.447 16.3744 38.4637 16.4188L40.3137 22.0938L40.322 22.1271C40.322 22.166 40.297 22.1855 40.247 22.1855H39.797ZM36.972 20.5188C36.9665 20.5299 36.9665 20.541 36.972 20.5521C36.9832 20.5577 36.9943 20.5605 37.0054 20.5605H39.1554C39.1665 20.5605 39.1748 20.5577 39.1804 20.5521C39.1915 20.541 39.1943 20.5299 39.1887 20.5188L38.1054 17.1188C38.0998 17.1077 38.0915 17.1021 38.0804 17.1021C38.0693 17.1021 38.0609 17.1077 38.0554 17.1188L36.972 20.5188Z" fill="#4F4F4F"/>
<path d="M42.6672 22.2271C42.3561 22.2271 42.0783 22.1771 41.8339 22.0771C41.595 21.9771 41.4089 21.8438 41.2756 21.6771C41.1478 21.5105 41.0839 21.3244 41.0839 21.1188V21.0188C41.0839 20.9632 41.1117 20.9355 41.1672 20.9355H41.5672C41.6228 20.9355 41.6506 20.9632 41.6506 21.0188V21.0855C41.6506 21.2688 41.745 21.4299 41.9339 21.5688C42.1283 21.7021 42.37 21.7688 42.6589 21.7688C42.9478 21.7688 43.1811 21.7049 43.3589 21.5771C43.5367 21.4438 43.6256 21.2771 43.6256 21.0771C43.6256 20.9382 43.5783 20.8244 43.4839 20.7355C43.395 20.6466 43.2867 20.5771 43.1589 20.5271C43.0367 20.4771 42.845 20.4132 42.5839 20.3355C42.2728 20.2466 42.0172 20.1577 41.8172 20.0688C41.6172 19.9799 41.4478 19.8577 41.3089 19.7021C41.1756 19.541 41.1089 19.3382 41.1089 19.0938C41.1089 18.7382 41.2478 18.4549 41.5256 18.2438C41.8033 18.0327 42.17 17.9271 42.6256 17.9271C42.9311 17.9271 43.2006 17.9771 43.4339 18.0771C43.6728 18.1771 43.8561 18.316 43.9839 18.4938C44.1117 18.666 44.1756 18.8605 44.1756 19.0771V19.1021C44.1756 19.1577 44.1478 19.1855 44.0922 19.1855H43.7006C43.645 19.1855 43.6172 19.1577 43.6172 19.1021V19.0771C43.6172 18.8882 43.5256 18.7299 43.3422 18.6021C43.1644 18.4744 42.9228 18.4105 42.6172 18.4105C42.3339 18.4105 42.1061 18.4688 41.9339 18.5855C41.7617 18.6966 41.6756 18.8521 41.6756 19.0521C41.6756 19.241 41.7589 19.3855 41.9256 19.4855C42.0922 19.5855 42.3506 19.6855 42.7006 19.7855C43.0228 19.8799 43.2839 19.9688 43.4839 20.0521C43.6839 20.1355 43.8561 20.2577 44.0006 20.4188C44.145 20.5744 44.2172 20.7799 44.2172 21.0355C44.2172 21.3966 44.0756 21.6855 43.7922 21.9021C43.5089 22.1188 43.1339 22.2271 42.6672 22.2271Z" fill="#4F4F4F"/>
<path d="M46.5572 22.2271C46.2461 22.2271 45.9683 22.1771 45.7239 22.0771C45.485 21.9771 45.2989 21.8438 45.1655 21.6771C45.0378 21.5105 44.9739 21.3244 44.9739 21.1188V21.0188C44.9739 20.9632 45.0016 20.9355 45.0572 20.9355H45.4572C45.5128 20.9355 45.5405 20.9632 45.5405 21.0188V21.0855C45.5405 21.2688 45.635 21.4299 45.8239 21.5688C46.0183 21.7021 46.26 21.7688 46.5489 21.7688C46.8378 21.7688 47.0711 21.7049 47.2489 21.5771C47.4266 21.4438 47.5155 21.2771 47.5155 21.0771C47.5155 20.9382 47.4683 20.8244 47.3739 20.7355C47.285 20.6466 47.1766 20.5771 47.0489 20.5271C46.9266 20.4771 46.735 20.4132 46.4739 20.3355C46.1628 20.2466 45.9072 20.1577 45.7072 20.0688C45.5072 19.9799 45.3378 19.8577 45.1989 19.7021C45.0655 19.541 44.9989 19.3382 44.9989 19.0938C44.9989 18.7382 45.1377 18.4549 45.4155 18.2438C45.6933 18.0327 46.06 17.9271 46.5155 17.9271C46.8211 17.9271 47.0905 17.9771 47.3239 18.0771C47.5628 18.1771 47.7461 18.316 47.8739 18.4938C48.0016 18.666 48.0655 18.8605 48.0655 19.0771V19.1021C48.0655 19.1577 48.0378 19.1855 47.9822 19.1855H47.5905C47.535 19.1855 47.5072 19.1577 47.5072 19.1021V19.0771C47.5072 18.8882 47.4155 18.7299 47.2322 18.6021C47.0544 18.4744 46.8128 18.4105 46.5072 18.4105C46.2239 18.4105 45.9961 18.4688 45.8239 18.5855C45.6516 18.6966 45.5655 18.8521 45.5655 19.0521C45.5655 19.241 45.6489 19.3855 45.8155 19.4855C45.9822 19.5855 46.2405 19.6855 46.5905 19.7855C46.9128 19.8799 47.1739 19.9688 47.3739 20.0521C47.5739 20.1355 47.7461 20.2577 47.8905 20.4188C48.035 20.5744 48.1072 20.7799 48.1072 21.0355C48.1072 21.3966 47.9655 21.6855 47.6822 21.9021C47.3989 22.1188 47.0239 22.2271 46.5572 22.2271Z" fill="#4F4F4F"/>
<path d="M50.7942 22.2521C50.3942 22.2521 50.0498 22.1494 49.7609 21.9438C49.472 21.7382 49.272 21.4549 49.1609 21.0938C49.0831 20.8382 49.0442 20.4966 49.0442 20.0688C49.0442 19.641 49.0831 19.3021 49.1609 19.0521C49.2665 18.6966 49.4637 18.416 49.7526 18.2105C50.0415 18.0049 50.3915 17.9021 50.8026 17.9021C51.197 17.9021 51.5359 18.0049 51.8192 18.2105C52.1081 18.416 52.3054 18.6938 52.4109 19.0438C52.4887 19.2827 52.5276 19.6244 52.5276 20.0688C52.5276 20.5188 52.4887 20.8605 52.4109 21.0938C52.3054 21.4549 52.1081 21.7382 51.8192 21.9438C51.5359 22.1494 51.1942 22.2521 50.7942 22.2521ZM50.7942 21.7355C51.0609 21.7355 51.2887 21.6632 51.4776 21.5188C51.6665 21.3688 51.7942 21.1688 51.8609 20.9188C51.9109 20.7188 51.9359 20.4382 51.9359 20.0771C51.9359 19.7105 51.9137 19.4299 51.8692 19.2355C51.8026 18.9855 51.672 18.7882 51.4776 18.6438C51.2887 18.4938 51.0581 18.4188 50.7859 18.4188C50.5137 18.4188 50.2831 18.4938 50.0942 18.6438C49.9053 18.7882 49.7776 18.9855 49.7109 19.2355C49.6665 19.4299 49.6442 19.7105 49.6442 20.0771C49.6442 20.4438 49.6665 20.7244 49.7109 20.9188C49.772 21.1688 49.897 21.3688 50.0859 21.5188C50.2804 21.6632 50.5165 21.7355 50.7942 21.7355Z" fill="#4F4F4F"/>
<path d="M55.3186 22.2521C54.9186 22.2521 54.5741 22.1494 54.2853 21.9438C54.0019 21.7327 53.8075 21.4494 53.7019 21.0938C53.6297 20.8494 53.5936 20.5049 53.5936 20.0605C53.5936 19.6605 53.6297 19.3216 53.7019 19.0438C53.8019 18.6994 53.9964 18.4244 54.2853 18.2188C54.5741 18.0077 54.9186 17.9021 55.3186 17.9021C55.7241 17.9021 56.0741 18.0049 56.3686 18.2105C56.6686 18.416 56.863 18.6716 56.9519 18.9771C56.9797 19.0771 56.9964 19.1605 57.0019 19.2271V19.2438C57.0019 19.2827 56.9769 19.3077 56.9269 19.3188L56.5103 19.3771H56.4936C56.4547 19.3771 56.4297 19.3521 56.4186 19.3021L56.3936 19.1771C56.3436 18.966 56.2214 18.7882 56.0269 18.6438C55.8325 18.4938 55.5964 18.4188 55.3186 18.4188C55.0408 18.4188 54.8075 18.4938 54.6186 18.6438C54.4353 18.7882 54.3158 18.9827 54.2603 19.2271C54.2103 19.4382 54.1853 19.7188 54.1853 20.0688C54.1853 20.4355 54.2103 20.7188 54.2603 20.9188C54.3158 21.1688 54.4353 21.3688 54.6186 21.5188C54.8075 21.6632 55.0408 21.7355 55.3186 21.7355C55.5908 21.7355 55.8241 21.666 56.0186 21.5271C56.2186 21.3827 56.3436 21.1994 56.3936 20.9771V20.9438L56.4019 20.9105C56.4075 20.8549 56.4408 20.8327 56.5019 20.8438L56.9103 20.9105C56.9658 20.9216 56.9908 20.9521 56.9853 21.0021L56.9519 21.1688C56.8686 21.491 56.6769 21.7521 56.3769 21.9521C56.0769 22.1521 55.7241 22.2521 55.3186 22.2521Z" fill="#4F4F4F"/>
<path d="M58.4563 17.2021C58.323 17.2021 58.2119 17.1577 58.123 17.0688C58.0341 16.9799 57.9897 16.8688 57.9897 16.7355C57.9897 16.5966 58.0341 16.4855 58.123 16.4021C58.2119 16.3132 58.323 16.2688 58.4563 16.2688C58.5897 16.2688 58.7008 16.3132 58.7897 16.4021C58.8786 16.4855 58.923 16.5966 58.923 16.7355C58.923 16.8688 58.8786 16.9799 58.7897 17.0688C58.7008 17.1577 58.5897 17.2021 58.4563 17.2021ZM58.223 22.1771C58.1675 22.1771 58.1397 22.1494 58.1397 22.0938V18.0438C58.1397 17.9882 58.1675 17.9605 58.223 17.9605H58.648C58.7036 17.9605 58.7313 17.9882 58.7313 18.0438V22.0938C58.7313 22.1494 58.7036 22.1771 58.648 22.1771H58.223Z" fill="#4F4F4F"/>
<path d="M61.6387 17.9021C62.1387 17.9021 62.5248 18.0299 62.797 18.2855C63.0693 18.541 63.2054 18.8799 63.2054 19.3021V22.1021C63.2054 22.1577 63.1776 22.1855 63.122 22.1855H62.697C62.6415 22.1855 62.6137 22.1577 62.6137 22.1021V21.7605C62.6137 21.7494 62.6082 21.741 62.597 21.7355C62.5915 21.7299 62.5832 21.7327 62.572 21.7438C62.4332 21.9105 62.2526 22.0382 62.0304 22.1271C61.8082 22.2105 61.5609 22.2521 61.2887 22.2521C60.8943 22.2521 60.5637 22.1521 60.297 21.9521C60.0304 21.7521 59.897 21.4466 59.897 21.0355C59.897 20.6188 60.047 20.291 60.347 20.0521C60.6526 19.8077 61.0748 19.6855 61.6137 19.6855H62.5804C62.6026 19.6855 62.6137 19.6744 62.6137 19.6521V19.3355C62.6137 19.0521 62.5331 18.8299 62.372 18.6688C62.2165 18.5021 61.972 18.4188 61.6387 18.4188C61.372 18.4188 61.1554 18.4716 60.9887 18.5771C60.822 18.6771 60.7193 18.8188 60.6804 19.0021C60.6637 19.0577 60.6304 19.0827 60.5804 19.0771L60.1304 19.0188C60.0693 19.0077 60.0443 18.9855 60.0554 18.9521C60.0998 18.641 60.2665 18.3882 60.5554 18.1938C60.8443 17.9994 61.2054 17.9021 61.6387 17.9021ZM61.4054 21.7438C61.7332 21.7438 62.0165 21.6632 62.2554 21.5021C62.4943 21.3355 62.6137 21.1132 62.6137 20.8355V20.1855C62.6137 20.1632 62.6026 20.1521 62.5804 20.1521H61.7054C61.3387 20.1521 61.0443 20.2271 60.822 20.3771C60.5998 20.5271 60.4887 20.7355 60.4887 21.0021C60.4887 21.2466 60.572 21.4327 60.7387 21.5605C60.9109 21.6827 61.1332 21.7438 61.4054 21.7438Z" fill="#4F4F4F"/>
<path d="M66.2957 18.3771C66.2957 18.4327 66.2679 18.4605 66.2123 18.4605H65.2707C65.2485 18.4605 65.2373 18.4716 65.2373 18.4938V20.9521C65.2373 21.2188 65.2957 21.4077 65.4123 21.5188C65.5346 21.6244 65.7234 21.6771 65.979 21.6771H66.1873C66.2429 21.6771 66.2707 21.7049 66.2707 21.7605V22.1021C66.2707 22.1577 66.2429 22.1855 66.1873 22.1855C66.1207 22.191 66.0179 22.1938 65.879 22.1938C65.479 22.1938 65.1762 22.1188 64.9707 21.9688C64.7651 21.8188 64.6623 21.541 64.6623 21.1355V18.4938C64.6623 18.4716 64.6512 18.4605 64.629 18.4605H64.1207C64.0651 18.4605 64.0373 18.4327 64.0373 18.3771V18.0521C64.0373 17.9966 64.0651 17.9688 64.1207 17.9688H64.629C64.6512 17.9688 64.6623 17.9577 64.6623 17.9355V16.9688C64.6623 16.9132 64.6901 16.8855 64.7457 16.8855H65.154C65.2096 16.8855 65.2373 16.9132 65.2373 16.9688V17.9355C65.2373 17.9577 65.2485 17.9688 65.2707 17.9688H66.2123C66.2679 17.9688 66.2957 17.9966 66.2957 18.0521V18.3771Z" fill="#4F4F4F"/>
<path d="M70.5508 19.3688C70.573 19.5244 70.5841 19.7188 70.5841 19.9521V20.2188C70.5841 20.2744 70.5563 20.3021 70.5007 20.3021H67.8091C67.7869 20.3021 67.7758 20.3132 67.7758 20.3355C67.7869 20.641 67.8035 20.8382 67.8258 20.9271C67.8869 21.1771 68.0174 21.3744 68.2174 21.5188C68.4174 21.6632 68.673 21.7355 68.9841 21.7355C69.2174 21.7355 69.423 21.6827 69.6007 21.5771C69.7785 21.4716 69.9174 21.3216 70.0174 21.1271C70.0508 21.0771 70.0896 21.066 70.1341 21.0938L70.4591 21.2855C70.5035 21.3132 70.5146 21.3521 70.4924 21.4021C70.3535 21.6688 70.1452 21.8799 69.8674 22.0355C69.5896 22.1855 69.2702 22.2605 68.9091 22.2605C68.5146 22.2549 68.1841 22.1605 67.9174 21.9771C67.6508 21.7938 67.4591 21.5382 67.3424 21.2105C67.2424 20.9438 67.1924 20.5605 67.1924 20.0605C67.1924 19.8271 67.1952 19.6382 67.2008 19.4938C67.2119 19.3438 67.2341 19.2105 67.2674 19.0938C67.3619 18.7327 67.5508 18.4438 67.8341 18.2271C68.123 18.0105 68.4702 17.9021 68.8757 17.9021C69.3813 17.9021 69.7702 18.0299 70.0424 18.2855C70.3146 18.541 70.4841 18.9021 70.5508 19.3688ZM68.8757 18.4188C68.6035 18.4188 68.3758 18.491 68.1924 18.6355C68.0146 18.7744 67.898 18.9632 67.8424 19.2021C67.8091 19.3188 67.7869 19.5077 67.7758 19.7688C67.7758 19.791 67.7869 19.8021 67.8091 19.8021H69.9674C69.9896 19.8021 70.0008 19.791 70.0008 19.7688C69.9896 19.5188 69.973 19.341 69.9508 19.2355C69.8896 18.9855 69.7646 18.7882 69.5758 18.6438C69.3924 18.4938 69.1591 18.4188 68.8757 18.4188Z" fill="#4F4F4F"/>
<path d="M77.7124 22.0855C77.7235 22.0966 77.7291 22.1132 77.7291 22.1355C77.7291 22.1466 77.7235 22.1577 77.7124 22.1688C77.7013 22.1799 77.6846 22.1855 77.6624 22.1855H77.1707C77.1374 22.1855 77.1041 22.1688 77.0707 22.1355C76.8596 21.8966 76.6985 21.7077 76.5874 21.5688C76.5707 21.5521 76.5541 21.5521 76.5374 21.5688C76.2707 21.8077 76.0013 21.9827 75.7291 22.0938C75.4624 22.1994 75.168 22.2521 74.8457 22.2521C74.3513 22.2521 73.9513 22.1382 73.6457 21.9105C73.3457 21.6771 73.1957 21.341 73.1957 20.9021C73.1957 20.5188 73.3041 20.191 73.5207 19.9188C73.743 19.6466 74.0513 19.3771 74.4457 19.1105C74.4735 19.0994 74.4763 19.0855 74.4541 19.0688C74.1319 18.6744 73.918 18.3771 73.8124 18.1771C73.7069 17.9716 73.6541 17.7632 73.6541 17.5521C73.6541 17.1799 73.7818 16.8771 74.0374 16.6438C74.293 16.4049 74.6319 16.2855 75.0541 16.2855C75.4763 16.2855 75.8235 16.4049 76.0957 16.6438C76.368 16.8771 76.5041 17.1827 76.5041 17.5605C76.5041 17.8994 76.4013 18.1938 76.1957 18.4438C75.9902 18.6938 75.7013 18.9466 75.3291 19.2021C75.3069 19.2077 75.3041 19.2216 75.3207 19.2438C75.5763 19.5605 75.8957 19.9382 76.2791 20.3771C76.418 20.5494 76.5124 20.6632 76.5624 20.7188C76.5791 20.7355 76.5957 20.7355 76.6124 20.7188C76.8291 20.4466 77.0096 20.2077 77.1541 20.0021C77.1874 19.9577 77.2263 19.9494 77.2707 19.9771L77.5874 20.1605C77.6374 20.1938 77.6457 20.2327 77.6124 20.2771C77.3791 20.6216 77.1568 20.9105 76.9457 21.1438V21.1605C76.9457 21.1771 76.9568 21.1994 76.9791 21.2271C76.9568 21.1994 77.1513 21.4299 77.5624 21.9188L77.7124 22.0855ZM75.0707 16.8355C74.8207 16.8355 74.6207 16.9049 74.4707 17.0438C74.3207 17.1771 74.2457 17.3605 74.2457 17.5938C74.2457 17.7271 74.2874 17.8688 74.3707 18.0188C74.4541 18.1688 74.6346 18.416 74.9124 18.7605C74.9291 18.7771 74.9457 18.7799 74.9624 18.7688C75.268 18.5577 75.5013 18.3605 75.6624 18.1771C75.8291 17.9938 75.9124 17.7882 75.9124 17.5605C75.9124 17.3438 75.8346 17.1688 75.6791 17.0355C75.5235 16.9021 75.3207 16.8355 75.0707 16.8355ZM74.8624 21.7438C75.1013 21.7438 75.3263 21.6966 75.5374 21.6021C75.7541 21.5021 75.9707 21.3549 76.1874 21.1605C76.2041 21.1438 76.2041 21.1271 76.1874 21.1105L75.8957 20.7605C75.7457 20.5771 75.6319 20.4438 75.5541 20.3605L74.8541 19.5521C74.8485 19.5355 74.8346 19.5327 74.8124 19.5438C74.4902 19.7605 74.2402 19.9744 74.0624 20.1855C73.8902 20.3966 73.8041 20.6355 73.8041 20.9021C73.8041 21.1688 73.8985 21.3771 74.0874 21.5271C74.2763 21.6716 74.5346 21.7438 74.8624 21.7438Z" fill="#4F4F4F"/>
<path d="M80.7824 22.1855C80.7268 22.1855 80.6991 22.1577 80.6991 22.1021V16.4355C80.6991 16.3799 80.7268 16.3521 80.7824 16.3521H81.2074C81.263 16.3521 81.2907 16.3799 81.2907 16.4355V21.6355C81.2907 21.6577 81.3018 21.6688 81.3241 21.6688H84.2657C84.3213 21.6688 84.3491 21.6966 84.3491 21.7521V22.1021C84.3491 22.1577 84.3213 22.1855 84.2657 22.1855H80.7824Z" fill="#4F4F4F"/>
<path d="M86.7771 17.9021C87.2771 17.9021 87.6632 18.0299 87.9354 18.2855C88.2076 18.541 88.3437 18.8799 88.3437 19.3021V22.1021C88.3437 22.1577 88.3159 22.1855 88.2604 22.1855H87.8354C87.7798 22.1855 87.7521 22.1577 87.7521 22.1021V21.7605C87.7521 21.7494 87.7465 21.741 87.7354 21.7355C87.7298 21.7299 87.7215 21.7327 87.7104 21.7438C87.5715 21.9105 87.3909 22.0382 87.1687 22.1271C86.9465 22.2105 86.6993 22.2521 86.4271 22.2521C86.0326 22.2521 85.7021 22.1521 85.4354 21.9521C85.1687 21.7521 85.0354 21.4466 85.0354 21.0355C85.0354 20.6188 85.1854 20.291 85.4854 20.0521C85.7909 19.8077 86.2132 19.6855 86.7521 19.6855H87.7187C87.7409 19.6855 87.7521 19.6744 87.7521 19.6521V19.3355C87.7521 19.0521 87.6715 18.8299 87.5104 18.6688C87.3548 18.5021 87.1104 18.4188 86.7771 18.4188C86.5104 18.4188 86.2937 18.4716 86.1271 18.5771C85.9604 18.6771 85.8576 18.8188 85.8187 19.0021C85.8021 19.0577 85.7687 19.0827 85.7187 19.0771L85.2687 19.0188C85.2076 19.0077 85.1826 18.9855 85.1937 18.9521C85.2382 18.641 85.4048 18.3882 85.6937 18.1938C85.9826 17.9994 86.3437 17.9021 86.7771 17.9021ZM86.5437 21.7438C86.8715 21.7438 87.1548 21.6632 87.3937 21.5021C87.6326 21.3355 87.7521 21.1132 87.7521 20.8355V20.1855C87.7521 20.1632 87.7409 20.1521 87.7187 20.1521H86.8437C86.4771 20.1521 86.1826 20.2271 85.9604 20.3771C85.7382 20.5271 85.6271 20.7355 85.6271 21.0021C85.6271 21.2466 85.7104 21.4327 85.8771 21.5605C86.0493 21.6827 86.2715 21.7438 86.5437 21.7438Z" fill="#4F4F4F"/>
<path d="M90.4011 22.1855C90.3566 22.1855 90.3261 22.1632 90.3094 22.1188L89.1261 18.0605L89.1177 18.0355C89.1177 17.991 89.1455 17.9688 89.2011 17.9688H89.6344C89.6844 17.9688 89.715 17.9938 89.7261 18.0438L90.6094 21.3271C90.615 21.3382 90.6205 21.3438 90.6261 21.3438C90.6372 21.3438 90.6455 21.3382 90.6511 21.3271L91.5511 18.0438C91.5622 17.9938 91.5928 17.9688 91.6427 17.9688H92.0427C92.0928 17.9688 92.1233 17.991 92.1344 18.0355L93.0427 21.3188C93.0483 21.3299 93.0566 21.3355 93.0677 21.3355C93.0789 21.3355 93.0872 21.3299 93.0927 21.3188L94.0011 18.0438C94.0122 17.9938 94.0427 17.9688 94.0927 17.9688L94.5261 17.9771C94.5539 17.9771 94.5733 17.9855 94.5844 18.0021C94.6011 18.0188 94.6066 18.041 94.6011 18.0688L93.4011 22.1188C93.3844 22.1632 93.3539 22.1855 93.3094 22.1855H92.8677C92.8233 22.1855 92.7927 22.1632 92.7761 22.1188L91.8677 19.0021C91.8622 18.991 91.8539 18.9855 91.8427 18.9855C91.8372 18.9855 91.8316 18.991 91.8261 19.0021L90.9427 22.1188C90.9261 22.1632 90.8955 22.1855 90.8511 22.1855H90.4011Z" fill="#4F4F4F"/>
<path d="M95.3403 23.8521C95.3014 23.8521 95.2819 23.8244 95.2819 23.7688V23.4355C95.2819 23.3799 95.3097 23.3521 95.3653 23.3521H95.3986C95.6153 23.3466 95.7819 23.3132 95.8986 23.2521C96.0208 23.1966 96.1236 23.0882 96.2069 22.9271C96.2958 22.7716 96.3903 22.5327 96.4903 22.2105C96.5014 22.1882 96.5014 22.1716 96.4903 22.1605L95.0819 18.0605L95.0736 18.0271C95.0736 17.9882 95.0986 17.9688 95.1486 17.9688H95.5903C95.6403 17.9688 95.6736 17.991 95.6903 18.0355L96.7736 21.4021C96.7792 21.4132 96.7875 21.4188 96.7986 21.4188C96.8097 21.4188 96.818 21.4132 96.8236 21.4021L97.8903 18.0355C97.9069 17.991 97.9403 17.9688 97.9903 17.9688H98.4236C98.4847 17.9688 98.5069 17.9994 98.4903 18.0605L96.9486 22.5521C96.8153 22.9244 96.6903 23.1994 96.5736 23.3771C96.4569 23.5549 96.3097 23.6771 96.1319 23.7438C95.9597 23.816 95.7153 23.8521 95.3986 23.8521H95.3403Z" fill="#4F4F4F"/>
<path d="M102.468 19.3688C102.49 19.5244 102.501 19.7188 102.501 19.9521V20.2188C102.501 20.2744 102.474 20.3021 102.418 20.3021H99.7264C99.7042 20.3021 99.6931 20.3132 99.6931 20.3355C99.7042 20.641 99.7208 20.8382 99.7431 20.9271C99.8042 21.1771 99.9347 21.3744 100.135 21.5188C100.335 21.6632 100.59 21.7355 100.901 21.7355C101.135 21.7355 101.34 21.6827 101.518 21.5771C101.696 21.4716 101.835 21.3216 101.935 21.1271C101.968 21.0771 102.007 21.066 102.051 21.0938L102.376 21.2855C102.421 21.3132 102.432 21.3521 102.41 21.4021C102.271 21.6688 102.063 21.8799 101.785 22.0355C101.507 22.1855 101.188 22.2605 100.826 22.2605C100.432 22.2549 100.101 22.1605 99.8347 21.9771C99.5681 21.7938 99.3764 21.5382 99.2597 21.2105C99.1597 20.9438 99.1097 20.5605 99.1097 20.0605C99.1097 19.8271 99.1125 19.6382 99.1181 19.4938C99.1292 19.3438 99.1514 19.2105 99.1847 19.0938C99.2792 18.7327 99.4681 18.4438 99.7514 18.2271C100.04 18.0105 100.388 17.9021 100.793 17.9021C101.299 17.9021 101.688 18.0299 101.96 18.2855C102.232 18.541 102.401 18.9021 102.468 19.3688ZM100.793 18.4188C100.521 18.4188 100.293 18.491 100.11 18.6355C99.932 18.7744 99.8153 18.9632 99.7597 19.2021C99.7264 19.3188 99.7042 19.5077 99.6931 19.7688C99.6931 19.791 99.7042 19.8021 99.7264 19.8021H101.885C101.907 19.8021 101.918 19.791 101.918 19.7688C101.907 19.5188 101.89 19.341 101.868 19.2355C101.807 18.9855 101.682 18.7882 101.493 18.6438C101.31 18.4938 101.076 18.4188 100.793 18.4188Z" fill="#4F4F4F"/>
<path d="M105.378 17.9271C105.561 17.9271 105.72 17.9632 105.853 18.0355C105.898 18.0577 105.914 18.0938 105.903 18.1438L105.811 18.5521C105.795 18.6077 105.759 18.6244 105.703 18.6021C105.609 18.5632 105.5 18.5438 105.378 18.5438L105.27 18.5521C104.981 18.5632 104.742 18.6716 104.553 18.8771C104.364 19.0771 104.27 19.3327 104.27 19.6438V22.1021C104.27 22.1577 104.242 22.1855 104.186 22.1855H103.761C103.706 22.1855 103.678 22.1577 103.678 22.1021V18.0521C103.678 17.9966 103.706 17.9688 103.761 17.9688H104.186C104.242 17.9688 104.27 17.9966 104.27 18.0521V18.5605C104.27 18.5771 104.273 18.5882 104.278 18.5938C104.289 18.5938 104.298 18.5882 104.303 18.5771C104.42 18.3716 104.567 18.2132 104.745 18.1021C104.928 17.9855 105.139 17.9271 105.378 17.9271Z" fill="#4F4F4F"/>
</svg>
