<svg width="10" height="52" viewBox="0 0 10 52" fill="none" xmlns="http://www.w3.org/2000/svg">
<path d="M6.75541 1.30664H5.64771C5.15808 1.30664 4.6885 1.50115 4.34228 1.84737C3.99605 2.19359 3.80155 2.66317 3.80155 3.15281V4.26051H2.69385V5.73744H3.80155V8.6913H5.27848V5.73744H6.38618L6.75541 4.26051H5.27848V3.15281C5.27848 3.05488 5.31738 2.96096 5.38663 2.89172C5.45587 2.82247 5.54979 2.78357 5.64771 2.78357H6.75541V1.30664Z" fill="#F7F6F3" stroke="#F7F6F3" stroke-linecap="round" stroke-linejoin="round"/>
<path d="M9.4327 16.0796C9.07912 16.329 8.68763 16.5198 8.27331 16.6446C8.05093 16.3889 7.7554 16.2077 7.42667 16.1254C7.09794 16.0431 6.75188 16.0638 6.43529 16.1847C6.11871 16.3055 5.84687 16.5207 5.65655 16.801C5.46622 17.0814 5.36659 17.4134 5.37113 17.7523V18.1215C4.72226 18.1383 4.07929 17.9944 3.4995 17.7026C2.9197 17.4108 2.42108 16.9801 2.04804 16.4489C2.04804 16.4489 0.571104 19.772 3.8942 21.2489C3.13378 21.7651 2.22791 22.0239 1.30957 21.9874C4.63267 23.8335 8.69423 21.9874 8.69423 17.7412C8.69389 17.6383 8.684 17.5357 8.66469 17.4347C9.04153 17.0631 9.30747 16.5939 9.4327 16.0796Z" fill="#F7F6F3" stroke="#F7F6F3" stroke-linecap="round" stroke-linejoin="round"/>
<path d="M7.12443 43.1792H3.4321C2.41249 43.1792 1.58594 44.0058 1.58594 45.0254V48.7177C1.58594 49.7373 2.41249 50.5639 3.4321 50.5639H7.12443C8.14404 50.5639 8.9706 49.7373 8.9706 48.7177V45.0254C8.9706 44.0058 8.14404 43.1792 7.12443 43.1792Z" stroke="#F7F6F3" stroke-width="2" stroke-linecap="round" stroke-linejoin="round"/>
<path d="M6.75479 46.6387C6.80035 46.946 6.74787 47.2598 6.60479 47.5356C6.46171 47.8113 6.23533 48.0349 5.95784 48.1746C5.68036 48.3143 5.3659 48.3629 5.05919 48.3135C4.75248 48.2642 4.46914 48.1194 4.24948 47.8997C4.02981 47.68 3.88501 47.3967 3.83565 47.09C3.7863 46.7833 3.83491 46.4688 3.97458 46.1913C4.11425 45.9139 4.33785 45.6875 4.6136 45.5444C4.88934 45.4013 5.20318 45.3488 5.51047 45.3944C5.82392 45.4409 6.11411 45.5869 6.33818 45.811C6.56224 46.0351 6.70831 46.3253 6.75479 46.6387Z" stroke="#F7F6F3" stroke-width="2" stroke-linecap="round" stroke-linejoin="round"/>
<path d="M7.30859 44.8406H7.31195" stroke="#F7F6F3" stroke-width="2" stroke-linecap="round" stroke-linejoin="round"/>
<path d="M9.26306 30.9795C9.2192 30.8042 9.12988 30.6437 9.0041 30.514C8.87833 30.3844 8.72057 30.2902 8.54675 30.241C7.91167 30.0859 5.37135 30.0859 5.37135 30.0859C5.37135 30.0859 2.83102 30.0859 2.19594 30.2558C2.02212 30.305 1.86436 30.3991 1.73859 30.5288C1.61282 30.6585 1.52349 30.819 1.47963 30.9943C1.3634 31.6388 1.30655 32.2926 1.30978 32.9475C1.30564 33.6073 1.3625 34.2661 1.47963 34.9155C1.52798 35.0853 1.61931 35.2397 1.74479 35.3639C1.87027 35.4881 2.02566 35.5778 2.19594 35.6244C2.83102 35.7943 5.37135 35.7943 5.37135 35.7943C5.37135 35.7943 7.91167 35.7943 8.54675 35.6244C8.72057 35.5753 8.87833 35.4811 9.0041 35.3514C9.12988 35.2218 9.2192 35.0612 9.26306 34.886C9.3784 34.2463 9.43525 33.5975 9.43291 32.9475C9.43705 32.2877 9.3802 31.6289 9.26306 30.9795Z" fill="#F7F6F3" stroke="#F7F6F3" stroke-linecap="round" stroke-linejoin="round"/>
<path d="M4.54102 34.1553L6.66411 32.9479L4.54102 31.7405V34.1553Z" fill="#44423F" stroke="#44423F" stroke-width="0.75" stroke-linecap="round" stroke-linejoin="round"/>
</svg>
