<svg width="9" height="8" viewBox="0 0 9 8" fill="none" xmlns="http://www.w3.org/2000/svg">
<path d="M8.60341 3.37096L5.94884 0.674039C5.70422 0.425518 5.29519 0.424172 5.04897 0.671079C4.80275 0.917986 4.80142 1.33084 5.04604 1.57936L6.61338 3.18092L0.796041 3.16178C0.441547 3.16062 0.158851 3.4441 0.157696 3.80191C0.15654 4.15972 0.437399 4.44506 0.791894 4.44623L6.60923 4.46536L5.03161 6.04739C4.78539 6.2943 4.78406 6.70716 5.02868 6.95568C5.15552 7.08454 5.31892 7.1493 5.48253 7.14984C5.64615 7.15038 5.80997 7.08669 5.93764 6.95867L8.60045 4.28842C8.719 4.16954 8.79225 4.00463 8.79281 3.83031C8.79337 3.656 8.73028 3.49064 8.60341 3.37096Z" fill="#76736F"/>
</svg>
