<svg width="10" height="8" viewBox="0 0 10 8" fill="none" xmlns="http://www.w3.org/2000/svg">
<path d="M9.1287 3.48876L6.46394 0.824C6.21838 0.578442 5.80912 0.578442 5.56356 0.824C5.318 1.06956 5.318 1.47882 5.56356 1.72438L7.13695 3.30686L1.31632 3.30686C0.961624 3.30686 0.679687 3.5888 0.679687 3.9435C0.679687 4.29819 0.961624 4.58013 1.31632 4.58013H7.13695L5.56356 6.15352C5.318 6.39907 5.318 6.80834 5.56356 7.05389C5.69089 7.18122 5.85459 7.24488 6.0183 7.24488C6.182 7.24488 6.34571 7.18122 6.47303 7.05389L9.1287 4.39823C9.24693 4.28 9.31969 4.1163 9.31969 3.9435C9.31969 3.77069 9.25603 3.60699 9.1287 3.48876Z" fill="#76736F"/>
</svg>
