<svg width="110" height="24" viewBox="0 0 110 24" fill="none" xmlns="http://www.w3.org/2000/svg">
<path d="M26.2212 7.82551C26.3175 8.06995 26.4286 8.24773 26.5545 8.35884C26.6804 8.46995 26.8027 8.52921 26.9212 8.53662V8.75884C26.4767 8.73662 25.9138 8.72551 25.2323 8.72551C24.4767 8.72551 23.9138 8.73662 23.5434 8.75884V8.53662C23.8249 8.5218 24.0249 8.48847 24.1434 8.43662C24.2619 8.37736 24.3212 8.27736 24.3212 8.13662C24.3212 8.00328 24.2767 7.82551 24.1878 7.60328L23.5212 5.78106H21.099L20.8101 6.54773C20.6027 7.08106 20.499 7.49217 20.499 7.78106C20.499 8.05514 20.5804 8.24773 20.7434 8.35884C20.9138 8.46254 21.1619 8.5218 21.4878 8.53662V8.75884C20.9841 8.73662 20.5249 8.72551 20.1101 8.72551C19.7693 8.72551 19.4878 8.73662 19.2656 8.75884V8.53662C19.6286 8.46995 19.9471 8.08106 20.2212 7.36995L22.7545 0.869949C22.836 0.877357 22.9656 0.88106 23.1434 0.88106C23.3212 0.88106 23.4471 0.877357 23.5212 0.869949L26.2212 7.82551ZM23.4434 5.55884L22.3434 2.55884L21.1878 5.55884H23.4434Z" fill="#333333"/>
<path d="M32.5766 7.53662C32.5766 7.87736 32.6285 8.12551 32.7322 8.28106C32.8359 8.43662 33.0211 8.5144 33.2878 8.5144V8.74773C33.0581 8.72551 32.8285 8.71439 32.5989 8.71439C31.9396 8.71439 31.3989 8.76625 30.9766 8.86995V7.91439C30.7248 8.58106 30.2433 8.9144 29.5322 8.9144C28.8359 8.9144 28.2804 8.66254 27.8655 8.15884C27.4581 7.64773 27.2581 6.88106 27.2655 5.85884C27.2655 5.20699 27.3692 4.65884 27.5766 4.21439C27.7915 3.76254 28.0841 3.42551 28.4544 3.20328C28.8322 2.97365 29.2618 2.85884 29.7433 2.85884C30.2841 2.85884 30.6952 2.99958 30.9766 3.28106V1.39217C30.9766 1.05143 30.9211 0.803283 30.81 0.647727C30.7063 0.492171 30.5248 0.414394 30.2655 0.414394V0.181061C30.5026 0.203282 30.7322 0.214393 30.9544 0.214393C31.5989 0.214393 32.1396 0.162542 32.5766 0.0588379V7.53662ZM29.9878 8.43662C30.2322 8.43662 30.447 8.34773 30.6322 8.16995C30.8248 7.99217 30.9396 7.75143 30.9766 7.44773V3.55884C30.7915 3.30699 30.5211 3.18106 30.1655 3.18106C29.7729 3.18106 29.4692 3.40699 29.2544 3.85884C29.0396 4.31069 28.9359 4.98476 28.9433 5.88106C28.9359 6.78477 29.0211 7.43662 29.1989 7.83662C29.3841 8.23662 29.647 8.43662 29.9878 8.43662Z" fill="#333333"/>
<path d="M35.1951 0.147727C35.5062 0.147727 35.7506 0.225505 35.9284 0.381061C36.1136 0.529209 36.2062 0.736616 36.2062 1.00328C36.2062 1.26995 36.1136 1.48106 35.9284 1.63662C35.7506 1.78476 35.5062 1.85884 35.1951 1.85884C34.8839 1.85884 34.6358 1.78476 34.4506 1.63662C34.2728 1.48106 34.1839 1.26995 34.1839 1.00328C34.1839 0.736616 34.2728 0.529209 34.4506 0.381061C34.6358 0.225505 34.8839 0.147727 35.1951 0.147727ZM36.0617 7.72551C36.0617 8.02921 36.1136 8.24032 36.2173 8.35884C36.3284 8.46995 36.5136 8.52551 36.7728 8.52551V8.75884C36.0321 8.72921 35.5395 8.71439 35.2951 8.71439C35.0654 8.71439 34.5506 8.72921 33.7506 8.75884V8.52551C34.0173 8.52551 34.2025 8.46995 34.3062 8.35884C34.4099 8.24032 34.4617 8.02921 34.4617 7.72551V4.22551C34.4617 3.88476 34.4099 3.63662 34.3062 3.48106C34.2025 3.32551 34.0173 3.24773 33.7506 3.24773V3.01439C33.9876 3.03662 34.2173 3.04773 34.4395 3.04773C35.0988 3.04773 35.6395 2.99588 36.0617 2.89217V7.72551Z" fill="#333333"/>
<path d="M39.5109 3.01439H40.822V3.23662H39.5109V7.72551C39.5109 7.94773 39.548 8.10699 39.622 8.20328C39.7035 8.29217 39.8295 8.33662 39.9998 8.33662C40.3183 8.33662 40.5702 8.11439 40.7554 7.66995L40.9443 7.76995C40.6628 8.53291 40.1554 8.9144 39.422 8.9144C38.9332 8.9144 38.5628 8.78847 38.3109 8.53662C38.1554 8.38106 38.048 8.18847 37.9887 7.95884C37.9369 7.7218 37.9109 7.39958 37.9109 6.99217V3.23662H36.9776V3.01439H37.9109V1.54773C38.5258 1.54773 39.0591 1.42921 39.5109 1.19217V3.01439Z" fill="#333333"/>
<path d="M42.6061 0.147727C42.9172 0.147727 43.1616 0.225505 43.3394 0.381061C43.5246 0.529209 43.6172 0.736616 43.6172 1.00328C43.6172 1.26995 43.5246 1.48106 43.3394 1.63662C43.1616 1.78476 42.9172 1.85884 42.6061 1.85884C42.295 1.85884 42.0468 1.78476 41.8616 1.63662C41.6839 1.48106 41.595 1.26995 41.595 1.00328C41.595 0.736616 41.6839 0.529209 41.8616 0.381061C42.0468 0.225505 42.295 0.147727 42.6061 0.147727ZM43.4727 7.72551C43.4727 8.02921 43.5246 8.24032 43.6283 8.35884C43.7394 8.46995 43.9246 8.52551 44.1839 8.52551V8.75884C43.4431 8.72921 42.9505 8.71439 42.7061 8.71439C42.4764 8.71439 41.9616 8.72921 41.1616 8.75884V8.52551C41.4283 8.52551 41.6135 8.46995 41.7172 8.35884C41.8209 8.24032 41.8727 8.02921 41.8727 7.72551V4.22551C41.8727 3.88476 41.8209 3.63662 41.7172 3.48106C41.6135 3.32551 41.4283 3.24773 41.1616 3.24773V3.01439C41.3987 3.03662 41.6283 3.04773 41.8505 3.04773C42.5098 3.04773 43.0505 2.99588 43.4727 2.89217V7.72551Z" fill="#333333"/>
<path d="M49.9708 5.58106V7.5144C49.9708 7.81069 50.0005 8.02921 50.0597 8.16995C50.1264 8.30328 50.2375 8.39217 50.3931 8.43662C50.556 8.48106 50.8116 8.50699 51.1597 8.5144V8.75884C50.2486 8.73662 49.5708 8.72551 49.1264 8.72551C48.756 8.72551 48.2894 8.73291 47.7264 8.74773L47.3708 8.75884V8.53662C47.6153 8.5218 47.7931 8.49217 47.9042 8.44773C48.0227 8.40328 48.1005 8.3181 48.1375 8.19217C48.1819 8.06625 48.2042 7.86254 48.2042 7.58106V2.06995C48.2042 1.78847 48.1819 1.58476 48.1375 1.45884C48.1005 1.33291 48.0227 1.24773 47.9042 1.20328C47.7931 1.15884 47.6153 1.12921 47.3708 1.11439V0.892172C47.7486 0.914394 48.3116 0.925505 49.0597 0.925505L50.2931 0.914394C50.4412 0.906986 50.6116 0.903283 50.8042 0.903283C51.8042 0.903283 52.5671 1.10328 53.0931 1.50328C53.619 1.89588 53.8819 2.4255 53.8819 3.09217C53.8819 3.49958 53.7782 3.89217 53.5708 4.26995C53.3634 4.64032 53.0116 4.95143 52.5153 5.20328C52.0264 5.45513 51.3745 5.58106 50.5597 5.58106H49.9708ZM50.6597 1.11439C50.4597 1.11439 50.3116 1.14032 50.2153 1.19217C50.1264 1.24402 50.0634 1.33662 50.0264 1.46995C49.9894 1.60328 49.9708 1.80328 49.9708 2.06995V5.35884H50.4486C51.0486 5.35884 51.4634 5.16625 51.6931 4.78106C51.9227 4.39588 52.0375 3.87365 52.0375 3.21439C52.0375 2.49588 51.9301 1.96625 51.7153 1.62551C51.5079 1.28476 51.156 1.11439 50.6597 1.11439Z" fill="#333333"/>
<path d="M58.2 2.85884C58.5333 2.85884 58.7852 2.95884 58.9556 3.15884C59.1259 3.35884 59.2111 3.59958 59.2111 3.88106C59.2111 4.15513 59.1296 4.38106 58.9667 4.55884C58.8111 4.72921 58.6037 4.81439 58.3444 4.81439C58.0926 4.81439 57.8926 4.75143 57.7444 4.62551C57.5963 4.49217 57.5222 4.3181 57.5222 4.10328C57.5222 3.74773 57.6852 3.45884 58.0111 3.23662C57.9815 3.22921 57.937 3.22551 57.8778 3.22551C57.8037 3.22551 57.7444 3.23291 57.7 3.24773C57.4185 3.29217 57.1778 3.46254 56.9778 3.75884C56.7852 4.05513 56.6889 4.35884 56.6889 4.66995V7.6144C56.6889 7.95514 56.7704 8.19217 56.9333 8.32551C57.1037 8.45884 57.3704 8.52551 57.7333 8.52551V8.75884C57.6296 8.75884 57.5444 8.75514 57.4778 8.74773C56.7222 8.72551 56.2185 8.71439 55.9667 8.71439C55.7667 8.71439 55.3111 8.72551 54.6 8.74773C54.5407 8.75514 54.4667 8.75884 54.3778 8.75884V8.52551C54.6444 8.52551 54.8296 8.46995 54.9333 8.35884C55.037 8.24032 55.0889 8.02921 55.0889 7.72551V4.22551C55.0889 3.88476 55.037 3.63662 54.9333 3.48106C54.8296 3.32551 54.6444 3.24773 54.3778 3.24773V3.01439C54.6148 3.03662 54.8444 3.04773 55.0667 3.04773C55.7259 3.04773 56.2667 2.99588 56.6889 2.89217V3.92551C56.8296 3.60699 57.0333 3.35143 57.3 3.15884C57.5667 2.95884 57.8667 2.85884 58.2 2.85884Z" fill="#333333"/>
<path d="M61.0311 8.83662C60.557 8.83662 60.2014 8.71439 59.9644 8.46995C59.7348 8.22551 59.62 7.90328 59.62 7.50328C59.62 7.16995 59.7052 6.89588 59.8755 6.68106C60.0533 6.45884 60.2644 6.28847 60.5089 6.16995C60.7607 6.05143 61.0792 5.92551 61.4644 5.79217C61.8718 5.65143 62.1681 5.52551 62.3533 5.41439C62.5459 5.29588 62.6422 5.13662 62.6422 4.93662V4.06995C62.6422 3.75884 62.5681 3.5181 62.42 3.34773C62.2792 3.16995 62.057 3.08106 61.7533 3.08106C61.3977 3.08106 61.1274 3.16995 60.9422 3.34773C61.1496 3.4218 61.3089 3.53291 61.42 3.68106C61.5385 3.82921 61.5977 4.00328 61.5977 4.20328C61.5977 4.45513 61.5126 4.65514 61.3422 4.80328C61.1718 4.95143 60.9644 5.02551 60.72 5.02551C60.4607 5.02551 60.2607 4.94402 60.12 4.78106C59.9792 4.6181 59.9089 4.41439 59.9089 4.16995C59.9089 3.96254 59.957 3.78847 60.0533 3.64773C60.157 3.49958 60.3126 3.36254 60.52 3.23662C60.72 3.1181 60.9644 3.02551 61.2533 2.95884C61.5496 2.89217 61.8718 2.85884 62.22 2.85884C62.5829 2.85884 62.8977 2.89588 63.1644 2.96995C63.4311 3.04402 63.6533 3.16995 63.8311 3.34773C63.994 3.51069 64.1014 3.71069 64.1533 3.94773C64.2126 4.18476 64.2422 4.50699 64.2422 4.91439V7.93662C64.2422 8.1144 64.257 8.24032 64.2866 8.31439C64.3237 8.38847 64.3903 8.42551 64.4866 8.42551C64.5977 8.42551 64.7311 8.36254 64.8866 8.23662L64.9977 8.42551C64.6644 8.69958 64.257 8.83662 63.7755 8.83662C63.3681 8.83662 63.0829 8.75514 62.92 8.59217C62.757 8.42921 62.6718 8.21069 62.6644 7.93662C62.294 8.53662 61.7496 8.83662 61.0311 8.83662ZM61.8866 8.12551C62.1755 8.12551 62.4274 7.97365 62.6422 7.66995V5.39217C62.5533 5.54032 62.3644 5.70328 62.0755 5.88106C61.7866 6.06625 61.5681 6.25143 61.42 6.43662C61.2718 6.6218 61.1977 6.88847 61.1977 7.23662C61.1977 7.54032 61.2607 7.76625 61.3866 7.91439C61.5126 8.05514 61.6792 8.12551 61.8866 8.12551Z" fill="#333333"/>
<path d="M70.7819 7.53662C70.7819 7.87736 70.8338 8.12551 70.9375 8.28106C71.0412 8.43662 71.2264 8.5144 71.4931 8.5144V8.74773C71.2634 8.72551 71.0338 8.71439 70.8042 8.71439C70.1449 8.71439 69.6042 8.76625 69.1819 8.86995V7.91439C68.9301 8.58106 68.4486 8.9144 67.7375 8.9144C67.0412 8.9144 66.4856 8.66254 66.0708 8.15884C65.6634 7.64773 65.4634 6.88106 65.4708 5.85884C65.4708 5.20699 65.5745 4.65884 65.7819 4.21439C65.9968 3.76254 66.2894 3.42551 66.6597 3.20328C67.0375 2.97365 67.4671 2.85884 67.9486 2.85884C68.4894 2.85884 68.9005 2.99958 69.1819 3.28106V1.39217C69.1819 1.05143 69.1264 0.803283 69.0153 0.647727C68.9116 0.492171 68.7301 0.414394 68.4708 0.414394V0.181061C68.7079 0.203282 68.9375 0.214393 69.1597 0.214393C69.8042 0.214393 70.3449 0.162542 70.7819 0.0588379V7.53662ZM68.1931 8.43662C68.4375 8.43662 68.6523 8.34773 68.8375 8.16995C69.0301 7.99217 69.1449 7.75143 69.1819 7.44773V3.55884C68.9968 3.30699 68.7264 3.18106 68.3708 3.18106C67.9782 3.18106 67.6745 3.40699 67.4597 3.85884C67.2449 4.31069 67.1412 4.98476 67.1486 5.88106C67.1412 6.78477 67.2264 7.43662 67.4042 7.83662C67.5894 8.23662 67.8523 8.43662 68.1931 8.43662Z" fill="#333333"/>
<path d="M74.2115 3.89217C74.5448 3.20328 75.1485 2.85884 76.0226 2.85884C76.6003 2.85884 77.0078 3.00328 77.2448 3.29217C77.3707 3.43291 77.4596 3.6181 77.5115 3.84773C77.5707 4.06995 77.6003 4.36625 77.6003 4.73662V7.72551C77.6003 8.02921 77.6522 8.24032 77.7559 8.35884C77.8596 8.46995 78.0448 8.52551 78.3115 8.52551V8.75884C77.5411 8.72921 77.0522 8.71439 76.8448 8.71439C76.5929 8.71439 76.1115 8.72921 75.4003 8.75884V8.52551C75.6226 8.52551 75.7781 8.46995 75.867 8.35884C75.9559 8.24032 76.0003 8.02921 76.0003 7.72551V4.26995C76.0003 3.96625 75.9485 3.73662 75.8448 3.58106C75.7485 3.42551 75.5707 3.34773 75.3115 3.34773C75.0003 3.34773 74.7374 3.46995 74.5226 3.71439C74.3152 3.95143 74.2115 4.25514 74.2115 4.62551V7.72551C74.2115 8.02921 74.2559 8.24032 74.3448 8.35884C74.4337 8.46995 74.5892 8.52551 74.8115 8.52551V8.75884C74.1003 8.72921 73.6411 8.71439 73.4337 8.71439C73.1818 8.71439 72.6707 8.72921 71.9003 8.75884V8.52551C72.1596 8.52551 72.3411 8.46995 72.4448 8.35884C72.5559 8.24032 72.6115 8.02921 72.6115 7.72551V1.40328C72.6115 1.06254 72.5559 0.814394 72.4448 0.658838C72.3411 0.503282 72.1596 0.425505 71.9003 0.425505V0.192172C72.1374 0.214394 72.367 0.225505 72.5892 0.225505C73.2337 0.225505 73.7744 0.173653 74.2115 0.0699489V3.89217Z" fill="#333333"/>
<path d="M80.1826 8.83662C79.7085 8.83662 79.3529 8.71439 79.1159 8.46995C78.8863 8.22551 78.7714 7.90328 78.7714 7.50328C78.7714 7.16995 78.8566 6.89588 79.027 6.68106C79.2048 6.45884 79.4159 6.28847 79.6603 6.16995C79.9122 6.05143 80.2307 5.92551 80.6159 5.79217C81.0233 5.65143 81.3196 5.52551 81.5048 5.41439C81.6974 5.29588 81.7937 5.13662 81.7937 4.93662V4.06995C81.7937 3.75884 81.7196 3.5181 81.5714 3.34773C81.4307 3.16995 81.2085 3.08106 80.9048 3.08106C80.5492 3.08106 80.2788 3.16995 80.0937 3.34773C80.3011 3.4218 80.4603 3.53291 80.5714 3.68106C80.69 3.82921 80.7492 4.00328 80.7492 4.20328C80.7492 4.45513 80.664 4.65514 80.4937 4.80328C80.3233 4.95143 80.1159 5.02551 79.8714 5.02551C79.6122 5.02551 79.4122 4.94402 79.2714 4.78106C79.1307 4.6181 79.0603 4.41439 79.0603 4.16995C79.0603 3.96254 79.1085 3.78847 79.2048 3.64773C79.3085 3.49958 79.464 3.36254 79.6714 3.23662C79.8714 3.1181 80.1159 3.02551 80.4048 2.95884C80.7011 2.89217 81.0233 2.85884 81.3714 2.85884C81.7344 2.85884 82.0492 2.89588 82.3159 2.96995C82.5826 3.04402 82.8048 3.16995 82.9826 3.34773C83.1455 3.51069 83.2529 3.71069 83.3048 3.94773C83.364 4.18476 83.3937 4.50699 83.3937 4.91439V7.93662C83.3937 8.1144 83.4085 8.24032 83.4381 8.31439C83.4751 8.38847 83.5418 8.42551 83.6381 8.42551C83.7492 8.42551 83.8826 8.36254 84.0381 8.23662L84.1492 8.42551C83.8159 8.69958 83.4085 8.83662 82.927 8.83662C82.5196 8.83662 82.2344 8.75514 82.0714 8.59217C81.9085 8.42921 81.8233 8.21069 81.8159 7.93662C81.4455 8.53662 80.9011 8.83662 80.1826 8.83662ZM81.0381 8.12551C81.327 8.12551 81.5788 7.97365 81.7937 7.66995V5.39217C81.7048 5.54032 81.5159 5.70328 81.227 5.88106C80.9381 6.06625 80.7196 6.25143 80.5714 6.43662C80.4233 6.6218 80.3492 6.88847 80.3492 7.23662C80.3492 7.54032 80.4122 7.76625 80.5381 7.91439C80.664 8.05514 80.8307 8.12551 81.0381 8.12551Z" fill="#333333"/>
<path d="M88.6001 2.85884C89.163 2.85884 89.5705 3.00328 89.8223 3.29217C89.9482 3.43291 90.0371 3.61439 90.089 3.83662C90.1408 4.05884 90.1668 4.35884 90.1668 4.73662V7.72551C90.1668 8.02921 90.2186 8.24032 90.3223 8.35884C90.4334 8.46995 90.6186 8.52551 90.8779 8.52551V8.75884C90.1371 8.72921 89.6482 8.71439 89.4112 8.71439C89.189 8.71439 88.7075 8.72921 87.9668 8.75884V8.52551C88.189 8.52551 88.3445 8.46995 88.4334 8.35884C88.5223 8.24032 88.5668 8.02921 88.5668 7.72551V4.26995C88.5668 3.96625 88.5149 3.73662 88.4112 3.58106C88.3149 3.42551 88.1371 3.34773 87.8779 3.34773C87.5742 3.34773 87.3149 3.47365 87.1001 3.72551C86.8853 3.96995 86.7779 4.27365 86.7779 4.63662V7.72551C86.7779 8.02921 86.8223 8.24032 86.9112 8.35884C87.0001 8.46995 87.1556 8.52551 87.3779 8.52551V8.75884C86.6964 8.72921 86.2371 8.71439 86.0001 8.71439C85.7779 8.71439 85.2668 8.72921 84.4668 8.75884V8.52551C84.7334 8.52551 84.9186 8.46995 85.0223 8.35884C85.126 8.24032 85.1779 8.02921 85.1779 7.72551V4.22551C85.1779 3.88476 85.126 3.63662 85.0223 3.48106C84.9186 3.32551 84.7334 3.24773 84.4668 3.24773V3.01439C84.7038 3.03662 84.9334 3.04773 85.1556 3.04773C85.8149 3.04773 86.3556 2.99588 86.7779 2.89217V3.89217C87.1112 3.20328 87.7186 2.85884 88.6001 2.85884Z" fill="#333333"/>
<path d="M4.24912 22.1847C4.19912 22.1847 4.16579 22.1652 4.14912 22.1263L2.92412 19.543C2.91857 19.5263 2.90745 19.518 2.89079 19.518H1.47412C1.4519 19.518 1.44079 19.5291 1.44079 19.5513V22.1013C1.44079 22.1569 1.41301 22.1847 1.35745 22.1847H0.932454C0.876899 22.1847 0.849121 22.1569 0.849121 22.1013V16.4347C0.849121 16.3791 0.876899 16.3513 0.932454 16.3513H3.09079C3.56857 16.3513 3.95468 16.5013 4.24912 16.8013C4.54357 17.0958 4.69079 17.4819 4.69079 17.9597C4.69079 18.3486 4.58523 18.6791 4.37412 18.9513C4.16301 19.2236 3.8769 19.3986 3.51579 19.4763C3.49357 19.4874 3.48801 19.5013 3.49912 19.518L4.74912 22.0847C4.75468 22.0958 4.75745 22.1097 4.75745 22.1263C4.75745 22.1652 4.73523 22.1847 4.69079 22.1847H4.24912ZM1.47412 16.868C1.4519 16.868 1.44079 16.8791 1.44079 16.9013V19.0097C1.44079 19.0319 1.4519 19.043 1.47412 19.043H3.02412C3.34634 19.043 3.60745 18.943 3.80745 18.743C4.00745 18.543 4.10745 18.2819 4.10745 17.9597C4.10745 17.6374 4.00745 17.3763 3.80745 17.1763C3.60745 16.9708 3.34634 16.868 3.02412 16.868H1.47412Z" fill="#4F4F4F"/>
<path d="M9.04391 19.368C9.06614 19.5236 9.07725 19.718 9.07725 19.9513V20.218C9.07725 20.2736 9.04947 20.3013 8.99391 20.3013H6.30225C6.28002 20.3013 6.26891 20.3124 6.26891 20.3347C6.28002 20.6402 6.29669 20.8374 6.31891 20.9263C6.38002 21.1763 6.51058 21.3736 6.71058 21.518C6.91058 21.6624 7.16613 21.7347 7.47725 21.7347C7.71058 21.7347 7.91614 21.6819 8.09391 21.5763C8.27169 21.4708 8.41058 21.3208 8.51058 21.1263C8.54391 21.0763 8.5828 21.0652 8.62725 21.093L8.95225 21.2847C8.99669 21.3124 9.0078 21.3513 8.98558 21.4013C8.84669 21.668 8.63836 21.8791 8.36058 22.0347C8.0828 22.1847 7.76336 22.2597 7.40225 22.2597C7.0078 22.2541 6.67725 22.1597 6.41058 21.9763C6.14391 21.793 5.95225 21.5374 5.83558 21.2097C5.73558 20.943 5.68558 20.5597 5.68558 20.0597C5.68558 19.8263 5.68836 19.6374 5.69391 19.493C5.70502 19.343 5.72725 19.2097 5.76058 19.093C5.85502 18.7319 6.04391 18.443 6.32725 18.2263C6.61614 18.0097 6.96336 17.9013 7.36891 17.9013C7.87447 17.9013 8.26336 18.0291 8.53558 18.2847C8.8078 18.5402 8.97725 18.9013 9.04391 19.368ZM7.36891 18.418C7.09669 18.418 6.86891 18.4902 6.68558 18.6347C6.5078 18.7736 6.39113 18.9624 6.33558 19.2013C6.30225 19.318 6.28002 19.5069 6.26891 19.768C6.26891 19.7902 6.28002 19.8013 6.30225 19.8013H8.46058C8.4828 19.8013 8.49391 19.7902 8.49391 19.768C8.4828 19.518 8.46614 19.3402 8.44391 19.2347C8.3828 18.9847 8.2578 18.7874 8.06891 18.643C7.88558 18.493 7.65225 18.418 7.36891 18.418Z" fill="#4F4F4F"/>
<path d="M11.564 22.2263C11.2529 22.2263 10.9751 22.1763 10.7307 22.0763C10.4918 21.9763 10.3057 21.843 10.1724 21.6763C10.0446 21.5097 9.9807 21.3236 9.9807 21.118V21.018C9.9807 20.9624 10.0085 20.9347 10.064 20.9347H10.464C10.5196 20.9347 10.5474 20.9624 10.5474 21.018V21.0847C10.5474 21.268 10.6418 21.4291 10.8307 21.568C11.0251 21.7013 11.2668 21.768 11.5557 21.768C11.8446 21.768 12.0779 21.7041 12.2557 21.5763C12.4335 21.443 12.5224 21.2763 12.5224 21.0763C12.5224 20.9374 12.4751 20.8236 12.3807 20.7347C12.2918 20.6458 12.1835 20.5763 12.0557 20.5263C11.9335 20.4763 11.7418 20.4124 11.4807 20.3347C11.1696 20.2458 10.914 20.1569 10.714 20.068C10.514 19.9791 10.3446 19.8569 10.2057 19.7013C10.0724 19.5402 10.0057 19.3374 10.0057 19.093C10.0057 18.7374 10.1446 18.4541 10.4224 18.243C10.7001 18.0319 11.0668 17.9263 11.5224 17.9263C11.8279 17.9263 12.0974 17.9763 12.3307 18.0763C12.5696 18.1763 12.7529 18.3152 12.8807 18.493C13.0085 18.6652 13.0724 18.8597 13.0724 19.0763V19.1013C13.0724 19.1569 13.0446 19.1847 12.989 19.1847H12.5974C12.5418 19.1847 12.514 19.1569 12.514 19.1013V19.0763C12.514 18.8874 12.4224 18.7291 12.239 18.6013C12.0613 18.4736 11.8196 18.4097 11.514 18.4097C11.2307 18.4097 11.0029 18.468 10.8307 18.5847C10.6585 18.6958 10.5724 18.8513 10.5724 19.0513C10.5724 19.2402 10.6557 19.3847 10.8224 19.4847C10.989 19.5847 11.2474 19.6847 11.5974 19.7847C11.9196 19.8791 12.1807 19.968 12.3807 20.0513C12.5807 20.1347 12.7529 20.2569 12.8974 20.418C13.0418 20.5736 13.114 20.7791 13.114 21.0347C13.114 21.3958 12.9724 21.6847 12.689 21.9013C12.4057 22.118 12.0307 22.2263 11.564 22.2263Z" fill="#4F4F4F"/>
<path d="M17.4261 19.368C17.4483 19.5236 17.4594 19.718 17.4594 19.9513V20.218C17.4594 20.2736 17.4316 20.3013 17.3761 20.3013H14.6844C14.6622 20.3013 14.6511 20.3124 14.6511 20.3347C14.6622 20.6402 14.6789 20.8374 14.7011 20.9263C14.7622 21.1763 14.8927 21.3736 15.0927 21.518C15.2927 21.6624 15.5483 21.7347 15.8594 21.7347C16.0927 21.7347 16.2983 21.6819 16.4761 21.5763C16.6539 21.4708 16.7927 21.3208 16.8927 21.1263C16.9261 21.0763 16.965 21.0652 17.0094 21.093L17.3344 21.2847C17.3789 21.3124 17.39 21.3513 17.3677 21.4013C17.2289 21.668 17.0205 21.8791 16.7427 22.0347C16.465 22.1847 16.1455 22.2597 15.7844 22.2597C15.39 22.2541 15.0594 22.1597 14.7927 21.9763C14.5261 21.793 14.3344 21.5374 14.2177 21.2097C14.1177 20.943 14.0677 20.5597 14.0677 20.0597C14.0677 19.8263 14.0705 19.6374 14.0761 19.493C14.0872 19.343 14.1094 19.2097 14.1427 19.093C14.2372 18.7319 14.4261 18.443 14.7094 18.2263C14.9983 18.0097 15.3455 17.9013 15.7511 17.9013C16.2566 17.9013 16.6455 18.0291 16.9177 18.2847C17.19 18.5402 17.3594 18.9013 17.4261 19.368ZM15.7511 18.418C15.4789 18.418 15.2511 18.4902 15.0677 18.6347C14.89 18.7736 14.7733 18.9624 14.7177 19.2013C14.6844 19.318 14.6622 19.5069 14.6511 19.768C14.6511 19.7902 14.6622 19.8013 14.6844 19.8013H16.8427C16.865 19.8013 16.8761 19.7902 16.8761 19.768C16.865 19.518 16.8483 19.3402 16.8261 19.2347C16.765 18.9847 16.64 18.7874 16.4511 18.643C16.2677 18.493 16.0344 18.418 15.7511 18.418Z" fill="#4F4F4F"/>
<path d="M20.0537 17.9013C20.5537 17.9013 20.9399 18.0291 21.2121 18.2847C21.4843 18.5402 21.6204 18.8791 21.6204 19.3013V22.1013C21.6204 22.1569 21.5926 22.1847 21.5371 22.1847H21.1121C21.0565 22.1847 21.0287 22.1569 21.0287 22.1013V21.7597C21.0287 21.7486 21.0232 21.7402 21.0121 21.7347C21.0065 21.7291 20.9982 21.7319 20.9871 21.743C20.8482 21.9097 20.6676 22.0374 20.4454 22.1263C20.2232 22.2097 19.976 22.2513 19.7037 22.2513C19.3093 22.2513 18.9787 22.1513 18.7121 21.9513C18.4454 21.7513 18.3121 21.4458 18.3121 21.0347C18.3121 20.618 18.4621 20.2902 18.7621 20.0513C19.0676 19.8069 19.4899 19.6847 20.0287 19.6847H20.9954C21.0176 19.6847 21.0287 19.6736 21.0287 19.6513V19.3347C21.0287 19.0513 20.9482 18.8291 20.7871 18.668C20.6315 18.5013 20.3871 18.418 20.0537 18.418C19.7871 18.418 19.5704 18.4708 19.4037 18.5763C19.2371 18.6763 19.1343 18.818 19.0954 19.0013C19.0787 19.0569 19.0454 19.0819 18.9954 19.0763L18.5454 19.018C18.4843 19.0069 18.4593 18.9847 18.4704 18.9513C18.5149 18.6402 18.6815 18.3874 18.9704 18.193C19.2593 17.9986 19.6204 17.9013 20.0537 17.9013ZM19.8204 21.743C20.1482 21.743 20.4315 21.6624 20.6704 21.5013C20.9093 21.3347 21.0287 21.1124 21.0287 20.8347V20.1847C21.0287 20.1624 21.0176 20.1513 20.9954 20.1513H20.1204C19.7537 20.1513 19.4593 20.2263 19.2371 20.3763C19.0149 20.5263 18.9037 20.7347 18.9037 21.0013C18.9037 21.2458 18.9871 21.4319 19.1537 21.5597C19.326 21.6819 19.5482 21.743 19.8204 21.743Z" fill="#4F4F4F"/>
<path d="M24.5516 17.9263C24.7349 17.9263 24.8933 17.9624 25.0266 18.0347C25.071 18.0569 25.0877 18.093 25.0766 18.143L24.9849 18.5513C24.9683 18.6069 24.9322 18.6236 24.8766 18.6013C24.7822 18.5624 24.6738 18.543 24.5516 18.543L24.4433 18.5513C24.1544 18.5624 23.9155 18.6708 23.7266 18.8763C23.5377 19.0763 23.4433 19.3319 23.4433 19.643V22.1013C23.4433 22.1569 23.4155 22.1847 23.3599 22.1847H22.9349C22.8794 22.1847 22.8516 22.1569 22.8516 22.1013V18.0513C22.8516 17.9958 22.8794 17.968 22.9349 17.968H23.3599C23.4155 17.968 23.4433 17.9958 23.4433 18.0513V18.5597C23.4433 18.5763 23.446 18.5874 23.4516 18.593C23.4627 18.593 23.471 18.5874 23.4766 18.5763C23.5933 18.3708 23.7405 18.2124 23.9183 18.1013C24.1016 17.9847 24.3127 17.9263 24.5516 17.9263Z" fill="#4F4F4F"/>
<path d="M27.4381 22.2513C27.0381 22.2513 26.6936 22.1486 26.4047 21.943C26.1214 21.7319 25.9269 21.4486 25.8214 21.093C25.7492 20.8486 25.7131 20.5041 25.7131 20.0597C25.7131 19.6597 25.7492 19.3208 25.8214 19.043C25.9214 18.6986 26.1158 18.4236 26.4047 18.218C26.6936 18.0069 27.0381 17.9013 27.4381 17.9013C27.8436 17.9013 28.1936 18.0041 28.4881 18.2097C28.7881 18.4152 28.9825 18.6708 29.0714 18.9763C29.0992 19.0763 29.1158 19.1597 29.1214 19.2263V19.243C29.1214 19.2819 29.0964 19.3069 29.0464 19.318L28.6297 19.3763H28.6131C28.5742 19.3763 28.5492 19.3513 28.5381 19.3013L28.5131 19.1763C28.4631 18.9652 28.3408 18.7874 28.1464 18.643C27.9519 18.493 27.7158 18.418 27.4381 18.418C27.1603 18.418 26.9269 18.493 26.7381 18.643C26.5547 18.7874 26.4353 18.9819 26.3797 19.2263C26.3297 19.4374 26.3047 19.718 26.3047 20.068C26.3047 20.4347 26.3297 20.718 26.3797 20.918C26.4353 21.168 26.5547 21.368 26.7381 21.518C26.9269 21.6624 27.1603 21.7347 27.4381 21.7347C27.7103 21.7347 27.9436 21.6652 28.1381 21.5263C28.3381 21.3819 28.4631 21.1986 28.5131 20.9763V20.943L28.5214 20.9097C28.5269 20.8541 28.5603 20.8319 28.6214 20.843L29.0297 20.9097C29.0853 20.9208 29.1103 20.9513 29.1047 21.0013L29.0714 21.168C28.9881 21.4902 28.7964 21.7513 28.4964 21.9513C28.1964 22.1513 27.8436 22.2513 27.4381 22.2513Z" fill="#4F4F4F"/>
<path d="M31.9258 17.9097C32.3703 17.9097 32.723 18.0402 32.9841 18.3013C33.2508 18.5624 33.3841 18.9124 33.3841 19.3513V22.1013C33.3841 22.1569 33.3564 22.1847 33.3008 22.1847H32.8758C32.8203 22.1847 32.7925 22.1569 32.7925 22.1013V19.468C32.7925 19.1624 32.698 18.9124 32.5091 18.718C32.3258 18.5236 32.0869 18.4263 31.7925 18.4263C31.4869 18.4263 31.2397 18.5208 31.0508 18.7097C30.8619 18.8986 30.7675 19.1458 30.7675 19.4513V22.1013C30.7675 22.1569 30.7397 22.1847 30.6841 22.1847H30.2591C30.2036 22.1847 30.1758 22.1569 30.1758 22.1013V16.4347C30.1758 16.3791 30.2036 16.3513 30.2591 16.3513H30.6841C30.7397 16.3513 30.7675 16.3791 30.7675 16.4347V18.4097C30.7675 18.4208 30.7703 18.4291 30.7758 18.4347C30.7869 18.4402 30.7953 18.4374 30.8008 18.4263C31.0453 18.0819 31.4203 17.9097 31.9258 17.9097Z" fill="#4F4F4F"/>
<path d="M38.228 22.2597C37.8391 22.2597 37.4974 22.1847 37.203 22.0347C36.9085 21.8791 36.678 21.6624 36.5113 21.3847C36.3502 21.1013 36.2696 20.7763 36.2696 20.4097V18.118C36.2696 17.7569 36.3502 17.4374 36.5113 17.1597C36.678 16.8819 36.9085 16.668 37.203 16.518C37.4974 16.3624 37.8391 16.2847 38.228 16.2847C38.6169 16.2847 38.9585 16.3597 39.253 16.5097C39.5474 16.6597 39.7752 16.8708 39.9363 17.143C40.103 17.4152 40.1863 17.7291 40.1863 18.0847C40.1863 18.1124 40.178 18.1347 40.1613 18.1513C40.1446 18.168 40.1252 18.1763 40.103 18.1763L39.678 18.2013C39.6224 18.2013 39.5946 18.1763 39.5946 18.1263V18.1013C39.5946 17.7069 39.4696 17.393 39.2196 17.1597C38.9696 16.9208 38.6391 16.8013 38.228 16.8013C37.8168 16.8013 37.4863 16.9208 37.2363 17.1597C36.9863 17.3986 36.8613 17.7124 36.8613 18.1013V20.4347C36.8613 20.8236 36.9863 21.1374 37.2363 21.3763C37.4863 21.6152 37.8168 21.7347 38.228 21.7347C38.6391 21.7347 38.9696 21.618 39.2196 21.3847C39.4696 21.1458 39.5946 20.8291 39.5946 20.4347V20.418C39.5946 20.368 39.6224 20.343 39.678 20.343L40.103 20.368C40.1585 20.368 40.1863 20.393 40.1863 20.443C40.1863 20.8041 40.103 21.1236 39.9363 21.4013C39.7752 21.6736 39.5474 21.8847 39.253 22.0347C38.9585 22.1847 38.6169 22.2597 38.228 22.2597Z" fill="#4F4F4F"/>
<path d="M42.9983 22.2513C42.5983 22.2513 42.2539 22.1486 41.965 21.943C41.6761 21.7374 41.4761 21.4541 41.365 21.093C41.2872 20.8374 41.2483 20.4958 41.2483 20.068C41.2483 19.6402 41.2872 19.3013 41.365 19.0513C41.4706 18.6958 41.6678 18.4152 41.9567 18.2097C42.2456 18.0041 42.5956 17.9013 43.0067 17.9013C43.4011 17.9013 43.74 18.0041 44.0233 18.2097C44.3122 18.4152 44.5094 18.693 44.615 19.043C44.6928 19.2819 44.7317 19.6236 44.7317 20.068C44.7317 20.518 44.6928 20.8597 44.615 21.093C44.5094 21.4541 44.3122 21.7374 44.0233 21.943C43.74 22.1486 43.3983 22.2513 42.9983 22.2513ZM42.9983 21.7347C43.265 21.7347 43.4928 21.6624 43.6817 21.518C43.8706 21.368 43.9983 21.168 44.065 20.918C44.115 20.718 44.14 20.4374 44.14 20.0763C44.14 19.7097 44.1178 19.4291 44.0733 19.2347C44.0067 18.9847 43.8761 18.7874 43.6817 18.643C43.4928 18.493 43.2622 18.418 42.99 18.418C42.7178 18.418 42.4872 18.493 42.2983 18.643C42.1095 18.7874 41.9817 18.9847 41.915 19.2347C41.8706 19.4291 41.8483 19.7097 41.8483 20.0763C41.8483 20.443 41.8706 20.7236 41.915 20.918C41.9761 21.168 42.1011 21.368 42.29 21.518C42.4845 21.6624 42.7206 21.7347 42.9983 21.7347Z" fill="#4F4F4F"/>
<path d="M47.681 17.9097C48.1255 17.9097 48.4782 18.0402 48.7394 18.3013C49.006 18.5624 49.1394 18.9124 49.1394 19.3513V22.1013C49.1394 22.1569 49.1116 22.1847 49.056 22.1847H48.631C48.5755 22.1847 48.5477 22.1569 48.5477 22.1013V19.468C48.5477 19.1624 48.4532 18.9124 48.2644 18.718C48.081 18.5236 47.8421 18.4263 47.5477 18.4263C47.2421 18.4263 46.9949 18.5208 46.806 18.7097C46.6171 18.8986 46.5227 19.1458 46.5227 19.4513V22.1013C46.5227 22.1569 46.4949 22.1847 46.4394 22.1847H46.0144C45.9588 22.1847 45.931 22.1569 45.931 22.1013V18.0513C45.931 17.9958 45.9588 17.968 46.0144 17.968H46.4394C46.4949 17.968 46.5227 17.9958 46.5227 18.0513V18.4097C46.5227 18.4208 46.5255 18.4291 46.531 18.4347C46.5421 18.4402 46.5505 18.4374 46.556 18.4263C46.8005 18.0819 47.1755 17.9097 47.681 17.9097Z" fill="#4F4F4F"/>
<path d="M51.8065 22.2263C51.4954 22.2263 51.2177 22.1763 50.9732 22.0763C50.7343 21.9763 50.5482 21.843 50.4149 21.6763C50.2871 21.5097 50.2232 21.3236 50.2232 21.118V21.018C50.2232 20.9624 50.251 20.9347 50.3065 20.9347H50.7065C50.7621 20.9347 50.7899 20.9624 50.7899 21.018V21.0847C50.7899 21.268 50.8843 21.4291 51.0732 21.568C51.2677 21.7013 51.5093 21.768 51.7982 21.768C52.0871 21.768 52.3204 21.7041 52.4982 21.5763C52.676 21.443 52.7649 21.2763 52.7649 21.0763C52.7649 20.9374 52.7177 20.8236 52.6232 20.7347C52.5343 20.6458 52.426 20.5763 52.2982 20.5263C52.176 20.4763 51.9843 20.4124 51.7232 20.3347C51.4121 20.2458 51.1565 20.1569 50.9565 20.068C50.7565 19.9791 50.5871 19.8569 50.4482 19.7013C50.3149 19.5402 50.2482 19.3374 50.2482 19.093C50.2482 18.7374 50.3871 18.4541 50.6649 18.243C50.9426 18.0319 51.3093 17.9263 51.7649 17.9263C52.0704 17.9263 52.3399 17.9763 52.5732 18.0763C52.8121 18.1763 52.9954 18.3152 53.1232 18.493C53.251 18.6652 53.3149 18.8597 53.3149 19.0763V19.1013C53.3149 19.1569 53.2871 19.1847 53.2315 19.1847H52.8399C52.7843 19.1847 52.7565 19.1569 52.7565 19.1013V19.0763C52.7565 18.8874 52.6649 18.7291 52.4815 18.6013C52.3038 18.4736 52.0621 18.4097 51.7565 18.4097C51.4732 18.4097 51.2454 18.468 51.0732 18.5847C50.901 18.6958 50.8149 18.8513 50.8149 19.0513C50.8149 19.2402 50.8982 19.3847 51.0649 19.4847C51.2315 19.5847 51.4899 19.6847 51.8399 19.7847C52.1621 19.8791 52.4232 19.968 52.6232 20.0513C52.8232 20.1347 52.9954 20.2569 53.1399 20.418C53.2843 20.5736 53.3565 20.7791 53.3565 21.0347C53.3565 21.3958 53.2149 21.6847 52.9315 21.9013C52.6482 22.118 52.2732 22.2263 51.8065 22.2263Z" fill="#4F4F4F"/>
<path d="M56.9853 18.0513C56.9853 17.9958 57.013 17.968 57.0686 17.968H57.4936C57.5491 17.968 57.5769 17.9958 57.5769 18.0513V22.1013C57.5769 22.1569 57.5491 22.1847 57.4936 22.1847H57.0686C57.013 22.1847 56.9853 22.1569 56.9853 22.1013V21.743C56.9853 21.7319 56.9797 21.7236 56.9686 21.718C56.9575 21.7124 56.9491 21.7152 56.9436 21.7263C56.7103 22.0708 56.3408 22.243 55.8353 22.243C55.5686 22.243 55.3214 22.1902 55.0936 22.0847C54.8714 21.9736 54.6936 21.8152 54.5603 21.6097C54.4325 21.4041 54.3686 21.1569 54.3686 20.868V18.0513C54.3686 17.9958 54.3964 17.968 54.4519 17.968H54.8769C54.9325 17.968 54.9603 17.9958 54.9603 18.0513V20.693C54.9603 21.0097 55.0491 21.2624 55.2269 21.4513C55.4047 21.6347 55.6464 21.7263 55.9519 21.7263C56.2686 21.7263 56.5186 21.6319 56.7019 21.443C56.8908 21.2541 56.9853 21.0041 56.9853 20.693V18.0513Z" fill="#4F4F4F"/>
<path d="M58.9864 22.1847C58.9308 22.1847 58.903 22.1569 58.903 22.1013V16.4347C58.903 16.3791 58.9308 16.3513 58.9864 16.3513H59.4114C59.4669 16.3513 59.4947 16.3791 59.4947 16.4347V22.1013C59.4947 22.1569 59.4669 22.1847 59.4114 22.1847H58.9864Z" fill="#4F4F4F"/>
<path d="M62.7153 18.3763C62.7153 18.4319 62.6875 18.4597 62.6319 18.4597H61.6903C61.668 18.4597 61.6569 18.4708 61.6569 18.493V20.9513C61.6569 21.218 61.7153 21.4069 61.8319 21.518C61.9542 21.6236 62.143 21.6763 62.3986 21.6763H62.6069C62.6625 21.6763 62.6903 21.7041 62.6903 21.7597V22.1013C62.6903 22.1569 62.6625 22.1847 62.6069 22.1847C62.5403 22.1902 62.4375 22.193 62.2986 22.193C61.8986 22.193 61.5958 22.118 61.3903 21.968C61.1847 21.818 61.0819 21.5402 61.0819 21.1347V18.493C61.0819 18.4708 61.0708 18.4597 61.0486 18.4597H60.5403C60.4847 18.4597 60.4569 18.4319 60.4569 18.3763V18.0513C60.4569 17.9958 60.4847 17.968 60.5403 17.968H61.0486C61.0708 17.968 61.0819 17.9569 61.0819 17.9347V16.968C61.0819 16.9124 61.1097 16.8847 61.1653 16.8847H61.5736C61.6292 16.8847 61.6569 16.9124 61.6569 16.968V17.9347C61.6569 17.9569 61.668 17.968 61.6903 17.968H62.6319C62.6875 17.968 62.7153 17.9958 62.7153 18.0513V18.3763Z" fill="#4F4F4F"/>
<path d="M65.3174 17.9013C65.8174 17.9013 66.2035 18.0291 66.4757 18.2847C66.748 18.5402 66.8841 18.8791 66.8841 19.3013V22.1013C66.8841 22.1569 66.8563 22.1847 66.8008 22.1847H66.3757C66.3202 22.1847 66.2924 22.1569 66.2924 22.1013V21.7597C66.2924 21.7486 66.2869 21.7402 66.2757 21.7347C66.2702 21.7291 66.2619 21.7319 66.2507 21.743C66.1119 21.9097 65.9313 22.0374 65.7091 22.1263C65.4869 22.2097 65.2396 22.2513 64.9674 22.2513C64.573 22.2513 64.2424 22.1513 63.9757 21.9513C63.7091 21.7513 63.5757 21.4458 63.5757 21.0347C63.5757 20.618 63.7257 20.2902 64.0257 20.0513C64.3313 19.8069 64.7535 19.6847 65.2924 19.6847H66.2591C66.2813 19.6847 66.2924 19.6736 66.2924 19.6513V19.3347C66.2924 19.0513 66.2119 18.8291 66.0507 18.668C65.8952 18.5013 65.6507 18.418 65.3174 18.418C65.0507 18.418 64.8341 18.4708 64.6674 18.5763C64.5007 18.6763 64.398 18.818 64.3591 19.0013C64.3424 19.0569 64.3091 19.0819 64.2591 19.0763L63.8091 19.018C63.748 19.0069 63.723 18.9847 63.7341 18.9513C63.7785 18.6402 63.9452 18.3874 64.2341 18.193C64.523 17.9986 64.8841 17.9013 65.3174 17.9013ZM65.0841 21.743C65.4119 21.743 65.6952 21.6624 65.9341 21.5013C66.173 21.3347 66.2924 21.1124 66.2924 20.8347V20.1847C66.2924 20.1624 66.2813 20.1513 66.2591 20.1513H65.3841C65.0174 20.1513 64.723 20.2263 64.5007 20.3763C64.2785 20.5263 64.1674 20.7347 64.1674 21.0013C64.1674 21.2458 64.2507 21.4319 64.4174 21.5597C64.5896 21.6819 64.8119 21.743 65.0841 21.743Z" fill="#4F4F4F"/>
<path d="M69.8653 17.9097C70.3097 17.9097 70.6625 18.0402 70.9236 18.3013C71.1903 18.5624 71.3236 18.9124 71.3236 19.3513V22.1013C71.3236 22.1569 71.2958 22.1847 71.2403 22.1847H70.8153C70.7597 22.1847 70.7319 22.1569 70.7319 22.1013V19.468C70.7319 19.1624 70.6375 18.9124 70.4486 18.718C70.2653 18.5236 70.0264 18.4263 69.7319 18.4263C69.4264 18.4263 69.1792 18.5208 68.9903 18.7097C68.8014 18.8986 68.7069 19.1458 68.7069 19.4513V22.1013C68.7069 22.1569 68.6792 22.1847 68.6236 22.1847H68.1986C68.143 22.1847 68.1153 22.1569 68.1153 22.1013V18.0513C68.1153 17.9958 68.143 17.968 68.1986 17.968H68.6236C68.6792 17.968 68.7069 17.9958 68.7069 18.0513V18.4097C68.7069 18.4208 68.7097 18.4291 68.7153 18.4347C68.7264 18.4402 68.7347 18.4374 68.7403 18.4263C68.9847 18.0819 69.3597 17.9097 69.8653 17.9097Z" fill="#4F4F4F"/>
<path d="M74.4991 18.3763C74.4991 18.4319 74.4713 18.4597 74.4158 18.4597H73.4741C73.4519 18.4597 73.4408 18.4708 73.4408 18.493V20.9513C73.4408 21.218 73.4991 21.4069 73.6158 21.518C73.738 21.6236 73.9269 21.6763 74.1824 21.6763H74.3908C74.4463 21.6763 74.4741 21.7041 74.4741 21.7597V22.1013C74.4741 22.1569 74.4463 22.1847 74.3908 22.1847C74.3241 22.1902 74.2213 22.193 74.0825 22.193C73.6825 22.193 73.3797 22.118 73.1741 21.968C72.9686 21.818 72.8658 21.5402 72.8658 21.1347V18.493C72.8658 18.4708 72.8547 18.4597 72.8325 18.4597H72.3241C72.2686 18.4597 72.2408 18.4319 72.2408 18.3763V18.0513C72.2408 17.9958 72.2686 17.968 72.3241 17.968H72.8325C72.8547 17.968 72.8658 17.9569 72.8658 17.9347V16.968C72.8658 16.9124 72.8936 16.8847 72.9491 16.8847H73.3575C73.413 16.8847 73.4408 16.9124 73.4408 16.968V17.9347C73.4408 17.9569 73.4519 17.968 73.4741 17.968H74.4158C74.4713 17.968 74.4991 17.9958 74.4991 18.0513V18.3763Z" fill="#4F4F4F"/>
<path d="M81.5946 22.0847C81.6057 22.0958 81.6112 22.1124 81.6112 22.1347C81.6112 22.1458 81.6057 22.1569 81.5946 22.168C81.5835 22.1791 81.5668 22.1847 81.5446 22.1847H81.0529C81.0196 22.1847 80.9862 22.168 80.9529 22.1347C80.7418 21.8958 80.5807 21.7069 80.4696 21.568C80.4529 21.5513 80.4362 21.5513 80.4196 21.568C80.1529 21.8069 79.8835 21.9819 79.6112 22.093C79.3446 22.1986 79.0501 22.2513 78.7279 22.2513C78.2335 22.2513 77.8335 22.1374 77.5279 21.9097C77.2279 21.6763 77.0779 21.3402 77.0779 20.9013C77.0779 20.518 77.1862 20.1902 77.4029 19.918C77.6251 19.6458 77.9334 19.3763 78.3279 19.1097C78.3557 19.0986 78.3585 19.0847 78.3362 19.068C78.014 18.6736 77.8001 18.3763 77.6946 18.1763C77.589 17.9708 77.5362 17.7624 77.5362 17.5513C77.5362 17.1791 77.664 16.8763 77.9196 16.643C78.1751 16.4041 78.514 16.2847 78.9362 16.2847C79.3585 16.2847 79.7057 16.4041 79.9779 16.643C80.2501 16.8763 80.3862 17.1819 80.3862 17.5597C80.3862 17.8986 80.2834 18.193 80.0779 18.443C79.8723 18.693 79.5835 18.9458 79.2112 19.2013C79.189 19.2069 79.1862 19.2208 79.2029 19.243C79.4585 19.5597 79.7779 19.9374 80.1612 20.3763C80.3001 20.5486 80.3946 20.6624 80.4446 20.718C80.4612 20.7347 80.4779 20.7347 80.4946 20.718C80.7112 20.4458 80.8918 20.2069 81.0362 20.0013C81.0696 19.9569 81.1085 19.9486 81.1529 19.9763L81.4696 20.1597C81.5196 20.193 81.5279 20.2319 81.4946 20.2763C81.2612 20.6208 81.039 20.9097 80.8279 21.143V21.1597C80.8279 21.1763 80.839 21.1986 80.8612 21.2263C80.839 21.1986 81.0334 21.4291 81.4446 21.918L81.5946 22.0847ZM78.9529 16.8347C78.7029 16.8347 78.5029 16.9041 78.3529 17.043C78.2029 17.1763 78.1279 17.3597 78.1279 17.593C78.1279 17.7263 78.1696 17.868 78.2529 18.018C78.3362 18.168 78.5168 18.4152 78.7946 18.7597C78.8112 18.7763 78.8279 18.7791 78.8446 18.768C79.1501 18.5569 79.3835 18.3597 79.5446 18.1763C79.7112 17.993 79.7946 17.7874 79.7946 17.5597C79.7946 17.343 79.7168 17.168 79.5612 17.0347C79.4057 16.9013 79.2029 16.8347 78.9529 16.8347ZM78.7446 21.743C78.9835 21.743 79.2085 21.6958 79.4196 21.6013C79.6362 21.5013 79.8529 21.3541 80.0696 21.1597C80.0862 21.143 80.0862 21.1263 80.0696 21.1097L79.7779 20.7597C79.6279 20.5763 79.514 20.443 79.4362 20.3597L78.7362 19.5513C78.7307 19.5347 78.7168 19.5319 78.6946 19.543C78.3723 19.7597 78.1223 19.9736 77.9446 20.1847C77.7723 20.3958 77.6862 20.6347 77.6862 20.9013C77.6862 21.168 77.7807 21.3763 77.9696 21.5263C78.1584 21.6708 78.4168 21.743 78.7446 21.743Z" fill="#4F4F4F"/>
<path d="M84.6645 22.1847C84.609 22.1847 84.5812 22.1569 84.5812 22.1013V16.4347C84.5812 16.3791 84.609 16.3513 84.6645 16.3513H85.0896C85.1451 16.3513 85.1729 16.3791 85.1729 16.4347V21.6347C85.1729 21.6569 85.184 21.668 85.2062 21.668H88.1479C88.2034 21.668 88.2312 21.6958 88.2312 21.7513V22.1013C88.2312 22.1569 88.2034 22.1847 88.1479 22.1847H84.6645Z" fill="#4F4F4F"/>
<path d="M90.6592 17.9013C91.1592 17.9013 91.5453 18.0291 91.8175 18.2847C92.0898 18.5402 92.2259 18.8791 92.2259 19.3013V22.1013C92.2259 22.1569 92.1981 22.1847 92.1425 22.1847H91.7175C91.662 22.1847 91.6342 22.1569 91.6342 22.1013V21.7597C91.6342 21.7486 91.6287 21.7402 91.6175 21.7347C91.612 21.7291 91.6037 21.7319 91.5925 21.743C91.4537 21.9097 91.2731 22.0374 91.0509 22.1263C90.8287 22.2097 90.5814 22.2513 90.3092 22.2513C89.9148 22.2513 89.5842 22.1513 89.3175 21.9513C89.0509 21.7513 88.9175 21.4458 88.9175 21.0347C88.9175 20.618 89.0675 20.2902 89.3675 20.0513C89.6731 19.8069 90.0953 19.6847 90.6342 19.6847H91.6009C91.6231 19.6847 91.6342 19.6736 91.6342 19.6513V19.3347C91.6342 19.0513 91.5536 18.8291 91.3925 18.668C91.237 18.5013 90.9925 18.418 90.6592 18.418C90.3925 18.418 90.1759 18.4708 90.0092 18.5763C89.8425 18.6763 89.7398 18.818 89.7009 19.0013C89.6842 19.0569 89.6509 19.0819 89.6009 19.0763L89.1509 19.018C89.0898 19.0069 89.0648 18.9847 89.0759 18.9513C89.1203 18.6402 89.287 18.3874 89.5759 18.193C89.8648 17.9986 90.2259 17.9013 90.6592 17.9013ZM90.4259 21.743C90.7537 21.743 91.037 21.6624 91.2759 21.5013C91.5148 21.3347 91.6342 21.1124 91.6342 20.8347V20.1847C91.6342 20.1624 91.6231 20.1513 91.6009 20.1513H90.7259C90.3592 20.1513 90.0648 20.2263 89.8425 20.3763C89.6203 20.5263 89.5092 20.7347 89.5092 21.0013C89.5092 21.2458 89.5925 21.4319 89.7592 21.5597C89.9314 21.6819 90.1537 21.743 90.4259 21.743Z" fill="#4F4F4F"/>
<path d="M94.2832 22.1847C94.2388 22.1847 94.2082 22.1624 94.1916 22.118L93.0082 18.0597L92.9999 18.0347C92.9999 17.9902 93.0277 17.968 93.0832 17.968H93.5166C93.5666 17.968 93.5971 17.993 93.6082 18.043L94.4916 21.3263C94.4971 21.3374 94.5027 21.343 94.5082 21.343C94.5193 21.343 94.5277 21.3374 94.5332 21.3263L95.4332 18.043C95.4443 17.993 95.4749 17.968 95.5249 17.968H95.9249C95.9749 17.968 96.0055 17.9902 96.0166 18.0347L96.9249 21.318C96.9305 21.3291 96.9388 21.3347 96.9499 21.3347C96.961 21.3347 96.9693 21.3291 96.9749 21.318L97.8832 18.043C97.8943 17.993 97.9249 17.968 97.9749 17.968L98.4082 17.9763C98.436 17.9763 98.4555 17.9847 98.4666 18.0013C98.4832 18.018 98.4888 18.0402 98.4832 18.068L97.2832 22.118C97.2666 22.1624 97.236 22.1847 97.1916 22.1847H96.7499C96.7055 22.1847 96.6749 22.1624 96.6582 22.118L95.7499 19.0013C95.7443 18.9902 95.736 18.9847 95.7249 18.9847C95.7193 18.9847 95.7138 18.9902 95.7082 19.0013L94.8249 22.118C94.8082 22.1624 94.7777 22.1847 94.7332 22.1847H94.2832Z" fill="#4F4F4F"/>
<path d="M99.2224 23.8513C99.1835 23.8513 99.1641 23.8236 99.1641 23.768V23.4347C99.1641 23.3791 99.1919 23.3513 99.2474 23.3513H99.2808C99.4974 23.3458 99.6641 23.3124 99.7808 23.2513C99.903 23.1958 100.006 23.0874 100.089 22.9263C100.178 22.7708 100.272 22.5319 100.372 22.2097C100.384 22.1874 100.384 22.1708 100.372 22.1597L98.9641 18.0597L98.9558 18.0263C98.9558 17.9874 98.9808 17.968 99.0308 17.968H99.4724C99.5224 17.968 99.5558 17.9902 99.5724 18.0347L100.656 21.4013C100.661 21.4124 100.67 21.418 100.681 21.418C100.692 21.418 100.7 21.4124 100.706 21.4013L101.772 18.0347C101.789 17.9902 101.822 17.968 101.872 17.968H102.306C102.367 17.968 102.389 17.9986 102.372 18.0597L100.831 22.5513C100.697 22.9236 100.572 23.1986 100.456 23.3763C100.339 23.5541 100.192 23.6763 100.014 23.743C99.8419 23.8152 99.5974 23.8513 99.2808 23.8513H99.2224Z" fill="#4F4F4F"/>
<path d="M106.35 19.368C106.372 19.5236 106.384 19.718 106.384 19.9513V20.218C106.384 20.2736 106.356 20.3013 106.3 20.3013H103.609C103.586 20.3013 103.575 20.3124 103.575 20.3347C103.586 20.6402 103.603 20.8374 103.625 20.9263C103.686 21.1763 103.817 21.3736 104.017 21.518C104.217 21.6624 104.472 21.7347 104.784 21.7347C105.017 21.7347 105.222 21.6819 105.4 21.5763C105.578 21.4708 105.717 21.3208 105.817 21.1263C105.85 21.0763 105.889 21.0652 105.934 21.093L106.259 21.2847C106.303 21.3124 106.314 21.3513 106.292 21.4013C106.153 21.668 105.945 21.8791 105.667 22.0347C105.389 22.1847 105.07 22.2597 104.709 22.2597C104.314 22.2541 103.984 22.1597 103.717 21.9763C103.45 21.793 103.259 21.5374 103.142 21.2097C103.042 20.943 102.992 20.5597 102.992 20.0597C102.992 19.8263 102.995 19.6374 103 19.493C103.011 19.343 103.034 19.2097 103.067 19.093C103.161 18.7319 103.35 18.443 103.634 18.2263C103.922 18.0097 104.27 17.9013 104.675 17.9013C105.181 17.9013 105.57 18.0291 105.842 18.2847C106.114 18.5402 106.284 18.9013 106.35 19.368ZM104.675 18.418C104.403 18.418 104.175 18.4902 103.992 18.6347C103.814 18.7736 103.697 18.9624 103.642 19.2013C103.609 19.318 103.586 19.5069 103.575 19.768C103.575 19.7902 103.586 19.8013 103.609 19.8013H105.767C105.789 19.8013 105.8 19.7902 105.8 19.768C105.789 19.518 105.772 19.3402 105.75 19.2347C105.689 18.9847 105.564 18.7874 105.375 18.643C105.192 18.493 104.959 18.418 104.675 18.418Z" fill="#4F4F4F"/>
<path d="M109.26 17.9263C109.444 17.9263 109.602 17.9624 109.735 18.0347C109.78 18.0569 109.796 18.093 109.785 18.143L109.694 18.5513C109.677 18.6069 109.641 18.6236 109.585 18.6013C109.491 18.5624 109.382 18.543 109.26 18.543L109.152 18.5513C108.863 18.5624 108.624 18.6708 108.435 18.8763C108.246 19.0763 108.152 19.3319 108.152 19.643V22.1013C108.152 22.1569 108.124 22.1847 108.069 22.1847H107.644C107.588 22.1847 107.56 22.1569 107.56 22.1013V18.0513C107.56 17.9958 107.588 17.968 107.644 17.968H108.069C108.124 17.968 108.152 17.9958 108.152 18.0513V18.5597C108.152 18.5763 108.155 18.5874 108.16 18.593C108.171 18.593 108.18 18.5874 108.185 18.5763C108.302 18.3708 108.449 18.2124 108.627 18.1013C108.81 17.9847 109.021 17.9263 109.26 17.9263Z" fill="#4F4F4F"/>
</svg>
