<svg width="7" height="10" viewBox="0 0 7 10" fill="none" xmlns="http://www.w3.org/2000/svg">
<path d="M3.87963 8.87972L6.55149 6.2005C6.79771 5.95361 6.79904 5.54079 6.55443 5.29228C6.30981 5.04378 5.90079 5.04243 5.65458 5.28932L4.0679 6.87122L4.08686 0.999866C4.08802 0.642081 3.80716 0.356761 3.45268 0.355595C3.09819 0.354429 2.8155 0.637895 2.81435 0.995681L2.79539 6.86703L1.22805 5.27476C0.983438 5.02626 0.574417 5.02491 0.328204 5.2718C0.200538 5.39982 0.136379 5.56474 0.135845 5.72987C0.135312 5.895 0.198405 6.06034 0.325242 6.1892L2.97069 8.87673C3.08847 8.99638 3.25184 9.07031 3.42454 9.07088C3.59723 9.07145 3.76105 9.00777 3.87963 8.87972Z" fill="#76736F"/>
</svg>
