<svg width="157" height="106" viewBox="0 0 157 106" fill="none" xmlns="http://www.w3.org/2000/svg">
<path fill-rule="evenodd" clip-rule="evenodd" d="M93.9576 104.559L80.4238 96.0096L120.36 43.0444L109.097 43.0074L54.7345 79.1457L47.3948 74.2946L104.04 42.9907L94.1565 42.9582L62.6259 55.4965C62.6259 55.4965 61.6473 54.8629 61.0203 54.4569C60.3932 54.0509 59.4146 53.4173 59.4146 53.4173L90.0199 42.7148L81.5154 42.6868L24.6891 58.8196L21.9368 56.9717L76.69 42.2112L67.7257 42.1817L17.8083 54.1998L1.29308 43.5722L154.974 0.864907L93.9576 104.559ZM114.193 30.8418L125.919 29.9609L125.738 14.5601L113.546 17.7379L113.504 30.8395L114.193 30.8418ZM107.756 31.2803L97.1803 31.9351L97.2114 22.2813L107.794 19.5578L107.756 31.2803ZM82.489 25.9106L82.466 33.036L92.5817 32.3797L92.6099 23.6453L82.489 25.9106ZM79.0375 27.0485L73.0554 28.8676L73.0398 33.6946L79.0174 33.2545L79.0375 27.0485Z" fill="white" stroke="white"/>
</svg>
