<svg width="1346" height="697" viewBox="0 0 1346 697" fill="none" xmlns="http://www.w3.org/2000/svg">
<path d="M1321 3.85385C1318.61 0.475799 1313.92 -0.319416 1310.55 2.07768C1307.17 4.47478 1306.37 9.15647 1308.77 12.5345L1321 3.85385ZM288.804 341.321L284.412 335.241L288.804 341.321ZM1.52393 685.446C-0.383472 689.122 1.05093 693.649 4.72777 695.557C8.4046 697.465 12.9315 696.031 14.8389 692.354L1.52393 685.446ZM1121.06 264.558L1122.96 271.813L1121.06 264.558ZM21.351 679.912C23.2855 676.25 21.8845 671.712 18.2219 669.777C14.5592 667.843 10.0218 669.243 8.08735 672.906L21.351 679.912ZM21.5119 647.973C19.5179 651.604 20.8447 656.163 24.4753 658.158C28.1059 660.152 32.6656 658.825 34.6595 655.195L21.5119 647.973ZM48.3872 630.728C50.4479 627.135 49.2056 622.551 45.6124 620.49C42.0192 618.429 37.4359 619.671 35.3752 623.264L48.3872 630.728ZM49.7273 598.818C47.5928 602.368 48.7401 606.976 52.2899 609.111C55.8397 611.245 60.4478 610.098 62.5823 606.549L49.7273 598.818ZM77.2918 582.7C79.5071 579.2 78.4657 574.567 74.9657 572.351C71.4657 570.136 66.8326 571.177 64.6173 574.677L77.2918 582.7ZM80.0919 550.887C77.7893 554.33 78.714 558.988 82.1571 561.29C85.6003 563.593 90.2582 562.669 92.5607 559.226L80.0919 550.887ZM108.431 536.174C110.827 532.795 110.029 528.113 106.65 525.718C103.271 523.322 98.5901 524.118 96.1944 527.497L108.431 536.174ZM112.963 504.561C110.469 507.868 111.128 512.571 114.435 515.065C117.742 517.56 122.445 516.901 124.939 513.594L112.963 504.561ZM142.117 491.536C144.713 488.309 144.201 483.588 140.974 480.991C137.746 478.395 133.025 478.906 130.429 482.134L142.117 491.536ZM148.616 460.269C145.914 463.409 146.27 468.145 149.41 470.846C152.55 473.548 157.285 473.193 159.987 470.053L148.616 460.269ZM178.564 449.193C181.372 446.148 181.18 441.403 178.135 438.595C175.09 435.787 170.345 435.979 167.537 439.024L178.564 449.193ZM187.196 418.448C184.282 421.391 184.305 426.14 187.248 429.055C190.192 431.969 194.94 431.946 197.855 429.003L187.196 418.448ZM217.856 409.525C220.875 406.69 221.024 401.944 218.189 398.924C215.354 395.904 210.607 395.755 207.588 398.59L217.856 409.525ZM228.695 379.489C225.573 382.211 225.249 386.949 227.972 390.071C230.694 393.193 235.432 393.517 238.554 390.795L228.695 379.489ZM259.928 372.839C263.149 370.234 263.647 365.512 261.041 362.291C258.436 359.071 253.713 358.573 250.493 361.178L259.928 372.839ZM272.949 343.68C269.636 346.166 268.965 350.867 271.451 354.181C273.937 357.494 278.638 358.165 281.952 355.679L272.949 343.68ZM305.625 338.708C309.056 336.387 309.955 331.724 307.634 328.294C305.312 324.863 300.649 323.963 297.219 326.285L305.625 338.708ZM323.388 309.76C319.816 311.858 318.621 316.454 320.719 320.026C322.817 323.597 327.413 324.793 330.984 322.695L323.388 309.76ZM357.314 308.391C361.019 306.538 362.519 302.033 360.666 298.328C358.812 294.624 354.307 293.123 350.602 294.976L357.314 308.391ZM378.77 282.078C374.947 283.671 373.138 288.062 374.732 291.885C376.325 295.709 380.716 297.517 384.539 295.924L378.77 282.078ZM412.557 285.381C416.482 284.058 418.591 279.803 417.268 275.878C415.944 271.953 411.69 269.844 407.765 271.167L412.557 285.381ZM437.439 262.285C433.433 263.337 431.039 267.438 432.091 271.444C433.144 275.451 437.244 277.845 441.251 276.793L437.439 262.285ZM470.517 270.131C474.584 269.343 477.241 265.407 476.453 261.341C475.664 257.274 471.728 254.617 467.662 255.405L470.517 270.131ZM498.209 250.455C494.103 250.995 491.211 254.761 491.751 258.868C492.291 262.975 496.058 265.867 500.165 265.327L498.209 250.455ZM530.08 262.245C534.21 261.932 537.304 258.33 536.991 254.2C536.677 250.069 533.075 246.975 528.945 247.288L530.08 262.245ZM559.757 245.72C555.617 245.832 552.352 249.28 552.464 253.421C552.577 257.561 556.025 260.827 560.166 260.714L559.757 245.72ZM590.35 260.54C594.492 260.6 597.897 257.29 597.957 253.149C598.016 249.007 594.707 245.601 590.565 245.541L590.35 260.54ZM621.297 246.533C617.16 246.33 613.642 249.52 613.44 253.657C613.237 257.794 616.427 261.312 620.564 261.515L621.297 246.533ZM650.787 263.429C654.917 263.745 658.521 260.654 658.837 256.524C659.153 252.393 656.061 248.789 651.931 248.473L650.787 263.429ZM682.463 251.146C678.341 250.744 674.673 253.761 674.272 257.883C673.87 262.006 676.887 265.674 681.009 266.075L682.463 251.146ZM711.235 269.253C715.352 269.712 719.061 266.748 719.521 262.632C719.981 258.515 717.016 254.805 712.899 254.345L711.235 269.253ZM743.255 257.871C739.142 257.379 735.409 260.315 734.918 264.428C734.426 268.541 737.362 272.273 741.475 272.765L743.255 257.871ZM771.745 276.423C775.857 276.921 779.594 273.992 780.092 269.88C780.59 265.768 777.66 262.03 773.548 261.532L771.745 276.423ZM803.79 265.142C799.676 264.663 795.952 267.609 795.473 271.723C794.993 275.838 797.94 279.562 802.054 280.041L803.79 265.142ZM832.436 283.44C836.555 283.877 840.248 280.892 840.685 276.773C841.122 272.654 838.137 268.96 834.018 268.523L832.436 283.44ZM864.245 271.498C860.12 271.128 856.475 274.172 856.105 278.298C855.735 282.423 858.779 286.068 862.905 286.438L864.245 271.498ZM893.469 288.859C897.602 289.138 901.179 286.015 901.458 281.882C901.738 277.75 898.614 274.173 894.481 273.893L893.469 288.859ZM924.725 275.536C920.587 275.37 917.097 278.591 916.932 282.73C916.766 286.869 919.988 290.358 924.126 290.524L924.725 275.536ZM954.863 291.258C959.005 291.287 962.386 287.952 962.414 283.81C962.442 279.668 959.108 276.287 954.966 276.258L954.863 291.258ZM985.174 275.9C981.034 276.03 977.783 279.492 977.914 283.632C978.045 287.772 981.507 291.023 985.647 290.892L985.174 275.9ZM1016.41 289.268C1020.54 288.959 1023.64 285.359 1023.33 281.229C1023.02 277.098 1019.42 274.001 1015.29 274.31L1016.41 289.268ZM1045.27 271.354C1041.16 271.86 1038.23 275.603 1038.74 279.714C1039.25 283.825 1042.99 286.748 1047.1 286.242L1045.27 271.354ZM1077.63 281.694C1081.71 280.977 1084.43 277.089 1083.72 273.009C1083 268.93 1079.11 266.203 1075.03 266.92L1077.63 281.694ZM1104.5 260.922C1100.47 261.859 1097.96 265.889 1098.89 269.924C1099.83 273.959 1103.86 276.47 1107.89 275.533L1104.5 260.922ZM1138.84 267.477C1142.82 266.344 1145.13 262.195 1144 258.211C1142.86 254.227 1138.72 251.917 1134.73 253.05L1138.84 267.477ZM1164.94 243.694C1161.02 245.016 1158.91 249.27 1160.23 253.196C1161.55 257.121 1165.81 259.231 1169.73 257.909L1164.94 243.694ZM1200.05 246.735C1203.89 245.186 1205.75 240.816 1204.2 236.974C1202.65 233.133 1198.28 231.274 1194.44 232.824L1200.05 246.735ZM1223.31 219.977C1219.59 221.805 1218.06 226.301 1219.89 230.017C1221.72 233.734 1226.21 235.265 1229.93 233.436L1223.31 219.977ZM1258.53 217.72C1262.06 215.548 1263.16 210.929 1260.98 207.401C1258.81 203.874 1254.19 202.774 1250.67 204.946L1258.53 217.72ZM1276.16 187.072C1272.94 189.667 1272.42 194.388 1275.02 197.616C1277.61 200.844 1282.33 201.358 1285.56 198.763L1276.16 187.072ZM1309.71 175.968C1312.46 172.873 1312.19 168.133 1309.09 165.379C1306 162.626 1301.26 162.903 1298.5 165.997L1309.71 175.968ZM1316.19 141.38C1314.17 144.995 1315.46 149.564 1319.08 151.586C1322.69 153.609 1327.26 152.317 1329.28 148.702L1316.19 141.38ZM1341.92 117.307C1342.95 113.295 1340.53 109.208 1336.52 108.178C1332.51 107.149 1328.42 109.567 1327.39 113.58L1341.92 117.307ZM1330.88 83.7934C1330.94 87.9351 1334.35 91.2427 1338.49 91.1813C1342.64 91.1198 1345.94 87.7125 1345.88 83.5708L1330.88 83.7934ZM1341.3 50.146C1340.27 46.1345 1336.18 43.7191 1332.17 44.7511C1328.15 45.7831 1325.74 49.8717 1326.77 53.8832L1341.3 50.146ZM1316.1 25.3324C1317.95 29.041 1322.45 30.5519 1326.16 28.7071C1329.87 26.8622 1331.38 22.3602 1329.53 18.6516L1316.1 25.3324ZM14.8389 692.354C17.0011 688.186 19.1715 684.039 21.351 679.912L8.08735 672.906C5.89002 677.066 3.70254 681.246 1.52393 685.446L14.8389 692.354ZM34.6595 655.195C39.1865 646.952 43.7596 638.796 48.3872 630.728L35.3752 623.264C30.6992 631.418 26.0809 639.654 21.5119 647.973L34.6595 655.195ZM62.5823 606.549C67.4175 598.508 72.3178 590.558 77.2918 582.7L64.6173 574.677C59.5793 582.636 54.6189 590.684 49.7273 598.818L62.5823 606.549ZM92.5607 559.226C97.763 551.447 103.05 543.763 108.431 536.174L96.1944 527.497C90.7317 535.202 85.3673 542.998 80.0919 550.887L92.5607 559.226ZM124.939 513.594C130.557 506.144 136.28 498.791 142.117 491.536L130.429 482.134C124.491 489.514 118.673 496.99 112.963 504.561L124.939 513.594ZM159.987 470.053C166.053 463.002 172.243 456.048 178.564 449.193L167.537 439.024C161.096 446.008 154.792 453.09 148.616 460.269L159.987 470.053ZM197.855 429.003C204.38 422.414 211.044 415.921 217.856 409.525L207.588 398.59C200.642 405.112 193.848 411.731 187.196 418.448L197.855 429.003ZM238.554 390.795C245.525 384.716 252.647 378.731 259.928 372.839L250.493 361.178C243.068 367.186 235.804 373.29 228.695 379.489L238.554 390.795ZM281.952 355.679C285.659 352.897 289.407 350.138 293.196 347.401L284.412 335.241C280.55 338.031 276.729 340.844 272.949 343.68L281.952 355.679ZM293.196 347.401C297.338 344.408 301.481 341.512 305.625 338.708L297.219 326.285C292.947 329.175 288.678 332.16 284.412 335.241L293.196 347.401ZM330.984 322.695C339.755 317.545 348.531 312.785 357.314 308.391L350.602 294.976C341.518 299.521 332.447 304.441 323.388 309.76L330.984 322.695ZM384.539 295.924C393.867 292.039 403.206 288.534 412.557 285.381L407.765 271.167C398.088 274.429 388.423 278.056 378.77 282.078L384.539 295.924ZM441.251 276.793C450.988 274.236 460.743 272.025 470.517 270.131L467.662 255.405C457.578 257.359 447.504 259.642 437.439 262.285L441.251 276.793ZM500.165 265.327C510.114 264.019 520.085 263.003 530.08 262.245L528.945 247.288C518.692 248.065 508.446 249.109 498.209 250.455L500.165 265.327ZM560.166 260.714C570.202 260.442 580.263 260.394 590.35 260.54L590.565 245.541C580.288 245.393 570.018 245.441 559.757 245.72L560.166 260.714ZM620.564 261.515C630.612 262.007 640.686 262.655 650.787 263.429L651.931 248.473C641.71 247.69 631.499 247.032 621.297 246.533L620.564 261.515ZM681.009 266.075C691.058 267.055 701.132 268.124 711.235 269.253L712.899 254.345C702.743 253.211 692.597 252.134 682.463 251.146L681.009 266.075ZM741.475 272.765C751.541 273.968 761.624 275.197 771.745 276.423L773.548 261.532C763.441 260.308 753.336 259.076 743.255 257.871L741.475 272.765ZM802.054 280.041C812.153 281.219 822.281 282.362 832.436 283.44L834.018 268.523C823.928 267.453 813.853 266.316 803.79 265.142L802.054 280.041ZM862.905 286.438C873.064 287.35 883.252 288.167 893.469 288.859L894.481 273.893C884.388 273.21 874.31 272.402 864.245 271.498L862.905 286.438ZM924.126 290.524C934.342 290.932 944.588 291.187 954.863 291.258L954.966 276.258C944.87 276.189 934.79 275.938 924.725 275.536L924.126 290.524ZM985.647 290.892C995.872 290.57 1006.13 290.039 1016.41 289.268L1015.29 274.31C1005.23 275.063 995.195 275.584 985.174 275.9L985.647 290.892ZM1047.1 286.242C1057.25 284.993 1067.43 283.486 1077.63 281.694L1075.03 266.92C1065.09 268.666 1055.17 270.135 1045.27 271.354L1047.1 286.242ZM1107.89 275.533C1112.91 274.369 1117.93 273.13 1122.96 271.813L1119.16 257.303C1114.27 258.584 1109.38 259.789 1104.5 260.922L1107.89 275.533ZM1122.96 271.813C1128.38 270.394 1133.67 268.949 1138.84 267.477L1134.73 253.05C1129.67 254.492 1124.47 255.91 1119.16 257.303L1122.96 271.813ZM1169.73 257.909C1180.44 254.301 1190.54 250.572 1200.05 246.735L1194.44 232.824C1185.21 236.545 1175.39 240.174 1164.94 243.694L1169.73 257.909ZM1229.93 233.436C1240.3 228.335 1249.81 223.087 1258.53 217.72L1250.67 204.946C1242.38 210.048 1233.28 215.07 1223.31 219.977L1229.93 233.436ZM1285.56 198.763C1294.85 191.298 1302.85 183.677 1309.71 175.968L1298.5 165.997C1292.23 173.044 1284.84 180.094 1276.16 187.072L1285.56 198.763ZM1329.28 148.702C1335.2 138.124 1339.28 127.593 1341.92 117.307L1327.39 113.58C1325.07 122.629 1321.46 131.95 1316.19 141.38L1329.28 148.702ZM1345.88 83.5708C1345.7 71.4252 1343.87 60.1448 1341.3 50.146L1326.77 53.8832C1329.1 62.9178 1330.72 73.0104 1330.88 83.7934L1345.88 83.5708ZM1329.53 18.6516C1327.25 14.053 1325.15 10.4133 1323.62 7.89697C1322.85 6.63812 1322.22 5.65834 1321.77 4.97813C1321.54 4.63796 1321.36 4.37251 1321.23 4.18433C1321.17 4.09023 1321.12 4.01543 1321.08 3.96025C1321.06 3.93266 1321.04 3.90997 1321.03 3.89222C1321.02 3.88335 1321.02 3.87571 1321.01 3.86931C1321.01 3.86612 1321.01 3.86323 1321.01 3.86065C1321.01 3.85936 1321.01 3.85815 1321 3.85701C1321 3.85645 1321 3.85566 1321 3.85537C1321 3.8546 1321 3.85385 1314.89 8.19418C1308.77 12.5345 1308.77 12.5338 1308.77 12.5331C1308.77 12.5329 1308.77 12.5322 1308.77 12.5318C1308.77 12.531 1308.77 12.5302 1308.77 12.5296C1308.77 12.5282 1308.76 12.5272 1308.76 12.5264C1308.76 12.5249 1308.76 12.5246 1308.76 12.5256C1308.76 12.5274 1308.77 12.534 1308.78 12.5455C1308.79 12.5683 1308.82 12.6102 1308.86 12.6709C1308.95 12.7923 1309.08 12.9886 1309.26 13.2573C1309.61 13.7949 1310.15 14.6214 1310.82 15.7166C1312.16 17.9083 1314.03 21.1675 1316.1 25.3324L1329.53 18.6516Z" fill="#F2C245"/>
</svg>
