<svg width="157" height="106" viewBox="0 0 157 106" fill="none" xmlns="http://www.w3.org/2000/svg">
<path fill-rule="evenodd" clip-rule="evenodd" d="M94.17 105.075L80.6362 96.5258L120.572 43.5606L109.309 43.5236L54.9469 79.6619L47.6072 74.8108L104.253 43.5069L94.369 43.4744L62.8383 56.0127C62.8383 56.0127 61.8597 55.3791 61.2327 54.9731C60.6056 54.5671 59.627 53.9335 59.627 53.9335L90.2323 43.231L81.7278 43.203L24.9015 59.3358L22.1492 57.4879L76.9024 42.7274L67.9381 42.6979L18.0207 54.716L1.50548 44.0884L155.187 1.3811L94.17 105.075ZM114.405 31.358L126.131 30.4771L125.951 15.0763L113.758 18.2541L113.716 31.3557L114.405 31.358ZM107.968 31.7965L97.3927 32.4513L97.4238 22.7975L108.006 20.074L107.968 31.7965ZM82.7014 26.4268L82.6784 33.5522L92.7941 32.8959L92.8223 24.1615L82.7014 26.4268ZM79.2499 27.5647L73.2678 29.3838L73.2522 34.2107L79.2298 33.7707L79.2499 27.5647Z" fill="white" stroke="white"/>
</svg>
